<?xml version="1.0" standalone="no"?>
<!DOCTYPE svg PUBLIC "-//W3C//DTD SVG 1.1//EN" "http://www.w3.org/Graphics/SVG/1.1/DTD/svg11.dtd" >
<svg>
<metadata>
Created by FontForge 20090914 at Sat Aug  3 06:49:28 2013
 By www-data
Copyright (c) 2011, Juan Pablo del Peral (juan@huertatipografica.com.ar), with Reserved Font Names "Alegreya" "Alegreya SC"
</metadata>
<defs>
<font id="AlegreyaSC-Bold" horiz-adv-x="398" >
  <font-face 
    font-family="Alegreya SC"
    font-weight="700"
    font-stretch="normal"
    units-per-em="1000"
    panose-1="2 0 5 3 5 0 0 2 0 4"
    ascent="800"
    descent="-200"
    x-height="505.001"
    cap-height="649.001"
    bbox="-205 -318.004 1042 976.997"
    underline-thickness="56"
    underline-position="-59"
    unicode-range="U+0020-U+FB02"
  />
<missing-glyph horiz-adv-x="174" 
 />
    <glyph glyph-name=".notdef" horiz-adv-x="174" 
 />
    <glyph glyph-name="space" unicode=" " horiz-adv-x="174" 
 />
    <glyph glyph-name="exclam" unicode="!" horiz-adv-x="285" 
d="M183 12c-14.667 -15.333 -34.167 -23 -58.5 -23s-42.833 6.83301 -55.5 20.5s-19 32.334 -19 56.001s7.33301 43.167 22 58.5s34 23 58 23s42.5 -6.83301 55.5 -20.5s19.5 -32.334 19.5 -56.001s-7.33301 -43.167 -22 -58.5zM93 236l-21 430l12 17l134 22l16 -18
l-62 -453l-64 -11z" />
    <glyph glyph-name="quotedbl" unicode="&#x22;" horiz-adv-x="321" 
d="M50 412v47c0 58.667 -2.33301 119 -7 181l100 14l8 -10c-10 -73.333 -22.667 -145.333 -38 -216l-48 -20zM195 412v47c0 58.667 -2.33301 119 -7 181l100 14l8 -10c-10 -73.333 -22.667 -145.333 -38 -216l-48 -20z" />
    <glyph glyph-name="numbersign" unicode="#" horiz-adv-x="526" 
d="M49 351l-6 11l15 70l99 -1l27 139l73 7l11 -6l-31 -140h47l47 -1l27 140l73 7l11 -6l-31 -140l97 2l5 -12l-14 -70h-104l-18 -93l97 1l5 -12l-14 -69h-102l-26 -134l-71 -11l-10 8l28 137l-56 1l-38 -1l-26 -134l-71 -11l-10 8l28 137l-96 -1l-6 12l15 69l101 -1l19 94
h-95zM222 352l-19 -95h44l52 -1l18 96h-95z" />
    <glyph glyph-name="dollar" unicode="$" horiz-adv-x="466" 
d="M145 92.5c12.667 -14.333 33.0039 -21.498 61.0039 -21.498s49 4.66699 63 14s21 21.666 21 36.999c0 12 -3.66699 21.167 -11 27.5l-16.5 14.5c-3.66699 3.33301 -10.334 7.33301 -20.001 12s-16.834 8 -21.501 10c-6 3.33301 -26.333 12.666 -61 27.999
s-63.334 33.5 -86.001 54.5s-34 50.167 -34 87.5s16.333 70 49 98s76 45.667 130 53l16 142l69 9l6 -9l-15 -140c42 -1.33301 81.667 -8 119 -20l7 -12c-10 -42.667 -17 -87.334 -21 -134.001l-70 -6l-8 6c0.666992 7.33301 1 14.666 1 21.999c0 21.333 -6 36.833 -18 46.5
s-29.833 14.5 -53.5 14.5s-42.334 -4.5 -56.001 -13.5s-20.5 -19.333 -20.5 -31s2.5 -21.167 7.5 -28.5s14.167 -15 27.5 -23c15.333 -8.66699 36.666 -19 63.999 -31s47.833 -21.5 61.5 -28.5s28.5 -16.5 44.5 -28.5c32 -24 48 -56.167 48 -96.5s-17 -74.333 -51 -102
s-80.333 -44.167 -139 -49.5l-16 -145l-68 -8l-6 7l15 144c-41.333 2.66699 -81.666 12.334 -120.999 29.001l-8 12c8.66699 47.333 13.667 91 15 131l77 6c0 -37.333 6.33301 -63.166 19 -77.499z" />
    <glyph glyph-name="percent" unicode="%" horiz-adv-x="713" 
d="M172 408c54.667 0 82 22 82 66c0 23.333 -8 42 -24 56s-39 21 -69 21c-53.333 0 -80 -21.667 -80 -65c0 -26 8.5 -45.5 25.5 -58.5s38.833 -19.5 65.5 -19.5zM275 360c-28 -34 -65.333 -51 -112 -51s-82.5 14.833 -107.5 44.5s-37.5 70.667 -37.5 123s14.333 95 43 128
s66.5 49.5 113.5 49.5s82.5 -14.833 106.5 -44.5s36 -70.167 36 -121.5s-14 -94 -42 -128zM562 88c54 0 81 21.668 81 65.001c0 23.333 -8 42.166 -24 56.499s-38 21.5 -66 21.5s-48.833 -5.83301 -62.5 -17.5s-20.5 -29.167 -20.5 -52.5s8.5 -41.333 25.5 -54
s39.167 -19 66.5 -19zM665 39.001c-28 -34 -65.334 -51.002 -112.001 -51.002s-82.5 14.833 -107.5 44.5s-37.5 70.834 -37.5 123.501s14.333 95.334 43 128.001s66.334 49 113.001 49s82.167 -14.833 106.5 -44.5s36.5 -70.167 36.5 -121.5s-14 -94 -42 -128z
M606.999 652.999l7 -19l-266 -407l-202 -320l-65 27l-5 14l207 316l262 414z" />
    <glyph glyph-name="ampersand" unicode="&#x26;" horiz-adv-x="650" 
d="M288 -12c-78 0 -140.502 23.8311 -187.502 71.498s-70.5 110.5 -70.5 188.5c0 60.667 18.833 113.334 56.5 158.001s82.167 67 133.5 67c26.667 0 48.5 -6.83301 65.5 -20.5s25.5 -31.167 25.5 -52.5l-5 -23l5 -3c45.333 42.667 78.833 83.5 100.5 122.5
s33.834 82.167 36.501 129.5l10 10h34c32 -52 48 -84.833 48 -98.5s-9 -32.167 -27 -55.5c-38 -58.667 -84.667 -112 -140 -160s-130.666 -99.667 -225.999 -155c33.333 -59.333 88 -89 164 -89c48 0 86.833 12.667 116.5 38s47.5 61 53.5 107l-36 4
c-6 0 -13.667 -3.16699 -23 -9.5s-20 -16.166 -32 -29.499h-6l-34 39v4l73 80l15 5c12.667 0 44.334 -3.16699 95.001 -9.5s80.334 -9.5 89.001 -9.5c14.667 0 33 10 55 30l11 10h7l31 -38l1 -5l-71 -80l-17 -6l-71 7c-16.667 -66 -51.334 -120.333 -104.001 -163
s-111.334 -64 -176.001 -64zM136.998 346.998c-14 -18.667 -21 -40.167 -21 -64.5s2 -45.5 6 -63.5c42 26 70.333 46.833 85 62.5s22 33.167 22 52.5c0 27.333 -12.667 41 -38 41c-22 0 -40 -9.33301 -54 -28z" />
    <glyph glyph-name="quotesingle" unicode="'" horiz-adv-x="176" 
d="M50 412v47c0 58.667 -2.33301 119 -7 181l100 14l8 -10c-10 -73.333 -22.667 -145.333 -38 -216l-48 -20z" />
    <glyph glyph-name="parenleft" unicode="(" horiz-adv-x="309" 
d="M70 163l-0.000976562 173.002c0 46 6.16699 88.167 18.5 126.5s27.166 68.5 44.499 90.5c35.333 45.333 67.666 74.333 96.999 87l18 9h11l31 -46l-1 -6c-9.33301 -4.66699 -21.166 -14.334 -35.499 -29.001s-26.166 -30.334 -35.499 -47.001s-18 -40.167 -26 -70.5
s-12 -63.5 -12 -99.5v-173c0 -39.333 3.83301 -75.5 11.5 -108.5s17.167 -59.167 28.5 -78.5c23.333 -40 44 -66.333 62 -79l12 -8v-8l-41 -42h-8c-18 7.33301 -37.667 19.833 -59 37.5s-39.666 37 -54.999 58s-29.333 50.5 -42 88.5s-19 79.667 -19 125z" />
    <glyph glyph-name="parenright" unicode=")" horiz-adv-x="309" 
d="M239 340l0.00195312 -173.003c0 -46 -6.16699 -88.167 -18.5 -126.5s-27.166 -68.5 -44.499 -90.5c-35.333 -45.333 -67.333 -74.666 -96 -87.999l-19 -8h-11l-31 46l1 6c9.33301 4.66699 21.166 14.334 35.499 29.001s26.166 30.334 35.499 47.001s18 40.167 26 70.5
s12 63.5 12 99.5v173c0 39.333 -3.83301 75.5 -11.5 108.5s-17.167 59.167 -28.5 78.5c-23.333 40 -44.333 66.333 -63 79l-11 8v8l41 42h8c18 -7.33301 37.667 -19.833 59 -37.5s39.666 -37 54.999 -58s29.333 -50.5 42 -88.5s19 -79.667 19 -125z" />
    <glyph glyph-name="asterisk" unicode="*" horiz-adv-x="412" 
d="M62 673c33.333 -17.333 67.667 -39.333 103 -66l-8 -41l-7 -6l-109 30c0 30 4 56.667 12 80zM62.001 469c26.667 26 58.333 51.667 95 77l36 -20l3 -8l-61 -95c-28.667 9.33301 -53 21.333 -73 36v10zM256 406c-16.667 33.333 -31.333 71.333 -44 114l30 29h10l70 -88
c-17.333 -24.667 -36 -44 -56 -58zM376.001 571c-28 -4.66699 -68.667 -7 -122 -7l-18 37l3 10l105 40c18 -24.667 30.667 -48.667 38 -72zM257.001 736c-7.33301 -36.667 -18 -76 -32 -118l-42 -5l-7 4l-6 113c29.333 9.33301 56 14 80 14z" />
    <glyph glyph-name="plus" unicode="+" horiz-adv-x="506" 
d="M292 497l13 -7c-3.33301 -70.667 -5.33301 -132 -6 -184l183 6l7 -12l-10 -92l-180 -1l1 -168l-88 -15l-11 8c0 62 0.333008 120.333 1 175l-178 -1l-7 11l14 90c60 -0.666992 117 -1 171 -1l1 180z" />
    <glyph glyph-name="comma" unicode="," horiz-adv-x="238" 
d="M48 108c30 22.667 55.668 34 77.001 34s38.166 -8 50.499 -24s18.5 -39.5 18.5 -70.5s-14.667 -63.833 -44 -98.5s-65.666 -64.334 -108.999 -89.001l-37 30v17c21.333 14.667 38.666 32.334 51.999 53.001s20 42.667 20 66s-10.333 46 -31 68z" />
    <glyph glyph-name="hyphen" unicode="-" horiz-adv-x="324" 
d="M280 313l9 -13l-8 -80l-237 -26l-9 12l7 78z" />
    <glyph glyph-name="period" unicode="." horiz-adv-x="238" 
d="M116 -11c-24.667 0 -43.332 6.83301 -55.999 20.5s-19 32.334 -19 56.001s7.33301 43.167 22 58.5s34 23 58 23s42.667 -6.83301 56 -20.5s20 -32.334 20 -56.001s-7.33301 -43.167 -22 -58.5s-34.334 -23 -59.001 -23z" />
    <glyph glyph-name="slash" unicode="/" horiz-adv-x="329" 
d="M306 675l13 -14.999l-122 -445l-83 -325h-85l-9 11c34 115.333 64 223.666 90 324.999l115 449h81z" />
    <glyph glyph-name="zero" unicode="0" horiz-adv-x="501" 
d="M410 63.5c-43.333 -50.333 -99.167 -75.5 -167.5 -75.5s-121.5 22.167 -159.5 66.5s-57 106.333 -57 186s21.833 144.5 65.5 194.5s99.667 75 168 75s121.333 -22 159 -66s56.5 -105.833 56.5 -185.5s-21.667 -144.667 -65 -195zM146.999 155
c26.667 -24 62.334 -36 107.001 -36s79.167 10.667 103.5 32s36.5 51.833 36.5 91.5s-13.333 71.5 -40 95.5s-62.334 36 -107.001 36s-79.167 -10.833 -103.5 -32.5s-36.5 -52.167 -36.5 -91.5s13.333 -71 40 -95z" />
    <glyph glyph-name="one" unicode="1" horiz-adv-x="365" 
d="M246 132c0 -24.667 3.16504 -42 9.49805 -52s17.833 -15 34.5 -15l49 3l2 -5l-11 -67c-62 2.66699 -106 4 -132 4c-38 -0 -93.667 -3.66699 -167 -11l8 63c34 3.33301 57.333 11.333 70 24s19 35.334 19 68.001v215c0 23.333 -3.66699 38.666 -11 45.999
s-20.666 11 -39.999 11l-50 -5l-6 7l6 57c52.667 5.33301 138.334 17 257.001 35l10 -30c-21.333 -17.333 -34 -43.333 -38 -78c-6.66699 -75.333 -10 -165.333 -10 -270z" />
    <glyph glyph-name="two" unicode="2" horiz-adv-x="484" 
d="M238 343c0 40.667 -20.668 61.002 -62.001 61.002c-19.333 0 -39.166 -6.83301 -59.499 -20.5s-37.833 -32.5 -52.5 -56.5h-14l-17 74c26 34 56.167 60.667 90.5 80s72 29 113 29s75.833 -11.833 104.5 -35.5s43 -53 43 -88s-12.667 -71.333 -38 -109
s-75 -96.5 -149 -176.5l4 -8h96c31.333 0 53.5 6.16699 66.5 18.5s22.833 36.5 29.5 72.5l76 7c-14 -71.333 -23.333 -134 -28 -188l-14 -12c-164 6 -277.333 9 -340 9l-64 -9l-8 33l75 83c53.333 61.333 91.333 110.166 114 146.499s34 66.166 34 89.499z" />
    <glyph glyph-name="three" unicode="3" horiz-adv-x="431" 
d="M61 365l-12.001 -0.999023l-21 71c20 15.333 48.5 31.666 85.5 48.999s74.167 26 111.5 26s69.5 -10.667 96.5 -32s40.5 -47.666 40.5 -78.999s-10 -59.333 -30 -84s-46.667 -44 -80 -58v-8c92.667 -24.667 139 -68.667 139 -132c0 -52.667 -31.667 -102 -95 -148
s-131.333 -69 -204 -69c-28 0 -47.833 7.66699 -59.5 23s-18.834 41.666 -21.501 78.999l14 14c25.333 -8.66699 56.333 -13 93 -13s68.834 9 96.501 27s41.5 40.667 41.5 68s-12 47.5 -36 60.5s-61.333 19.5 -112 19.5l-9 10l-7 62l65 14
c22.667 10 40.834 23.833 54.501 41.5s20.5 35.167 20.5 52.5s-5.83301 31 -17.5 41s-26.167 15 -43.5 15c-35.333 0 -72 -16.333 -110 -49z" />
    <glyph glyph-name="four" unicode="4" horiz-adv-x="468" 
d="M270 508c0.666992 0 2.66699 0.666992 6 2l84 -11v-342h82l8 -11l-9 -83c-21.333 0.666992 -48 1.66699 -80 3l6 -145l-8 -9l-115 -12l-8 10c2.66699 58 4.66699 111 6 159c-105.333 2.66699 -185.333 4 -240 4l3 67zM242 157v178h-10l-125 -178h135z" />
    <glyph glyph-name="five" unicode="5" horiz-adv-x="427" 
d="M383 130c0 -58 -32.167 -110.832 -96.5 -158.499s-132.833 -71.5 -205.5 -71.5c-26.667 0 -46 7.5 -58 22.5s-19.333 41.5 -22 79.5l13 14c26 -8.66699 57.667 -13 95 -13s70.333 9 99 27s43 40.5 43 67.5s-14 48 -42 63s-77 27.5 -147 37.5l-9 11l20 270l8 8l193 7
c19.333 1.33301 33.333 4.66602 42 9.99902s15.667 15.333 21 30l55 4l-26 -147l-13 -13c-60.667 5.33301 -127 8 -199 8l-8 -89c80 -16 139.5 -36.667 178.5 -62s58.5 -60.333 58.5 -105z" />
    <glyph glyph-name="six" unicode="6" horiz-adv-x="464" 
d="M439 191c0 -59.333 -19.834 -108.002 -59.501 -146.002s-90.5 -57 -152.5 -57s-110.667 20 -146 60s-53 92 -53 156c0 41.333 6.33301 80.333 19 117s29.167 67.834 49.5 93.501s43 49.334 68 71.001s49.833 39.167 74.5 52.5c54.667 29.333 93.667 47.333 117 54l19 6
l10 -5l20 -55c-12 -3.33301 -30.5 -12.166 -55.5 -26.499s-46.5 -28.833 -64.5 -43.5s-37.167 -34.334 -57.5 -59.001s-36.166 -51 -47.499 -79l5 -6c2 0.666992 8.33301 4 19 10c31.333 16 53.333 25 66 27c52 0 93.167 -16.5 123.5 -49.5s45.5 -73.167 45.5 -120.5z
M295.999 242.998c-16 20 -37.5 30 -64.5 30s-53.5 -9.33301 -79.5 -28c-1.33301 -18.667 -2 -32.667 -2 -42c0 -42 7.83301 -74.833 23.5 -98.5s37 -35.5 64 -35.5s47.5 8.33301 61.5 25s21 40.667 21 72s-8 57 -24 77z" />
    <glyph glyph-name="seven" unicode="7" horiz-adv-x="427" 
d="M172 498l217 0.00292969l39 -48c-72.667 -150.667 -138 -296.334 -196 -437.001l-31 -113h-17l-91 27l-11 25l224 442l-134 -8c-31.333 -2.66699 -52.166 -9.33398 -62.499 -20.001s-18.5 -33.334 -24.5 -68.001l-60 -6c9.33301 76 15.666 144.333 18.999 205l6 5
c40 -2.66699 80.667 -4 122 -4z" />
    <glyph glyph-name="eight" unicode="8" horiz-adv-x="479" 
d="M38 130c0 65.333 37.334 114.669 112.001 148.002c-66 41.333 -99 91.666 -99 150.999c0 46 19.167 85.667 57.5 119s83.666 50 135.999 50s95.5 -13 129.5 -39s51 -59.667 51 -101c0 -58.667 -30 -103.667 -90 -135c32 -18.667 57.333 -39.667 76 -63s28 -52 28 -86
c0 -52.667 -20.5 -96.834 -61.5 -132.501s-90 -53.5 -147 -53.5s-103.333 13 -139 39s-53.5 60.333 -53.5 103zM173.501 89.5029c17.667 -18.333 39.332 -27.501 64.999 -27.501s46.334 7.33301 62.001 22s23.5 33 23.5 55s-9 40.167 -27 54.5s-37.333 26.5 -58 36.5l-35 17
c-38 -23.333 -57 -53.666 -57 -90.999c0 -26 8.83301 -48.167 26.5 -66.5zM187.499 500.002c-13 -12.667 -19.5 -27.499 -19.5 -44.499s5.66699 -31.833 17 -44.5s22.833 -22.334 34.5 -29.001s30.167 -16.334 55.5 -29.001c26 22 39 47.833 39 77.5s-7 51.834 -21 66.501
s-31.833 22 -53.5 22s-39 -6.33301 -52 -19z" />
    <glyph glyph-name="nine" unicode="9" horiz-adv-x="464" 
d="M279 174c-47.333 -24 -76 -36.3301 -86 -36.9971c-52 0 -93.167 16.333 -123.5 49s-45.5 73 -45.5 121c0 59.333 20 108 60 146s90.833 57 152.5 57s110.334 -20 146.001 -60s53.5 -92 53.5 -156c0 -41.333 -6.33301 -80.333 -19 -117s-29.167 -67.834 -49.5 -93.501
s-43 -49.5 -68 -71.5s-49.833 -39.667 -74.5 -53c-50.667 -27.333 -96 -47.333 -136 -60l-10 6l-20 55c10.667 3.33301 28.667 12.166 54 26.499s47.166 28.666 65.499 42.999s37.5 33.833 57.5 58.5s35.667 51 47 79zM167.5 254.503
c15.667 -19.667 36.5 -29.498 62.5 -29.498s53 9 81 27c2 14 3 28.333 3 43c0 41.333 -8 74 -24 98s-37.333 36 -64 36s-47 -8.33301 -61 -25s-21 -40.834 -21 -72.501s7.83301 -57.334 23.5 -77.001z" />
    <glyph glyph-name="colon" unicode=":" horiz-adv-x="238" 
d="M114 -11c-24.667 0 -43.332 6.83301 -55.999 20.5s-19 32.334 -19 56.001s7.33301 43.167 22 58.5s34 23 58 23s42.667 -6.83301 56 -20.5s20 -32.334 20 -56.001s-7.33301 -43.167 -22 -58.5s-34.334 -23 -59.001 -23zM114.002 262
c-24.667 0 -43.332 6.83301 -55.999 20.5s-19 32.334 -19 56.001s7.33301 43.167 22 58.5s34 23 58 23s42.667 -6.83301 56 -20.5s20 -32.334 20 -56.001s-7.33301 -43.167 -22 -58.5s-34.334 -23 -59.001 -23z" />
    <glyph glyph-name="semicolon" unicode=";" horiz-adv-x="238" 
d="M48 108c30 22.667 55.668 34 77.001 34s38.166 -8 50.499 -24s18.5 -39.5 18.5 -70.5s-14.667 -63.833 -44 -98.5s-65.666 -64.334 -108.999 -89.001l-37 30v17c21.333 14.667 38.666 32.334 51.999 53.001s20 42.667 20 66s-10.333 46 -31 68zM114.001 262
c-24.667 0 -43.332 6.83301 -55.999 20.5s-19 32.334 -19 56.001s7.33301 43.167 22 58.5s34 23 58 23s42.667 -6.83301 56 -20.5s20 -32.334 20 -56.001s-7.33301 -43.167 -22 -58.5s-34.334 -23 -59.001 -23z" />
    <glyph glyph-name="less" unicode="&#x3c;" horiz-adv-x="470" 
d="M36 213l-8 13l1 97l368 158l13 -8l20 -76c-42.667 -16 -143.667 -56.333 -303 -121v-7l300 -132l4 -15l-42 -65z" />
    <glyph glyph-name="equal" unicode="=" horiz-adv-x="506" 
d="M482 224l7 -12l-10 -92l-455 -2l-7 11l14 90c96.667 -0.666992 174.667 -1 234 -1zM482 402l7 -12l-10 -92l-455 -2l-7 11l14 90c96.667 -0.666992 174.667 -1 234 -1z" />
    <glyph glyph-name="greater" unicode="&#x3e;" horiz-adv-x="470" 
d="M434 325l8 -13l-1 -98l-368 -157l-13 7l-20 77c48 17.333 149 57.333 303 120v7l-300 132l-4 16l42 65l164 -75z" />
    <glyph glyph-name="question" unicode="?" horiz-adv-x="370" 
d="M240 496c0 62.667 -60.999 97.334 -182.999 104.001l-8 14l37 84l15 7c73.333 -2 134.833 -19.5 184.5 -52.5s74.5 -73.5 74.5 -121.5c0 -40.667 -13.333 -74.334 -40 -101.001c-14.667 -15.333 -29.334 -28.666 -44.001 -39.999c-20 -14.667 -47 -33.334 -81 -56.001
l-3 -7l15 -83l-6 -11l-88 -18l-12 6l-24 126l3 14l108 63c34.667 21.333 52 45.333 52 72zM211.001 12c-14.667 -15.333 -34.167 -23 -58.5 -23s-43 6.83301 -56 20.5s-19.5 32.334 -19.5 56.001s7.5 43.167 22.5 58.5s34.5 23 58.5 23s42.5 -6.83301 55.5 -20.5
s19.5 -32.334 19.5 -56.001s-7.33301 -43.167 -22 -58.5z" />
    <glyph glyph-name="at" unicode="@" horiz-adv-x="863" 
d="M493 -158l-0.999023 -15.998l-31 -50c-136.667 2.66699 -243.667 41 -321 115s-116 170 -116 288c0 60 11.833 118.167 35.5 174.5s55.5 105.666 95.5 147.999s88.5 76.333 145.5 102s117.167 38.5 180.5 38.5c108 0 194.667 -29.333 260 -88s98 -135.834 98 -231.501
s-30.833 -175.334 -92.5 -239.001s-146.167 -95.5 -253.5 -95.5c-14 0 -24.833 3.66699 -32.5 11s-11.5 19.333 -11.5 36s11.333 69.334 34 158.001l-8 1c-55.333 -100.667 -109 -169.334 -161 -206.001c-36.667 0 -65 13 -85 39s-30 61.667 -30 107
c0 81.333 25.833 157 77.5 227s106.167 105 163.5 105l87 -18l7 22l12 7l80 -14l8 -17c-35.333 -136 -61 -256.667 -77 -362l6 -6c58.667 0 104.834 19.833 138.501 59.5s50.5 91.834 50.5 156.501c0 84 -26.833 149.667 -80.5 197s-128.334 71 -224.001 71
s-175.334 -34.5 -239.001 -103.5s-95.5 -155.667 -95.5 -260s32.167 -189 96.5 -254s158.833 -99.167 283.5 -102.5zM346.001 105.002c14 0 36.333 25.165 67 75.498s59 109.5 85 177.5c-34 19.333 -63.333 29 -88 29c-21.333 0 -41 -20.667 -59 -62
s-27 -86.666 -27 -135.999c0 -23.333 2 -43.166 6 -59.499s9.33301 -24.5 16 -24.5z" />
    <glyph glyph-name="A" unicode="A" horiz-adv-x="625" 
d="M627 -3c-52.667 2 -92.666 2.99707 -119.999 2.99707c-53.333 0 -110.666 -2.66699 -171.999 -8l-6 8l5 60c32.667 2.66699 53.667 6.33398 63 11.001s14 11.834 14 21.501s-1.66699 22.167 -5 37.5l-20 76c-17.333 0.666992 -43.333 1 -78 1s-70.667 -2.33301 -108 -7
l-25 -75c-4 -14 -6 -25.5 -6 -34.5s3.33301 -15.667 10 -20s18.667 -6.5 36 -6.5h43l4 -7l-7 -63c-54.667 4 -103.334 6 -146.001 6l-121 -3l8 67c16 2.66699 28.833 8.83398 38.5 18.501s18.5 25.5 26.5 47.5l178 507l159 16l11 -5c60 -231.333 107.667 -403.333 143 -516
c7.33301 -24 16.666 -41 27.999 -51s28 -16 50 -18l4 -7zM294.001 285.997c21.333 0 46 1.33301 74 4l-58 220h-14l-72 -224h70z" />
    <glyph glyph-name="B" unicode="B" horiz-adv-x="629" 
d="M331 -10l-147.998 10.001c-34 0 -83 -3.33301 -147 -10l8 68c28.667 5.33301 48 13.333 58 24s15 29 15 55l1 390c0 18.667 -2.33301 31.667 -7 39s-13.334 11 -26.001 11l-34 -2l-6 8l9 61c69.333 -1.33301 115.666 -2 138.999 -2l153 5c69.333 0 122 -13.167 158 -39.5
s54 -64.833 54 -115.5c0 -64.667 -35.667 -115.667 -107 -153c42.667 -11.333 76.834 -29.333 102.501 -54s38.5 -56.334 38.5 -95.001c0 -60.667 -23.833 -109.167 -71.5 -145.5s-110.834 -54.5 -189.501 -54.5zM268.502 89.501c14.333 -9 38.167 -13.5 71.5 -13.5
s59 8.83301 77 26.5s27 42.167 27 73.5c0 54.667 -33.667 89.667 -101 105l-92 -1l-4 -145c0 -21.333 7.16699 -36.5 21.5 -45.5zM417.003 466.001c0 65.333 -46.002 98.002 -138.002 98.002c-6.66699 0 -11 -1.33301 -13 -4c-6 -6.66699 -10.333 -70.334 -13 -191.001
c50.667 -6 82.334 -9 95.001 -9c28.667 9.33301 49.334 30.666 62.001 63.999c4.66699 12.667 7 26.667 7 42z" />
    <glyph glyph-name="C" unicode="C" horiz-adv-x="617" 
d="M545 28c-64 -26.667 -139.668 -40.001 -227.001 -40.001s-157.5 28.167 -210.5 84.5s-79.5 135.666 -79.5 237.999s31.667 185.166 95 248.499s148.333 95 255 95c52.667 0 116.334 -8.33301 191.001 -25l6 -13c-13.333 -55.333 -22 -118.333 -26 -189l-99 -7
c1.33301 18 2 35.667 2 53c0 28.667 -8.83301 49.834 -26.5 63.501s-45.167 20.5 -82.5 20.5c-106 0 -159 -73 -159 -219c0 -81.333 14.667 -144.333 44 -189s70 -67 122 -67c36 0 64 10.833 84 32.5s34 56.834 42 105.501l99 7c-11.333 -69.333 -18 -131.666 -20 -186.999z
" />
    <glyph glyph-name="D" unicode="D" horiz-adv-x="693" 
d="M318 -12c-62.667 8 -107.333 12.001 -134 12.001c-42.667 0 -91.334 -3.33301 -146.001 -10l7 68c28.667 5.33301 47.834 13.833 57.501 25.5s14.5 31.5 14.5 59.5l1 379c0 21.333 -2.16699 35.666 -6.5 42.999s-12.833 11 -25.5 11l-33 -2l-6 9l8 62
c59.333 -2 102 -3 128 -3l159 5c101.333 0 180.5 -26.5 237.5 -79.5s85.5 -129.333 85.5 -229s-32.333 -183 -97 -250s-148 -100.5 -250 -100.5zM289.001 560.001c-10.667 0 -17.999 -1.66797 -21.999 -5.00098s-6.33301 -9.66602 -7 -18.999
c-8.66699 -182 -13 -312 -13 -390c0 -28.667 5.5 -47.667 16.5 -57s33.167 -14 66.5 -14c118.667 0 178 80.333 178 241c0 84.667 -17.833 146.5 -53.5 185.5s-90.834 58.5 -165.501 58.5z" />
    <glyph glyph-name="E" unicode="E" horiz-adv-x="597" 
d="M253 370l93.002 -0.99707l116 8l8 -9l-14 -86c-53.333 2 -92.5 3 -117.5 3s-54.5 -2 -88.5 -6c-2 -72.667 -3 -120.834 -3 -144.501s3.5 -38.834 10.5 -45.501s25.833 -10 56.5 -10s54.667 1.16699 72 3.5s32 7.83301 44 16.5s20.167 19.834 24.5 33.501
s8.5 33.834 12.5 60.501l85 7l7 -10c-12 -60 -21.333 -122 -28 -186l-9 -11c-125.333 4.66699 -215.333 7 -270 7c-81.333 0 -153.333 -3.33301 -216 -10l8 68c27.333 4 46.166 12.167 56.499 24.5s15.5 32.833 15.5 61.5l1 379c0 22 -2.16699 36.5 -6.5 43.5
s-13.166 10.5 -26.499 10.5l-30 -2l-7 9l8 61c73.333 -2 158 -3 254 -3s174.333 4 235 12l8 -11c-12 -59.333 -19.667 -120 -23 -182l-92 -6c1.33301 17.333 2 30.666 2 39.999c0 27.333 -7 44.666 -21 51.999s-40.833 11 -80.5 11s-62.334 -1.83301 -68.001 -5.5
s-8.83398 -12.834 -9.50098 -27.501z" />
    <glyph glyph-name="F" unicode="F" horiz-adv-x="532" 
d="M353 -4c-70 2.66699 -118.998 4.00098 -146.998 4.00098c-44.667 0 -101.334 -3.66699 -170.001 -11l8 68c28 5.33301 47 14 57 26s15 32.333 15 61l1 379c0 22 -2.16699 36.5 -6.5 43.5s-13.166 10.5 -26.499 10.5l-30 -2l-7 9l8 61c73.333 -2 154.833 -3 244.5 -3
s163.5 4 221.5 12l7 -11c-10 -60.667 -16.667 -121.667 -20 -183l-91 -6c1.33301 18.667 2 32.334 2 41.001c0 27.333 -6.16699 44.666 -18.5 51.999s-35.833 11 -70.5 11s-54.834 -1.83301 -60.501 -5.5s-8.83398 -12.834 -9.50098 -27.501l-7 -172l93 -1l105 8l8 -9
l-14 -86c-49.333 2 -87.5 3 -114.5 3s-53.833 -2.33301 -80.5 -7l-3 -119c0 -25.333 2.83301 -42.333 8.5 -51s17.167 -13 34.5 -13l65 5l9 -10z" />
    <glyph glyph-name="G" unicode="G" horiz-adv-x="654" 
d="M357 329l139.001 -1.99902c68 0 102 1.66699 102 5l7 -39c-17.333 -11.333 -28.5 -27.333 -33.5 -48s-7.5 -55.334 -7.5 -104.001s2.33301 -82 7 -100l-9 -13c-28 -11.333 -63.667 -20.833 -107 -28.5s-86.333 -11.5 -129 -11.5c-92 0 -164.667 28.167 -218 84.5
s-80 136.166 -80 239.499s31.667 186.166 95 248.499s150.333 93.5 261 93.5c55.333 0 121.333 -8.33301 198 -25l7 -13c-13.333 -53.333 -22 -114.666 -26 -183.999l-99 -6c2 16.667 3 36.834 3 60.501s-8.16699 41.334 -24.5 53.001s-43.833 17.5 -82.5 17.5
c-60 0 -104.5 -18 -133.5 -54s-43.5 -93 -43.5 -171s14.667 -139.167 44 -183.5s70.666 -66.5 123.999 -66.5c17.333 0 34 2.16699 50 6.5s31.333 10.833 46 19.5v93c0 19.333 -2.83301 32.166 -8.5 38.499s-17.5 9.5 -35.5 9.5h-51l-6 8z" />
    <glyph glyph-name="H" unicode="H" horiz-adv-x="747" 
d="M629 133c0 -26 3.00195 -43.667 9.00195 -53s17 -14 33 -14l36 3l5 -8l-9 -64c-55.333 2 -104 3 -146 3l-139 -2l8 66c28 0.666992 47 7.16699 57 19.5s15 36.5 15 72.5v127c-48 0.666992 -84 1 -108 1l-140 -10l-2 -141c0 -27.333 2.5 -45.5 7.5 -54.5
s15.167 -13.5 30.5 -13.5l36 3l5 -7l-9 -64c-56 2 -95.167 3 -117.5 3s-46.166 -0.666992 -71.499 -2c-61.333 -2 -92 -4.33301 -92 -7l7 65c29.333 6 48.666 14.5 57.999 25.5s14 30.5 14 58.5l1 385c0 20.667 -2.33301 34.5 -7 41.5s-14.334 10.5 -29.001 10.5l-31 -1
l-5 8l8 59c52.667 -0.666992 92.334 -1 119.001 -1l151 7l-5 -67c-25.333 -4 -41.333 -10.167 -48 -18.5s-10.667 -25.833 -12 -52.5l-6 -143l128 -2c41.333 0 80.666 2.33301 117.999 7v152c0 20.667 -2.33301 34.5 -7 41.5s-14.334 10.5 -29.001 10.5l-31 -1l-5 8l8 59
c56.667 -0.666992 99.334 -1 128.001 -1l147 7l-6 -66c-24.667 -3.33301 -40.834 -8.5 -48.501 -15.5s-12.167 -20.167 -13.5 -39.5c-8 -153.333 -12 -285 -12 -395z" />
    <glyph glyph-name="I" unicode="I" horiz-adv-x="365" 
d="M48 643l140 -0.999023l142 7l-6 -67c-25.333 -3.33301 -42 -8.5 -50 -15.5s-12.667 -19.833 -14 -38.5c-8 -138 -12 -269.667 -12 -395c0 -27.333 2.5 -45.5 7.5 -54.5s15.167 -13.5 30.5 -13.5l43 3l5 -7l-9 -64c-69.333 2 -115.666 3 -138.999 3c-46 0 -96 -3 -150 -9
l7 65c29.333 6 48.833 14.667 58.5 26s14.5 30.666 14.5 57.999l1 385c0 20.667 -2.33301 34.5 -7 41.5s-14.334 10.5 -29.001 10.5l-35 -1l-5 8z" />
    <glyph glyph-name="J" unicode="J" horiz-adv-x="333" 
d="M107 123l0.000976562 402c0 21.333 -2.16699 35.333 -6.5 42s-13.833 10 -28.5 10l-41 -3l-6 8l8 60h124l151 8l-6 -68c-21.333 -4 -35 -9.16699 -41 -15.5s-9.66699 -19.166 -11 -38.499c-8 -145.333 -12 -287.666 -12 -426.999
c-0.666992 -66 -16.834 -119.333 -48.501 -160s-82.167 -72.334 -151.5 -95.001l-28 41l2 11c38 27.333 63.333 56.166 76 86.499s19 76.5 19 138.5z" />
    <glyph glyph-name="K" unicode="K" horiz-adv-x="659" 
d="M257 524c-6 -264 -8.99902 -402.334 -8.99902 -415.001s2.33301 -23.167 7 -31.5s15 -12.5 31 -12.5l39 3l4 -7l-9 -64c-67.333 2 -115.333 3 -144 3l-139 -3l9 64c28.667 4.66699 47.5 12 56.5 22s13.5 29 13.5 57l1 385c0 20.667 -2.33301 34.5 -7 41.5
s-14.334 10.5 -29.001 10.5l-31 -1l-5 8l8 60c70.667 -1.33301 115.667 -2 135 -2l138 7l-6 -67c-24.667 -5.33301 -41.167 -11.666 -49.5 -18.999s-12.833 -20.333 -13.5 -39zM443.001 546.999c0 18.667 -17.667 29 -53 31l-3 7l8 62c56 -3.33301 97.667 -5 125 -5l117 4
l7 -11l-8 -57c-20.667 -8.66699 -40.5 -21.167 -59.5 -37.5s-42.833 -41.833 -71.5 -76.5l-103 -116l132 -202c20 -30 38.5 -51.667 55.5 -65s36.5 -20.666 58.5 -21.999l6 -9l-8 -53c-66 -8 -105 -12 -117 -12c-39.333 0 -76.333 28 -111 84l-151 247l3 22l147 160
c17.333 17.333 26 33.666 26 48.999z" />
    <glyph glyph-name="L" unicode="L" horiz-adv-x="531" 
d="M52 643l136 -1l155 7l-8 -71c-32.667 -4 -53.167 -10.333 -61.5 -19s-13.166 -26.667 -14.499 -54c-7.33301 -99.333 -11 -221.333 -11 -366c0 -25.333 3.83301 -41.666 11.5 -48.999s24.5 -11 50.5 -11c47.333 0 78.833 9.16699 94.5 27.5s26.834 59.833 33.501 124.5
l85 9l7 -10c-11.333 -72.667 -20.333 -148.334 -27 -227.001l-9 -11c-108.667 5.33301 -189.334 8 -242.001 8c-78.667 0 -148.667 -3.33301 -210 -10l7 68c25.333 4 42.833 12.167 52.5 24.5s14.5 32.833 14.5 61.5v381c0 20.667 -2.33301 34.5 -7 41.5
s-14.334 10.5 -29.001 10.5l-30 -1l-5 8z" />
    <glyph glyph-name="M" unicode="M" horiz-adv-x="841" 
d="M562 643l97 -2c4.66699 0 47 2.33301 127 7l4 -4l-6 -62c-28.667 -2 -48 -6.66699 -58 -14s-15 -20.333 -15 -39c0 -60.667 8 -184.667 24 -372c3.33301 -36 8.33301 -60.167 15 -72.5s17.667 -18.5 33 -18.5l29 2l4 -6l-9 -65c-40.667 2 -71.667 3 -93 3
s-51.666 -1 -90.999 -3s-60.666 -3.66699 -63.999 -5l8 68c19.333 2 33.333 6.83301 42 14.5s13 19.167 13 34.5l-20 336h-9c-56.667 -157.333 -107.334 -308 -152.001 -452l-73 -9c-56.667 181.333 -107.667 335 -153 461h-8c-13.333 -215.333 -20 -331 -20 -347
c0 -22 10.667 -33 32 -33l33 2l6 -6l-11 -65c-57.333 2.66699 -97 4 -119 4l-101 -8l7 67c20 2.66699 34.5 9.16699 43.5 19.5s14.5 27.833 16.5 52.5c3.33301 24 10.833 93.5 22.5 208.5s17.5 180.167 17.5 195.5s-4.83301 26 -14.5 32s-29.834 10.667 -60.501 14l-5 6
l9 60c60 -3.33301 102.333 -5 127 -5l109 4c37.333 -136 78.666 -273 123.999 -411h8c42.667 126 86.334 262 131.001 408z" />
    <glyph glyph-name="N" unicode="N" horiz-adv-x="729" 
d="M495 577l-34 -0.998047l-4 8l7 62c56.667 -2.66699 99.667 -4 129 -4l118 5l-5 -67c-22 -3.33301 -37.833 -9.66602 -47.5 -18.999s-14.834 -24 -15.501 -44l-13 -531l-106 -13c-98.667 158 -195.667 306 -291 444h-10l-1 -308c0 -16.667 2.5 -28.334 7.5 -35.001
s13.833 -10 26.5 -10l43 3l6 -7l-10 -64c-57.333 2.66699 -97 4 -119 4c-38 0 -82.333 -2.66699 -133 -8l8 67c38.667 4.66699 58.334 25.667 59.001 63l13 395c0 21.333 -5.33301 36.166 -16 44.499s-32.334 14.166 -65.001 17.499l-8 10l7 58
c44.667 -3.33301 83.334 -5 116.001 -5l96 4c87.333 -142 176.333 -279 267 -411h10l-2 299c-0.666992 28.667 -11.667 43 -33 43z" />
    <glyph glyph-name="O" unicode="O" horiz-adv-x="674" 
d="M224 144c27.333 -46 65.333 -69 114 -69s86.167 18.5 112.5 55.5s39.5 94.5 39.5 172.5s-14 139.833 -42 185.5s-66.5 68.5 -115.5 68.5s-86.167 -18.5 -111.5 -55.5s-38 -94.333 -38 -172s13.667 -139.5 41 -185.5zM555 85c-60.667 -64.667 -138 -97 -232 -97
s-166.667 28.333 -218 85s-77 135.667 -77 237s30 184 90 248s137.333 96 232 96s167.667 -27.667 219 -83s77 -134 77 -236s-30.333 -185.333 -91 -250z" />
    <glyph glyph-name="P" unicode="P" horiz-adv-x="577" 
d="M53 643l126 -0.999023l152 5c124 0 200.667 -40.333 230 -121c8 -22 12 -46 12 -72c0 -60 -24 -112.833 -72 -158.5s-103.667 -68.5 -167 -68.5h-85l-1 -74c0 -37.333 2.66699 -61.333 8 -72s18 -16 38 -16l44 3l4 -6l-10 -65c-58.667 2 -98.167 3 -118.5 3
s-44.166 -0.666992 -71.499 -2c-68 -3.33301 -102.333 -5.33301 -103 -6l8 68c27.333 4.66699 45.666 12.667 54.999 24s14 31 14 59l1 380c0 21.333 -2.16699 35.666 -6.5 42.999s-12.833 11 -25.5 11l-35 -2l-5 8zM430 440.001c0 42 -11.668 72.667 -35.001 92
s-60.666 29 -111.999 29c-9.33301 0 -15 -1 -17 -3c-5.33301 -3.33301 -10.333 -84 -15 -242l88 -12c60.667 12.667 91 58 91 136z" />
    <glyph glyph-name="Q" unicode="Q" horiz-adv-x="679" 
d="M105 73c-51.333 56.667 -76.9951 135.668 -76.9951 237.001s30 184 90 248s137.333 96 232 96s167.667 -27.667 219 -83s77 -132 77 -230c0 -76 -18.333 -143.167 -55 -201.5s-85.667 -99.833 -147 -124.5v-9c107.333 -74.667 196.666 -112 267.999 -112
c27.333 0 55.666 3.33301 84.999 10l8 -7l11 -42c-70.667 -55.333 -115.334 -83 -134.001 -83c-44.667 0 -89.334 13.167 -134.001 39.5s-122.334 85.166 -233.001 176.499c-88.667 0 -158.667 28.333 -210 85zM224.005 144.001c27.333 -46 65.333 -69 114 -69
s86.167 18.5 112.5 55.5s39.5 94.5 39.5 172.5s-14 139.833 -42 185.5s-66.5 68.5 -115.5 68.5s-86.167 -18.5 -111.5 -55.5s-38 -94.333 -38 -172s13.667 -139.5 41 -185.5z" />
    <glyph glyph-name="R" unicode="R" horiz-adv-x="643" 
d="M569 475c0 -80.667 -44.668 -144.331 -134.001 -190.998l87 -140c18.667 -30.667 36.667 -52.834 54 -66.501s36.333 -20.5 57 -20.5l7 -9l-7 -53l-119 -11c-44 0 -80.333 31 -109 93l-86 174h-70l-1 -110c0 -33.333 3.83301 -54.333 11.5 -63s27.5 -13.334 59.5 -14.001
l4 -6l-10 -62c0 2 -44.667 3 -134 3l-143 -5l9 67c28 4 46.833 11.5 56.5 22.5s14.5 30.833 14.5 59.5l1 385c0 19.333 -2.16699 32.333 -6.5 39s-12.833 10 -25.5 10l-35 -2l-5 8l8 61c58 -1.33301 100 -2 126 -2l153 5c76.667 0 135.334 -14.833 176.001 -44.5
s61 -72.167 61 -127.5zM426.999 456.003c0 72 -49.666 108 -148.999 108c-6.66699 0 -11.334 -1.33301 -14.001 -4c-5.33301 -6 -9.33301 -79 -12 -219l90 -10c56.667 24 85 65.667 85 125z" />
    <glyph glyph-name="S" unicode="S" horiz-adv-x="540" 
d="M220 -12c-31.333 0 -61.666 3.16602 -90.999 9.49902s-57.666 15.833 -84.999 28.5l-8 14c10 58.667 15.333 115.334 16 170.001l84 7c0 -54.667 7.66699 -91.667 23 -111s41.5 -29 78.5 -29s65 7 84 21s28.5 32.667 28.5 56c0 16.667 -4.5 29.5 -13.5 38.5l-20.5 20
c-4.66699 4.33301 -13 9.83301 -25 16.5s-20.667 11.334 -26 14.001s-16 7.66699 -32 15c-68 33.333 -116.5 63.666 -145.5 90.999s-43.5 62.333 -43.5 105c0 58.667 25 106.667 75 144s114 56 192 56c56.667 0 107 -6.66699 151 -20l21 -7l7 -13
c-11.333 -54 -19.333 -111.333 -24 -172l-76 -6l-9 7c0.666992 10.667 1 22.334 1 35.001c0 29.333 -7.5 50.166 -22.5 62.499s-38 18.5 -69 18.5s-55.5 -6.66699 -73.5 -20s-27 -30.333 -27 -51c0 -32 26.667 -61.333 80 -88l55 -26c25.333 -12 45.666 -22.333 60.999 -31
s33.333 -21 54 -37c39.333 -30 59 -68.667 59 -116c0 -61.333 -25.333 -110.333 -76 -147s-118.334 -55 -203.001 -55z" />
    <glyph glyph-name="T" unicode="T" horiz-adv-x="569" 
d="M216 165v398c-28.667 -0.666992 -50 -2.16699 -64 -4.5s-25.667 -9 -35 -20s-15.333 -23.333 -18 -37s-6 -36.5 -10 -68.5l-84 -6c6 78 9.66699 149.667 11 215l11 11l101 -11h311l103 11l11 -11l10 -209l-84 -6c-7.33301 62 -16.833 99.833 -28.5 113.5
s-42.5 21.167 -92.5 22.5c-7.33301 -108.667 -11 -251.334 -11 -428.001c0 -24.667 4.16699 -42.167 12.5 -52.5s22.5 -15.5 42.5 -15.5l53 3l4 -5l-9 -69c-81.333 2.66699 -139.333 4 -174 4l-168 -6l8 66c44 4 71.667 11.833 83 23.5s17 38.834 17 81.501z" />
    <glyph glyph-name="U" unicode="U" horiz-adv-x="655" 
d="M343 79c81.333 0 122 43.333 122 130l-4 314c-0.666992 22 -3 36.5 -7 43.5s-12.333 10.5 -25 10.5l-33 -2l-2 4l8 66c52.667 -2 91.667 -3 117 -3l119 6l-6 -67c-24.667 -5.33301 -40.5 -11 -47.5 -17s-10.5 -17 -10.5 -33v-311
c0 -75.333 -22.167 -132.833 -66.5 -172.5s-108.166 -59.5 -191.499 -59.5c-154.667 0 -232 72 -232 216v319c0 22 -2 36.5 -6 43.5s-12.667 10.5 -26 10.5l-32 -2l-2 4l9 66c57.333 -2 105 -3 143 -3l119 6l-7 -68c-20.667 -2.66699 -34.834 -7.66699 -42.501 -15
s-12.167 -20 -13.5 -38l-7 -291c0 -50 10.667 -88.667 32 -116s52 -41 92 -41z" />
    <glyph glyph-name="V" unicode="V" horiz-adv-x="625" 
d="M0 644c55.333 -1.33301 95.6719 -2.00195 121.005 -2.00195c47.333 0 105.666 2.66699 174.999 8l6 -8l-5 -61c-33.333 -2.66699 -54.5 -6.33398 -63.5 -11.001s-13.5 -13 -13.5 -25c0 -20 30.333 -158 91 -414h15c15.333 39.333 40.166 114.833 74.499 226.5
s51.5 174 51.5 187s-3.83301 21.833 -11.5 26.5s-20.834 7 -39.501 7h-39l-5 7l7 62c56 -3.33301 105.333 -5 148 -5l116 2l-7 -66c-16 -2.66699 -27.333 -7.16699 -34 -13.5s-13.334 -19.166 -20.001 -38.499l-184 -521l-165 -20
c-59.333 228.667 -108 405.334 -146 530.001c-6 20.667 -14.833 35.834 -26.5 45.501s-27.834 15.167 -48.501 16.5l-4 7z" />
    <glyph glyph-name="W" unicode="W" horiz-adv-x="964" 
d="M1 644c53.333 -1.33301 92.999 -2.00195 118.999 -2.00195c50 0 105.667 2.66699 167 8l5 -8l-5 -61c-32 -3.33301 -52.5 -7.16602 -61.5 -11.499s-13.5 -12.833 -13.5 -25.5c0 -26 29.667 -163.667 89 -413h13c21.333 57.333 58 177.333 110 360
c-1.33301 13.333 -3.83301 27.666 -7.5 42.999s-10.834 26.166 -21.501 32.499s-28 9.83301 -52 10.5l-5 7l8 60c60.667 -1.33301 104 -2 130 -2c49.333 0 106 2.66699 170 8l5 -8l-5 -61c-32.667 -3.33301 -53.334 -7 -62.001 -11s-13 -12 -13 -24
c0 -20.667 29.667 -159 89 -415h13c14.667 40 38.834 116.167 72.501 228.5s50.5 174.833 50.5 187.5s-3.66699 21 -11 25s-20.333 6 -39 6h-38l-5 7l8 62c54.667 -3.33301 102.334 -5 143.001 -5l112 2l-7 -66c-15.333 -2.66699 -26.166 -7.16699 -32.499 -13.5
s-12.833 -19.166 -19.5 -38.499l-176 -521l-159 -20c-10.667 61.333 -39.334 180.333 -86.001 357h-10l-104 -337l-161 -20c-56.667 228.667 -103.667 405.334 -141 530.001c-6 20.667 -14.667 35.834 -26 45.501s-26.666 15.167 -45.999 16.5l-4 7z" />
    <glyph glyph-name="X" unicode="X" horiz-adv-x="682" 
d="M420 645l132 -3.00098l112 3l4 -7l-5 -61c-30 -10 -53.667 -22.333 -71 -37s-37.666 -38 -60.999 -70l-108 -149l117 -169c20 -28 40.167 -48.667 60.5 -62s44.166 -20.666 71.499 -21.999l3 -4l-8 -66c-58.667 2 -102 3 -130 3l-180 -8l-5 7l6 61c36 2 54 11.333 54 28
c0 8.66699 -5 20.667 -15 36l-86 127l-66 -93c-23.333 -32.667 -35 -54.667 -35 -66c0 -18 16.333 -28 49 -30l4 -7l-6 -62c-63.333 4.66699 -106.666 7 -129.999 7l-116 -5l-4 10l6 60c38.667 14 87 58.667 145 134l99 131l-107 160c-18 26.667 -36.667 46 -56 58
s-43.333 20.667 -72 26l-4 5l8 64c56 -1.33301 109 -2 159 -2l153 7l5 -9l-5 -58c-40 -2 -60 -12 -60 -30c0 -12.667 17.333 -45 52 -97l37 -55l39 56c15.333 21.333 26.666 38 33.999 50c16.667 26.667 25 43.667 25 51c0 14.667 -16.333 23 -49 25l-2 5z" />
    <glyph glyph-name="Y" unicode="Y" horiz-adv-x="598" 
d="M369 645l133.001 -3.99902l102 4l4 -7l-7 -61c-26 -8.66699 -47 -21.834 -63 -39.501s-35.333 -47.167 -58 -88.5l-96 -179c-12 -23.333 -18 -69.333 -18 -138v-20.5c0 -11.667 3.16699 -22 9.5 -31s18.833 -13.5 37.5 -13.5l50 3l3 -5l-9 -69
c-76.667 2.66699 -127.667 4 -153 4c-34 -0 -90 -3.66699 -168 -11l7 69c38 4.66699 62.5 13 73.5 25s16.5 35 16.5 69v30c0 31.333 -9.66699 65.333 -29 102l-98 191c-16 32 -31.5 55.167 -46.5 69.5s-37.167 24.5 -66.5 30.5l-3 5l8 64c59.333 -2 102.333 -3 129 -3l160 8
l5 -9l-5 -58c-22.667 -0.666992 -38.334 -3.33398 -47.001 -8.00098s-13 -11.167 -13 -19.5s6 -27.166 18 -56.499c26.667 -66 49 -116.667 67 -152h10l79 165c9.33301 18.667 14 34.667 14 48s-17 21 -51 23l-2 5z" />
    <glyph glyph-name="Z" unicode="Z" horiz-adv-x="580" 
d="M531 16l-17 -19.001l-395 6l-75 -8l-25 45l351 529l-127 -8c-42.667 -5.33301 -71.667 -16.333 -87 -33s-24.666 -48 -27.999 -94l-85 -6c9.33301 82.667 15 154.667 17 216l10 10l178 -11l293 -3l18 -41c-102 -135.333 -222.333 -310.666 -361 -525.999l156 11
c33.333 2.66699 59.166 16.167 77.499 40.5s31.5 62.166 39.5 113.499l85 7c-14 -87.333 -22.333 -163.666 -25 -228.999z" />
    <glyph glyph-name="bracketleft" unicode="[" horiz-adv-x="317" 
d="M296 -132l-215 11c7.33301 184 11 309.333 11 376l-11 379l218 11l4 -8l-7 -57l-104 -20v-607l107 -21l4 -9z" />
    <glyph glyph-name="backslash" unicode="\" horiz-adv-x="329" 
d="M12 660l12 15h81c90.667 -354.667 143 -556.5 157 -605.5l49 -168.5l-9 -11h-85l-84 325z" />
    <glyph glyph-name="bracketright" unicode="]" horiz-adv-x="317" 
d="M21 645l215 -11c-7.33301 -184 -11 -309.333 -11 -376l11 -379l-218 -11l-4 8l7 56l104 21v607l-107 20l-4 9z" />
    <glyph glyph-name="asciicircum" unicode="^" horiz-adv-x="489" 
d="M286 482l13 -8l82 -192l76 -164l-65 -42l-16 5l-133 300h-7l-50 -124l-70 -180l-77 20l-7 13l157 368z" />
    <glyph glyph-name="underscore" unicode="_" horiz-adv-x="453" 
d="M2 -90l241 -1c32 0 102.667 1.33301 212 4l8 -14l-11 -77l-452 -2l-9 14z" />
    <glyph glyph-name="grave" unicode="`" 
d="M66 651l-1 13.999l54 70l13 1l168 -170l-30 -39l-15 -4c-51.333 38.667 -114.333 81.334 -189 128.001z" />
    <glyph glyph-name="a" unicode="a" horiz-adv-x="544" 
d="M336.5 62c7 2.66699 10.502 7.33105 10.502 13.998c0 8.66699 -6 34.334 -18 77.001c-14 0.666992 -31.833 1 -53.5 1s-52.834 -1.33301 -93.501 -4c-14.667 -41.333 -22 -65.833 -22 -73.5s2.33301 -13 7 -16s14 -4.5 28 -4.5h31l6 -7l-7 -53
c-46.667 2.66699 -87.334 4 -122.001 4l-102 -2l6 57c22 4 38.667 20.333 50 49l143 393l153 13l10 -6c50 -186.667 88 -318.667 114 -396c5.33301 -18 12.5 -31 21.5 -39s22.167 -12.667 39.5 -14l3 -7l-6 -50c-44 1.33301 -78.667 2 -104 2l-145 -6l-5 6l4 54
c27.333 2.66699 44.5 5.33398 51.5 8.00098zM257.002 226.997c15.333 0 34.333 0.666992 57 2l-43 161h-13l-54 -163h53z" />
    <glyph glyph-name="b" unicode="b" horiz-adv-x="544" 
d="M436 474.5c30.667 -21 46 -49 46 -84s-10 -63.167 -30 -84.5s-38.667 -35 -56 -41c24.667 -4.66699 49.667 -16.667 75 -36s38 -45.666 38 -78.999c0 -49.333 -19.833 -88 -59.5 -116s-93.5 -42 -161.5 -42c-80 5.33301 -122 8 -126 8l-128 -7l7 58
c22.667 4 38 10.167 46 18.5s12 22.166 12 41.499l1 296c0 25.333 -8.33301 38 -25 38l-28 -1l-7 6l8 53c62 -1.33301 102.333 -2 121 -2l135 5c57.333 0 101.333 -10.5 132 -31.5zM237 78.5c11.333 -6.33301 30 -9.50098 56 -9.50098c52.667 0 79 23.333 79 70
c0 39.333 -25 64 -75 74h-73l-4 -102c0 -15.333 5.66699 -26.166 17 -32.499zM352 361.999c0 45.333 -35.333 68 -106 68c-8.66699 0 -13.334 -4.33301 -14.001 -13c-4 -40 -6 -81.667 -6 -125c38.667 -4.66699 63.667 -7 75 -7c12.667 4 24.334 13.5 35.001 28.5
s16 31.167 16 48.5z" />
    <glyph glyph-name="c" unicode="c" horiz-adv-x="524" 
d="M459 22c-54.667 -20.667 -118.166 -31.001 -190.499 -31.001s-130.333 22 -174 66s-65.5 106.167 -65.5 186.5s25.833 144.833 77.5 193.5s122.167 73 211.5 73c41.333 0 95.333 -6.66699 162 -20l6 -11c-11.333 -44.667 -19 -96 -23 -154l-92 -5
c0.666992 13.333 1 29.333 1 48c0 38 -27.333 57 -82 57c-78 0 -117 -53.333 -117 -160c0 -61.333 10.667 -108.166 32 -140.499s51.666 -48.5 90.999 -48.5c27.333 0 48.5 8 63.5 24s25.167 42 30.5 78l93 6c-8.66699 -56 -13.667 -106.667 -15 -152z" />
    <glyph glyph-name="d" unicode="d" horiz-adv-x="587" 
d="M100 117l-0.000976562 285.001c0 16.667 -1.66699 27.834 -5 33.501s-9.66602 8.5 -18.999 8.5l-27 -2l-6 8l7 53c52 -1.33301 88.667 -2 110 -2l132 4c84.667 0 150.167 -20.333 196.5 -61s69.5 -100.5 69.5 -179.5s-26.5 -144.333 -79.5 -196
s-122.167 -77.5 -207.5 -77.5c-51.333 6 -93.333 9 -126 9l-108 -8l5 60c22.667 3.33301 38 9.66602 46 18.999s12 24.666 12 45.999zM251.999 428.001c-8 0 -13.499 -1.33301 -16.499 -4s-4.83301 -8 -5.5 -16c-6.66699 -125.333 -10 -222 -10 -290c0 -20 4 -33.5 12 -40.5
s23.667 -10.5 47 -10.5c90 0 135 59.667 135 179c0 64.667 -12.833 111.167 -38.5 139.5s-66.834 42.5 -123.501 42.5z" />
    <glyph glyph-name="e" unicode="e" horiz-adv-x="512" 
d="M226 292l73.9961 -1l94 7l8 -9l-12 -74c-43.333 1.33301 -72.166 2 -86.499 2s-41.5 -1.33301 -81.5 -4c-0.666992 -16 -1 -41.167 -1 -75.5s2.66699 -54.166 8 -59.499s25.166 -8 59.499 -8s58.5 5 72.5 15s24 34 30 72l78 6l7 -9c-10 -48 -17.333 -98 -22 -150l-10 -9
c-100 3.33301 -174 5 -222 5c-69.333 0 -132 -2.66699 -188 -8l7 59c22 2.66699 37 8.83398 45 18.501s12 26.167 12 49.5l1 284c0 16.667 -1.66699 27.834 -5 33.501s-10 8.5 -20 8.5l-24 -1l-7 7l7 52c64.667 -1.33301 137.334 -2 218.001 -2s146 3 196 9l7 -9
c-9.33301 -48.667 -15.666 -97.334 -18.999 -146.001l-85 -6c1.33301 13.333 2 23.666 2 30.999c0 20.667 -5.66699 33.667 -17 39s-32.166 8 -62.499 8s-47.666 -1.33301 -51.999 -4s-6.5 -9.33398 -6.5 -20.001z" />
    <glyph glyph-name="f" unicode="f" horiz-adv-x="461" 
d="M307 -3c-59.333 2 -100.999 3.00195 -124.999 3.00195c-44 0 -93.333 -2.66699 -148 -8l7 59c22.667 3.33301 37.834 9.66602 45.501 18.999s11.5 25.666 11.5 48.999l1 284c0 16.667 -1.66699 27.834 -5 33.501s-10 8.5 -20 8.5l-24 -1l-7 7l7 52
c64.667 -1.33301 135 -2 211 -2s137 3 183 9l7 -9c-8.66699 -50 -14.334 -99 -17.001 -147l-84 -5c0.666992 14 1 24.333 1 31c0 20 -4.83301 32.833 -14.5 38.5s-27.5 8.5 -53.5 8.5s-41.167 -1.33301 -45.5 -4s-6.5 -9.33398 -6.5 -20.001l-6 -124l75 -1l86 6l8 -8
l-11 -74c-40.667 1.33301 -71.834 2 -93.501 2s-44.167 -1.66699 -67.5 -5l-1 -80c0 -20 2.16699 -33.167 6.5 -39.5s13.833 -9.5 28.5 -9.5l52 5l8 -10z" />
    <glyph glyph-name="g" unicode="g" horiz-adv-x="554" 
d="M300 262l116.997 -1l88 4l6 -35c-15.333 -9.33301 -25.166 -22 -29.499 -38s-6.5 -42.333 -6.5 -79s1.66699 -64 5 -82l-8 -11c-48.667 -19.333 -112.667 -29 -192 -29s-141 22 -185 66s-66 106.667 -66 188s26 145.833 78 193.5s124.333 71.5 217 71.5
c43.333 0 98.333 -6.66699 165 -20l6 -11c-12 -42.667 -19.333 -91.667 -22 -147l-92 -6c1.33301 12.667 2 28 2 46s-6 31.333 -18 40s-32.333 13 -61 13c-45.333 0 -78.666 -12.833 -99.999 -38.5s-32 -67.834 -32 -126.501s10.833 -104 32.5 -136s52.834 -48 93.501 -48
c26.667 0 50 5.33301 70 16v65c0 14.667 -2.33301 24.334 -7 29.001s-13.667 7 -27 7h-38l-6 8z" />
    <glyph glyph-name="h" unicode="h" horiz-adv-x="632" 
d="M533 109c0 -20 2.33105 -33.667 6.99805 -41s13.667 -11 27 -11l28 2l5 -7l-8 -54c-46 1.33301 -87.667 2 -125 2l-120 -1l7 56c22 0.666992 37 5.66699 45 15s12 27 12 53v93c-34 0.666992 -60 1 -78 1l-111 -8l-1 -100c0 -21.333 2 -35.5 6 -42.5
s12.333 -10.5 25 -10.5l27 2l5 -6l-7 -54c-51.333 1.33301 -86.166 2 -104.499 2s-38.333 -0.5 -60 -1.5l-54.5 -2.5c-14.667 -0.666992 -22.334 -1.33398 -23.001 -2.00098l6 56c23.333 4 38.833 10.333 46.5 19s11.5 24 11.5 46v289c0 16.667 -2 27.667 -6 33
s-11.667 8 -23 8l-24 -1l-6 8l7 50c44.667 -0.666992 78.334 -1 101.001 -1l134 5l-5 -58c-20 -2.66699 -32.667 -7 -38 -13s-8.66602 -18.667 -9.99902 -38l-5 -105l97 -2c36.667 0 66.667 1.66699 90 5l1 109c0 16.667 -2 27.667 -6 33s-12 8 -24 8l-25 -1l-5 8l7 50
c0 -0.666992 37.333 -1 112 -1l127 5l-5 -57c-20 -2.66699 -33.167 -6.66699 -39.5 -12s-9.83301 -15.666 -10.5 -30.999c-6.66699 -88.667 -10 -187.667 -10 -297z" />
    <glyph glyph-name="i" unicode="i" horiz-adv-x="320" 
d="M44 502l119.999 -1l123 5l-5 -58c-20.667 -2.66699 -34.167 -6.5 -40.5 -11.5s-10.166 -15.167 -11.499 -30.5c-6 -104.667 -9 -203.667 -9 -297c0 -21.333 2 -35.5 6 -42.5s12.333 -10.5 25 -10.5l32 2l5 -6l-7 -54c-60 1.33301 -102.333 2 -127 2l-120 -6l6 56
c23.333 4.66699 38.833 11.167 46.5 19.5s11.5 23.5 11.5 45.5v289c0 16.667 -2 27.667 -6 33s-11.667 8 -23 8l-27 -1l-5 8z" />
    <glyph glyph-name="j" unicode="j" horiz-adv-x="294" 
d="M91 98l1.00098 305.998c0 16.667 -1.83301 27.667 -5.5 33s-11.167 8 -22.5 8l-33 -2l-6 8l7 50h105l133 6l-5 -59c-17.333 -2.66699 -28.333 -6.5 -33 -11.5s-7.66699 -15.167 -9 -30.5c-6.66699 -116.667 -10 -227 -10 -331
c-0.666992 -51.333 -14.834 -92.666 -42.501 -123.999s-71.5 -55.666 -131.5 -72.999l-25 33l2 10c30 22.667 50 45.667 60 69s15 59.333 15 108z" />
    <glyph glyph-name="k" unicode="k" horiz-adv-x="568" 
d="M99 115l0.00292969 288.999c0 16.667 -2 27.667 -6 33s-11.667 8 -23 8l-24 -1l-6 8l7 50c63.333 -0.666992 102.333 -1 117 -1l120 5l-4 -58c-20.667 -4 -34.334 -8.83301 -41.001 -14.5s-10.334 -15.5 -11.001 -29.5c-4.66699 -200.667 -7 -305.5 -7 -314.5
s2 -16.833 6 -23.5s12.333 -10 25 -10l30 2l4 -6l-7 -54c-58.667 1.33301 -100 2 -124 2l-120 -2l7 54c23.333 4 38.666 9.83301 45.999 17.5s11 22.834 11 45.501zM372.003 420.999c0 15.333 -13.666 23.3311 -40.999 23.998l-3 7l7 52c48 -2 83.333 -3 106 -3l103 3l6 -9
l-7 -49c-30.667 -13.333 -67.667 -45.666 -111 -96.999l-73 -76l101 -152c16 -23.333 30.5 -40.166 43.5 -50.499s28.5 -16.5 46.5 -18.5l7 -9l-7 -46c-58.667 -6 -93.334 -9 -104.001 -9c-34 0 -64.667 21.667 -92 65l-119 193l3 19l114 119c13.333 12 20 24.333 20 37z
" />
    <glyph glyph-name="l" unicode="l" horiz-adv-x="461" 
d="M46 502l117.997 -1.00098l138 5l-7 -62c-27.333 -2.66699 -44.666 -7.16699 -51.999 -13.5s-11.666 -18.833 -12.999 -37.5c-6.66699 -88.667 -10 -182 -10 -280c0 -17.333 3.16699 -28.833 9.5 -34.5s18.833 -8.5 37.5 -8.5c36 0 60.167 7.5 72.5 22.5
s21.5 48.167 27.5 99.5l78 7l7 -9c-8.66699 -59.333 -15.667 -121.333 -21 -186l-10 -10c-88 4 -154.667 6 -200 6c-68 0 -129.333 -2.66699 -184 -8l7 59c20.667 2.66699 34.834 8.83398 42.501 18.501s11.5 26.167 11.5 49.5l1 285c0 16.667 -2 27.667 -6 33s-12 8 -24 8
l-23 -1l-6 8z" />
    <glyph glyph-name="m" unicode="m" horiz-adv-x="710" 
d="M464 501l80 -0.998047c15.333 0 54 2 116 6l4 -3l-6 -55c-23.333 -1.33301 -38.833 -4.83301 -46.5 -10.5s-11.5 -15.834 -11.5 -30.501c0 -52 6.33301 -145.333 19 -280c2.66699 -26.667 6.66699 -45 12 -55s14.333 -15 27 -15l24 1l4 -5l-7 -55
c-34 1.33301 -71.5 2 -112.5 2s-75.5 -2 -103.5 -6l7 58c16 2 27.5 5.83301 34.5 11.5s10.5 14.834 10.5 27.501l-13 235h-8c-31.333 -73.333 -70.333 -183.333 -117 -330l-70 -7c-52.667 164.667 -91.667 277 -117 337h-9c-8.66699 -150.667 -13 -232 -13 -244
c0 -16.667 9 -25 27 -25h26l5 -4l-9 -56c-50.667 2 -85 3 -103 3l-86 -6l5 58c16 1.33301 27.833 6.16602 35.5 14.499s12.167 20.166 13.5 35.499c21.333 193.333 32 296.333 32 309s-3.5 21.167 -10.5 25.5s-23.167 7.5 -48.5 9.5l-5 6l8 53
c51.333 -2.66699 87.333 -4 108 -4l100 3c25.333 -92 56 -190.667 92 -296h8z" />
    <glyph glyph-name="n" unicode="n" horiz-adv-x="622" 
d="M411 445l-26.9951 0.000976562l-4 6l6 53c50 -2 98.5 -3 145.5 -3s70.5 1.33301 70.5 4l-4 -58c-18.667 -2.66699 -31.834 -7.66699 -39.501 -15s-11.834 -18.666 -12.501 -33.999l-11 -405l-103 -10c-70.667 105.333 -145.334 210.666 -224.001 315.999h-9v-207
c0.666992 -14 3.16699 -23.667 7.5 -29s11.833 -8 22.5 -8l33 2l6 -5l-9 -55c-50.667 2 -87.667 3 -111 3l-108 -6l7 58c16.667 2 28.667 6.66699 36 14s11.333 19 12 35l11 296c0 16.667 -4.33301 28.167 -13 34.5s-26.334 11.166 -53.001 14.499l-7 8l6 51
c37.333 -2.66699 71.333 -4 102 -4l86 3c63.333 -98 131.666 -196.667 204.999 -296h9l-3 203c-0.666992 12.667 -3 21.5 -7 26.5s-10.667 7.5 -20 7.5z" />
    <glyph glyph-name="o" unicode="o" horiz-adv-x="570" 
d="M288 68c34.667 0 61.5 13 80.5 39s28.5 64.333 28.5 115c0 135.333 -39.667 203 -119 203c-70 0 -105 -51 -105 -153c0 -136 38.333 -204 115 -204zM467 65c-49.333 -49.333 -113.5 -74.002 -192.5 -74.002s-139.667 21.833 -182 65.5s-63.5 105.834 -63.5 186.501
s24.333 145.334 73 194.001s113 73 193 73s141 -21.333 183 -64s63 -104.5 63 -185.5s-24.667 -146.167 -74 -195.5z" />
    <glyph glyph-name="p" unicode="p" horiz-adv-x="500" 
d="M47 502l107.998 -0.99707l131 4c74.667 0 127.5 -15 158.5 -45s46.5 -67.5 46.5 -112.5s-20 -85.5 -60 -121.5s-86.333 -54 -139 -54h-71v-51c0 -26 2.5 -43.167 7.5 -51.5s15.5 -12.5 31.5 -12.5l35 1l3 -5l-8 -55c-53.333 1.33301 -87.166 2 -101.499 2
s-27.833 -0.166992 -40.5 -0.5s-25.167 -0.833008 -37.5 -1.5l-35.5 -2c-11.333 -0.666992 -24.333 -1.33398 -39 -2.00098l7 58c21.333 3.33301 36 9.66602 44 18.999s12 24.666 12 45.999v286c0 16 -1.66699 27 -5 33s-9.66602 9 -18.999 9l-29 -1l-6 6zM359.998 341.003
c0 30.667 -9 53.001 -27 67.001s-46.333 21 -85 21c-6.66699 0 -11 -0.833008 -13 -2.5s-3.33301 -5.83398 -4 -12.501c-3.33301 -57.333 -6 -112 -8 -164l69 -9c45.333 10 68 43.333 68 100z" />
    <glyph glyph-name="q" unicode="q" horiz-adv-x="574" 
d="M596 -74c22 0 45.668 2.66504 71.001 7.99805l8 -7l10 -39c-62.667 -46.667 -102.334 -70 -119.001 -70c-36 0 -71.833 10.5 -107.5 31.5s-98.834 68.167 -189.501 141.5c-75.333 0 -134.166 21.833 -176.499 65.5s-63.5 105.834 -63.5 186.501
s24.333 145.334 73 194.001s113 73 193 73s141 -21.333 183 -64s63 -103 63 -181c0 -57.333 -14.167 -108 -42.5 -152s-66.5 -76.333 -114.5 -97v-8c81.333 -54.667 152 -82 212 -82zM288.001 67.998c34.667 0 61.5 13 80.5 39s28.5 64.333 28.5 115
c0 135.333 -39.667 203 -119 203c-70 0 -105 -51 -105 -153c0 -136 38.333 -204 115 -204z" />
    <glyph glyph-name="r" unicode="r" horiz-adv-x="555" 
d="M99 117l-0.00195312 291c0 14.667 -1.66699 24.5 -5 29.5s-9.66602 7.5 -18.999 7.5l-29 -1l-6 6l8 52c49.333 -0.666992 85 -1 107 -1l132 4c66.667 0 117.334 -11.833 152.001 -35.5s52 -57.834 52 -102.501c0 -62.667 -35.667 -112 -107 -148l66 -100
c29.333 -45.333 59 -68 89 -68l7 -9l-7 -46l-105 -8c-38.667 0 -69 24 -91 72l-66 130h-55l-1 -76c0 -25.333 3.16699 -41.166 9.5 -47.499s22.833 -9.83301 49.5 -10.5l3 -5l-8 -54c0 1.33301 -38.667 2 -116 2l-124 -5l7 59c22 3.33301 37 9.33301 45 18s12 24 12 46z
M360.998 352c0 52 -38.667 78.001 -116 78.001c-5.33301 0 -9 -1.33301 -11 -4c-4 -4 -7.33301 -56.333 -10 -157l71 -8c44 17.333 66 47.666 66 90.999z" />
    <glyph glyph-name="s" unicode="s" horiz-adv-x="466" 
d="M191 -9c-26.667 0 -52.3271 2.50195 -76.9941 7.50195s-48.667 12.5 -72 22.5l-8 12c8.66699 47.333 13.667 91 15 131l77 6c0 -37.333 6.33301 -63.166 19 -77.499s33 -21.5 61 -21.5s49 4.66699 63 14s21 21.666 21 36.999c0 12 -3.66699 21.167 -11 27.5l-16.5 14.5
c-3.66699 3.33301 -10.334 7.33301 -20.001 12s-16.834 8 -21.501 10c-6 3.33301 -26.333 12.666 -61 27.999s-63.334 33.5 -86.001 54.5s-34 48.5 -34 82.5c0 46.667 21.333 84.834 64 114.501s97.667 44.5 165 44.5c52 0 100.333 -7 145 -21l7 -12
c-10 -42.667 -17 -87.334 -21 -134.001l-70 -6l-8 6c0.666992 7.33301 1 14.666 1 21.999c0 21.333 -6 36.833 -18 46.5s-29.833 14.5 -53.5 14.5s-42.334 -4.5 -56.001 -13.5s-20.5 -19.333 -20.5 -31s2.5 -21.167 7.5 -28.5s14.167 -15 27.5 -23
c15.333 -8.66699 36.666 -19 63.999 -31s47.833 -21.5 61.5 -28.5s28.5 -16.5 44.5 -28.5c32 -24 48 -55 48 -93c0 -48 -21.333 -86.333 -64 -115s-100.334 -43 -173.001 -43z" />
    <glyph glyph-name="t" unicode="t" horiz-adv-x="492" 
d="M184 129l0.000976562 301c-36.667 -0.666992 -60.334 -6.83398 -71.001 -18.501s-18.667 -40.167 -24 -85.5l-77 -5c4.66699 66 7.66699 125.667 9 179l9 10l87 -9h258l87 9l10 -10l7 -174l-77 -5c-6 49.333 -13.667 79.5 -23 90.5s-31.333 17.167 -66 18.5
c-5.33301 -97.333 -8 -203.666 -8 -318.999c0 -19.333 3.33301 -33 10 -41s18.334 -12 35.001 -12l43 2l4 -4l-8 -60c-70.667 2.66699 -120.334 4 -149.001 4l-145 -6l6 59c36 2.66699 58.833 8.5 68.5 17.5s14.5 28.5 14.5 58.5z" />
    <glyph glyph-name="u" unicode="u" horiz-adv-x="552" 
d="M290 70c60 0 90.001 30.333 90.001 91l-2 242c-0.666992 16.667 -2.66699 27.834 -6 33.501s-9.66602 8.5 -18.999 8.5l-26 -1l-2 3l8 56c44 -1.33301 76.333 -2 97 -2l103 4l-5 -58c-20 -4.66699 -32.667 -9.16699 -38 -13.5s-8 -12.5 -8 -24.5v-234
c0 -60 -18.333 -105.667 -55 -137s-88.834 -47 -156.501 -47s-117.334 13.667 -149.001 41s-47.5 69.333 -47.5 126v245c0 17.333 -1.83301 28.666 -5.5 33.999s-10.834 8 -21.501 8l-25 -1l-2 3l8 56c48.667 -1.33301 90.334 -2 125.001 -2l101 4l-6 -59
c-16.667 -1.33301 -28.167 -5 -34.5 -11s-9.83301 -15.667 -10.5 -29l-6 -227c0 -34 8 -60.667 24 -80s39 -29 69 -29z" />
    <glyph glyph-name="v" unicode="v" horiz-adv-x="537" 
d="M210 438.5c-6.66699 -3 -10.001 -9.16797 -10.001 -18.501c0 -18 22.667 -121 68 -309h14c9.33301 20.667 27.5 74.834 54.5 162.501s40.5 136.667 40.5 147s-2.66699 17 -8 20s-15.333 4.5 -30 4.5h-30l-4 6l5 53c48 -2 89.333 -3 124 -3l97 1l-6 -56
c-12 -2 -20.667 -5.66699 -26 -11s-10.666 -15.333 -15.999 -30l-144 -401l-159 -16c-49.333 188 -87.666 324 -114.999 408c-9.33301 30.667 -28.333 47 -57 49l-4 6l6 52c45.333 -1.33301 80.666 -2 105.999 -2l144 5l5 -6l-4 -53c-27.333 -2.66699 -44.333 -5.5 -51 -8.5
z" />
    <glyph glyph-name="w" unicode="w" horiz-adv-x="820" 
d="M203.5 438.5c-6.33301 -3 -9.50195 -9.16602 -9.50195 -18.499c0 -22 21.667 -125 65 -309h12c9.33301 20.667 37.666 112 84.999 274c-0.666992 2 -1.5 6.5 -2.5 13.5s-2.16699 14.167 -3.5 21.5c-4 16.667 -22.667 25 -56 25l-4 6l7 52
c51.333 -1.33301 90.333 -2 117 -2l139 5l5 -6l-4 -53c-26.667 -2.66699 -43.167 -5.33398 -49.5 -8.00098s-9.5 -9 -9.5 -19c0 -15.333 21.667 -118.333 65 -309h13c8.66699 20 26.167 74.333 52.5 163s39.5 138 39.5 148s-2.66699 16.333 -8 19s-15.333 4 -30 4h-28l-4 6
l6 53c46.667 -2 86.334 -3 119.001 -3l94 1l-6 -56c-11.333 -2 -19.666 -5.5 -24.999 -10.5s-10.666 -15.167 -15.999 -30.5l-137 -401l-153 -16c-9.33301 55.333 -30.333 142.333 -63 261h-8l-78 -245l-154 -16c-46.667 188 -83.334 324 -110.001 408
c-9.33301 30.667 -28 47 -56 49c-1.33301 2.66699 -2.66602 4.66699 -3.99902 6l7 52c43.333 -1.33301 77.333 -2 102 -2l139 5l5 -6l-5 -53c-26 -2.66699 -42.167 -5.5 -48.5 -8.5z" />
    <glyph glyph-name="x" unicode="x" horiz-adv-x="587" 
d="M356 503l113.999 -2.00195l96 2l3 -6l-4 -53c-25.333 -9.33301 -45.333 -19.666 -60 -30.999s-31 -29 -49 -53l-85 -115l90 -120c31.333 -42 67 -64 107 -66l3 -3l-7 -57c-49.333 1.33301 -85.333 2 -108 2l-154 -6l-4 6l4 53c26.667 0.666992 40 7 40 19
c0 6 -4 14.667 -12 26l-66 89l-49 -64c-16 -21.333 -24 -36.666 -24 -45.999c0 -14.667 12.667 -22.334 38 -23.001l4 -6l-5 -53c-55.333 3.33301 -92.333 5 -111 5l-100 -4l-3 9l4 51c30.667 10.667 69.334 45 116.001 103l80 102l-84 114
c-15.333 21.333 -30.333 36.5 -45 45.5s-34 15.833 -58 20.5l-3 4l6 56c44.667 -0.666992 89.667 -1 135 -1l130 5l4 -8l-5 -50c-29.333 -0.666992 -44 -8 -44 -22c0 -11.333 22.667 -47.666 68 -108.999l30 41c28.667 39.333 43 63.333 43 72
c0 11.333 -12.667 17.333 -38 18l-2 4z" />
    <glyph glyph-name="y" unicode="y" horiz-adv-x="524" 
d="M317 503l114.999 -3.00098l87 3l3 -6l-6 -53c-20.667 -7.33301 -38 -18.5 -52 -33.5s-29.333 -36.833 -46 -65.5l-78 -140c-9.33301 -18.667 -14 -51 -14 -97v-16c0 -8.66699 2.83301 -16.5 8.5 -23.5s15.834 -10.5 30.501 -10.5l42 2l2 -4l-7 -60
c-67.333 2.66699 -115.666 4 -144.999 4l-138 -8l6 59c32.667 3.33301 53.667 9.33301 63 18s14 26 14 52v20c0 22.667 -7.66699 48.334 -23 77.001l-83 150c-12 22 -24.333 38.333 -37 49s-30.334 19 -53.001 25l-3 4l7 56c52.667 -1.33301 89.667 -2 111 -2l136 6l5 -8
l-6 -50c-30 -0.666992 -45 -8.33398 -45 -23.001c0 -7.33301 10.167 -32 30.5 -74s31.5 -65.667 33.5 -71h9l57 115c8 16 12 28 12 36c0 10.667 -13.333 16.334 -40 17.001l-2 4z" />
    <glyph glyph-name="z" unicode="z" horiz-adv-x="500" 
d="M455 13l-14.998 -15l-332 4l-64 -6l-22 38l283 402l-94 -7c-34 -4 -56.833 -12.167 -68.5 -24.5s-18.5 -35.833 -20.5 -70.5l-79 -5c7.33301 67.333 11.666 125.333 12.999 174l9 8l147 -9l249 -2l17 -35c-98.667 -122 -196 -255.333 -292 -400l118 10
c27.333 3.33301 48.166 14 62.499 32s24.5 46.333 30.5 85l78 7c-11.333 -72.667 -18 -134.667 -20 -186z" />
    <glyph glyph-name="braceleft" unicode="{" horiz-adv-x="321" 
d="M129 363c0 13.333 -7.83203 40.834 -23.499 82.501s-23.5 72.5 -23.5 92.5c0 33.333 13.5 61 40.5 83s63.167 33 108.5 33c23.333 0 47.666 -3 72.999 -9l7 -10l-13 -56c-16.667 3.33301 -32.167 5 -46.5 5s-26.333 -5.5 -36 -16.5s-14.5 -24 -14.5 -39
s4.5 -41.5 13.5 -79.5s13.5 -66.833 13.5 -86.5s-6.83301 -37.334 -20.5 -53.001s-31.167 -26.5 -52.5 -32.5v-6c48.667 -16 73 -48.333 73 -97c0 -16.667 -4.5 -45.167 -13.5 -85.5s-13.5 -68.5 -13.5 -84.5s5 -29.833 15 -41.5s24.667 -17.5 44 -17.5l41 6l8 -10l-11 -54
c-20 -10 -48.333 -15 -85 -15s-67.667 11.167 -93 33.5s-38 49.833 -38 82.5c0 20.667 7.83301 51.5 23.5 92.5s23.5 67.5 23.5 79.5c0 40.667 -28.333 67.667 -85 81l4 48c54 15.333 81 40 81 74z" />
    <glyph glyph-name="bar" unicode="|" horiz-adv-x="334" 
d="M204 807l16 -10.999c-4 -226 -6 -394.333 -6 -505l1 -549l-87 -11l-12 11c0 9.33301 0.666992 360.666 2 1054z" />
    <glyph glyph-name="braceright" unicode="}" horiz-adv-x="321" 
d="M215.5 212.5c-15 -13 -22.501 -27.334 -22.501 -43.001s7.83301 -44 23.5 -85s23.5 -71.5 23.5 -91.5c0 -35.333 -13.667 -64.333 -41 -87s-63.666 -34 -108.999 -34c-22 0 -46.333 3 -73 9l-6 10l13 55c16 -3.33301 31.333 -5 46 -5s26.667 5.5 36 16.5
s14 24.167 14 39.5s-4.5 42.666 -13.5 81.999s-13.5 66.666 -13.5 81.999c0 46.667 24.333 77.334 73 92.001v6c-48.667 16.667 -73 49.334 -73 98.001c0 16 4.5 43.5 13.5 82.5s13.5 66.333 13.5 82s-5 29.334 -15 41.001s-24.333 17.5 -43 17.5l-41 -5l-8 9l11 55
c20 10 48.333 15 85 15s67.667 -11.333 93 -34s38 -50 38 -82c0 -20.667 -7.83301 -51 -23.5 -91s-23.5 -68.167 -23.5 -84.5s7.66699 -31.333 23 -45s36 -23.167 62 -28.5l-4 -47c-24 -6.66699 -43.5 -16.5 -58.5 -29.5z" />
    <glyph glyph-name="asciitilde" unicode="~" horiz-adv-x="506" 
d="M250.5 311.5c58.333 -13 92.998 -19.499 103.998 -19.499s22.833 4.66699 35.5 14s27.334 23.666 44.001 42.999h11l35 -38v-10l-91 -102l-19 -4c-17.333 0 -55.166 6.5 -113.499 19.5s-93.166 19.5 -104.499 19.5c-19.333 0 -41.333 -14 -66 -42l-13 -14h-11l-35 37v11
l91 101l19 4c17.333 0 55.166 -6.5 113.499 -19.5z" />
    <glyph glyph-name="nbspace" unicode="&#xa0;" horiz-adv-x="174" 
 />
    <glyph glyph-name="exclamdown" unicode="&#xa1;" horiz-adv-x="285" 
d="M101 451c14.667 15.333 34.167 23 58.5 23s43 -6.83301 56 -20.5s19.5 -32.334 19.5 -56.001s-7.5 -43.167 -22.5 -58.5s-34.5 -23 -58.5 -23s-42.5 6.83301 -55.5 20.5s-19.5 32.334 -19.5 56.001s7.33301 43.167 22 58.5zM192 227l20 -430l-12 -17l-133 -22l-17 18
l62 453l64 11z" />
    <glyph glyph-name="cent" unicode="&#xa2;" horiz-adv-x="432" 
d="M66 71.5c-27.333 39 -41.002 90.335 -41.002 154.002s19 118.5 57 164.5s88 73 150 81l20 178l70 9l6 -9l-20 -177c29.333 -2.66699 58.666 -9 87.999 -19l4 -9c-11.333 -47.333 -18.666 -99 -21.999 -155l-65 -4v33c0 47.333 -20.667 71 -62 71c-62 0 -93 -44 -93 -132
c0 -54.667 9.33301 -96.334 28 -125.001s45.667 -43 81 -43c30.667 0 66 9.66699 106 29l8 -3l16 -52c-55.333 -44.667 -102.666 -69.334 -141.999 -74.001l-15 -140l-69 -8l-6 7l16 148c-49.333 11.333 -87.666 36.5 -114.999 75.5z" />
    <glyph glyph-name="sterling" unicode="&#xa3;" horiz-adv-x="518" 
d="M489 93c0 -30.667 -9.16797 -55.8301 -27.501 -75.4971s-40 -29.5 -65 -29.5s-63.5 8.16699 -115.5 24.5s-92.833 24.5 -122.5 24.5s-63.167 -12 -100.5 -36l-11 5l-20 61c61.333 37.333 92 82.666 92 135.999v41c-0.666992 15.333 -5.16699 25.5 -13.5 30.5
s-25.166 8.16699 -50.499 9.5l-4 6l7 52l61 10v21c0 61.333 22.667 114.166 68 158.499s99 66.5 161 66.5c49.333 0 86.666 -5 111.999 -15l5 -11l-32 -96l-19 -3c-45.333 25.333 -81.666 38 -108.999 38c-46 0 -69.333 -31.667 -70 -95l-3 -68l151 3l4 -5l-11 -68
c-45.333 2 -94 3 -146 3l-2 -60c-1.33301 -48 -17 -85 -47 -111l57 12c14 0 37.667 -3.16699 71 -9.5s56.333 -9.5 69 -9.5c41.333 0 63 25 65 75l25 -2c14 -24.667 21 -52.334 21 -83.001z" />
    <glyph glyph-name="currency" unicode="&#xa4;" horiz-adv-x="444" 
d="M86 278c-12 22 -18.002 46.5 -18.002 73.5s6.66699 51.833 20 74.5l-75 71l3 17l70 50l67 -72c22.667 12 46.834 18 72.501 18s50.5 -6 74.5 -18l68 77l18 -4l51 -71l-72 -67c14 -24 21 -49.333 21 -76s-6.33301 -51 -19 -73l74 -67l-4 -17l-71 -52l-65 70
c-22.667 -13.333 -47.5 -20 -74.5 -20s-52.833 7 -77.5 21l-68 -73l-17 4l-49 71c4.66699 3.33301 28.334 24.333 71.001 63zM139.998 351c0 -24 8.33301 -44.5 25 -61.5s37 -25.5 61 -25.5s44.667 8.5 62 25.5s26 37.5 26 61.5s-8.66699 44.5 -26 61.5s-38 25.5 -62 25.5
s-44.333 -8.5 -61 -25.5s-25 -37.5 -25 -61.5z" />
    <glyph glyph-name="yen" unicode="&#xa5;" horiz-adv-x="568" 
d="M177 267l-126.999 -0.998047l-7 7l8 56h88c-37.333 65.333 -76.666 103.666 -117.999 114.999v24l6 37c43.333 -2 73.833 -3 91.5 -3s47.667 1 90 3s64.833 3.33301 67.5 4l5 -10l-5 -51c-19.333 -1.33301 -32 -3.33301 -38 -6s-9 -7.33398 -9 -14.001
s5.33301 -21.667 16 -45l9 -23l47 -81l65 129c5.33301 9.33301 8 16.833 8 22.5s-1.83301 9.16699 -5.5 10.5s-9.33398 2.33301 -17.001 3s-14.5 2.66699 -20.5 6c0.666992 4 1 10.667 1 20l5 35l116 -3l88 3l4 -6l-6 -55c-22.667 -7.33301 -39 -15.333 -49 -24
c-12 -10.667 -32.667 -40.334 -62 -89.001c53.333 1.33301 85 2 95 2l7 -9l-4 -57h-136l-26 -45c-4.66699 -7.33301 -8 -16.333 -10 -27c50 0.666992 106 2 168 4l7 -10l-5 -57h-181c0 -34.667 2.33301 -55.167 7 -61.5s10.167 -9.83301 16.5 -10.5s14.166 -1 23.499 -1
l34 2l3 -6l-8 -58c-66 2 -113.333 3 -142 3l-137 -9l6 60c31.333 4 51.333 10.833 60 20.5s13.667 29.834 15 60.501l-172 -1l-7 8l8 56h163c-6 15.333 -18 39.333 -36 72z" />
    <glyph glyph-name="brokenbar" unicode="&#xa6;" horiz-adv-x="334" 
d="M117 158l87 15l10 -10l1 -421l-87 -11l-12 11c0 169.333 0.333008 308 1 416zM117 370l1 426l86 11l16 -11c-3.33301 -164 -5.33301 -304.333 -6 -421l-88 -12z" />
    <glyph glyph-name="section" unicode="&#xa7;" horiz-adv-x="500" 
d="M388 52c0 -38.667 -18.667 -73.6719 -56 -105.005s-82.666 -47 -135.999 -47c-36.667 0 -68.5 7.83301 -95.5 23.5s-40.5 33.834 -40.5 54.501c0 45.333 9 80.333 27 105l21 -1c4.66699 -29.333 17 -53.5 37 -72.5s40.333 -28.5 61 -28.5s36.334 4.5 47.001 13.5
s16 21.5 16 37.5s-8.33301 32 -25 48s-36.667 31 -60 45s-46.833 29 -70.5 45s-43.834 35.833 -60.501 59.5s-25 49.834 -25 78.501c0 54.667 33 102.334 99 143.001c-8 16 -12 33.333 -12 52c0 42 16.833 77.667 50.5 107s74.834 44 123.501 44c32 0 60.333 -5 85 -15
s37 -22.333 37 -37s-3.33301 -33.667 -10 -57s-13.334 -38 -20.001 -44h-19c-8 20 -19.833 36.333 -35.5 49s-30.834 19 -45.501 19s-26.167 -4.16699 -34.5 -12.5s-12.5 -19.833 -12.5 -34.5s8.16699 -30.167 24.5 -46.5s36.166 -31.833 59.499 -46.5l70.5 -46.5
c23.667 -16.333 43.667 -36.166 60 -59.499s24.5 -48.666 24.5 -75.999s-8.66699 -53.833 -26 -79.5s-40.666 -47.5 -69.999 -65.5c7.33301 -16 11 -32.667 11 -50zM158 407.995c-17.333 -16 -26 -34.5 -26 -55.5s7.83301 -40.667 23.5 -59s33.5 -33.833 53.5 -46.5
c67.333 -42.667 111.666 -74.667 132.999 -96c15.333 16.667 23 35 23 55s-7.66699 39.167 -23 57.5s-32.666 33.833 -51.999 46.5c-69.333 46 -113.333 78.667 -132 98z" />
    <glyph glyph-name="dieresis" unicode="&#xa8;" 
d="M332.5 582c-12.333 -12.667 -28.333 -19 -48 -19s-34.667 5.5 -45 16.5s-15.5 26 -15.5 45s6.16699 34.833 18.5 47.5s28.333 19 48 19s34.667 -5.5 45 -16.5s15.5 -26 15.5 -45s-6.16699 -34.833 -18.5 -47.5zM154.5 581.5c-12.333 -12.333 -28.332 -18.5 -47.999 -18.5
s-34.667 5.5 -45 16.5s-15.5 26 -15.5 45s6.16699 34.833 18.5 47.5s28.166 19 47.499 19s34.333 -5.66699 45 -17s16 -26.5 16 -45.5s-6.16699 -34.667 -18.5 -47z" />
    <glyph glyph-name="copyright" unicode="&#xa9;" horiz-adv-x="696" 
d="M456 148c-35.333 -12.667 -76.3311 -19 -122.998 -19s-83.334 14.5 -110.001 43.5s-40 69.167 -40 120.5s16 92.666 48 123.999s76.333 47 133 47c30 0 65.333 -4.33301 106 -13l3 -7c-7.33301 -28.667 -12 -62.334 -14 -101.001l-61 -3
c0.666992 8.66699 1 17.334 1 26.001c0 27.333 -16.333 41 -49 41c-46 0 -69 -33.667 -69 -101c0 -80 24 -120 72 -120c17.333 0 30.666 5.16699 39.999 15.5s15.333 26.833 18 49.5l59 5c-5.33301 -37.333 -8 -70.666 -8 -99.999zM43.002 293c0 84 29.667 155.833 89 215.5
s131.166 89.5 215.499 89.5s156.166 -29.833 215.499 -89.5s89 -131.5 89 -215.5s-29.667 -155.833 -89 -215.5s-131.166 -89.5 -215.499 -89.5s-156.166 29.833 -215.499 89.5s-89 131.5 -89 215.5zM94.002 293c0 -70.667 24.667 -131 74 -181s109.166 -75 179.499 -75
s130.333 25 180 75s74.5 110.333 74.5 181s-24.833 131 -74.5 181s-109.667 75 -180 75s-130.166 -25 -179.499 -75s-74 -110.333 -74 -181z" />
    <glyph glyph-name="ordfeminine" unicode="&#xaa;" horiz-adv-x="341" 
d="M295 409c7.33301 0 17.001 2.99902 29.001 8.99902l10 -16c-24 -41.333 -46.333 -65 -67 -71c-43.333 0 -66.666 16.667 -69.999 50l-7 2c-32.667 -32.667 -57.334 -49 -74.001 -49c-26 0 -48 9.83301 -66 29.5s-27 43.834 -27 72.501c0 13.333 3.66699 25.166 11 35.499
s17 16.833 29 19.5l129 26v9c0 16.667 -4.83301 29.834 -14.5 39.501s-21.5 14.5 -35.5 14.5c-26.667 0 -50.667 -7.33301 -72 -22l-11 -7l-6 3l-14 44c64 34.667 106.667 52 128 52c41.333 0 71.666 -8.5 90.999 -25.5s29 -38.833 29 -65.5l-13 -125
c0 -16.667 7 -25 21 -25zM130.001 461.999c-9.33301 -2.66699 -14 -9.16699 -14 -19.5s3 -19 9 -26s14.667 -10.5 26 -10.5s24 4 38 12l2 59z" />
    <glyph glyph-name="guillemotleft" unicode="&#xab;" horiz-adv-x="451" 
d="M321 229c0 -2 29.667 -49.999 89 -143.999l-4 -16l-41 -25c-42.667 48 -97.667 105 -165 171v21c61.333 61.333 116.333 119.666 165 174.999l41 -25l4 -16c-9.33301 -14 -39 -61 -89 -141zM136 229.001c0 -2 29.667 -49.999 89 -143.999l-4 -16l-41 -25
c-42.667 48 -97.667 105 -165 171v21c61.333 61.333 116.333 119.666 165 174.999l41 -25l4 -16c-9.33301 -14 -39 -61 -89 -141z" />
    <glyph glyph-name="logicalnot" unicode="&#xac;" horiz-adv-x="506" 
d="M349 222l-97 0.000976562l-228 -1l-7 10l14 91c96.667 -0.666992 174.667 -1 234 -1l187 6l7 -13c-6 -46.667 -9.33301 -94.334 -10 -143.001l1 -136l-91 -14l-11 7c0.666992 68 1 132.667 1 194z" />
    <glyph glyph-name="registered" unicode="&#xae;" horiz-adv-x="468" 
d="M30 507c0 56.667 19.833 104.834 59.5 144.501s87.834 59.5 144.501 59.5s104.834 -19.833 144.501 -59.5s59.5 -87.834 59.5 -144.501s-19.833 -104.834 -59.5 -144.501s-87.834 -59.5 -144.501 -59.5s-104.834 19.833 -144.501 59.5s-59.5 87.834 -59.5 144.501z
M68 507c0 -45.333 16.333 -84.333 49 -117s71.667 -49 117 -49s84.333 16.333 117 49s49 71.667 49 117s-16.333 84.333 -49 117s-71.667 49 -117 49s-84.333 -16.333 -117 -49s-49 -71.667 -49 -117zM142 618l42.998 -1.00195h11c14.667 1.33301 26.334 2 35.001 2
c57.333 0 86 -18.667 86 -56c0 -25.333 -14 -45.666 -42 -60.999l24 -38c12 -19.333 24 -29.333 36 -30l2 -3c-0.666992 -9.33301 -2.66699 -15.166 -6 -17.499s-12.166 -3.66602 -26.499 -3.99902s-24.5 1.5 -30.5 5.5s-11.667 12 -17 24l-25 51h-21v-27
c0 -11.333 1.16699 -18.333 3.5 -21s8.83301 -4 19.5 -4l2 -3l-3 -22c-16.667 1.33301 -29.667 2 -39 2h-12l-45 -3l3 24c9.33301 1.33301 15.333 4.16602 18 8.49902s4 12.5 4 24.5v107c0 12 -3.33301 18 -10 18h-11l-2 3zM211.998 521.998l27 -2c16.667 6 25 18 25 36
c0 21.333 -14.667 32 -44 32c-3.33301 0 -5 -2.66699 -5 -8z" />
    <glyph glyph-name="macron" unicode="&#xaf;" 
d="M345 672l8.00098 -14l-12 -76l-280 -2l-11 11l14 76c63.333 -0.666992 114.666 -1 153.999 -1z" />
    <glyph glyph-name="degree" unicode="&#xb0;" horiz-adv-x="302" 
d="M59 431c-25.333 25.333 -38 56.166 -38 92.499s12.667 67.166 38 92.499s56 38 92 38s66.667 -12.667 92 -38s38 -56.166 38 -92.499s-12.667 -67.166 -38 -92.499s-56 -38 -92 -38s-66.667 12.667 -92 38zM79 523c0 -20.667 6.83301 -37.834 20.5 -51.501
s30.834 -20.5 51.501 -20.5s37.834 6.83301 51.501 20.5s20.5 30.834 20.5 51.501s-6.83301 38 -20.5 52s-30.834 21 -51.501 21s-37.834 -7 -51.501 -21s-20.5 -31.333 -20.5 -52z" />
    <glyph glyph-name="plusminus" unicode="&#xb1;" horiz-adv-x="506" 
d="M479 225l-180 -1.00098l1 -163l-88 -14l-11 7c0 59.333 0.333008 116 1 170l-178 -1l-7 11l14 91c60 -0.666992 117 -1 171 -1l1 174l89 11l13 -7c-3.33301 -67.333 -5.33301 -126.666 -6 -177.999l183 6l7 -13zM470 -97.001l-437 -2l-9 14l11 76h232
c137.333 0 206 1.33301 206 4l8 -15z" />
    <glyph glyph-name="two.sups" unicode="&#xb2;" horiz-adv-x="352" 
d="M179 603c0 25.333 -14.666 38 -43.999 38s-57.333 -18 -84 -54h-10l-13 63c16 23.333 36.833 42.166 62.5 56.499s53.834 21.5 84.501 21.5s57 -8.5 79 -25.5s33 -39.5 33 -67.5s-9.83301 -58.167 -29.5 -90.5s-54.167 -75.166 -103.5 -128.499l3 -6h57
c19.333 0 33.166 4.16699 41.499 12.5s14.166 23.833 17.499 46.5l61 5c-9.33301 -51.333 -15.333 -95.333 -18 -132l-11 -9c-104.667 4 -178.667 6 -222 6l-55 -5l-6 48l81 87c50.667 60 76 104.667 76 134z" />
    <glyph glyph-name="three.sups" unicode="&#xb3;" horiz-adv-x="310" 
d="M34 419c18 -7.33301 38.1689 -11.0029 60.502 -11.0029s41 4.66699 56 14s22.5 21.333 22.5 36c0 30 -29.667 45 -89 45l-7 8l-6 48l44 9c30 13.333 45 32 45 56c0 9.33301 -3.33301 17 -10 23s-15.334 9 -26.001 9c-22 0 -46 -9.33301 -72 -28h-8l-17 55
c15.333 10.667 35.666 20.834 60.999 30.501s50.833 14.5 76.5 14.5s48 -7.16699 67 -21.5s28.5 -32.166 28.5 -53.499s-6.5 -39.833 -19.5 -55.5s-30.833 -27.5 -53.5 -35.5v-7c61.333 -19.333 92 -50.666 92 -93.999c0 -32 -20.5 -61.667 -61.5 -89s-86.5 -41 -136.5 -41
c-20 0 -34.333 5.66699 -43 17s-14 31 -16 59z" />
    <glyph glyph-name="acute" unicode="&#xb4;" 
d="M350 666l-1 -14c-64 -40 -127 -83 -189 -129l-15 4l-30 39l167 171l14 -1z" />
    <glyph glyph-name="mu" unicode="&#xb5;" horiz-adv-x="532" 
d="M472 92c14.667 0 30.334 5.66797 47.001 17.001l15 -21c-12 -20 -28.833 -40.833 -50.5 -62.5s-39.5 -34.167 -53.5 -37.5c-62.667 0 -96.667 25 -102 75l-8 4c-44.667 -48 -79.334 -74 -104.001 -78c-21.333 0 -39.333 5.66699 -54 17l-5 -3l-1 -59v-35l7 -122l-7 -9
l-109 -20l-11 13c8.66699 94 14.667 194.667 18 302l7 254c0 36 -3 71.333 -9 106l7 17c62 8.66699 106.333 16.667 133 24l9 -17c-6.66699 -16 -12.834 -51.833 -18.501 -107.5s-8.5 -112.167 -8.5 -169.5s21.333 -86 64 -86c20 0 47 12.333 81 37v204
c0 27.333 -3.33301 59.666 -10 96.999l7 17c61.333 9.33301 107.333 17 138 23l10 -17c-7.33301 -15.333 -13.666 -54 -18.999 -116s-8 -130.667 -8 -206c0 -27.333 11.667 -41 35 -41z" />
    <glyph glyph-name="mu" unicode="&#x3bc;" horiz-adv-x="532" 
d="M472 92c14.667 0 30.334 5.66797 47.001 17.001l15 -21c-12 -20 -28.833 -40.833 -50.5 -62.5s-39.5 -34.167 -53.5 -37.5c-62.667 0 -96.667 25 -102 75l-8 4c-44.667 -48 -79.334 -74 -104.001 -78c-21.333 0 -39.333 5.66699 -54 17l-5 -3l-1 -59v-35l7 -122l-7 -9
l-109 -20l-11 13c8.66699 94 14.667 194.667 18 302l7 254c0 36 -3 71.333 -9 106l7 17c62 8.66699 106.333 16.667 133 24l9 -17c-6.66699 -16 -12.834 -51.833 -18.501 -107.5s-8.5 -112.167 -8.5 -169.5s21.333 -86 64 -86c20 0 47 12.333 81 37v204
c0 27.333 -3.33301 59.666 -10 96.999l7 17c61.333 9.33301 107.333 17 138 23l10 -17c-7.33301 -15.333 -13.666 -54 -18.999 -116s-8 -130.667 -8 -206c0 -27.333 11.667 -41 35 -41z" />
    <glyph glyph-name="paragraph" unicode="&#xb6;" horiz-adv-x="567" 
d="M251 646l144.001 -4l144 3l-6 -62l-2 -4c-24.667 -2 -41 -5.83301 -49 -11.5s-12.667 -17.167 -14 -34.5c-8 -58 -12 -178.667 -12 -362c0 -80.667 -20 -146 -60 -196s-97 -75 -171 -75c-38 0 -70.833 9 -98.5 27s-41.5 41.333 -41.5 70
c0 15.333 4.16699 33.666 12.5 54.999s18.166 39 29.499 53h16c2 -40.667 11.833 -72.334 29.5 -95.001s42 -34 73 -34s52.833 10.667 65.5 32s19 59 19 113v441c0 6.66699 -1.5 10.834 -4.5 12.501s-10.5 2.5 -22.5 2.5c-26 0 -45.667 -12.667 -59 -38
s-20 -60.166 -20 -104.499s4.83301 -81.666 14.5 -111.999s26.167 -61.5 49.5 -93.5v-24c-78 3.33301 -141.5 24.833 -190.5 64.5s-73.5 92.167 -73.5 157.5s21 118.166 63 158.499s96.667 60.5 164 60.5z" />
    <glyph glyph-name="periodcentered" unicode="&#xb7;" horiz-adv-x="238" 
d="M116 161c-24.667 0 -43.332 6.83105 -55.999 20.498s-19 32.334 -19 56.001s7.33301 43.167 22 58.5s34 23 58 23s42.667 -7 56 -21s20 -32.667 20 -56s-7.33301 -42.666 -22 -57.999s-34.334 -23 -59.001 -23z" />
    <glyph glyph-name="cedilla" unicode="&#xb8;" 
d="M300 -141c0 -26 -13.498 -48.5 -40.498 -67.5s-57.833 -28.5 -92.5 -28.5c-18.667 0 -36.334 4 -53.001 12s-25 18.333 -25 31s12.333 33.667 37 63h9c0.666992 -18 5.66699 -31.833 15 -41.5s20.666 -14.5 33.999 -14.5s23.833 2.83301 31.5 8.5
s11.5 12.834 11.5 21.501c0 17.333 -28.667 41 -86 71l32 115h52l-21 -73l43.5 -26.5c11 -7 22.5 -17.333 34.5 -31s18 -26.834 18 -39.501z" />
    <glyph glyph-name="one.sups" unicode="&#xb9;" horiz-adv-x="265" 
d="M182 431c0 -28.667 9.66797 -43.001 29.001 -43.001l30 1l3 -3l-9 -49c-42.667 1.33301 -75.334 2 -98.001 2l-112 -7l5 47c20.667 1.33301 35.667 5.5 45 12.5s14 18.5 14 34.5v197c0 15.333 -2.16699 25.333 -6.5 30s-12.833 7 -25.5 7l-33 -2l-4 4l4 43
c53.333 6 93.333 10.833 120 14.5l63 8.5l9 -23c-14 -11.333 -22.667 -27.666 -26 -48.999c-5.33301 -41.333 -8 -116.333 -8 -225z" />
    <glyph glyph-name="ordmasculine" unicode="&#xba;" horiz-adv-x="354" 
d="M287 377c-29.333 -30.667 -67.501 -46 -114.501 -46s-83.667 13.667 -110 41s-39.5 65.333 -39.5 114s14.833 88.167 44.5 118.5s68.334 45.5 116.001 45.5s84.167 -13.333 109.5 -40s38 -64.5 38 -113.5s-14.667 -88.833 -44 -119.5zM179.999 390
c30.667 0 46 25.333 46 76c0 79.333 -17.667 119 -53 119c-30.667 0 -46 -25.333 -46 -76c0 -79.333 17.667 -119 53 -119z" />
    <glyph glyph-name="guillemotright" unicode="&#xbb;" horiz-adv-x="451" 
d="M271 44l-41.001 24.999l-4 16l88 141l-88 143l4 16l41 26c42.667 -48 97.334 -105.333 164.001 -172v-20c-61.333 -61.333 -116 -119.666 -164 -174.999zM85.999 43.999l-41.001 24.999l-4 16l88 141l-88 143l4 16l41 26c42.667 -48 97.334 -105.333 164.001 -172v-20
c-61.333 -61.333 -116 -119.666 -164 -174.999z" />
    <glyph glyph-name="onequarter" unicode="&#xbc;" horiz-adv-x="762" 
d="M182 352c0 -28.667 9.66797 -42.998 29.001 -42.998l30 2l3 -4l-9 -49c-42.667 2 -75.334 3 -98.001 3l-112 -7l5 46c20.667 1.33301 35.667 5.66602 45 12.999s14 18.666 14 33.999v197c0 15.333 -2.16699 25.333 -6.5 30s-12.833 7 -25.5 7l-33 -2l-4 5l4 42
c53.333 6 93.333 10.833 120 14.5l63 8.5l9 -23c-14 -10 -22.667 -26.333 -26 -49c-5.33301 -41.333 -8 -116.333 -8 -225zM626.001 653.002l7 -19l-266 -407l-202 -320l-65 27l-5 14l207 316l262 414zM682.001 160.002h50l7 -8l-7 -62l-49 1l4 -84l-7 -7l-90 -7l-5 6
c2 33.333 3.33301 65 4 95l-155 2l2 53l170 238l5 2l71 -8v-221zM589.001 160.002v104h-7l-71 -104h78z" />
    <glyph glyph-name="onehalf" unicode="&#xbd;" horiz-adv-x="792" 
d="M182 352c0 -28.667 9.66797 -42.998 29.001 -42.998l30 2l3 -4l-9 -49c-42.667 2 -75.334 3 -98.001 3l-112 -7l5 46c20.667 1.33301 35.667 5.66602 45 12.999s14 18.666 14 33.999v197c0 15.333 -2.16699 25.333 -6.5 30s-12.833 7 -25.5 7l-33 -2l-4 5l4 42
c53.333 6 93.333 10.833 120 14.5l63 8.5l9 -23c-14 -10 -22.667 -26.333 -26 -49c-5.33301 -41.333 -8 -116.333 -8 -225zM626.001 653.002l7 -19l-266 -407l-202 -320l-65 27l-5 14l207 316l262 414zM619.001 264.002c0 24.667 -14.832 37.001 -44.499 37.001
s-57.5 -17.667 -83.5 -53h-10l-13 62c16 23.333 36.833 42.333 62.5 57s53.834 22 84.501 22s57 -8.66699 79 -26s33 -39.833 33 -67.5s-9.83301 -57.834 -29.5 -90.501s-54.167 -75.667 -103.5 -129l3 -5h57c19.333 0 33.166 4.16699 41.499 12.5
s14.166 23.833 17.499 46.5l61 5c-9.33301 -51.333 -15.333 -95.333 -18 -132l-11 -9c-104.667 4 -178.667 6 -222 6l-55 -6l-6 48l81 87c50.667 60 76 105 76 135z" />
    <glyph glyph-name="threequarters" unicode="&#xbe;" horiz-adv-x="762" 
d="M34 340c18 -7.33301 38.1689 -10.999 60.502 -10.999s41 4.66699 56 14s22.5 21.333 22.5 36c0 30 -29.667 45 -89 45l-7 8l-6 48l44 9c30 13.333 45 32 45 56c0 9.33301 -3.33301 17 -10 23s-15.334 9 -26.001 9c-21.333 0 -45.333 -9 -72 -27h-8l-17 54
c15.333 10.667 35.666 20.834 60.999 30.501s50.833 14.5 76.5 14.5s48 -7.16699 67 -21.5s28.5 -32 28.5 -53s-6.5 -39.333 -19.5 -55s-30.833 -27.834 -53.5 -36.501v-7c61.333 -18.667 92 -50 92 -94c0 -32 -20.5 -61.5 -61.5 -88.5s-86.5 -40.5 -136.5 -40.5
c-20 0 -34.333 5.66699 -43 17s-14 30.666 -16 57.999zM626.002 653.001l7 -19l-266 -407l-202 -320l-65 27l-5 14l207 316l262 414zM682.002 160.001h50l7 -8l-7 -62l-49 1l4 -84l-7 -7l-90 -7l-5 6c2 33.333 3.33301 65 4 95l-155 2l2 53l170 238l5 2l71 -8v-221z
M589.002 160.001v104h-7l-71 -104h78z" />
    <glyph glyph-name="questiondown" unicode="&#xbf;" horiz-adv-x="370" 
d="M182 39c-34.667 -21.333 -52 -46.501 -52 -75.501s16.167 -52.167 48.5 -69.5s77.166 -27.666 134.499 -30.999l8 -14l-37 -84l-15 -7c-73.333 2 -134.833 19.5 -184.5 52.5s-74.5 73.5 -74.5 121.5c0 40.667 13 74 39 100c14.667 15.333 28.667 28 42 38l43 31l26 18
c2 1.33301 4.33301 3 7 5s5.33398 3.66699 8.00098 5l3 7l-15 83l6 11l88 18l12 -6l24 -126l-3 -14zM159 450.999c14.667 15.333 34.167 23 58.5 23s43 -6.83301 56 -20.5s19.5 -32.334 19.5 -56.001s-7.5 -43.167 -22.5 -58.5s-34.5 -23 -58.5 -23
s-42.5 6.83301 -55.5 20.5s-19.5 32.334 -19.5 56.001s7.33301 43.167 22 58.5z" />
    <glyph glyph-name="Agrave" unicode="&#xc0;" horiz-adv-x="625" 
d="M627 -3c-52.667 2 -92.666 2.99707 -119.999 2.99707c-53.333 0 -110.666 -2.66699 -171.999 -8l-6 8l5 60c32.667 2.66699 53.667 6.33398 63 11.001s14 11.834 14 21.501s-1.66699 22.167 -5 37.5l-20 76c-17.333 0.666992 -43.333 1 -78 1s-70.667 -2.33301 -108 -7
l-25 -75c-4 -14 -6 -25.5 -6 -34.5s3.33301 -15.667 10 -20s18.667 -6.5 36 -6.5h43l4 -7l-7 -63c-54.667 4 -103.334 6 -146.001 6l-121 -3l8 67c16 2.66699 28.833 8.83398 38.5 18.501s18.5 25.5 26.5 47.5l178 507l159 16l11 -5c60 -231.333 107.667 -403.333 143 -516
c7.33301 -24 16.666 -41 27.999 -51s28 -16 50 -18l4 -7zM294.001 285.997c21.333 0 46 1.33301 74 4l-58 220h-14l-72 -224h70zM169.001 761.997l-5.00098 13l26 77l12 5c76.667 -38 151 -72.667 223 -104l-13 -47l-14 -9c-81.333 25.333 -157.666 47 -228.999 65z" />
    <glyph glyph-name="Aacute" unicode="&#xc1;" horiz-adv-x="625" 
d="M627 -3c-52.667 2 -92.666 2.99707 -119.999 2.99707c-53.333 0 -110.666 -2.66699 -171.999 -8l-6 8l5 60c32.667 2.66699 53.667 6.33398 63 11.001s14 11.834 14 21.501s-1.66699 22.167 -5 37.5l-20 76c-17.333 0.666992 -43.333 1 -78 1s-70.667 -2.33301 -108 -7
l-25 -75c-4 -14 -6 -25.5 -6 -34.5s3.33301 -15.667 10 -20s18.667 -6.5 36 -6.5h43l4 -7l-7 -63c-54.667 4 -103.334 6 -146.001 6l-121 -3l8 67c16 2.66699 28.833 8.83398 38.5 18.501s18.5 25.5 26.5 47.5l178 507l159 16l11 -5c60 -231.333 107.667 -403.333 143 -516
c7.33301 -24 16.666 -41 27.999 -51s28 -16 50 -18l4 -7zM294.001 285.997c21.333 0 46 1.33301 74 4l-58 220h-14l-72 -224h70zM491.001 774.997l-6 -13c-76.667 -19.333 -153 -41 -229 -65l-13 9l-13 47l223 104l12 -5z" />
    <glyph glyph-name="Acircumflex" unicode="&#xc2;" horiz-adv-x="625" 
d="M627 -3c-52.667 2 -92.666 2.99707 -119.999 2.99707c-53.333 0 -110.666 -2.66699 -171.999 -8l-6 8l5 60c32.667 2.66699 53.667 6.33398 63 11.001s14 11.834 14 21.501s-1.66699 22.167 -5 37.5l-20 76c-17.333 0.666992 -43.333 1 -78 1s-70.667 -2.33301 -108 -7
l-25 -75c-4 -14 -6 -25.5 -6 -34.5s3.33301 -15.667 10 -20s18.667 -6.5 36 -6.5h43l4 -7l-7 -63c-54.667 4 -103.334 6 -146.001 6l-121 -3l8 67c16 2.66699 28.833 8.83398 38.5 18.501s18.5 25.5 26.5 47.5l178 507l159 16l11 -5c60 -231.333 107.667 -403.333 143 -516
c7.33301 -24 16.666 -41 27.999 -51s28 -16 50 -18l4 -7zM294.001 285.997c21.333 0 46 1.33301 74 4l-58 220h-14l-72 -224h70zM328.001 875.997c0 0.666992 20.999 -15.833 62.999 -49.5l94 -74.5l-24 -41l-16 -4c-33.333 16.667 -75.666 36 -126.999 58
c-32 -13.333 -74 -32.666 -126 -57.999l-16 4l-25 41c48.667 35.333 101 76.666 157 123.999h20z" />
    <glyph glyph-name="Atilde" unicode="&#xc3;" horiz-adv-x="625" 
d="M627 -3c-52.667 2 -92.666 2.99707 -119.999 2.99707c-53.333 0 -110.666 -2.66699 -171.999 -8l-6 8l5 60c32.667 2.66699 53.667 6.33398 63 11.001s14 11.834 14 21.501s-1.66699 22.167 -5 37.5l-20 76c-17.333 0.666992 -43.333 1 -78 1s-70.667 -2.33301 -108 -7
l-25 -75c-4 -14 -6 -25.5 -6 -34.5s3.33301 -15.667 10 -20s18.667 -6.5 36 -6.5h43l4 -7l-7 -63c-54.667 4 -103.334 6 -146.001 6l-121 -3l8 67c16 2.66699 28.833 8.83398 38.5 18.501s18.5 25.5 26.5 47.5l178 507l159 16l11 -5c60 -231.333 107.667 -403.333 143 -516
c7.33301 -24 16.666 -41 27.999 -51s28 -16 50 -18l4 -7zM294.001 285.997c21.333 0 46 1.33301 74 4l-58 220h-14l-72 -224h70zM310.001 817.997c39.333 -11.333 63.334 -17 72.001 -17c14.667 0 33 13 55 39l11 13h11l40 -37v-10l-79 -97l-16 -4
c-12 0 -37.667 5.66699 -77 17s-63 17 -71 17c-15.333 0 -34 -13 -56 -39l-11 -13h-11l-39 37v11l78 96l17 4c11.333 0 36.666 -5.66699 75.999 -17z" />
    <glyph glyph-name="Adieresis" unicode="&#xc4;" horiz-adv-x="625" 
d="M627 -3c-52.667 2 -92.666 2.99707 -119.999 2.99707c-53.333 0 -110.666 -2.66699 -171.999 -8l-6 8l5 60c32.667 2.66699 53.667 6.33398 63 11.001s14 11.834 14 21.501s-1.66699 22.167 -5 37.5l-20 76c-17.333 0.666992 -43.333 1 -78 1s-70.667 -2.33301 -108 -7
l-25 -75c-4 -14 -6 -25.5 -6 -34.5s3.33301 -15.667 10 -20s18.667 -6.5 36 -6.5h43l4 -7l-7 -63c-54.667 4 -103.334 6 -146.001 6l-121 -3l8 67c16 2.66699 28.833 8.83398 38.5 18.501s18.5 25.5 26.5 47.5l178 507l159 16l11 -5c60 -231.333 107.667 -403.333 143 -516
c7.33301 -24 16.666 -41 27.999 -51s28 -16 50 -18l4 -7zM294.001 285.997c21.333 0 46 1.33301 74 4l-58 220h-14l-72 -224h70zM451.501 724.997c-12.333 -12.667 -28.333 -19 -48 -19s-34.667 5.5 -45 16.5s-15.5 26 -15.5 45s6.16699 34.833 18.5 47.5s28.333 19 48 19
s34.667 -5.5 45 -16.5s15.5 -26 15.5 -45s-6.16699 -34.833 -18.5 -47.5zM273.501 724.997c-12.333 -12.667 -28.332 -19 -47.999 -19s-34.667 5.5 -45 16.5s-15.5 26 -15.5 45s6.16699 34.833 18.5 47.5s28.166 19 47.499 19s34.333 -5.5 45 -16.5s16 -26 16 -45
s-6.16699 -34.833 -18.5 -47.5z" />
    <glyph glyph-name="Aring" unicode="&#xc5;" horiz-adv-x="625" 
d="M627 -3c-52.667 2 -92.666 2.99707 -119.999 2.99707c-53.333 0 -110.666 -2.66699 -171.999 -8l-6 8l5 60c32.667 2.66699 53.667 6.33398 63 11.001s14 11.834 14 21.501s-1.66699 22.167 -5 37.5l-20 76c-17.333 0.666992 -43.333 1 -78 1s-70.667 -2.33301 -108 -7
l-25 -75c-4 -14 -6 -25.5 -6 -34.5s3.33301 -15.667 10 -20s18.667 -6.5 36 -6.5h43l4 -7l-7 -63c-54.667 4 -103.334 6 -146.001 6l-121 -3l8 67c16 2.66699 28.833 8.83398 38.5 18.501s18.5 25.5 26.5 47.5l178 507l159 16l11 -5c60 -231.333 107.667 -403.333 143 -516
c7.33301 -24 16.666 -41 27.999 -51s28 -16 50 -18l4 -7zM294.001 285.997c21.333 0 46 1.33301 74 4l-58 220h-14l-72 -224h70zM320.001 730.997c26.667 0 40.001 11.999 40.001 35.999c0 12.667 -4 22.834 -12 30.501s-19.333 11.5 -34 11.5c-26 0 -39 -12 -39 -36
c0 -14 4.66699 -24.5 14 -31.5s19.666 -10.5 30.999 -10.5zM383.502 706.996c-17.667 -19.333 -40.833 -29 -69.5 -29s-50.667 8.33301 -66 25s-23 38.667 -23 66s8.83301 50 26.5 68s41.167 27 70.5 27s51.333 -8.33301 66 -25s22 -38 22 -64s-8.83301 -48.667 -26.5 -68z
" />
    <glyph glyph-name="AE" unicode="&#xc6;" horiz-adv-x="871" 
d="M386 73.5c10.667 6.33301 16 15.834 16 28.501c0 16 -5.33301 65 -16 147l-87 -11l-84 -16l-45 -97c-7.33301 -16.667 -11 -29.334 -11 -38.001s3.83301 -14.667 11.5 -18s22.167 -5 43.5 -5l33 -5l-6 -65c-0.666992 0.666992 -10.667 1.33398 -30 2.00098l-69.5 2.5
c-27 1 -49.167 1.5 -66.5 1.5l-74 -3l-5 60c6.66699 1.33301 15.834 8.83301 27.501 22.5s22.5 30.5 32.5 50.5l208 425c-2.66699 14.667 -11 22 -25 22l-31 -2l-6 9l8 61c74 -2 172.167 -3 294.5 -3s211.5 4 267.5 12l8 -11c-12 -59.333 -19.667 -120 -23 -182l-91 -6
c1.33301 17.333 2 30.666 2 39.999c0 27.333 -7.33301 44.666 -22 51.999s-41.834 11 -81.501 11s-62.5 -1.66699 -68.5 -5s-9.33301 -10.666 -10 -21.999l26 -182l96 12l96 19l11 -10l-13 -84l-91 -7l-88 -10l20 -123c4 -24 11.5 -41.333 22.5 -52s26.833 -16 47.5 -16
c56 0 92.167 6.66699 108.5 20s27.833 45 34.5 95l85 7l7 -10c-12 -60 -21.333 -122 -28 -186l-9 -11c-140 4.66699 -238 7 -294 7h-38c-47.333 -0 -100.333 -2.66699 -159 -8l-5 8l4 60c34 2.66699 56.333 7.16699 67 13.5zM252 317.001l65 4l62 8l-23 181h-15z" />
    <glyph glyph-name="Ccedilla" unicode="&#xc7;" horiz-adv-x="617" 
d="M100.5 80c-48.333 55.333 -72.501 133.166 -72.501 233.499s31.667 182.166 95 245.499s148.333 95 255 95c52.667 0 116.334 -8.33301 191.001 -25l6 -13c-13.333 -55.333 -22 -118.333 -26 -189l-99 -7c1.33301 18 2 35.667 2 53
c0 28.667 -8.83301 49.834 -26.5 63.501s-45.167 20.5 -82.5 20.5c-106 0 -159 -73 -159 -219c0 -81.333 14.667 -144.333 44 -189s70 -67 122 -67c36 0 64 10.833 84 32.5s34 56.834 42 105.501l99 7c-11.333 -69.333 -18 -131.666 -20 -186.999l-10 -12
c-55.333 -22.667 -119.666 -35.667 -192.999 -39l-9 -33l43.5 -26.5c11 -7 22.5 -17.333 34.5 -31s18 -26.834 18 -39.501c0 -26 -13.5 -48.5 -40.5 -67.5s-57.833 -28.5 -92.5 -28.5c-18.667 0 -36.334 4 -53.001 12s-25 18.333 -25 31s12.333 33.667 37 63h9
c0.666992 -18 5.66699 -31.833 15 -41.5s20.666 -14.5 33.999 -14.5s23.833 2.83301 31.5 8.5s11.5 12.834 11.5 21.501c0 17.333 -28.667 41 -86 71l21 75c-85.333 5.33301 -152.166 35.666 -200.499 90.999z" />
    <glyph glyph-name="Egrave" unicode="&#xc8;" horiz-adv-x="597" 
d="M253 370l93.002 -0.99707l116 8l8 -9l-14 -86c-53.333 2 -92.5 3 -117.5 3s-54.5 -2 -88.5 -6c-2 -72.667 -3 -120.834 -3 -144.501s3.5 -38.834 10.5 -45.501s25.833 -10 56.5 -10s54.667 1.16699 72 3.5s32 7.83301 44 16.5s20.167 19.834 24.5 33.501
s8.5 33.834 12.5 60.501l85 7l7 -10c-12 -60 -21.333 -122 -28 -186l-9 -11c-125.333 4.66699 -215.333 7 -270 7c-81.333 0 -153.333 -3.33301 -216 -10l8 68c27.333 4 46.166 12.167 56.499 24.5s15.5 32.833 15.5 61.5l1 379c0 22 -2.16699 36.5 -6.5 43.5
s-13.166 10.5 -26.499 10.5l-30 -2l-7 9l8 61c73.333 -2 158 -3 254 -3s174.333 4 235 12l8 -11c-12 -59.333 -19.667 -120 -23 -182l-92 -6c1.33301 17.333 2 30.666 2 39.999c0 27.333 -7 44.666 -21 51.999s-40.833 11 -80.5 11s-62.334 -1.83301 -68.001 -5.5
s-8.83398 -12.834 -9.50098 -27.501zM155.002 762.003l-5.00098 13l26 77l12 5c76.667 -38 151 -72.667 223 -104l-13 -47l-14 -9c-81.333 25.333 -157.666 47 -228.999 65z" />
    <glyph glyph-name="Eacute" unicode="&#xc9;" horiz-adv-x="597" 
d="M253 370l93.002 -0.99707l116 8l8 -9l-14 -86c-53.333 2 -92.5 3 -117.5 3s-54.5 -2 -88.5 -6c-2 -72.667 -3 -120.834 -3 -144.501s3.5 -38.834 10.5 -45.501s25.833 -10 56.5 -10s54.667 1.16699 72 3.5s32 7.83301 44 16.5s20.167 19.834 24.5 33.501
s8.5 33.834 12.5 60.501l85 7l7 -10c-12 -60 -21.333 -122 -28 -186l-9 -11c-125.333 4.66699 -215.333 7 -270 7c-81.333 0 -153.333 -3.33301 -216 -10l8 68c27.333 4 46.166 12.167 56.499 24.5s15.5 32.833 15.5 61.5l1 379c0 22 -2.16699 36.5 -6.5 43.5
s-13.166 10.5 -26.499 10.5l-30 -2l-7 9l8 61c73.333 -2 158 -3 254 -3s174.333 4 235 12l8 -11c-12 -59.333 -19.667 -120 -23 -182l-92 -6c1.33301 17.333 2 30.666 2 39.999c0 27.333 -7 44.666 -21 51.999s-40.833 11 -80.5 11s-62.334 -1.83301 -68.001 -5.5
s-8.83398 -12.834 -9.50098 -27.501zM492.002 775.003l-6 -13c-76.667 -19.333 -153 -41 -229 -65l-13 9l-13 47l223 104l12 -5z" />
    <glyph glyph-name="Ecircumflex" unicode="&#xca;" horiz-adv-x="597" 
d="M253 370l93.002 -0.99707l116 8l8 -9l-14 -86c-53.333 2 -92.5 3 -117.5 3s-54.5 -2 -88.5 -6c-2 -72.667 -3 -120.834 -3 -144.501s3.5 -38.834 10.5 -45.501s25.833 -10 56.5 -10s54.667 1.16699 72 3.5s32 7.83301 44 16.5s20.167 19.834 24.5 33.501
s8.5 33.834 12.5 60.501l85 7l7 -10c-12 -60 -21.333 -122 -28 -186l-9 -11c-125.333 4.66699 -215.333 7 -270 7c-81.333 0 -153.333 -3.33301 -216 -10l8 68c27.333 4 46.166 12.167 56.499 24.5s15.5 32.833 15.5 61.5l1 379c0 22 -2.16699 36.5 -6.5 43.5
s-13.166 10.5 -26.499 10.5l-30 -2l-7 9l8 61c73.333 -2 158 -3 254 -3s174.333 4 235 12l8 -11c-12 -59.333 -19.667 -120 -23 -182l-92 -6c1.33301 17.333 2 30.666 2 39.999c0 27.333 -7 44.666 -21 51.999s-40.833 11 -80.5 11s-62.334 -1.83301 -68.001 -5.5
s-8.83398 -12.834 -9.50098 -27.501zM329.002 876.003c0 0.666992 20.999 -15.833 62.999 -49.5l94 -74.5l-24 -41l-16 -4c-33.333 16.667 -75.666 36 -126.999 58c-32 -13.333 -74 -32.666 -126 -57.999l-16 4l-25 41c48.667 35.333 101 76.666 157 123.999h20z" />
    <glyph glyph-name="Edieresis" unicode="&#xcb;" horiz-adv-x="597" 
d="M253 370l93.002 -0.99707l116 8l8 -9l-14 -86c-53.333 2 -92.5 3 -117.5 3s-54.5 -2 -88.5 -6c-2 -72.667 -3 -120.834 -3 -144.501s3.5 -38.834 10.5 -45.501s25.833 -10 56.5 -10s54.667 1.16699 72 3.5s32 7.83301 44 16.5s20.167 19.834 24.5 33.501
s8.5 33.834 12.5 60.501l85 7l7 -10c-12 -60 -21.333 -122 -28 -186l-9 -11c-125.333 4.66699 -215.333 7 -270 7c-81.333 0 -153.333 -3.33301 -216 -10l8 68c27.333 4 46.166 12.167 56.499 24.5s15.5 32.833 15.5 61.5l1 379c0 22 -2.16699 36.5 -6.5 43.5
s-13.166 10.5 -26.499 10.5l-30 -2l-7 9l8 61c73.333 -2 158 -3 254 -3s174.333 4 235 12l8 -11c-12 -59.333 -19.667 -120 -23 -182l-92 -6c1.33301 17.333 2 30.666 2 39.999c0 27.333 -7 44.666 -21 51.999s-40.833 11 -80.5 11s-62.334 -1.83301 -68.001 -5.5
s-8.83398 -12.834 -9.50098 -27.501zM451.502 725.003c-12.333 -12.667 -28.333 -19 -48 -19s-34.667 5.5 -45 16.5s-15.5 26 -15.5 45s6.16699 34.833 18.5 47.5s28.333 19 48 19s34.667 -5.5 45 -16.5s15.5 -26 15.5 -45s-6.16699 -34.833 -18.5 -47.5zM273.502 725.003
c-12.333 -12.667 -28.332 -19 -47.999 -19s-34.667 5.5 -45 16.5s-15.5 26 -15.5 45s6.16699 34.833 18.5 47.5s28.166 19 47.499 19s34.333 -5.5 45 -16.5s16 -26 16 -45s-6.16699 -34.833 -18.5 -47.5z" />
    <glyph glyph-name="Igrave" unicode="&#xcc;" horiz-adv-x="365" 
d="M48 643l140 -0.999023l142 7l-6 -67c-25.333 -3.33301 -42 -8.5 -50 -15.5s-12.667 -19.833 -14 -38.5c-8 -138 -12 -269.667 -12 -395c0 -27.333 2.5 -45.5 7.5 -54.5s15.167 -13.5 30.5 -13.5l43 3l5 -7l-9 -64c-69.333 2 -115.666 3 -138.999 3c-46 0 -96 -3 -150 -9
l7 65c29.333 6 48.833 14.667 58.5 26s14.5 30.666 14.5 57.999l1 385c0 20.667 -2.33301 34.5 -7 41.5s-14.334 10.5 -29.001 10.5l-35 -1l-5 8zM23 762.001l-5.00098 13l26 77l12 5c76.667 -38 151 -72.667 223 -104l-13 -47l-14 -9
c-81.333 25.333 -157.666 47 -228.999 65z" />
    <glyph glyph-name="Iacute" unicode="&#xcd;" horiz-adv-x="365" 
d="M48 643l140 -0.999023l142 7l-6 -67c-25.333 -3.33301 -42 -8.5 -50 -15.5s-12.667 -19.833 -14 -38.5c-8 -138 -12 -269.667 -12 -395c0 -27.333 2.5 -45.5 7.5 -54.5s15.167 -13.5 30.5 -13.5l43 3l5 -7l-9 -64c-69.333 2 -115.666 3 -138.999 3c-46 0 -96 -3 -150 -9
l7 65c29.333 6 48.833 14.667 58.5 26s14.5 30.666 14.5 57.999l1 385c0 20.667 -2.33301 34.5 -7 41.5s-14.334 10.5 -29.001 10.5l-35 -1l-5 8zM360 775.001l-6 -13c-76.667 -19.333 -153 -41 -229 -65l-13 9l-13 47l223 104l12 -5z" />
    <glyph glyph-name="Icircumflex" unicode="&#xce;" horiz-adv-x="365" 
d="M48 643l140 -0.999023l142 7l-6 -67c-25.333 -3.33301 -42 -8.5 -50 -15.5s-12.667 -19.833 -14 -38.5c-8 -138 -12 -269.667 -12 -395c0 -27.333 2.5 -45.5 7.5 -54.5s15.167 -13.5 30.5 -13.5l43 3l5 -7l-9 -64c-69.333 2 -115.666 3 -138.999 3c-46 0 -96 -3 -150 -9
l7 65c29.333 6 48.833 14.667 58.5 26s14.5 30.666 14.5 57.999l1 385c0 20.667 -2.33301 34.5 -7 41.5s-14.334 10.5 -29.001 10.5l-35 -1l-5 8zM196 876.001c0 0.666992 20.999 -15.833 62.999 -49.5l94 -74.5l-24 -41l-16 -4c-33.333 16.667 -75.666 36 -126.999 58
c-32 -13.333 -74 -32.666 -126 -57.999l-16 4l-25 41c48.667 35.333 101 76.666 157 123.999h20z" />
    <glyph glyph-name="Idieresis" unicode="&#xcf;" horiz-adv-x="365" 
d="M48 643l140 -0.999023l142 7l-6 -67c-25.333 -3.33301 -42 -8.5 -50 -15.5s-12.667 -19.833 -14 -38.5c-8 -138 -12 -269.667 -12 -395c0 -27.333 2.5 -45.5 7.5 -54.5s15.167 -13.5 30.5 -13.5l43 3l5 -7l-9 -64c-69.333 2 -115.666 3 -138.999 3c-46 0 -96 -3 -150 -9
l7 65c29.333 6 48.833 14.667 58.5 26s14.5 30.666 14.5 57.999l1 385c0 20.667 -2.33301 34.5 -7 41.5s-14.334 10.5 -29.001 10.5l-35 -1l-5 8zM319.5 725.001c-12.333 -12.667 -28.333 -19 -48 -19s-34.667 5.5 -45 16.5s-15.5 26 -15.5 45s6.16699 34.833 18.5 47.5
s28.333 19 48 19s34.667 -5.5 45 -16.5s15.5 -26 15.5 -45s-6.16699 -34.833 -18.5 -47.5zM141.5 725.001c-12.333 -12.667 -28.332 -19 -47.999 -19s-34.667 5.5 -45 16.5s-15.5 26 -15.5 45s6.16699 34.833 18.5 47.5s28.166 19 47.499 19s34.333 -5.5 45 -16.5
s16 -26 16 -45s-6.16699 -34.833 -18.5 -47.5z" />
    <glyph glyph-name="Eth" unicode="&#xd0;" horiz-adv-x="709" 
d="M333 -12c-63.333 8 -108.335 12 -135.002 12c-42 0 -90.333 -3.33301 -145 -10l7 68c30 5.33301 49.5 14.5 58.5 27.5s13.5 38.5 13.5 76.5v124h-116l-8 7l10 60h114v169c0 21.333 -2 35.666 -6 42.999s-12.333 11 -25 11l-33 -2l-6 9l8 62
c58.667 -2 101.334 -3 128.001 -3l158 5c100.667 0 179.834 -26.667 237.501 -80s86.5 -129.666 86.5 -228.999s-32.5 -182.5 -97.5 -249.5s-148.167 -100.5 -249.5 -100.5zM344.998 75c118 0 177.001 80.332 177.001 240.999c0 84.667 -17.833 146.5 -53.5 185.5
s-90.834 58.5 -165.501 58.5c-10.667 0 -18 -1.66699 -22 -5s-6.33301 -9.66602 -7 -18.999l-8 -183l125 2l6 -9l-6 -60h-127l-2 -140c0 -28.667 5.5 -47.667 16.5 -57s33.167 -14 66.5 -14z" />
    <glyph glyph-name="Ntilde" unicode="&#xd1;" horiz-adv-x="729" 
d="M495 577l-34 -0.998047l-4 8l7 62c56.667 -2.66699 99.667 -4 129 -4l118 5l-5 -67c-22 -3.33301 -37.833 -9.66602 -47.5 -18.999s-14.834 -24 -15.501 -44l-13 -531l-106 -13c-98.667 158 -195.667 306 -291 444h-10l-1 -308c0 -16.667 2.5 -28.334 7.5 -35.001
s13.833 -10 26.5 -10l43 3l6 -7l-10 -64c-57.333 2.66699 -97 4 -119 4c-38 0 -82.333 -2.66699 -133 -8l8 67c38.667 4.66699 58.334 25.667 59.001 63l13 395c0 21.333 -5.33301 36.166 -16 44.499s-32.334 14.166 -65.001 17.499l-8 10l7 58
c44.667 -3.33301 83.334 -5 116.001 -5l96 4c87.333 -142 176.333 -279 267 -411h10l-2 299c-0.666992 28.667 -11.667 43 -33 43zM370 818.002c39.333 -11.333 63.334 -17 72.001 -17c14.667 0 33 13 55 39l11 13h11l40 -37v-10l-79 -97l-16 -4
c-12 0 -37.667 5.66699 -77 17s-63 17 -71 17c-15.333 0 -34 -13 -56 -39l-11 -13h-11l-39 37v11l78 96l17 4c11.333 0 36.666 -5.66699 75.999 -17z" />
    <glyph glyph-name="Ograve" unicode="&#xd2;" horiz-adv-x="674" 
d="M224 144c27.333 -46 65.333 -69 114 -69s86.167 18.5 112.5 55.5s39.5 94.5 39.5 172.5s-14 139.833 -42 185.5s-66.5 68.5 -115.5 68.5s-86.167 -18.5 -111.5 -55.5s-38 -94.333 -38 -172s13.667 -139.5 41 -185.5zM555 85c-60.667 -64.667 -138 -97 -232 -97
s-166.667 28.333 -218 85s-77 135.667 -77 237s30 184 90 248s137.333 96 232 96s167.667 -27.667 219 -83s77 -134 77 -236s-30.333 -185.333 -91 -250zM171 762l-5.00098 13l26 77l12 5c76.667 -38 151 -72.667 223 -104l-13 -47l-14 -9
c-81.333 25.333 -157.666 47 -228.999 65z" />
    <glyph glyph-name="Oacute" unicode="&#xd3;" horiz-adv-x="674" 
d="M224 144c27.333 -46 65.333 -69 114 -69s86.167 18.5 112.5 55.5s39.5 94.5 39.5 172.5s-14 139.833 -42 185.5s-66.5 68.5 -115.5 68.5s-86.167 -18.5 -111.5 -55.5s-38 -94.333 -38 -172s13.667 -139.5 41 -185.5zM555 85c-60.667 -64.667 -138 -97 -232 -97
s-166.667 28.333 -218 85s-77 135.667 -77 237s30 184 90 248s137.333 96 232 96s167.667 -27.667 219 -83s77 -134 77 -236s-30.333 -185.333 -91 -250zM508 775l-6 -13c-76.667 -19.333 -153 -41 -229 -65l-13 9l-13 47l223 104l12 -5z" />
    <glyph glyph-name="Ocircumflex" unicode="&#xd4;" horiz-adv-x="674" 
d="M224 144c27.333 -46 65.333 -69 114 -69s86.167 18.5 112.5 55.5s39.5 94.5 39.5 172.5s-14 139.833 -42 185.5s-66.5 68.5 -115.5 68.5s-86.167 -18.5 -111.5 -55.5s-38 -94.333 -38 -172s13.667 -139.5 41 -185.5zM555 85c-60.667 -64.667 -138 -97 -232 -97
s-166.667 28.333 -218 85s-77 135.667 -77 237s30 184 90 248s137.333 96 232 96s167.667 -27.667 219 -83s77 -134 77 -236s-30.333 -185.333 -91 -250zM344 876c0 0.666992 20.999 -15.833 62.999 -49.5l94 -74.5l-24 -41l-16 -4c-33.333 16.667 -75.666 36 -126.999 58
c-32 -13.333 -74 -32.666 -126 -57.999l-16 4l-25 41c48.667 35.333 101 76.666 157 123.999h20z" />
    <glyph glyph-name="Otilde" unicode="&#xd5;" horiz-adv-x="674" 
d="M224 144c27.333 -46 65.333 -69 114 -69s86.167 18.5 112.5 55.5s39.5 94.5 39.5 172.5s-14 139.833 -42 185.5s-66.5 68.5 -115.5 68.5s-86.167 -18.5 -111.5 -55.5s-38 -94.333 -38 -172s13.667 -139.5 41 -185.5zM555 85c-60.667 -64.667 -138 -97 -232 -97
s-166.667 28.333 -218 85s-77 135.667 -77 237s30 184 90 248s137.333 96 232 96s167.667 -27.667 219 -83s77 -134 77 -236s-30.333 -185.333 -91 -250zM326 818c39.333 -11.333 63.334 -17 72.001 -17c14.667 0 33 13 55 39l11 13h11l40 -37v-10l-79 -97l-16 -4
c-12 0 -37.667 5.66699 -77 17s-63 17 -71 17c-15.333 0 -34 -13 -56 -39l-11 -13h-11l-39 37v11l78 96l17 4c11.333 0 36.666 -5.66699 75.999 -17z" />
    <glyph glyph-name="Odieresis" unicode="&#xd6;" horiz-adv-x="674" 
d="M224 144c27.333 -46 65.333 -69 114 -69s86.167 18.5 112.5 55.5s39.5 94.5 39.5 172.5s-14 139.833 -42 185.5s-66.5 68.5 -115.5 68.5s-86.167 -18.5 -111.5 -55.5s-38 -94.333 -38 -172s13.667 -139.5 41 -185.5zM555 85c-60.667 -64.667 -138 -97 -232 -97
s-166.667 28.333 -218 85s-77 135.667 -77 237s30 184 90 248s137.333 96 232 96s167.667 -27.667 219 -83s77 -134 77 -236s-30.333 -185.333 -91 -250zM467.5 725c-12.333 -12.667 -28.333 -19 -48 -19s-34.667 5.5 -45 16.5s-15.5 26 -15.5 45s6.16699 34.833 18.5 47.5
s28.333 19 48 19s34.667 -5.5 45 -16.5s15.5 -26 15.5 -45s-6.16699 -34.833 -18.5 -47.5zM289.5 725c-12.333 -12.667 -28.332 -19 -47.999 -19s-34.667 5.5 -45 16.5s-15.5 26 -15.5 45s6.16699 34.833 18.5 47.5s28.166 19 47.499 19s34.333 -5.5 45 -16.5s16 -26 16 -45
s-6.16699 -34.833 -18.5 -47.5z" />
    <glyph glyph-name="multiply" unicode="&#xd7;" horiz-adv-x="506" 
d="M379 452l12 -5l57 -70l-127 -128l131 -122l-5 -13l-72 -58l-124 123l-123 -125l-14 3l-51 72l119 118l-130 129l3 14l74 53l124 -125z" />
    <glyph glyph-name="Oslash" unicode="&#xd8;" horiz-adv-x="674" 
d="M132 47c-69.333 56 -104 139.169 -104 249.502s30 197.5 90 261.5s139.333 96 238 96c44 0 83.667 -7 119 -21l59 96l62 -29l3 -13l-57 -91c69.333 -54.667 104 -137.334 104 -248.001s-30.333 -198.334 -91 -263.001s-140.667 -97 -240 -97c-41.333 0 -81 7 -119 21
l-70 -116l-60 29l-3 10zM340 75.002c47.333 0 84.167 18.499 110.5 55.499s39.5 90.333 39.5 160s-9.66699 126.834 -29 171.501l-207 -355c23.333 -21.333 52 -32 86 -32zM221.001 501.501c-25.333 -37 -38.001 -89.667 -38.001 -158s8.66699 -124.5 26 -168.5l204 353
c-23.333 19.333 -51.666 29 -84.999 29c-46 0 -81.667 -18.5 -107 -55.5z" />
    <glyph glyph-name="Ugrave" unicode="&#xd9;" horiz-adv-x="655" 
d="M343 79c81.333 0 122 43.333 122 130l-4 314c-0.666992 22 -3 36.5 -7 43.5s-12.333 10.5 -25 10.5l-33 -2l-2 4l8 66c52.667 -2 91.667 -3 117 -3l119 6l-6 -67c-24.667 -5.33301 -40.5 -11 -47.5 -17s-10.5 -17 -10.5 -33v-311
c0 -75.333 -22.167 -132.833 -66.5 -172.5s-108.166 -59.5 -191.499 -59.5c-154.667 0 -232 72 -232 216v319c0 22 -2 36.5 -6 43.5s-12.667 10.5 -26 10.5l-32 -2l-2 4l9 66c57.333 -2 105 -3 143 -3l119 6l-7 -68c-20.667 -2.66699 -34.834 -7.66699 -42.501 -15
s-12.167 -20 -13.5 -38l-7 -291c0 -50 10.667 -88.667 32 -116s52 -41 92 -41zM177 762l-5.00098 13l26 77l12 5c76.667 -38 151 -72.667 223 -104l-13 -47l-14 -9c-81.333 25.333 -157.666 47 -228.999 65z" />
    <glyph glyph-name="Uacute" unicode="&#xda;" horiz-adv-x="655" 
d="M343 79c81.333 0 122 43.333 122 130l-4 314c-0.666992 22 -3 36.5 -7 43.5s-12.333 10.5 -25 10.5l-33 -2l-2 4l8 66c52.667 -2 91.667 -3 117 -3l119 6l-6 -67c-24.667 -5.33301 -40.5 -11 -47.5 -17s-10.5 -17 -10.5 -33v-311
c0 -75.333 -22.167 -132.833 -66.5 -172.5s-108.166 -59.5 -191.499 -59.5c-154.667 0 -232 72 -232 216v319c0 22 -2 36.5 -6 43.5s-12.667 10.5 -26 10.5l-32 -2l-2 4l9 66c57.333 -2 105 -3 143 -3l119 6l-7 -68c-20.667 -2.66699 -34.834 -7.66699 -42.501 -15
s-12.167 -20 -13.5 -38l-7 -291c0 -50 10.667 -88.667 32 -116s52 -41 92 -41zM514 775l-6 -13c-76.667 -19.333 -153 -41 -229 -65l-13 9l-13 47l223 104l12 -5z" />
    <glyph glyph-name="Ucircumflex" unicode="&#xdb;" horiz-adv-x="655" 
d="M343 79c81.333 0 122 43.333 122 130l-4 314c-0.666992 22 -3 36.5 -7 43.5s-12.333 10.5 -25 10.5l-33 -2l-2 4l8 66c52.667 -2 91.667 -3 117 -3l119 6l-6 -67c-24.667 -5.33301 -40.5 -11 -47.5 -17s-10.5 -17 -10.5 -33v-311
c0 -75.333 -22.167 -132.833 -66.5 -172.5s-108.166 -59.5 -191.499 -59.5c-154.667 0 -232 72 -232 216v319c0 22 -2 36.5 -6 43.5s-12.667 10.5 -26 10.5l-32 -2l-2 4l9 66c57.333 -2 105 -3 143 -3l119 6l-7 -68c-20.667 -2.66699 -34.834 -7.66699 -42.501 -15
s-12.167 -20 -13.5 -38l-7 -291c0 -50 10.667 -88.667 32 -116s52 -41 92 -41zM351 876c0 0.666992 20.999 -15.833 62.999 -49.5l94 -74.5l-24 -41l-16 -4c-33.333 16.667 -75.666 36 -126.999 58c-32 -13.333 -74 -32.666 -126 -57.999l-16 4l-25 41
c48.667 35.333 101 76.666 157 123.999h20z" />
    <glyph glyph-name="Udieresis" unicode="&#xdc;" horiz-adv-x="655" 
d="M343 79c81.333 0 122 43.333 122 130l-4 314c-0.666992 22 -3 36.5 -7 43.5s-12.333 10.5 -25 10.5l-33 -2l-2 4l8 66c52.667 -2 91.667 -3 117 -3l119 6l-6 -67c-24.667 -5.33301 -40.5 -11 -47.5 -17s-10.5 -17 -10.5 -33v-311
c0 -75.333 -22.167 -132.833 -66.5 -172.5s-108.166 -59.5 -191.499 -59.5c-154.667 0 -232 72 -232 216v319c0 22 -2 36.5 -6 43.5s-12.667 10.5 -26 10.5l-32 -2l-2 4l9 66c57.333 -2 105 -3 143 -3l119 6l-7 -68c-20.667 -2.66699 -34.834 -7.66699 -42.501 -15
s-12.167 -20 -13.5 -38l-7 -291c0 -50 10.667 -88.667 32 -116s52 -41 92 -41zM473.5 725c-12.333 -12.667 -28.333 -19 -48 -19s-34.667 5.5 -45 16.5s-15.5 26 -15.5 45s6.16699 34.833 18.5 47.5s28.333 19 48 19s34.667 -5.5 45 -16.5s15.5 -26 15.5 -45
s-6.16699 -34.833 -18.5 -47.5zM295.5 725c-12.333 -12.667 -28.332 -19 -47.999 -19s-34.667 5.5 -45 16.5s-15.5 26 -15.5 45s6.16699 34.833 18.5 47.5s28.166 19 47.499 19s34.333 -5.5 45 -16.5s16 -26 16 -45s-6.16699 -34.833 -18.5 -47.5z" />
    <glyph glyph-name="Yacute" unicode="&#xdd;" horiz-adv-x="598" 
d="M369 645l133.001 -3.99902l102 4l4 -7l-7 -61c-26 -8.66699 -47 -21.834 -63 -39.501s-35.333 -47.167 -58 -88.5l-96 -179c-12 -23.333 -18 -69.333 -18 -138v-20.5c0 -11.667 3.16699 -22 9.5 -31s18.833 -13.5 37.5 -13.5l50 3l3 -5l-9 -69
c-76.667 2.66699 -127.667 4 -153 4c-34 -0 -90 -3.66699 -168 -11l7 69c38 4.66699 62.5 13 73.5 25s16.5 35 16.5 69v30c0 31.333 -9.66699 65.333 -29 102l-98 191c-16 32 -31.5 55.167 -46.5 69.5s-37.167 24.5 -66.5 30.5l-3 5l8 64c59.333 -2 102.333 -3 129 -3l160 8
l5 -9l-5 -58c-22.667 -0.666992 -38.334 -3.33398 -47.001 -8.00098s-13 -11.167 -13 -19.5s6 -27.166 18 -56.499c26.667 -66 49 -116.667 67 -152h10l79 165c9.33301 18.667 14 34.667 14 48s-17 21 -51 23l-2 5zM497.001 775.001l-6 -13
c-76.667 -19.333 -153 -41 -229 -65l-13 9l-13 47l223 104l12 -5z" />
    <glyph glyph-name="Thorn" unicode="&#xde;" horiz-adv-x="573" 
d="M260 536l-1.99902 -23.999h76c151.333 0 227 -58.667 227 -176c0 -54.667 -23.333 -100.334 -70 -137.001s-104 -55 -172 -55h-71v-30c0 -20 2.5 -33.167 7.5 -39.5s15.167 -9.5 30.5 -9.5l48 3l4 -7l-9 -64c-71.333 2 -119 3 -143 3c-46 0 -96 -3 -150 -9l7 65
c29.333 6 48.833 14.5 58.5 25.5s14.5 30.5 14.5 58.5l1 385c0 20.667 -2.33301 34.5 -7 41.5s-14.334 10.5 -29.001 10.5l-35 -1l-5 8l7 59l140 -1l142 7l-6 -67c-26 -4 -42.833 -8.83301 -50.5 -14.5s-12.167 -16.167 -13.5 -31.5zM419.001 326.001
c0 36.667 -11.333 63.333 -34 80s-58.667 25 -108 25c-8.66699 0 -14.5 -1 -17.5 -3s-4.83301 -5.66699 -5.5 -11c-3.33301 -81.333 -5 -143 -5 -185c33.333 -9.33301 61 -14 83 -14c58 9.33301 87 45.333 87 108z" />
    <glyph glyph-name="germandbls" unicode="&#xdf;" horiz-adv-x="932" 
d="M191 -9c-26.667 0 -52.3271 2.50195 -76.9941 7.50195s-48.667 12.5 -72 22.5l-8 12c8.66699 47.333 13.667 91 15 131l77 6c0 -37.333 6.33301 -63.166 19 -77.499s33 -21.5 61 -21.5s49 4.66699 63 14s21 21.666 21 36.999c0 12 -3.66699 21.167 -11 27.5l-16.5 14.5
c-3.66699 3.33301 -10.334 7.33301 -20.001 12s-16.834 8 -21.501 10c-6 3.33301 -26.333 12.666 -61 27.999s-63.334 33.5 -86.001 54.5s-34 48.5 -34 82.5c0 46.667 21.333 84.834 64 114.501s97.667 44.5 165 44.5c52 0 100.333 -7 145 -21l7 -12
c-10 -42.667 -17 -87.334 -21 -134.001l-70 -6l-8 6c0.666992 7.33301 1 14.666 1 21.999c0 21.333 -6 36.833 -18 46.5s-29.833 14.5 -53.5 14.5s-42.334 -4.5 -56.001 -13.5s-20.5 -19.333 -20.5 -31s2.5 -21.167 7.5 -28.5s14.167 -15 27.5 -23
c15.333 -8.66699 36.666 -19 63.999 -31s47.833 -21.5 61.5 -28.5s28.5 -16.5 44.5 -28.5c32 -24 48 -55 48 -93c0 -48 -21.333 -86.333 -64 -115s-100.334 -43 -173.001 -43zM658.007 -8.99805c-26.667 0 -52.4941 2.50293 -77.4941 7.50293s-49.167 12.5 -72.5 22.5l-8 12
c8.66699 47.333 13.667 91 15 131l77 6c0 -37.333 6.33301 -63.166 19 -77.499s33 -21.5 61 -21.5s49 4.66699 63 14s21 21.666 21 36.999c0 12 -3.66699 21.167 -11 27.5l-16.5 14.5c-3.66699 3.33301 -10.334 7.33301 -20.001 12s-16.834 8 -21.501 10
c-6 3.33301 -20.833 10.333 -44.5 21s-41.834 19.667 -54.501 27s-26 16.666 -40 27.999c-27.333 22.667 -41 52.334 -41 89.001c0 47.333 21.167 85.666 63.5 114.999s97.166 44 164.499 44c52 0 100.333 -7 145 -21l7 -12c-10 -42.667 -16.667 -87.334 -20 -134.001
l-71 -6l-8 6c0.666992 7.33301 1 14.666 1 21.999c0 21.333 -6 36.833 -18 46.5s-29.833 14.5 -53.5 14.5s-42.334 -4.5 -56.001 -13.5s-20.5 -19.333 -20.5 -31s2.5 -21.167 7.5 -28.5s14.167 -15 27.5 -23c15.333 -8.66699 36.666 -19 63.999 -31s47.833 -21.5 61.5 -28.5
s28.5 -16.5 44.5 -28.5c32 -24 48 -55 48 -93c0 -48 -21.333 -86.333 -64 -115s-100 -43 -172 -43z" />
    <glyph glyph-name="agrave" unicode="&#xe0;" horiz-adv-x="544" 
d="M336.5 62c7 2.66699 10.502 7.33105 10.502 13.998c0 8.66699 -6 34.334 -18 77.001c-14 0.666992 -31.833 1 -53.5 1s-52.834 -1.33301 -93.501 -4c-14.667 -41.333 -22 -65.833 -22 -73.5s2.33301 -13 7 -16s14 -4.5 28 -4.5h31l6 -7l-7 -53
c-46.667 2.66699 -87.334 4 -122.001 4l-102 -2l6 57c22 4 38.667 20.333 50 49l143 393l153 13l10 -6c50 -186.667 88 -318.667 114 -396c5.33301 -18 12.5 -31 21.5 -39s22.167 -12.667 39.5 -14l3 -7l-6 -50c-44 1.33301 -78.667 2 -104 2l-145 -6l-5 6l4 54
c27.333 2.66699 44.5 5.33398 51.5 8.00098zM257.002 226.997c15.333 0 34.333 0.666992 57 2l-43 161h-13l-54 -163h53zM127.002 619.997l-5 13l26 77l12 5c76.667 -38 151 -72.667 223 -104l-13 -47l-14 -9c-58 18 -134.333 39.667 -229 65z" />
    <glyph glyph-name="aacute" unicode="&#xe1;" horiz-adv-x="544" 
d="M336.5 62c7 2.66699 10.502 7.33105 10.502 13.998c0 8.66699 -6 34.334 -18 77.001c-14 0.666992 -31.833 1 -53.5 1s-52.834 -1.33301 -93.501 -4c-14.667 -41.333 -22 -65.833 -22 -73.5s2.33301 -13 7 -16s14 -4.5 28 -4.5h31l6 -7l-7 -53
c-46.667 2.66699 -87.334 4 -122.001 4l-102 -2l6 57c22 4 38.667 20.333 50 49l143 393l153 13l10 -6c50 -186.667 88 -318.667 114 -396c5.33301 -18 12.5 -31 21.5 -39s22.167 -12.667 39.5 -14l3 -7l-6 -50c-44 1.33301 -78.667 2 -104 2l-145 -6l-5 6l4 54
c27.333 2.66699 44.5 5.33398 51.5 8.00098zM257.002 226.997c15.333 0 34.333 0.666992 57 2l-43 161h-13l-54 -163h53zM439.002 632.997l-6 -13c-76.667 -19.333 -153 -41 -229 -65l-13 9l-13 47l223 104l12 -5z" />
    <glyph glyph-name="acircumflex" unicode="&#xe2;" horiz-adv-x="544" 
d="M336.5 62c7 2.66699 10.502 7.33105 10.502 13.998c0 8.66699 -6 34.334 -18 77.001c-14 0.666992 -31.833 1 -53.5 1s-52.834 -1.33301 -93.501 -4c-14.667 -41.333 -22 -65.833 -22 -73.5s2.33301 -13 7 -16s14 -4.5 28 -4.5h31l6 -7l-7 -53
c-46.667 2.66699 -87.334 4 -122.001 4l-102 -2l6 57c22 4 38.667 20.333 50 49l143 393l153 13l10 -6c50 -186.667 88 -318.667 114 -396c5.33301 -18 12.5 -31 21.5 -39s22.167 -12.667 39.5 -14l3 -7l-6 -50c-44 1.33301 -78.667 2 -104 2l-145 -6l-5 6l4 54
c27.333 2.66699 44.5 5.33398 51.5 8.00098zM257.002 226.997c15.333 0 34.333 0.666992 57 2l-43 161h-13l-54 -163h53zM286.002 733.997c0 0.666992 20.999 -15.833 62.999 -49.5l94 -74.5l-24 -41l-16 -4c-33.333 16.667 -75.666 36 -126.999 58
c-32 -13.333 -74 -32.666 -126 -57.999l-16 4l-25 41c48.667 35.333 101 76.666 157 123.999h20z" />
    <glyph glyph-name="atilde" unicode="&#xe3;" horiz-adv-x="544" 
d="M336.5 62c7 2.66699 10.502 7.33105 10.502 13.998c0 8.66699 -6 34.334 -18 77.001c-14 0.666992 -31.833 1 -53.5 1s-52.834 -1.33301 -93.501 -4c-14.667 -41.333 -22 -65.833 -22 -73.5s2.33301 -13 7 -16s14 -4.5 28 -4.5h31l6 -7l-7 -53
c-46.667 2.66699 -87.334 4 -122.001 4l-102 -2l6 57c22 4 38.667 20.333 50 49l143 393l153 13l10 -6c50 -186.667 88 -318.667 114 -396c5.33301 -18 12.5 -31 21.5 -39s22.167 -12.667 39.5 -14l3 -7l-6 -50c-44 1.33301 -78.667 2 -104 2l-145 -6l-5 6l4 54
c27.333 2.66699 44.5 5.33398 51.5 8.00098zM257.002 226.997c15.333 0 34.333 0.666992 57 2l-43 161h-13l-54 -163h53zM267.002 675.997c39.333 -11.333 63.001 -17 71.001 -17c15.333 0 34 13 56 39l11 13h11l40 -37v-10l-79 -97l-16 -4c-12 0 -37.667 5.66699 -77 17
s-63.333 17 -72 17c-14.667 0 -33 -13 -55 -39l-11 -13h-11l-39 37v11l78 96l17 4c11.333 0 36.666 -5.66699 75.999 -17z" />
    <glyph glyph-name="adieresis" unicode="&#xe4;" horiz-adv-x="544" 
d="M336.5 62c7 2.66699 10.502 7.33105 10.502 13.998c0 8.66699 -6 34.334 -18 77.001c-14 0.666992 -31.833 1 -53.5 1s-52.834 -1.33301 -93.501 -4c-14.667 -41.333 -22 -65.833 -22 -73.5s2.33301 -13 7 -16s14 -4.5 28 -4.5h31l6 -7l-7 -53
c-46.667 2.66699 -87.334 4 -122.001 4l-102 -2l6 57c22 4 38.667 20.333 50 49l143 393l153 13l10 -6c50 -186.667 88 -318.667 114 -396c5.33301 -18 12.5 -31 21.5 -39s22.167 -12.667 39.5 -14l3 -7l-6 -50c-44 1.33301 -78.667 2 -104 2l-145 -6l-5 6l4 54
c27.333 2.66699 44.5 5.33398 51.5 8.00098zM257.002 226.997c15.333 0 34.333 0.666992 57 2l-43 161h-13l-54 -163h53zM409.502 582.997c-12.333 -12.667 -28.333 -19 -48 -19s-34.667 5.5 -45 16.5s-15.5 26 -15.5 45s6.16699 34.833 18.5 47.5s28.333 19 48 19
s34.667 -5.5 45 -16.5s15.5 -26 15.5 -45s-6.16699 -34.833 -18.5 -47.5zM231.502 582.997c-12.333 -12.667 -28.332 -19 -47.999 -19s-34.667 5.5 -45 16.5s-15.5 26 -15.5 45s6.16699 34.833 18.5 47.5s28.166 19 47.499 19s34.333 -5.5 45 -16.5s16 -26 16 -45
s-6.16699 -34.833 -18.5 -47.5z" />
    <glyph glyph-name="aring" unicode="&#xe5;" horiz-adv-x="544" 
d="M336.5 62c7 2.66699 10.502 7.33105 10.502 13.998c0 8.66699 -6 34.334 -18 77.001c-14 0.666992 -31.833 1 -53.5 1s-52.834 -1.33301 -93.501 -4c-14.667 -41.333 -22 -65.833 -22 -73.5s2.33301 -13 7 -16s14 -4.5 28 -4.5h31l6 -7l-7 -53
c-46.667 2.66699 -87.334 4 -122.001 4l-102 -2l6 57c22 4 38.667 20.333 50 49l143 393l153 13l10 -6c50 -186.667 88 -318.667 114 -396c5.33301 -18 12.5 -31 21.5 -39s22.167 -12.667 39.5 -14l3 -7l-6 -50c-44 1.33301 -78.667 2 -104 2l-145 -6l-5 6l4 54
c27.333 2.66699 44.5 5.33398 51.5 8.00098zM257.002 226.997c15.333 0 34.333 0.666992 57 2l-43 161h-13l-54 -163h53zM278.002 588.997c26.667 0 40.001 11.999 40.001 35.999c0 12.667 -4 22.834 -12 30.501s-19.333 11.5 -34 11.5c-26 0 -39 -12 -39 -36
c0 -14 4.66699 -24.5 14 -31.5s19.666 -10.5 30.999 -10.5zM341.503 564.996c-17.667 -19.333 -40.833 -29 -69.5 -29s-50.667 8.33301 -66 25s-23 38.667 -23 66s8.83301 50 26.5 68s41.167 27 70.5 27s51.333 -8.33301 66 -25s22 -38 22 -64s-8.83301 -48.667 -26.5 -68z
" />
    <glyph glyph-name="ae" unicode="&#xe6;" horiz-adv-x="751" 
d="M342 89l-10.9971 97.001l-70 -8l-68 -15l-30 -65c-6 -10 -9 -18.5 -9 -25.5s3 -11.5 9 -13.5s18 -3 36 -3l23 -5l-6 -55c-58.667 2.66699 -106.334 4 -143.001 4l-63 -2l-3 54c15.333 2.66699 31.666 20 48.999 52l163 322c-2.66699 12.667 -9.66699 19 -21 19l-24 -1
l-7 7l7 52c68 -1.33301 154.667 -2 260 -2s181.333 3 228 9l7 -9c-10 -48.667 -16.333 -97.334 -19 -146.001l-85 -6c1.33301 13.333 2 23.666 2 30.999c0 20.667 -5.83301 33.667 -17.5 39s-32.5 8 -62.5 8s-47.333 -1.16699 -52 -3.5s-7.33398 -8.16602 -8.00098 -17.499
l20 -129l74 10l81 17l9 -10l-10 -73l-75 -7l-68 -9l14 -83c6 -35.333 24.333 -53 55 -53c42.667 0 70.334 5.16699 83.001 15.5s21.667 34.5 27 72.5l79 6l7 -9c-10 -48 -17.667 -98 -23 -150l-9 -9c-124.667 3.33301 -207.334 5 -248.001 5h-33l-133 -6l-4 6l4 54
c26.667 2 44.167 5.33301 52.5 10s12.5 13 12.5 25zM227.003 248.001l97 10l-17 131h-13z" />
    <glyph glyph-name="ccedilla" unicode="&#xe7;" horiz-adv-x="524" 
d="M88 63c-39.333 43.333 -58.998 104.331 -58.998 182.998s25.833 142.334 77.5 191.001s122.167 73 211.5 73c41.333 0 95.333 -6.66699 162 -20l6 -11c-11.333 -44.667 -19 -96 -23 -154l-92 -5c0.666992 13.333 1 29.333 1 48c0 38 -27.333 57 -82 57
c-78 0 -117 -53.333 -117 -160c0 -61.333 10.667 -108.166 32 -140.499s51.666 -48.5 90.999 -48.5c27.333 0 48.5 8 63.5 24s25.167 42 30.5 78l93 6c-8.66699 -56 -13.667 -106.667 -15 -152l-9 -10c-44.667 -16.667 -96.667 -26.667 -156 -30l-10 -36l43.5 -26.5
c11 -7 22.5 -17.333 34.5 -31s18 -26.834 18 -39.501c0 -26 -13.5 -48.5 -40.5 -67.5s-57.833 -28.5 -92.5 -28.5c-18.667 0 -36.334 4 -53.001 12s-25 18.333 -25 31s12.333 33.667 37 63h9c0.666992 -18 5.66699 -31.833 15 -41.5s20.666 -14.5 33.999 -14.5
s23.833 2.83301 31.5 8.5s11.5 12.834 11.5 21.501c0 17.333 -28.667 41 -86 71l21 78c-69.333 4 -123.666 27.667 -162.999 71z" />
    <glyph glyph-name="egrave" unicode="&#xe8;" horiz-adv-x="512" 
d="M226 292l73.9961 -1l94 7l8 -9l-12 -74c-43.333 1.33301 -72.166 2 -86.499 2s-41.5 -1.33301 -81.5 -4c-0.666992 -16 -1 -41.167 -1 -75.5s2.66699 -54.166 8 -59.499s25.166 -8 59.499 -8s58.5 5 72.5 15s24 34 30 72l78 6l7 -9c-10 -48 -17.333 -98 -22 -150l-10 -9
c-100 3.33301 -174 5 -222 5c-69.333 0 -132 -2.66699 -188 -8l7 59c22 2.66699 37 8.83398 45 18.501s12 26.167 12 49.5l1 284c0 16.667 -1.66699 27.834 -5 33.501s-10 8.5 -20 8.5l-24 -1l-7 7l7 52c64.667 -1.33301 137.334 -2 218.001 -2s146 3 196 9l7 -9
c-9.33301 -48.667 -15.666 -97.334 -18.999 -146.001l-85 -6c1.33301 13.333 2 23.666 2 30.999c0 20.667 -5.66699 33.667 -17 39s-32.166 8 -62.499 8s-47.666 -1.33301 -51.999 -4s-6.5 -9.33398 -6.5 -20.001zM118.996 620l-5 13l26 77l12 5
c76.667 -38 151 -72.667 223 -104l-13 -47l-14 -9c-58 18 -134.333 39.667 -229 65z" />
    <glyph glyph-name="eacute" unicode="&#xe9;" horiz-adv-x="512" 
d="M226 292l73.9961 -1l94 7l8 -9l-12 -74c-43.333 1.33301 -72.166 2 -86.499 2s-41.5 -1.33301 -81.5 -4c-0.666992 -16 -1 -41.167 -1 -75.5s2.66699 -54.166 8 -59.499s25.166 -8 59.499 -8s58.5 5 72.5 15s24 34 30 72l78 6l7 -9c-10 -48 -17.333 -98 -22 -150l-10 -9
c-100 3.33301 -174 5 -222 5c-69.333 0 -132 -2.66699 -188 -8l7 59c22 2.66699 37 8.83398 45 18.501s12 26.167 12 49.5l1 284c0 16.667 -1.66699 27.834 -5 33.501s-10 8.5 -20 8.5l-24 -1l-7 7l7 52c64.667 -1.33301 137.334 -2 218.001 -2s146 3 196 9l7 -9
c-9.33301 -48.667 -15.666 -97.334 -18.999 -146.001l-85 -6c1.33301 13.333 2 23.666 2 30.999c0 20.667 -5.66699 33.667 -17 39s-32.166 8 -62.499 8s-47.666 -1.33301 -51.999 -4s-6.5 -9.33398 -6.5 -20.001zM435.996 633l-6 -13c-76.667 -19.333 -153 -41 -229 -65
l-13 9l-13 47l223 104l12 -5z" />
    <glyph glyph-name="ecircumflex" unicode="&#xea;" horiz-adv-x="512" 
d="M226 292l73.9961 -1l94 7l8 -9l-12 -74c-43.333 1.33301 -72.166 2 -86.499 2s-41.5 -1.33301 -81.5 -4c-0.666992 -16 -1 -41.167 -1 -75.5s2.66699 -54.166 8 -59.499s25.166 -8 59.499 -8s58.5 5 72.5 15s24 34 30 72l78 6l7 -9c-10 -48 -17.333 -98 -22 -150l-10 -9
c-100 3.33301 -174 5 -222 5c-69.333 0 -132 -2.66699 -188 -8l7 59c22 2.66699 37 8.83398 45 18.501s12 26.167 12 49.5l1 284c0 16.667 -1.66699 27.834 -5 33.501s-10 8.5 -20 8.5l-24 -1l-7 7l7 52c64.667 -1.33301 137.334 -2 218.001 -2s146 3 196 9l7 -9
c-9.33301 -48.667 -15.666 -97.334 -18.999 -146.001l-85 -6c1.33301 13.333 2 23.666 2 30.999c0 20.667 -5.66699 33.667 -17 39s-32.166 8 -62.499 8s-47.666 -1.33301 -51.999 -4s-6.5 -9.33398 -6.5 -20.001zM283.996 734c0 0.666992 20.999 -15.833 62.999 -49.5
l94 -74.5l-24 -41l-16 -4c-33.333 16.667 -75.666 36 -126.999 58c-32 -13.333 -74 -32.666 -126 -57.999l-16 4l-25 41c48.667 35.333 101 76.666 157 123.999h20z" />
    <glyph glyph-name="edieresis" unicode="&#xeb;" horiz-adv-x="512" 
d="M226 292l73.9961 -1l94 7l8 -9l-12 -74c-43.333 1.33301 -72.166 2 -86.499 2s-41.5 -1.33301 -81.5 -4c-0.666992 -16 -1 -41.167 -1 -75.5s2.66699 -54.166 8 -59.499s25.166 -8 59.499 -8s58.5 5 72.5 15s24 34 30 72l78 6l7 -9c-10 -48 -17.333 -98 -22 -150l-10 -9
c-100 3.33301 -174 5 -222 5c-69.333 0 -132 -2.66699 -188 -8l7 59c22 2.66699 37 8.83398 45 18.501s12 26.167 12 49.5l1 284c0 16.667 -1.66699 27.834 -5 33.501s-10 8.5 -20 8.5l-24 -1l-7 7l7 52c64.667 -1.33301 137.334 -2 218.001 -2s146 3 196 9l7 -9
c-9.33301 -48.667 -15.666 -97.334 -18.999 -146.001l-85 -6c1.33301 13.333 2 23.666 2 30.999c0 20.667 -5.66699 33.667 -17 39s-32.166 8 -62.499 8s-47.666 -1.33301 -51.999 -4s-6.5 -9.33398 -6.5 -20.001zM406.496 583c-12.333 -12.667 -28.332 -19 -47.999 -19
s-34.667 5.5 -45 16.5s-15.5 26 -15.5 45s6.33301 34.833 19 47.5s28.667 19 48 19s34.166 -5.5 44.499 -16.5s15.5 -26 15.5 -45s-6.16699 -34.833 -18.5 -47.5zM228.497 583c-12.333 -12.667 -28.332 -19 -47.999 -19s-34.667 5.5 -45 16.5s-15.5 26 -15.5 45
s6.16699 34.833 18.5 47.5s28.166 19 47.499 19s34.333 -5.5 45 -16.5s16 -26 16 -45s-6.16699 -34.833 -18.5 -47.5z" />
    <glyph glyph-name="igrave" unicode="&#xec;" horiz-adv-x="320" 
d="M44 502l119.999 -1l123 5l-5 -58c-20.667 -2.66699 -34.167 -6.5 -40.5 -11.5s-10.166 -15.167 -11.499 -30.5c-6 -104.667 -9 -203.667 -9 -297c0 -21.333 2 -35.5 6 -42.5s12.333 -10.5 25 -10.5l32 2l5 -6l-7 -54c-60 1.33301 -102.333 2 -127 2l-120 -6l6 56
c23.333 4.66699 38.833 11.167 46.5 19.5s11.5 23.5 11.5 45.5v289c0 16.667 -2 27.667 -6 33s-11.667 8 -23 8l-27 -1l-5 8zM8.99902 620l-5 13l26 77l12 5c76.667 -38 151 -72.667 223 -104l-13 -47l-14 -9c-58 18 -134.333 39.667 -229 65z" />
    <glyph glyph-name="iacute" unicode="&#xed;" horiz-adv-x="320" 
d="M44 502l119.999 -1l123 5l-5 -58c-20.667 -2.66699 -34.167 -6.5 -40.5 -11.5s-10.166 -15.167 -11.499 -30.5c-6 -104.667 -9 -203.667 -9 -297c0 -21.333 2 -35.5 6 -42.5s12.333 -10.5 25 -10.5l32 2l5 -6l-7 -54c-60 1.33301 -102.333 2 -127 2l-120 -6l6 56
c23.333 4.66699 38.833 11.167 46.5 19.5s11.5 23.5 11.5 45.5v289c0 16.667 -2 27.667 -6 33s-11.667 8 -23 8l-27 -1l-5 8zM324.999 633l-6 -13c-76.667 -19.333 -153 -41 -229 -65l-13 9l-13 47l223 104l12 -5z" />
    <glyph glyph-name="icircumflex" unicode="&#xee;" horiz-adv-x="320" 
d="M44 502l119.999 -1l123 5l-5 -58c-20.667 -2.66699 -34.167 -6.5 -40.5 -11.5s-10.166 -15.167 -11.499 -30.5c-6 -104.667 -9 -203.667 -9 -297c0 -21.333 2 -35.5 6 -42.5s12.333 -10.5 25 -10.5l32 2l5 -6l-7 -54c-60 1.33301 -102.333 2 -127 2l-120 -6l6 56
c23.333 4.66699 38.833 11.167 46.5 19.5s11.5 23.5 11.5 45.5v289c0 16.667 -2 27.667 -6 33s-11.667 8 -23 8l-27 -1l-5 8zM172.999 734c0 0.666992 20.999 -15.833 62.999 -49.5l94 -74.5l-24 -41l-16 -4c-33.333 16.667 -75.666 36 -126.999 58
c-32 -13.333 -74 -32.666 -126 -57.999l-16 4l-25 41c48.667 35.333 101 76.666 157 123.999h20z" />
    <glyph glyph-name="idieresis" unicode="&#xef;" horiz-adv-x="320" 
d="M44 502l119.999 -1l123 5l-5 -58c-20.667 -2.66699 -34.167 -6.5 -40.5 -11.5s-10.166 -15.167 -11.499 -30.5c-6 -104.667 -9 -203.667 -9 -297c0 -21.333 2 -35.5 6 -42.5s12.333 -10.5 25 -10.5l32 2l5 -6l-7 -54c-60 1.33301 -102.333 2 -127 2l-120 -6l6 56
c23.333 4.66699 38.833 11.167 46.5 19.5s11.5 23.5 11.5 45.5v289c0 16.667 -2 27.667 -6 33s-11.667 8 -23 8l-27 -1l-5 8zM295.499 583c-12.333 -12.667 -28.333 -19 -48 -19s-34.667 5.5 -45 16.5s-15.5 26 -15.5 45s6.16699 34.833 18.5 47.5s28.333 19 48 19
s34.667 -5.5 45 -16.5s15.5 -26 15.5 -45s-6.16699 -34.833 -18.5 -47.5zM117.499 583c-12.333 -12.667 -28.332 -19 -47.999 -19s-34.667 5.5 -45 16.5s-15.5 26 -15.5 45s6.16699 34.833 18.5 47.5s28.166 19 47.499 19s34.333 -5.5 45 -16.5s16 -26 16 -45
s-6.16699 -34.833 -18.5 -47.5z" />
    <glyph glyph-name="eth" unicode="&#xf0;" horiz-adv-x="602" 
d="M114 128v90h-91l-7 6l9 53h89v125c0 16.667 -1.66699 27.834 -5 33.501s-10 8.5 -20 8.5l-26 -2l-6 8l7 53c51.333 -1.33301 88 -2 110 -2l132 4c84 0 149.333 -20.5 196 -61.5s70 -100.833 70 -179.5s-26.5 -143.834 -79.5 -195.501s-122.167 -77.5 -207.5 -77.5
c-52 6 -94 9 -126 9l-109 -8l6 60c24 3.33301 39.667 10 47 20s11 28.667 11 56zM293 67c89.333 0 134 59.668 134 179.001c0 64.667 -12.667 111.167 -38 139.5s-66.333 42.5 -123 42.5c-8.66699 0 -14.5 -1.5 -17.5 -4.5s-4.5 -8.16699 -4.5 -15.5l-7 -130l93 1l6 -7
l-6 -54h-95l-1 -100c0 -20.667 4 -34.334 12 -41.001s23.667 -10 47 -10z" />
    <glyph glyph-name="ntilde" unicode="&#xf1;" horiz-adv-x="622" 
d="M411 445l-26.9951 0.000976562l-4 6l6 53c50 -2 98.5 -3 145.5 -3s70.5 1.33301 70.5 4l-4 -58c-18.667 -2.66699 -31.834 -7.66699 -39.501 -15s-11.834 -18.666 -12.501 -33.999l-11 -405l-103 -10c-70.667 105.333 -145.334 210.666 -224.001 315.999h-9v-207
c0.666992 -14 3.16699 -23.667 7.5 -29s11.833 -8 22.5 -8l33 2l6 -5l-9 -55c-50.667 2 -87.667 3 -111 3l-108 -6l7 58c16.667 2 28.667 6.66699 36 14s11.333 19 12 35l11 296c0 16.667 -4.33301 28.167 -13 34.5s-26.334 11.166 -53.001 14.499l-7 8l6 51
c37.333 -2.66699 71.333 -4 102 -4l86 3c63.333 -98 131.666 -196.667 204.999 -296h9l-3 203c-0.666992 12.667 -3 21.5 -7 26.5s-10.667 7.5 -20 7.5zM314.005 676.001c39.333 -11.333 63.334 -17 72.001 -17c14.667 0 33 13 55 39l11 13h11l40 -37v-10l-79 -97l-16 -4
c-12 0 -37.667 5.66699 -77 17s-63 17 -71 17c-15.333 0 -34 -13 -56 -39l-11 -13h-11l-39 37v11l78 96l17 4c11.333 0 36.666 -5.66699 75.999 -17z" />
    <glyph glyph-name="ograve" unicode="&#xf2;" horiz-adv-x="570" 
d="M288 68c34.667 0 61.5 13 80.5 39s28.5 64.333 28.5 115c0 135.333 -39.667 203 -119 203c-70 0 -105 -51 -105 -153c0 -136 38.333 -204 115 -204zM467 65c-49.333 -49.333 -113.5 -74.002 -192.5 -74.002s-139.667 21.833 -182 65.5s-63.5 105.834 -63.5 186.501
s24.333 145.334 73 194.001s113 73 193 73s141 -21.333 183 -64s63 -104.5 63 -185.5s-24.667 -146.167 -74 -195.5zM139 619.998l-5 13l26 77l12 5c76.667 -38 151 -72.667 223 -104l-13 -47l-14 -9c-58 18 -134.333 39.667 -229 65z" />
    <glyph glyph-name="oacute" unicode="&#xf3;" horiz-adv-x="570" 
d="M288 68c34.667 0 61.5 13 80.5 39s28.5 64.333 28.5 115c0 135.333 -39.667 203 -119 203c-70 0 -105 -51 -105 -153c0 -136 38.333 -204 115 -204zM467 65c-49.333 -49.333 -113.5 -74.002 -192.5 -74.002s-139.667 21.833 -182 65.5s-63.5 105.834 -63.5 186.501
s24.333 145.334 73 194.001s113 73 193 73s141 -21.333 183 -64s63 -104.5 63 -185.5s-24.667 -146.167 -74 -195.5zM446 632.998l-6 -13c-76.667 -19.333 -153 -41 -229 -65l-13 9l-13 47l223 104l12 -5z" />
    <glyph glyph-name="ocircumflex" unicode="&#xf4;" horiz-adv-x="570" 
d="M288 68c34.667 0 61.5 13 80.5 39s28.5 64.333 28.5 115c0 135.333 -39.667 203 -119 203c-70 0 -105 -51 -105 -153c0 -136 38.333 -204 115 -204zM467 65c-49.333 -49.333 -113.5 -74.002 -192.5 -74.002s-139.667 21.833 -182 65.5s-63.5 105.834 -63.5 186.501
s24.333 145.334 73 194.001s113 73 193 73s141 -21.333 183 -64s63 -104.5 63 -185.5s-24.667 -146.167 -74 -195.5zM298 733.998c0 0.666992 20.999 -15.833 62.999 -49.5l94 -74.5l-24 -41l-16 -4c-33.333 16.667 -75.666 36 -126.999 58
c-32 -13.333 -74 -32.666 -126 -57.999l-16 4l-25 41c48.667 35.333 101 76.666 157 123.999h20z" />
    <glyph glyph-name="otilde" unicode="&#xf5;" horiz-adv-x="570" 
d="M288 68c34.667 0 61.5 13 80.5 39s28.5 64.333 28.5 115c0 135.333 -39.667 203 -119 203c-70 0 -105 -51 -105 -153c0 -136 38.333 -204 115 -204zM467 65c-49.333 -49.333 -113.5 -74.002 -192.5 -74.002s-139.667 21.833 -182 65.5s-63.5 105.834 -63.5 186.501
s24.333 145.334 73 194.001s113 73 193 73s141 -21.333 183 -64s63 -104.5 63 -185.5s-24.667 -146.167 -74 -195.5zM279 675.998c39.333 -11.333 63.001 -17 71.001 -17c15.333 0 34 13 56 39l11 13h11l40 -37v-10l-79 -97l-16 -4c-12 0 -37.667 5.66699 -77 17
s-63.333 17 -72 17c-14.667 0 -33 -13 -55 -39l-11 -13h-11l-39 37v11l78 96l17 4c11.333 0 36.666 -5.66699 75.999 -17z" />
    <glyph glyph-name="odieresis" unicode="&#xf6;" horiz-adv-x="570" 
d="M288 68c34.667 0 61.5 13 80.5 39s28.5 64.333 28.5 115c0 135.333 -39.667 203 -119 203c-70 0 -105 -51 -105 -153c0 -136 38.333 -204 115 -204zM467 65c-49.333 -49.333 -113.5 -74.002 -192.5 -74.002s-139.667 21.833 -182 65.5s-63.5 105.834 -63.5 186.501
s24.333 145.334 73 194.001s113 73 193 73s141 -21.333 183 -64s63 -104.5 63 -185.5s-24.667 -146.167 -74 -195.5zM421.5 582.998c-12.333 -12.667 -28.333 -19 -48 -19s-34.667 5.5 -45 16.5s-15.5 26 -15.5 45s6.16699 34.833 18.5 47.5s28.333 19 48 19
s34.667 -5.5 45 -16.5s15.5 -26 15.5 -45s-6.16699 -34.833 -18.5 -47.5zM243.5 582.998c-12.333 -12.667 -28.332 -19 -47.999 -19s-34.667 5.5 -45 16.5s-15.5 26 -15.5 45s6.16699 34.833 18.5 47.5s28.166 19 47.499 19s34.333 -5.5 45 -16.5s16 -26 16 -45
s-6.16699 -34.833 -18.5 -47.5z" />
    <glyph glyph-name="divide" unicode="&#xf7;" horiz-adv-x="506" 
d="M482 312l7 -12l-10 -92l-455 -2l-7 11l14 90c96.667 -0.666992 174.667 -1 234 -1zM299.5 28c-13.667 -14 -31.667 -21 -54 -21s-39.333 6.33301 -51 19s-17.5 29.667 -17.5 51s6.83301 39 20.5 53s31.5 21 53.5 21s39 -6.33301 51 -19s18 -29.667 18 -51
s-6.83301 -39 -20.5 -53zM299.5 383c-13.667 -14 -31.667 -21 -54 -21s-39.333 6.33301 -51 19s-17.5 29.667 -17.5 51s6.83301 39 20.5 53s31.5 21 53.5 21s39 -6.33301 51 -19s18 -29.667 18 -51s-6.83301 -39 -20.5 -53z" />
    <glyph glyph-name="oslash" unicode="&#xf8;" horiz-adv-x="570" 
d="M107 43c-52 44 -78 108.5 -78 193.5s24.333 151.833 73 200.5s114.667 73 198 73c36 0 68 -5 96 -15l54 80l60 -30l1 -11l-50 -74c53.333 -42 80 -106 80 -192s-24.667 -153.667 -74 -203s-115.333 -74 -198 -74c-36 0 -69.333 5.33301 -100 16l-64 -94l-58 31l-2 8z
M224 90c16.667 -14.667 40.167 -22 70.5 -22s55 13 74 39s28.5 63.667 28.5 113s-5 89 -15 119zM173 272c0 -42 3.66699 -78.333 11 -109l154 243c-18 12.667 -38 19 -60 19c-70 0 -105 -51 -105 -153z" />
    <glyph glyph-name="ugrave" unicode="&#xf9;" horiz-adv-x="552" 
d="M290 70c60 0 90.001 30.333 90.001 91l-2 242c-0.666992 16.667 -2.66699 27.834 -6 33.501s-9.66602 8.5 -18.999 8.5l-26 -1l-2 3l8 56c44 -1.33301 76.333 -2 97 -2l103 4l-5 -58c-20 -4.66699 -32.667 -9.16699 -38 -13.5s-8 -12.5 -8 -24.5v-234
c0 -60 -18.333 -105.667 -55 -137s-88.834 -47 -156.501 -47s-117.334 13.667 -149.001 41s-47.5 69.333 -47.5 126v245c0 17.333 -1.83301 28.666 -5.5 33.999s-10.834 8 -21.501 8l-25 -1l-2 3l8 56c48.667 -1.33301 90.334 -2 125.001 -2l101 4l-6 -59
c-16.667 -1.33301 -28.167 -5 -34.5 -11s-9.83301 -15.667 -10.5 -29l-6 -227c0 -34 8 -60.667 24 -80s39 -29 69 -29zM134.001 620l-5 13l26 77l12 5c76.667 -38 151 -72.667 223 -104l-13 -47l-14 -9c-58 18 -134.333 39.667 -229 65z" />
    <glyph glyph-name="uacute" unicode="&#xfa;" horiz-adv-x="552" 
d="M290 70c60 0 90.001 30.333 90.001 91l-2 242c-0.666992 16.667 -2.66699 27.834 -6 33.501s-9.66602 8.5 -18.999 8.5l-26 -1l-2 3l8 56c44 -1.33301 76.333 -2 97 -2l103 4l-5 -58c-20 -4.66699 -32.667 -9.16699 -38 -13.5s-8 -12.5 -8 -24.5v-234
c0 -60 -18.333 -105.667 -55 -137s-88.834 -47 -156.501 -47s-117.334 13.667 -149.001 41s-47.5 69.333 -47.5 126v245c0 17.333 -1.83301 28.666 -5.5 33.999s-10.834 8 -21.501 8l-25 -1l-2 3l8 56c48.667 -1.33301 90.334 -2 125.001 -2l101 4l-6 -59
c-16.667 -1.33301 -28.167 -5 -34.5 -11s-9.83301 -15.667 -10.5 -29l-6 -227c0 -34 8 -60.667 24 -80s39 -29 69 -29zM446.001 633l-6 -13c-76.667 -19.333 -153 -41 -229 -65l-13 9l-13 47l223 104l12 -5z" />
    <glyph glyph-name="ucircumflex" unicode="&#xfb;" horiz-adv-x="552" 
d="M290 70c60 0 90.001 30.333 90.001 91l-2 242c-0.666992 16.667 -2.66699 27.834 -6 33.501s-9.66602 8.5 -18.999 8.5l-26 -1l-2 3l8 56c44 -1.33301 76.333 -2 97 -2l103 4l-5 -58c-20 -4.66699 -32.667 -9.16699 -38 -13.5s-8 -12.5 -8 -24.5v-234
c0 -60 -18.333 -105.667 -55 -137s-88.834 -47 -156.501 -47s-117.334 13.667 -149.001 41s-47.5 69.333 -47.5 126v245c0 17.333 -1.83301 28.666 -5.5 33.999s-10.834 8 -21.501 8l-25 -1l-2 3l8 56c48.667 -1.33301 90.334 -2 125.001 -2l101 4l-6 -59
c-16.667 -1.33301 -28.167 -5 -34.5 -11s-9.83301 -15.667 -10.5 -29l-6 -227c0 -34 8 -60.667 24 -80s39 -29 69 -29zM298.001 734c0 0.666992 20.999 -15.833 62.999 -49.5l94 -74.5l-24 -41l-16 -4c-33.333 16.667 -75.666 36 -126.999 58
c-32 -13.333 -74 -32.666 -126 -57.999l-16 4l-25 41c48.667 35.333 101 76.666 157 123.999h20z" />
    <glyph glyph-name="udieresis" unicode="&#xfc;" horiz-adv-x="552" 
d="M290 70c60 0 90.001 30.333 90.001 91l-2 242c-0.666992 16.667 -2.66699 27.834 -6 33.501s-9.66602 8.5 -18.999 8.5l-26 -1l-2 3l8 56c44 -1.33301 76.333 -2 97 -2l103 4l-5 -58c-20 -4.66699 -32.667 -9.16699 -38 -13.5s-8 -12.5 -8 -24.5v-234
c0 -60 -18.333 -105.667 -55 -137s-88.834 -47 -156.501 -47s-117.334 13.667 -149.001 41s-47.5 69.333 -47.5 126v245c0 17.333 -1.83301 28.666 -5.5 33.999s-10.834 8 -21.501 8l-25 -1l-2 3l8 56c48.667 -1.33301 90.334 -2 125.001 -2l101 4l-6 -59
c-16.667 -1.33301 -28.167 -5 -34.5 -11s-9.83301 -15.667 -10.5 -29l-6 -227c0 -34 8 -60.667 24 -80s39 -29 69 -29zM421.501 583c-12.333 -12.667 -28.333 -19 -48 -19s-34.667 5.5 -45 16.5s-15.5 26 -15.5 45s6.16699 34.833 18.5 47.5s28.333 19 48 19
s34.667 -5.5 45 -16.5s15.5 -26 15.5 -45s-6.16699 -34.833 -18.5 -47.5zM243.501 583c-12.333 -12.667 -28.332 -19 -47.999 -19s-34.667 5.5 -45 16.5s-15.5 26 -15.5 45s6.16699 34.833 18.5 47.5s28.166 19 47.499 19s34.333 -5.5 45 -16.5s16 -26 16 -45
s-6.16699 -34.833 -18.5 -47.5z" />
    <glyph glyph-name="yacute" unicode="&#xfd;" horiz-adv-x="524" 
d="M317 503l114.999 -3.00098l87 3l3 -6l-6 -53c-20.667 -7.33301 -38 -18.5 -52 -33.5s-29.333 -36.833 -46 -65.5l-78 -140c-9.33301 -18.667 -14 -51 -14 -97v-16c0 -8.66699 2.83301 -16.5 8.5 -23.5s15.834 -10.5 30.501 -10.5l42 2l2 -4l-7 -60
c-67.333 2.66699 -115.666 4 -144.999 4l-138 -8l6 59c32.667 3.33301 53.667 9.33301 63 18s14 26 14 52v20c0 22.667 -7.66699 48.334 -23 77.001l-83 150c-12 22 -24.333 38.333 -37 49s-30.334 19 -53.001 25l-3 4l7 56c52.667 -1.33301 89.667 -2 111 -2l136 6l5 -8
l-6 -50c-30 -0.666992 -45 -8.33398 -45 -23.001c0 -7.33301 10.167 -32 30.5 -74s31.5 -65.667 33.5 -71h9l57 115c8 16 12 28 12 36c0 10.667 -13.333 16.334 -40 17.001l-2 4zM442.999 632.999l-6 -13c-76.667 -19.333 -153 -41 -229 -65l-13 9l-13 47l223 104l12 -5z
" />
    <glyph glyph-name="thorn" unicode="&#xfe;" horiz-adv-x="497" 
d="M282 448c-21.333 -3.33301 -35.168 -7.16895 -41.501 -11.502s-10.166 -16.166 -11.499 -35.499h61c127.333 0 191 -47 191 -141c0 -42.667 -19.167 -78.167 -57.5 -106.5s-86.5 -42.5 -144.5 -42.5h-58v-22c0 -13.333 2 -22.166 6 -26.499s12.333 -6.5 25 -6.5l37 2
l5 -6l-7 -54c-62.667 1.33301 -106.667 2 -132 2l-120 -6l6 56c23.333 4 38.833 10.333 46.5 19s11.5 24 11.5 46v289c0 16.667 -2 27.667 -6 33s-11.667 8 -23 8l-27 -1l-5 8l6 50l120 -1l123 5zM224.998 316.997l-2.99902 -130c23.333 -6.66699 44.666 -10 63.999 -10
c43.333 7.33301 65 33.333 65 78c0 26 -8.5 45 -25.5 57s-44.167 18 -81.5 18c-12 0 -18.333 -4.33301 -19 -13z" />
    <glyph glyph-name="ydieresis" unicode="&#xff;" horiz-adv-x="524" 
d="M317 503l114.999 -3.00098l87 3l3 -6l-6 -53c-20.667 -7.33301 -38 -18.5 -52 -33.5s-29.333 -36.833 -46 -65.5l-78 -140c-9.33301 -18.667 -14 -51 -14 -97v-16c0 -8.66699 2.83301 -16.5 8.5 -23.5s15.834 -10.5 30.501 -10.5l42 2l2 -4l-7 -60
c-67.333 2.66699 -115.666 4 -144.999 4l-138 -8l6 59c32.667 3.33301 53.667 9.33301 63 18s14 26 14 52v20c0 22.667 -7.66699 48.334 -23 77.001l-83 150c-12 22 -24.333 38.333 -37 49s-30.334 19 -53.001 25l-3 4l7 56c52.667 -1.33301 89.667 -2 111 -2l136 6l5 -8
l-6 -50c-30 -0.666992 -45 -8.33398 -45 -23.001c0 -7.33301 10.167 -32 30.5 -74s31.5 -65.667 33.5 -71h9l57 115c8 16 12 28 12 36c0 10.667 -13.333 16.334 -40 17.001l-2 4zM412.499 582.999c-12.333 -12.667 -28.332 -19 -47.999 -19s-34.667 5.5 -45 16.5
s-15.5 26 -15.5 45s6.33301 34.833 19 47.5s28.667 19 48 19s34.166 -5.5 44.499 -16.5s15.5 -26 15.5 -45s-6.16699 -34.833 -18.5 -47.5zM234.5 582.999c-12.333 -12.667 -28.332 -19 -47.999 -19s-34.667 5.5 -45 16.5s-15.5 26 -15.5 45s6.16699 34.833 18.5 47.5
s28.166 19 47.499 19s34.333 -5.5 45 -16.5s16 -26 16 -45s-6.16699 -34.833 -18.5 -47.5z" />
    <glyph glyph-name="Amacron" unicode="&#x100;" horiz-adv-x="625" 
d="M627 -3c-52.667 2 -92.666 2.99707 -119.999 2.99707c-53.333 0 -110.666 -2.66699 -171.999 -8l-6 8l5 60c32.667 2.66699 53.667 6.33398 63 11.001s14 11.834 14 21.501s-1.66699 22.167 -5 37.5l-20 76c-17.333 0.666992 -43.333 1 -78 1s-70.667 -2.33301 -108 -7
l-25 -75c-4 -14 -6 -25.5 -6 -34.5s3.33301 -15.667 10 -20s18.667 -6.5 36 -6.5h43l4 -7l-7 -63c-54.667 4 -103.334 6 -146.001 6l-121 -3l8 67c16 2.66699 28.833 8.83398 38.5 18.501s18.5 25.5 26.5 47.5l178 507l159 16l11 -5c60 -231.333 107.667 -403.333 143 -516
c7.33301 -24 16.666 -41 27.999 -51s28 -16 50 -18l4 -7zM294.001 285.997c21.333 0 46 1.33301 74 4l-58 220h-14l-72 -224h70zM463.001 799.997l8.00098 -14l-12 -77l-280 -2l-11 12l14 76c63.333 -0.666992 114.666 -1 153.999 -1z" />
    <glyph glyph-name="amacron" unicode="&#x101;" horiz-adv-x="544" 
d="M336.5 62c7 2.66699 10.502 7.33105 10.502 13.998c0 8.66699 -6 34.334 -18 77.001c-14 0.666992 -31.833 1 -53.5 1s-52.834 -1.33301 -93.501 -4c-14.667 -41.333 -22 -65.833 -22 -73.5s2.33301 -13 7 -16s14 -4.5 28 -4.5h31l6 -7l-7 -53
c-46.667 2.66699 -87.334 4 -122.001 4l-102 -2l6 57c22 4 38.667 20.333 50 49l143 393l153 13l10 -6c50 -186.667 88 -318.667 114 -396c5.33301 -18 12.5 -31 21.5 -39s22.167 -12.667 39.5 -14l3 -7l-6 -50c-44 1.33301 -78.667 2 -104 2l-145 -6l-5 6l4 54
c27.333 2.66699 44.5 5.33398 51.5 8.00098zM257.002 226.997c15.333 0 34.333 0.666992 57 2l-43 161h-13l-54 -163h53zM420.002 657.997l8.00098 -14l-12 -77l-280 -2l-11 12l14 76c63.333 -0.666992 114.666 -1 153.999 -1z" />
    <glyph glyph-name="Abreve" unicode="&#x102;" horiz-adv-x="625" 
d="M627 -3c-52.667 2 -92.666 2.99707 -119.999 2.99707c-53.333 0 -110.666 -2.66699 -171.999 -8l-6 8l5 60c32.667 2.66699 53.667 6.33398 63 11.001s14 11.834 14 21.501s-1.66699 22.167 -5 37.5l-20 76c-17.333 0.666992 -43.333 1 -78 1s-70.667 -2.33301 -108 -7
l-25 -75c-4 -14 -6 -25.5 -6 -34.5s3.33301 -15.667 10 -20s18.667 -6.5 36 -6.5h43l4 -7l-7 -63c-54.667 4 -103.334 6 -146.001 6l-121 -3l8 67c16 2.66699 28.833 8.83398 38.5 18.501s18.5 25.5 26.5 47.5l178 507l159 16l11 -5c60 -231.333 107.667 -403.333 143 -516
c7.33301 -24 16.666 -41 27.999 -51s28 -16 50 -18l4 -7zM294.001 285.997c21.333 0 46 1.33301 74 4l-58 220h-14l-72 -224h70zM317.001 787.997c50.667 0 85 20 103 60l17 -4l28 -35c-10 -33.333 -27.333 -61 -52 -83s-56.667 -33 -96 -33s-71.333 11 -96 33
s-42 49.667 -52 83l28 35l17 4c18 -40 52.333 -60 103 -60z" />
    <glyph glyph-name="abreve" unicode="&#x103;" horiz-adv-x="544" 
d="M336.5 62c7 2.66699 10.502 7.33105 10.502 13.998c0 8.66699 -6 34.334 -18 77.001c-14 0.666992 -31.833 1 -53.5 1s-52.834 -1.33301 -93.501 -4c-14.667 -41.333 -22 -65.833 -22 -73.5s2.33301 -13 7 -16s14 -4.5 28 -4.5h31l6 -7l-7 -53
c-46.667 2.66699 -87.334 4 -122.001 4l-102 -2l6 57c22 4 38.667 20.333 50 49l143 393l153 13l10 -6c50 -186.667 88 -318.667 114 -396c5.33301 -18 12.5 -31 21.5 -39s22.167 -12.667 39.5 -14l3 -7l-6 -50c-44 1.33301 -78.667 2 -104 2l-145 -6l-5 6l4 54
c27.333 2.66699 44.5 5.33398 51.5 8.00098zM257.002 226.997c15.333 0 34.333 0.666992 57 2l-43 161h-13l-54 -163h53zM275.002 650.997c50.667 0 85 20 103 60l17 -4l28 -35c-10 -33.333 -27.333 -61 -52 -83s-56.667 -33 -96 -33s-71.333 11 -96 33s-42 49.667 -52 83
l28 35l17 4c18 -40 52.333 -60 103 -60z" />
    <glyph glyph-name="Aogonek" unicode="&#x104;" horiz-adv-x="625" 
d="M444.5 -216.5c-21.667 16.333 -32.498 36.8291 -32.498 61.4961s7.33301 48.5 22 71.5s37.667 50.833 69 83.5c-50.667 0 -106.667 -2.66699 -168 -8l-6 8l5 60c32.667 2.66699 53.667 6.33398 63 11.001s14 11.834 14 21.501s-1.66699 22.167 -5 37.5l-20 76
c-17.333 0.666992 -43.333 1 -78 1s-70.667 -2.33301 -108 -7l-25 -75c-4 -14 -6 -25.5 -6 -34.5s3.33301 -15.667 10 -20s18.667 -6.5 36 -6.5h43l4 -7l-7 -63c-54.667 4 -103.334 6 -146.001 6l-121 -3l8 67c16 2.66699 28.833 8.83398 38.5 18.501s18.5 25.5 26.5 47.5
l178 507l159 16l11 -5c60 -231.333 107.667 -403.333 143 -516c7.33301 -24 16.666 -41 27.999 -51s28 -16 50 -18l4 -7l-7 -59c-21.333 1.33301 -43 2.33301 -65 3c-26 -31.333 -44 -55.666 -54 -72.999s-15 -33.333 -15 -48s4.66699 -26.5 14 -35.5s20.333 -13.5 33 -13.5
c23.333 0 48.333 8 75 24l18 -29c-34.667 -32.667 -68.667 -54.667 -102 -66c-36 0 -64.833 8.16699 -86.5 24.5zM294.002 285.996c21.333 0 46 1.33301 74 4l-58 220h-14l-72 -224h70z" />
    <glyph glyph-name="aogonek" unicode="&#x105;" horiz-adv-x="544" 
d="M365.5 -217.5c-21 15.667 -31.499 35.832 -31.499 60.499s7.5 48.667 22.5 72s38.5 51.666 70.5 84.999l-141 -6l-5 6l4 54c27.333 2.66699 44.5 5.33398 51.5 8.00098s10.5 7.33398 10.5 14.001c0 8.66699 -6 34.334 -18 77.001c-14 0.666992 -31.833 1 -53.5 1
s-52.834 -1.33301 -93.501 -4c-14.667 -41.333 -22 -65.833 -22 -73.5s2.33301 -13 7 -16s14 -4.5 28 -4.5h31l6 -7l-7 -53c-46.667 2.66699 -87.334 4 -122.001 4l-102 -2l6 57c22 4 38.667 20.333 50 49l143 393l153 13l10 -6c50 -186.667 88 -318.667 114 -396
c5.33301 -18 12.5 -31 21.5 -39s22.167 -12.667 39.5 -14l3 -7l-6 -50l-50 2c-26.667 -31.333 -45.167 -55.833 -55.5 -73.5s-15.5 -34 -15.5 -49s4.5 -27 13.5 -36s19.833 -13.5 32.5 -13.5c22.667 0 47.334 8 74.001 24l17 -28c-34 -32.667 -67.333 -54.334 -100 -65.001
c-36 0 -64.5 7.83301 -85.5 23.5zM257.001 226.998c15.333 0 34.333 0.666992 57 2l-43 161h-13l-54 -163h53z" />
    <glyph glyph-name="Cacute" unicode="&#x106;" horiz-adv-x="617" 
d="M545 28c-64 -26.667 -139.668 -40.001 -227.001 -40.001s-157.5 28.167 -210.5 84.5s-79.5 135.666 -79.5 237.999s31.667 185.166 95 248.499s148.333 95 255 95c52.667 0 116.334 -8.33301 191.001 -25l6 -13c-13.333 -55.333 -22 -118.333 -26 -189l-99 -7
c1.33301 18 2 35.667 2 53c0 28.667 -8.83301 49.834 -26.5 63.501s-45.167 20.5 -82.5 20.5c-106 0 -159 -73 -159 -219c0 -81.333 14.667 -144.333 44 -189s70 -67 122 -67c36 0 64 10.833 84 32.5s34 56.834 42 105.501l99 7c-11.333 -69.333 -18 -131.666 -20 -186.999z
M521.999 774.999l-6 -13c-76.667 -19.333 -153 -41 -229 -65l-13 9l-13 47l223 104l12 -5z" />
    <glyph glyph-name="cacute" unicode="&#x107;" horiz-adv-x="524" 
d="M459 22c-54.667 -20.667 -118.166 -31.001 -190.499 -31.001s-130.333 22 -174 66s-65.5 106.167 -65.5 186.5s25.833 144.833 77.5 193.5s122.167 73 211.5 73c41.333 0 95.333 -6.66699 162 -20l6 -11c-11.333 -44.667 -19 -96 -23 -154l-92 -5
c0.666992 13.333 1 29.333 1 48c0 38 -27.333 57 -82 57c-78 0 -117 -53.333 -117 -160c0 -61.333 10.667 -108.166 32 -140.499s51.666 -48.5 90.999 -48.5c27.333 0 48.5 8 63.5 24s25.167 42 30.5 78l93 6c-8.66699 -56 -13.667 -106.667 -15 -152zM456.001 632.999
l-6 -13c-76.667 -19.333 -153 -41 -229 -65l-13 9l-13 47l223 104l12 -5z" />
    <glyph glyph-name="Ccircumflex" unicode="&#x108;" horiz-adv-x="617" 
d="M545 28c-64 -26.667 -139.668 -40.001 -227.001 -40.001s-157.5 28.167 -210.5 84.5s-79.5 135.666 -79.5 237.999s31.667 185.166 95 248.499s148.333 95 255 95c52.667 0 116.334 -8.33301 191.001 -25l6 -13c-13.333 -55.333 -22 -118.333 -26 -189l-99 -7
c1.33301 18 2 35.667 2 53c0 28.667 -8.83301 49.834 -26.5 63.501s-45.167 20.5 -82.5 20.5c-106 0 -159 -73 -159 -219c0 -81.333 14.667 -144.333 44 -189s70 -67 122 -67c36 0 64 10.833 84 32.5s34 56.834 42 105.501l99 7c-11.333 -69.333 -18 -131.666 -20 -186.999z
M207.999 708.999l-29 40.999c42.667 40 93.334 91.333 152.001 154h20c53.333 -57.333 103.666 -108.666 150.999 -153.999l-29 -41l-15 -4c-13.333 10.667 -52.333 38.334 -117 83.001c-47.333 -30.667 -86.333 -58.334 -117 -83.001z" />
    <glyph glyph-name="ccircumflex" unicode="&#x109;" horiz-adv-x="524" 
d="M459 22c-54.667 -20.667 -118.166 -31.001 -190.499 -31.001s-130.333 22 -174 66s-65.5 106.167 -65.5 186.5s25.833 144.833 77.5 193.5s122.167 73 211.5 73c41.333 0 95.333 -6.66699 162 -20l6 -11c-11.333 -44.667 -19 -96 -23 -154l-92 -5
c0.666992 13.333 1 29.333 1 48c0 38 -27.333 57 -82 57c-78 0 -117 -53.333 -117 -160c0 -61.333 10.667 -108.166 32 -140.499s51.666 -48.5 90.999 -48.5c27.333 0 48.5 8 63.5 24s25.167 42 30.5 78l93 6c-8.66699 -56 -13.667 -106.667 -15 -152zM157.001 566.999
l-29 40.999c42.667 40 93.334 91.333 152.001 154h20c53.333 -57.333 103.666 -108.666 150.999 -153.999l-29 -41l-15 -4c-13.333 10.667 -52.333 38.334 -117 83.001c-47.333 -30.667 -86.333 -58.334 -117 -83.001z" />
    <glyph glyph-name="Cdotaccent" unicode="&#x10a;" horiz-adv-x="617" 
d="M545 28c-64 -26.667 -139.668 -40.001 -227.001 -40.001s-157.5 28.167 -210.5 84.5s-79.5 135.666 -79.5 237.999s31.667 185.166 95 248.499s148.333 95 255 95c52.667 0 116.334 -8.33301 191.001 -25l6 -13c-13.333 -55.333 -22 -118.333 -26 -189l-99 -7
c1.33301 18 2 35.667 2 53c0 28.667 -8.83301 49.834 -26.5 63.501s-45.167 20.5 -82.5 20.5c-106 0 -159 -73 -159 -219c0 -81.333 14.667 -144.333 44 -189s70 -67 122 -67c36 0 64 10.833 84 32.5s34 56.834 42 105.501l99 7c-11.333 -69.333 -18 -131.666 -20 -186.999z
M401.999 724.499c-14.667 -15 -33.667 -22.499 -57 -22.499s-41 6.66699 -53 20s-18 31.166 -18 53.499s7.33301 41 22 56s33.5 22.5 56.5 22.5s40.667 -6.5 53 -19.5s18.5 -30.833 18.5 -53.5s-7.33301 -41.5 -22 -56.5z" />
    <glyph glyph-name="cdotaccent" unicode="&#x10b;" horiz-adv-x="524" 
d="M459 22c-54.667 -20.667 -118.166 -31.001 -190.499 -31.001s-130.333 22 -174 66s-65.5 106.167 -65.5 186.5s25.833 144.833 77.5 193.5s122.167 73 211.5 73c41.333 0 95.333 -6.66699 162 -20l6 -11c-11.333 -44.667 -19 -96 -23 -154l-92 -5
c0.666992 13.333 1 29.333 1 48c0 38 -27.333 57 -82 57c-78 0 -117 -53.333 -117 -160c0 -61.333 10.667 -108.166 32 -140.499s51.666 -48.5 90.999 -48.5c27.333 0 48.5 8 63.5 24s25.167 42 30.5 78l93 6c-8.66699 -56 -13.667 -106.667 -15 -152zM347.001 587.499
c-14.667 -15 -33.667 -22.499 -57 -22.499s-41 6.66699 -53 20s-18 31.166 -18 53.499s7.33301 41 22 56s33.5 22.5 56.5 22.5s40.667 -6.5 53 -19.5s18.5 -30.833 18.5 -53.5s-7.33301 -41.5 -22 -56.5z" />
    <glyph glyph-name="Ccaron" unicode="&#x10c;" horiz-adv-x="617" 
d="M545 28c-64 -26.667 -139.668 -40.001 -227.001 -40.001s-157.5 28.167 -210.5 84.5s-79.5 135.666 -79.5 237.999s31.667 185.166 95 248.499s148.333 95 255 95c52.667 0 116.334 -8.33301 191.001 -25l6 -13c-13.333 -55.333 -22 -118.333 -26 -189l-99 -7
c1.33301 18 2 35.667 2 53c0 28.667 -8.83301 49.834 -26.5 63.501s-45.167 20.5 -82.5 20.5c-106 0 -159 -73 -159 -219c0 -81.333 14.667 -144.333 44 -189s70 -67 122 -67c36 0 64 10.833 84 32.5s34 56.834 42 105.501l99 7c-11.333 -69.333 -18 -131.666 -20 -186.999z
M488.999 860.999l25 -41c-48.667 -35.333 -101 -76.666 -157 -123.999h-20c-55.333 46.667 -107.666 88 -156.999 124l24 41l16 4c33.333 -16.667 75.666 -36 126.999 -58c32 13.333 74 32.666 126 57.999z" />
    <glyph glyph-name="ccaron" unicode="&#x10d;" horiz-adv-x="524" 
d="M459 22c-54.667 -20.667 -118.166 -31.001 -190.499 -31.001s-130.333 22 -174 66s-65.5 106.167 -65.5 186.5s25.833 144.833 77.5 193.5s122.167 73 211.5 73c41.333 0 95.333 -6.66699 162 -20l6 -11c-11.333 -44.667 -19 -96 -23 -154l-92 -5
c0.666992 13.333 1 29.333 1 48c0 38 -27.333 57 -82 57c-78 0 -117 -53.333 -117 -160c0 -61.333 10.667 -108.166 32 -140.499s51.666 -48.5 90.999 -48.5c27.333 0 48.5 8 63.5 24s25.167 42 30.5 78l93 6c-8.66699 -56 -13.667 -106.667 -15 -152zM435.001 718.999
l25 -41c-48.667 -35.333 -101 -76.666 -157 -123.999h-20c-55.333 46.667 -107.666 88 -156.999 124l24 41l16 4c33.333 -16.667 75.666 -36 126.999 -58c32 13.333 74 32.666 126 57.999z" />
    <glyph glyph-name="Dcaron" unicode="&#x10e;" horiz-adv-x="693" 
d="M318 -12c-62.667 8 -107.333 12.001 -134 12.001c-42.667 0 -91.334 -3.33301 -146.001 -10l7 68c28.667 5.33301 47.834 13.833 57.501 25.5s14.5 31.5 14.5 59.5l1 379c0 21.333 -2.16699 35.666 -6.5 42.999s-12.833 11 -25.5 11l-33 -2l-6 9l8 62
c59.333 -2 102 -3 128 -3l159 5c101.333 0 180.5 -26.5 237.5 -79.5s85.5 -129.333 85.5 -229s-32.333 -183 -97 -250s-148 -100.5 -250 -100.5zM289.001 560.001c-10.667 0 -17.999 -1.66797 -21.999 -5.00098s-6.33301 -9.66602 -7 -18.999
c-8.66699 -182 -13 -312 -13 -390c0 -28.667 5.5 -47.667 16.5 -57s33.167 -14 66.5 -14c118.667 0 178 80.333 178 241c0 84.667 -17.833 146.5 -53.5 185.5s-90.834 58.5 -165.501 58.5zM481.002 861l25 -41c-48.667 -35.333 -101 -76.666 -157 -123.999h-20
c-55.333 46.667 -107.666 88 -156.999 124l24 41l16 4c33.333 -16.667 75.666 -36 126.999 -58c32 13.333 74 32.666 126 57.999z" />
    <glyph glyph-name="dcaron" unicode="&#x10f;" horiz-adv-x="587" 
d="M100 117l-0.000976562 285.001c0 16.667 -1.66699 27.834 -5 33.501s-9.66602 8.5 -18.999 8.5l-27 -2l-6 8l7 53c52 -1.33301 88.667 -2 110 -2l132 4c84.667 0 150.167 -20.333 196.5 -61s69.5 -100.5 69.5 -179.5s-26.5 -144.333 -79.5 -196
s-122.167 -77.5 -207.5 -77.5c-51.333 6 -93.333 9 -126 9l-108 -8l5 60c22.667 3.33301 38 9.66602 46 18.999s12 24.666 12 45.999zM251.999 428.001c-8 0 -13.499 -1.33301 -16.499 -4s-4.83301 -8 -5.5 -16c-6.66699 -125.333 -10 -222 -10 -290c0 -20 4 -33.5 12 -40.5
s23.667 -10.5 47 -10.5c90 0 135 59.667 135 179c0 64.667 -12.833 111.167 -38.5 139.5s-66.834 42.5 -123.501 42.5zM432 719.001l25 -41c-48.667 -35.333 -101 -76.666 -157 -123.999h-20c-55.333 46.667 -107.666 88 -156.999 124l24 41l16 4
c33.333 -16.667 75.666 -36 126.999 -58c32 13.333 74 32.666 126 57.999z" />
    <glyph glyph-name="Dcroat" unicode="&#x110;" horiz-adv-x="709" 
d="M333 -12c-63.333 8 -108.335 12 -135.002 12c-42 0 -90.333 -3.33301 -145 -10l7 68c30 5.33301 49.5 14.5 58.5 27.5s13.5 38.5 13.5 76.5v124h-116l-8 7l10 60h114v169c0 21.333 -2 35.666 -6 42.999s-12.333 11 -25 11l-33 -2l-6 9l8 62
c58.667 -2 101.334 -3 128.001 -3l158 5c100.667 0 179.834 -26.667 237.501 -80s86.5 -129.666 86.5 -228.999s-32.5 -182.5 -97.5 -249.5s-148.167 -100.5 -249.5 -100.5zM344.998 75c118 0 177.001 80.332 177.001 240.999c0 84.667 -17.833 146.5 -53.5 185.5
s-90.834 58.5 -165.501 58.5c-10.667 0 -18 -1.66699 -22 -5s-6.33301 -9.66602 -7 -18.999l-8 -183l125 2l6 -9l-6 -60h-127l-2 -140c0 -28.667 5.5 -47.667 16.5 -57s33.167 -14 66.5 -14z" />
    <glyph glyph-name="dcroat" unicode="&#x111;" horiz-adv-x="602" 
d="M114 128v90h-91l-7 6l9 53h89v125c0 16.667 -1.66699 27.834 -5 33.501s-10 8.5 -20 8.5l-26 -2l-6 8l7 53c51.333 -1.33301 88 -2 110 -2l132 4c84 0 149.333 -20.5 196 -61.5s70 -100.833 70 -179.5s-26.5 -143.834 -79.5 -195.501s-122.167 -77.5 -207.5 -77.5
c-52 6 -94 9 -126 9l-109 -8l6 60c24 3.33301 39.667 10 47 20s11 28.667 11 56zM293 67c89.333 0 134 59.668 134 179.001c0 64.667 -12.667 111.167 -38 139.5s-66.333 42.5 -123 42.5c-8.66699 0 -14.5 -1.5 -17.5 -4.5s-4.5 -8.16699 -4.5 -15.5l-7 -130l93 1l6 -7
l-6 -54h-95l-1 -100c0 -20.667 4 -34.334 12 -41.001s23.667 -10 47 -10z" />
    <glyph glyph-name="Emacron" unicode="&#x112;" horiz-adv-x="597" 
d="M253 370l93.002 -0.99707l116 8l8 -9l-14 -86c-53.333 2 -92.5 3 -117.5 3s-54.5 -2 -88.5 -6c-2 -72.667 -3 -120.834 -3 -144.501s3.5 -38.834 10.5 -45.501s25.833 -10 56.5 -10s54.667 1.16699 72 3.5s32 7.83301 44 16.5s20.167 19.834 24.5 33.501
s8.5 33.834 12.5 60.501l85 7l7 -10c-12 -60 -21.333 -122 -28 -186l-9 -11c-125.333 4.66699 -215.333 7 -270 7c-81.333 0 -153.333 -3.33301 -216 -10l8 68c27.333 4 46.166 12.167 56.499 24.5s15.5 32.833 15.5 61.5l1 379c0 22 -2.16699 36.5 -6.5 43.5
s-13.166 10.5 -26.499 10.5l-30 -2l-7 9l8 61c73.333 -2 158 -3 254 -3s174.333 4 235 12l8 -11c-12 -59.333 -19.667 -120 -23 -182l-92 -6c1.33301 17.333 2 30.666 2 39.999c0 27.333 -7 44.666 -21 51.999s-40.833 11 -80.5 11s-62.334 -1.83301 -68.001 -5.5
s-8.83398 -12.834 -9.50098 -27.501zM463.002 800.003l8.00098 -14l-12 -77l-280 -2l-11 12l14 76c63.333 -0.666992 114.666 -1 153.999 -1z" />
    <glyph glyph-name="emacron" unicode="&#x113;" horiz-adv-x="512" 
d="M226 292l73.9961 -1l94 7l8 -9l-12 -74c-43.333 1.33301 -72.166 2 -86.499 2s-41.5 -1.33301 -81.5 -4c-0.666992 -16 -1 -41.167 -1 -75.5s2.66699 -54.166 8 -59.499s25.166 -8 59.499 -8s58.5 5 72.5 15s24 34 30 72l78 6l7 -9c-10 -48 -17.333 -98 -22 -150l-10 -9
c-100 3.33301 -174 5 -222 5c-69.333 0 -132 -2.66699 -188 -8l7 59c22 2.66699 37 8.83398 45 18.501s12 26.167 12 49.5l1 284c0 16.667 -1.66699 27.834 -5 33.501s-10 8.5 -20 8.5l-24 -1l-7 7l7 52c64.667 -1.33301 137.334 -2 218.001 -2s146 3 196 9l7 -9
c-9.33301 -48.667 -15.666 -97.334 -18.999 -146.001l-85 -6c1.33301 13.333 2 23.666 2 30.999c0 20.667 -5.66699 33.667 -17 39s-32.166 8 -62.499 8s-47.666 -1.33301 -51.999 -4s-6.5 -9.33398 -6.5 -20.001zM417.996 658l8.00098 -14l-12 -77l-280 -2l-11 12l14 76
c63.333 -0.666992 114.666 -1 153.999 -1z" />
    <glyph glyph-name="Ebreve" unicode="&#x114;" horiz-adv-x="597" 
d="M253 370l93.002 -0.99707l116 8l8 -9l-14 -86c-53.333 2 -92.5 3 -117.5 3s-54.5 -2 -88.5 -6c-2 -72.667 -3 -120.834 -3 -144.501s3.5 -38.834 10.5 -45.501s25.833 -10 56.5 -10s54.667 1.16699 72 3.5s32 7.83301 44 16.5s20.167 19.834 24.5 33.501
s8.5 33.834 12.5 60.501l85 7l7 -10c-12 -60 -21.333 -122 -28 -186l-9 -11c-125.333 4.66699 -215.333 7 -270 7c-81.333 0 -153.333 -3.33301 -216 -10l8 68c27.333 4 46.166 12.167 56.499 24.5s15.5 32.833 15.5 61.5l1 379c0 22 -2.16699 36.5 -6.5 43.5
s-13.166 10.5 -26.499 10.5l-30 -2l-7 9l8 61c73.333 -2 158 -3 254 -3s174.333 4 235 12l8 -11c-12 -59.333 -19.667 -120 -23 -182l-92 -6c1.33301 17.333 2 30.666 2 39.999c0 27.333 -7 44.666 -21 51.999s-40.833 11 -80.5 11s-62.334 -1.83301 -68.001 -5.5
s-8.83398 -12.834 -9.50098 -27.501zM327.002 812.003c50.667 0 85 22.667 103 68l17 -4l28 -34c-10 -36 -27.333 -65.833 -52 -89.5s-56.667 -35.5 -96 -35.5s-71.333 11.833 -96 35.5s-42 53.5 -52 89.5l28 34l17 4c18 -45.333 52.333 -68 103 -68z" />
    <glyph glyph-name="ebreve" unicode="&#x115;" horiz-adv-x="512" 
d="M226 292l73.9961 -1l94 7l8 -9l-12 -74c-43.333 1.33301 -72.166 2 -86.499 2s-41.5 -1.33301 -81.5 -4c-0.666992 -16 -1 -41.167 -1 -75.5s2.66699 -54.166 8 -59.499s25.166 -8 59.499 -8s58.5 5 72.5 15s24 34 30 72l78 6l7 -9c-10 -48 -17.333 -98 -22 -150l-10 -9
c-100 3.33301 -174 5 -222 5c-69.333 0 -132 -2.66699 -188 -8l7 59c22 2.66699 37 8.83398 45 18.501s12 26.167 12 49.5l1 284c0 16.667 -1.66699 27.834 -5 33.501s-10 8.5 -20 8.5l-24 -1l-7 7l7 52c64.667 -1.33301 137.334 -2 218.001 -2s146 3 196 9l7 -9
c-9.33301 -48.667 -15.666 -97.334 -18.999 -146.001l-85 -6c1.33301 13.333 2 23.666 2 30.999c0 20.667 -5.66699 33.667 -17 39s-32.166 8 -62.499 8s-47.666 -1.33301 -51.999 -4s-6.5 -9.33398 -6.5 -20.001zM278.996 665c50.667 0 85 22.667 103 68l17 -4l28 -34
c-10 -36 -27.333 -65.833 -52 -89.5s-56.667 -35.5 -96 -35.5s-71.333 11.833 -96 35.5s-42 53.5 -52 89.5l28 34l17 4c18 -45.333 52.333 -68 103 -68z" />
    <glyph glyph-name="Edotaccent" unicode="&#x116;" horiz-adv-x="597" 
d="M253 370l93.002 -0.99707l116 8l8 -9l-14 -86c-53.333 2 -92.5 3 -117.5 3s-54.5 -2 -88.5 -6c-2 -72.667 -3 -120.834 -3 -144.501s3.5 -38.834 10.5 -45.501s25.833 -10 56.5 -10s54.667 1.16699 72 3.5s32 7.83301 44 16.5s20.167 19.834 24.5 33.501
s8.5 33.834 12.5 60.501l85 7l7 -10c-12 -60 -21.333 -122 -28 -186l-9 -11c-125.333 4.66699 -215.333 7 -270 7c-81.333 0 -153.333 -3.33301 -216 -10l8 68c27.333 4 46.166 12.167 56.499 24.5s15.5 32.833 15.5 61.5l1 379c0 22 -2.16699 36.5 -6.5 43.5
s-13.166 10.5 -26.499 10.5l-30 -2l-7 9l8 61c73.333 -2 158 -3 254 -3s174.333 4 235 12l8 -11c-12 -59.333 -19.667 -120 -23 -182l-92 -6c1.33301 17.333 2 30.666 2 39.999c0 27.333 -7 44.666 -21 51.999s-40.833 11 -80.5 11s-62.334 -1.83301 -68.001 -5.5
s-8.83398 -12.834 -9.50098 -27.501zM372.002 724.503c-14.667 -15 -33.667 -22.499 -57 -22.499s-41 6.66699 -53 20s-18 31.166 -18 53.499s7.33301 41 22 56s33.5 22.5 56.5 22.5s40.667 -6.5 53 -19.5s18.5 -30.833 18.5 -53.5s-7.33301 -41.5 -22 -56.5z" />
    <glyph glyph-name="edotaccent" unicode="&#x117;" horiz-adv-x="512" 
d="M226 292l73.9961 -1l94 7l8 -9l-12 -74c-43.333 1.33301 -72.166 2 -86.499 2s-41.5 -1.33301 -81.5 -4c-0.666992 -16 -1 -41.167 -1 -75.5s2.66699 -54.166 8 -59.499s25.166 -8 59.499 -8s58.5 5 72.5 15s24 34 30 72l78 6l7 -9c-10 -48 -17.333 -98 -22 -150l-10 -9
c-100 3.33301 -174 5 -222 5c-69.333 0 -132 -2.66699 -188 -8l7 59c22 2.66699 37 8.83398 45 18.501s12 26.167 12 49.5l1 284c0 16.667 -1.66699 27.834 -5 33.501s-10 8.5 -20 8.5l-24 -1l-7 7l7 52c64.667 -1.33301 137.334 -2 218.001 -2s146 3 196 9l7 -9
c-9.33301 -48.667 -15.666 -97.334 -18.999 -146.001l-85 -6c1.33301 13.333 2 23.666 2 30.999c0 20.667 -5.66699 33.667 -17 39s-32.166 8 -62.499 8s-47.666 -1.33301 -51.999 -4s-6.5 -9.33398 -6.5 -20.001zM326.996 582.5c-14.667 -15 -33.667 -22.499 -57 -22.499
s-41 6.66699 -53 20s-18 31.166 -18 53.499s7.33301 41 22 56s33.5 22.5 56.5 22.5s40.667 -6.5 53 -19.5s18.5 -30.833 18.5 -53.5s-7.33301 -41.5 -22 -56.5z" />
    <glyph glyph-name="Eogonek" unicode="&#x118;" horiz-adv-x="597" 
d="M253 370l93.0039 -0.996094l116 8l8 -9l-14 -86c-53.333 2 -92.5 3 -117.5 3s-54.5 -2 -88.5 -6c-2 -72.667 -3 -120.834 -3 -144.501s3.5 -38.834 10.5 -45.501s25.833 -10 56.5 -10s54.667 1.16699 72 3.5s32 7.83301 44 16.5s20.167 19.834 24.5 33.501
s8.5 33.834 12.5 60.501l85 7l7 -10c-12 -60 -21.333 -122 -28 -186l-9 -11c-10.667 0.666992 -24.334 1.33398 -41.001 2.00098c-24.667 -29.333 -41.667 -52.333 -51 -69s-14 -32.334 -14 -47.001s4.66699 -26.5 14 -35.5s20.333 -13.5 33 -13.5c23.333 0 48.333 8 75 24
l18 -29c-34.667 -32.667 -68.667 -54.667 -102 -66c-36 0 -64.833 8.16699 -86.5 24.5s-32.5 36.666 -32.5 60.999s7 47.833 21 70.5s36.333 50 67 82c-64 2 -122.333 3 -175 3c-78.667 0 -149.334 -3.33301 -212.001 -10l8 68c27.333 4 46.166 12.167 56.499 24.5
s15.5 32.833 15.5 61.5l1 379c0 22 -2.16699 36.5 -6.5 43.5s-13.166 10.5 -26.499 10.5l-30 -2l-7 9l8 61c73.333 -2 158 -3 254 -3s174.333 4 235 12l8 -11c-12 -59.333 -19.667 -120 -23 -182l-92 -6c1.33301 17.333 2 30.666 2 39.999c0 27.333 -7 44.666 -21 51.999
s-40.833 11 -80.5 11s-62.334 -1.83301 -68.001 -5.5s-8.83398 -12.834 -9.50098 -27.501z" />
    <glyph glyph-name="eogonek" unicode="&#x119;" horiz-adv-x="512" 
d="M226 292l73.9951 -0.999023l94 7l8 -9l-12 -74c-43.333 1.33301 -72.166 2 -86.499 2s-41.5 -1.33301 -81.5 -4c-0.666992 -16 -1 -41.167 -1 -75.5s2.66699 -54.166 8 -59.499s25.166 -8 59.499 -8s58.5 5 72.5 15s24 34 30 72l78 6l7 -9c-10 -48 -17.333 -98 -22 -150
l-10 -9c-7.33301 0.666992 -17 1 -29 1c-25.333 -29.333 -42.666 -52.333 -51.999 -69s-14 -32.5 -14 -47.5s4.66699 -27 14 -36s20.333 -13.5 33 -13.5c23.333 0 48.333 8 75 24l18 -29c-34.667 -32.667 -68.667 -54.667 -102 -66c-36 0 -64.833 8.16699 -86.5 24.5
s-32.5 38.5 -32.5 66.5c0 37.333 29.667 86.666 89 147.999c-69.333 1.33301 -121 2 -155 2c-56 0 -112 -2.66699 -168 -8l7 59c22 2.66699 37 8.83398 45 18.501s12 26.167 12 49.5l1 284c0 16.667 -1.66699 27.834 -5 33.501s-10 8.5 -20 8.5l-24 -1l-7 7l7 52
c64.667 -1.33301 137.334 -2 218.001 -2s146 3 196 9l7 -9c-9.33301 -48.667 -15.666 -97.334 -18.999 -146.001l-85 -6c1.33301 13.333 2 23.666 2 30.999c0 20.667 -5.66699 33.667 -17 39s-32.166 8 -62.499 8s-47.666 -1.33301 -51.999 -4s-6.5 -9.33398 -6.5 -20.001z
" />
    <glyph glyph-name="Ecaron" unicode="&#x11a;" horiz-adv-x="597" 
d="M253 370l93.002 -0.99707l116 8l8 -9l-14 -86c-53.333 2 -92.5 3 -117.5 3s-54.5 -2 -88.5 -6c-2 -72.667 -3 -120.834 -3 -144.501s3.5 -38.834 10.5 -45.501s25.833 -10 56.5 -10s54.667 1.16699 72 3.5s32 7.83301 44 16.5s20.167 19.834 24.5 33.501
s8.5 33.834 12.5 60.501l85 7l7 -10c-12 -60 -21.333 -122 -28 -186l-9 -11c-125.333 4.66699 -215.333 7 -270 7c-81.333 0 -153.333 -3.33301 -216 -10l8 68c27.333 4 46.166 12.167 56.499 24.5s15.5 32.833 15.5 61.5l1 379c0 22 -2.16699 36.5 -6.5 43.5
s-13.166 10.5 -26.499 10.5l-30 -2l-7 9l8 61c73.333 -2 158 -3 254 -3s174.333 4 235 12l8 -11c-12 -59.333 -19.667 -120 -23 -182l-92 -6c1.33301 17.333 2 30.666 2 39.999c0 27.333 -7 44.666 -21 51.999s-40.833 11 -80.5 11s-62.334 -1.83301 -68.001 -5.5
s-8.83398 -12.834 -9.50098 -27.501zM460.002 861.003l25 -41c-48.667 -35.333 -101 -76.666 -157 -123.999h-20c-55.333 46.667 -107.666 88 -156.999 124l24 41l16 4c33.333 -16.667 75.666 -36 126.999 -58c32 13.333 74 32.666 126 57.999z" />
    <glyph glyph-name="ecaron" unicode="&#x11b;" horiz-adv-x="512" 
d="M226 292l73.9961 -1l94 7l8 -9l-12 -74c-43.333 1.33301 -72.166 2 -86.499 2s-41.5 -1.33301 -81.5 -4c-0.666992 -16 -1 -41.167 -1 -75.5s2.66699 -54.166 8 -59.499s25.166 -8 59.499 -8s58.5 5 72.5 15s24 34 30 72l78 6l7 -9c-10 -48 -17.333 -98 -22 -150l-10 -9
c-100 3.33301 -174 5 -222 5c-69.333 0 -132 -2.66699 -188 -8l7 59c22 2.66699 37 8.83398 45 18.501s12 26.167 12 49.5l1 284c0 16.667 -1.66699 27.834 -5 33.501s-10 8.5 -20 8.5l-24 -1l-7 7l7 52c64.667 -1.33301 137.334 -2 218.001 -2s146 3 196 9l7 -9
c-9.33301 -48.667 -15.666 -97.334 -18.999 -146.001l-85 -6c1.33301 13.333 2 23.666 2 30.999c0 20.667 -5.66699 33.667 -17 39s-32.166 8 -62.499 8s-47.666 -1.33301 -51.999 -4s-6.5 -9.33398 -6.5 -20.001zM413.996 719l25 -41
c-48.667 -35.333 -101 -76.666 -157 -123.999h-20c-55.333 46.667 -107.666 88 -156.999 124l24 41l16 4c33.333 -16.667 75.666 -36 126.999 -58c32 13.333 74 32.666 126 57.999z" />
    <glyph glyph-name="Gcircumflex" unicode="&#x11c;" horiz-adv-x="654" 
d="M357 329l139.001 -1.99902c68 0 102 1.66699 102 5l7 -39c-17.333 -11.333 -28.5 -27.333 -33.5 -48s-7.5 -55.334 -7.5 -104.001s2.33301 -82 7 -100l-9 -13c-28 -11.333 -63.667 -20.833 -107 -28.5s-86.333 -11.5 -129 -11.5c-92 0 -164.667 28.167 -218 84.5
s-80 136.166 -80 239.499s31.667 186.166 95 248.499s150.333 93.5 261 93.5c55.333 0 121.333 -8.33301 198 -25l7 -13c-13.333 -53.333 -22 -114.666 -26 -183.999l-99 -6c2 16.667 3 36.834 3 60.501s-8.16699 41.334 -24.5 53.001s-43.833 17.5 -82.5 17.5
c-60 0 -104.5 -18 -133.5 -54s-43.5 -93 -43.5 -171s14.667 -139.167 44 -183.5s70.666 -66.5 123.999 -66.5c17.333 0 34 2.16699 50 6.5s31.333 10.833 46 19.5v93c0 19.333 -2.83301 32.166 -8.5 38.499s-17.5 9.5 -35.5 9.5h-51l-6 8zM215.001 709.001l-29 40.999
c42.667 40 93.334 91.333 152.001 154h20c53.333 -57.333 103.666 -108.666 150.999 -153.999l-29 -41l-15 -4c-13.333 10.667 -52.333 38.334 -117 83.001c-47.333 -30.667 -86.333 -58.334 -117 -83.001z" />
    <glyph glyph-name="gcircumflex" unicode="&#x11d;" horiz-adv-x="554" 
d="M300 262l116.997 -1l88 4l6 -35c-15.333 -9.33301 -25.166 -22 -29.499 -38s-6.5 -42.333 -6.5 -79s1.66699 -64 5 -82l-8 -11c-48.667 -19.333 -112.667 -29 -192 -29s-141 22 -185 66s-66 106.667 -66 188s26 145.833 78 193.5s124.333 71.5 217 71.5
c43.333 0 98.333 -6.66699 165 -20l6 -11c-12 -42.667 -19.333 -91.667 -22 -147l-92 -6c1.33301 12.667 2 28 2 46s-6 31.333 -18 40s-32.333 13 -61 13c-45.333 0 -78.666 -12.833 -99.999 -38.5s-32 -67.834 -32 -126.501s10.833 -104 32.5 -136s52.834 -48 93.501 -48
c26.667 0 50 5.33301 70 16v65c0 14.667 -2.33301 24.334 -7 29.001s-13.667 7 -27 7h-38l-6 8zM162.997 567l-29 40.999c42.667 40 93.334 91.333 152.001 154h20c53.333 -57.333 103.666 -108.666 150.999 -153.999l-29 -41l-15 -4
c-13.333 10.667 -52.333 38.334 -117 83.001c-47.333 -30.667 -86.333 -58.334 -117 -83.001z" />
    <glyph glyph-name="Gbreve" unicode="&#x11e;" horiz-adv-x="654" 
d="M357 329l139.001 -1.99902c68 0 102 1.66699 102 5l7 -39c-17.333 -11.333 -28.5 -27.333 -33.5 -48s-7.5 -55.334 -7.5 -104.001s2.33301 -82 7 -100l-9 -13c-28 -11.333 -63.667 -20.833 -107 -28.5s-86.333 -11.5 -129 -11.5c-92 0 -164.667 28.167 -218 84.5
s-80 136.166 -80 239.499s31.667 186.166 95 248.499s150.333 93.5 261 93.5c55.333 0 121.333 -8.33301 198 -25l7 -13c-13.333 -53.333 -22 -114.666 -26 -183.999l-99 -6c2 16.667 3 36.834 3 60.501s-8.16699 41.334 -24.5 53.001s-43.833 17.5 -82.5 17.5
c-60 0 -104.5 -18 -133.5 -54s-43.5 -93 -43.5 -171s14.667 -139.167 44 -183.5s70.666 -66.5 123.999 -66.5c17.333 0 34 2.16699 50 6.5s31.333 10.833 46 19.5v93c0 19.333 -2.83301 32.166 -8.5 38.499s-17.5 9.5 -35.5 9.5h-51l-6 8zM354.001 802.001
c50.667 0 85 20 103 60l17 -4l28 -35c-10 -33.333 -27.333 -61 -52 -83s-56.667 -33 -96 -33s-71.333 11 -96 33s-42 49.667 -52 83l28 35l17 4c18 -40 52.333 -60 103 -60z" />
    <glyph glyph-name="gbreve" unicode="&#x11f;" horiz-adv-x="554" 
d="M300 262l116.997 -1l88 4l6 -35c-15.333 -9.33301 -25.166 -22 -29.499 -38s-6.5 -42.333 -6.5 -79s1.66699 -64 5 -82l-8 -11c-48.667 -19.333 -112.667 -29 -192 -29s-141 22 -185 66s-66 106.667 -66 188s26 145.833 78 193.5s124.333 71.5 217 71.5
c43.333 0 98.333 -6.66699 165 -20l6 -11c-12 -42.667 -19.333 -91.667 -22 -147l-92 -6c1.33301 12.667 2 28 2 46s-6 31.333 -18 40s-32.333 13 -61 13c-45.333 0 -78.666 -12.833 -99.999 -38.5s-32 -67.834 -32 -126.501s10.833 -104 32.5 -136s52.834 -48 93.501 -48
c26.667 0 50 5.33301 70 16v65c0 14.667 -2.33301 24.334 -7 29.001s-13.667 7 -27 7h-38l-6 8zM297.997 656c50.667 0 85 20 103 60l17 -4l28 -35c-10 -33.333 -27.333 -61 -52 -83s-56.667 -33 -96 -33s-71.333 11 -96 33s-42 49.667 -52 83l28 35l17 4
c18 -40 52.333 -60 103 -60z" />
    <glyph glyph-name="Gdotaccent" unicode="&#x120;" horiz-adv-x="654" 
d="M357 329l139.001 -1.99902c68 0 102 1.66699 102 5l7 -39c-17.333 -11.333 -28.5 -27.333 -33.5 -48s-7.5 -55.334 -7.5 -104.001s2.33301 -82 7 -100l-9 -13c-28 -11.333 -63.667 -20.833 -107 -28.5s-86.333 -11.5 -129 -11.5c-92 0 -164.667 28.167 -218 84.5
s-80 136.166 -80 239.499s31.667 186.166 95 248.499s150.333 93.5 261 93.5c55.333 0 121.333 -8.33301 198 -25l7 -13c-13.333 -53.333 -22 -114.666 -26 -183.999l-99 -6c2 16.667 3 36.834 3 60.501s-8.16699 41.334 -24.5 53.001s-43.833 17.5 -82.5 17.5
c-60 0 -104.5 -18 -133.5 -54s-43.5 -93 -43.5 -171s14.667 -139.167 44 -183.5s70.666 -66.5 123.999 -66.5c17.333 0 34 2.16699 50 6.5s31.333 10.833 46 19.5v93c0 19.333 -2.83301 32.166 -8.5 38.499s-17.5 9.5 -35.5 9.5h-51l-6 8zM409.001 724.501
c-14.667 -15 -33.667 -22.499 -57 -22.499s-41 6.66699 -53 20s-18 31.166 -18 53.499s7.33301 41 22 56s33.5 22.5 56.5 22.5s40.667 -6.5 53 -19.5s18.5 -30.833 18.5 -53.5s-7.33301 -41.5 -22 -56.5z" />
    <glyph glyph-name="gdotaccent" unicode="&#x121;" horiz-adv-x="554" 
d="M300 262l116.997 -1l88 4l6 -35c-15.333 -9.33301 -25.166 -22 -29.499 -38s-6.5 -42.333 -6.5 -79s1.66699 -64 5 -82l-8 -11c-48.667 -19.333 -112.667 -29 -192 -29s-141 22 -185 66s-66 106.667 -66 188s26 145.833 78 193.5s124.333 71.5 217 71.5
c43.333 0 98.333 -6.66699 165 -20l6 -11c-12 -42.667 -19.333 -91.667 -22 -147l-92 -6c1.33301 12.667 2 28 2 46s-6 31.333 -18 40s-32.333 13 -61 13c-45.333 0 -78.666 -12.833 -99.999 -38.5s-32 -67.834 -32 -126.501s10.833 -104 32.5 -136s52.834 -48 93.501 -48
c26.667 0 50 5.33301 70 16v65c0 14.667 -2.33301 24.334 -7 29.001s-13.667 7 -27 7h-38l-6 8zM352.997 582.5c-14.667 -15 -33.667 -22.499 -57 -22.499s-41 6.66699 -53 20s-18 31.166 -18 53.499s7.33301 41 22 56s33.5 22.5 56.5 22.5s40.667 -6.5 53 -19.5
s18.5 -30.833 18.5 -53.5s-7.33301 -41.5 -22 -56.5z" />
    <glyph glyph-name="Gcommaaccent" unicode="&#x122;" horiz-adv-x="654" 
d="M357 329l139.001 -1.99902c68 0 102 1.66699 102 5l7 -39c-17.333 -11.333 -28.5 -27.333 -33.5 -48s-7.5 -55.334 -7.5 -104.001s2.33301 -82 7 -100l-9 -13c-28 -11.333 -63.667 -20.833 -107 -28.5s-86.333 -11.5 -129 -11.5c-92 0 -164.667 28.167 -218 84.5
s-80 136.166 -80 239.499s31.667 186.166 95 248.499s150.333 93.5 261 93.5c55.333 0 121.333 -8.33301 198 -25l7 -13c-13.333 -53.333 -22 -114.666 -26 -183.999l-99 -6c2 16.667 3 36.834 3 60.501s-8.16699 41.334 -24.5 53.001s-43.833 17.5 -82.5 17.5
c-60 0 -104.5 -18 -133.5 -54s-43.5 -93 -43.5 -171s14.667 -139.167 44 -183.5s70.666 -66.5 123.999 -66.5c17.333 0 34 2.16699 50 6.5s31.333 10.833 46 19.5v93c0 19.333 -2.83301 32.166 -8.5 38.499s-17.5 9.5 -35.5 9.5h-51l-6 8zM264.001 -85.999
c29.333 23.333 54.834 35 76.501 35s39 -7.83301 52 -23.5s19.5 -38.334 19.5 -68.001s-13.833 -60.5 -41.5 -92.5s-62.834 -59.667 -105.501 -83l-37 30v17c20 14 36.333 30.333 49 49s19 36.334 19 53.001c0 27.333 -11.667 50.333 -35 69z" />
    <glyph glyph-name="gcommaaccent" unicode="&#x123;" horiz-adv-x="554" 
d="M300 262l116.997 -1l88 4l6 -35c-15.333 -9.33301 -25.166 -22 -29.499 -38s-6.5 -42.333 -6.5 -79s1.66699 -64 5 -82l-8 -11c-48.667 -19.333 -112.667 -29 -192 -29s-141 22 -185 66s-66 106.667 -66 188s26 145.833 78 193.5s124.333 71.5 217 71.5
c43.333 0 98.333 -6.66699 165 -20l6 -11c-12 -42.667 -19.333 -91.667 -22 -147l-92 -6c1.33301 12.667 2 28 2 46s-6 31.333 -18 40s-32.333 13 -61 13c-45.333 0 -78.666 -12.833 -99.999 -38.5s-32 -67.834 -32 -126.501s10.833 -104 32.5 -136s52.834 -48 93.501 -48
c26.667 0 50 5.33301 70 16v65c0 14.667 -2.33301 24.334 -7 29.001s-13.667 7 -27 7h-38l-6 8zM218.997 -86c29.333 23.333 54.834 35 76.501 35s39 -7.83301 52 -23.5s19.5 -38.334 19.5 -68.001s-13.833 -60.5 -41.5 -92.5s-62.834 -59.667 -105.501 -83l-37 30v17
c20 14 36.333 30.333 49 49s19 36.334 19 53.001c0 27.333 -11.667 50.333 -35 69z" />
    <glyph glyph-name="Hcircumflex" unicode="&#x124;" horiz-adv-x="747" 
d="M629 133c0 -26 3.00195 -43.667 9.00195 -53s17 -14 33 -14l36 3l5 -8l-9 -64c-55.333 2 -104 3 -146 3l-139 -2l8 66c28 0.666992 47 7.16699 57 19.5s15 36.5 15 72.5v127c-48 0.666992 -84 1 -108 1l-140 -10l-2 -141c0 -27.333 2.5 -45.5 7.5 -54.5
s15.167 -13.5 30.5 -13.5l36 3l5 -7l-9 -64c-56 2 -95.167 3 -117.5 3s-46.166 -0.666992 -71.499 -2c-61.333 -2 -92 -4.33301 -92 -7l7 65c29.333 6 48.666 14.5 57.999 25.5s14 30.5 14 58.5l1 385c0 20.667 -2.33301 34.5 -7 41.5s-14.334 10.5 -29.001 10.5l-31 -1
l-5 8l8 59c52.667 -0.666992 92.334 -1 119.001 -1l151 7l-5 -67c-25.333 -4 -41.333 -10.167 -48 -18.5s-10.667 -25.833 -12 -52.5l-6 -143l128 -2c41.333 0 80.666 2.33301 117.999 7v152c0 20.667 -2.33301 34.5 -7 41.5s-14.334 10.5 -29.001 10.5l-31 -1l-5 8l8 59
c56.667 -0.666992 99.334 -1 128.001 -1l147 7l-6 -66c-24.667 -3.33301 -40.834 -8.5 -48.501 -15.5s-12.167 -20.167 -13.5 -39.5c-8 -153.333 -12 -285 -12 -395zM241.002 735l-29 40.999c42.667 40 93.334 91.333 152.001 154h20
c53.333 -57.333 103.666 -108.666 150.999 -153.999l-29 -41l-15 -4c-13.333 10.667 -52.333 38.334 -117 83.001c-47.333 -30.667 -86.333 -58.334 -117 -83.001z" />
    <glyph glyph-name="hcircumflex" unicode="&#x125;" horiz-adv-x="632" 
d="M533 109c0 -20 2.33105 -33.667 6.99805 -41s13.667 -11 27 -11l28 2l5 -7l-8 -54c-46 1.33301 -87.667 2 -125 2l-120 -1l7 56c22 0.666992 37 5.66699 45 15s12 27 12 53v93c-34 0.666992 -60 1 -78 1l-111 -8l-1 -100c0 -21.333 2 -35.5 6 -42.5
s12.333 -10.5 25 -10.5l27 2l5 -6l-7 -54c-51.333 1.33301 -86.166 2 -104.499 2s-38.333 -0.5 -60 -1.5l-54.5 -2.5c-14.667 -0.666992 -22.334 -1.33398 -23.001 -2.00098l6 56c23.333 4 38.833 10.333 46.5 19s11.5 24 11.5 46v289c0 16.667 -2 27.667 -6 33
s-11.667 8 -23 8l-24 -1l-6 8l7 50c44.667 -0.666992 78.334 -1 101.001 -1l134 5l-5 -58c-20 -2.66699 -32.667 -7 -38 -13s-8.66602 -18.667 -9.99902 -38l-5 -105l97 -2c36.667 0 66.667 1.66699 90 5l1 109c0 16.667 -2 27.667 -6 33s-12 8 -24 8l-25 -1l-5 8l7 50
c0 -0.666992 37.333 -1 112 -1l127 5l-5 -57c-20 -2.66699 -33.167 -6.66699 -39.5 -12s-9.83301 -15.666 -10.5 -30.999c-6.66699 -88.667 -10 -187.667 -10 -297zM182.998 593l-29 40.999c42.667 40 93.334 91.333 152.001 154h20
c53.333 -57.333 103.666 -108.666 150.999 -153.999l-29 -41l-15 -4c-13.333 10.667 -52.333 38.334 -117 83.001c-47.333 -30.667 -86.333 -58.334 -117 -83.001z" />
    <glyph glyph-name="Hbar" unicode="&#x126;" horiz-adv-x="745" 
d="M628 133c0 -26 3.00098 -43.667 9.00098 -53s17 -14 33 -14l36 3l5 -8l-9 -64c-55.333 2 -104 3 -146 3l-139 -2l8 66c28 0.666992 47 7.16699 57 19.5s15 36.5 15 72.5v127c-48 0.666992 -84 1 -108 1l-140 -10l-2 -141c0 -27.333 2.5 -45.5 7.5 -54.5
s15.167 -13.5 30.5 -13.5l36 3l5 -7l-9 -64c-56 2 -95.167 3 -117.5 3s-46.166 -0.666992 -71.499 -2c-61.333 -2 -92 -4.33301 -92 -7l7 65c29.333 6 48.666 14.5 57.999 25.5s14 30.5 14 58.5l1 302h-87l-10 10l8 48c25.333 -0.666992 55 -1 89 -1v26
c0 20.667 -2.33301 34.5 -7 41.5s-14.334 10.5 -29.001 10.5l-31 -1l-5 8l8 59c52.667 -0.666992 92.334 -1 119.001 -1l151 7l-5 -67c-25.333 -4 -41.333 -10 -48 -18c-6 -7.33301 -10.333 -29 -13 -65h241v26c0 20.667 -2.33301 34.5 -7 41.5s-14.334 10.5 -29.001 10.5
l-31 -1l-5 8l8 59c56.667 -0.666992 99.334 -1 128.001 -1l147 7l-6 -66c-24.667 -3.33301 -40.834 -8.5 -48.501 -15.5s-12.167 -20.167 -13.5 -39.5l-2 -26l75 2l14 -14l-5 -46h-86c-5.33301 -112 -8 -215.667 -8 -311zM497.001 443h-242.999l-3 -75l128 -2
c41.333 0 80.666 2.33301 117.999 7v70z" />
    <glyph glyph-name="hbar" unicode="&#x127;" horiz-adv-x="632" 
d="M532 109c0 -20 2.33203 -33.666 6.99902 -40.999s13.667 -11 27 -11l28 2l5 -7l-8 -54c-46 1.33301 -87.667 2 -125 2l-120 -1l7 56c22 0.666992 37 5.66699 45 15s12 27 12 53v93c-34 0.666992 -60 1 -78 1l-111 -8l-1 -100c0 -21.333 2 -35.5 6 -42.5
s12 -10.5 24 -10.5l28 2l5 -6l-7 -54c-51.333 1.33301 -86.166 2 -104.499 2s-38.333 -0.5 -60 -1.5l-54.5 -2.5c-14.667 -0.666992 -22.334 -1.33398 -23.001 -2.00098l6 56c23.333 4 38.833 10.333 46.5 19s11.5 24 11.5 46v228h-70l-8 7l6 40c20 -0.666992 44 -1 72 -1
v15c0 16.667 -2 27.667 -6 33s-11.667 8 -23 8l-24 -1l-6 8l7 50c44.667 -0.666992 78.334 -1 101.001 -1l134 5l-5 -58c-20 -2.66699 -32.667 -7 -38 -13c-4 -4.66699 -7.66699 -20 -11 -46h184v15c0 16.667 -2 27.667 -6 33s-12 8 -24 8l-25 -1l-5 8l7 50
c0 -0.666992 37.333 -1 112 -1l127 5l-5 -57c-20 -2.66699 -33.333 -6.66699 -40 -12c-7.33301 -6.66699 -11 -22 -11 -46l60 2l12 -11l-4 -37h-71c-4 -76 -6 -154.667 -6 -236zM409.999 344.001h-185l-2 -52l97 -2c36.667 0 66.667 1.66699 90 5v49z" />
    <glyph glyph-name="Itilde" unicode="&#x128;" horiz-adv-x="365" 
d="M48 643l140 -0.999023l142 7l-6 -67c-25.333 -3.33301 -42 -8.5 -50 -15.5s-12.667 -19.833 -14 -38.5c-8 -138 -12 -269.667 -12 -395c0 -27.333 2.5 -45.5 7.5 -54.5s15.167 -13.5 30.5 -13.5l43 3l5 -7l-9 -64c-69.333 2 -115.666 3 -138.999 3c-46 0 -96 -3 -150 -9
l7 65c29.333 6 48.833 14.667 58.5 26s14.5 30.666 14.5 57.999l1 385c0 20.667 -2.33301 34.5 -7 41.5s-14.334 10.5 -29.001 10.5l-35 -1l-5 8zM178 849.501c39.333 -11 62.998 -16.5 70.998 -16.5s17.5 4.66699 28.5 14s23.833 23.333 38.5 42h11l39 -37v-10l-78 -102
l-17 -4c-11.333 0 -36.666 5.66699 -75.999 17s-63.166 17 -71.499 17s-18 -4.66699 -29 -14s-23.5 -23.333 -37.5 -42h-11l-40 36v11l79 101l16 4c12 0 37.667 -5.5 77 -16.5z" />
    <glyph glyph-name="itilde" unicode="&#x129;" horiz-adv-x="320" 
d="M44 502l119.999 -1l123 5l-5 -58c-20.667 -2.66699 -34.167 -6.5 -40.5 -11.5s-10.166 -15.167 -11.499 -30.5c-6 -104.667 -9 -203.667 -9 -297c0 -21.333 2 -35.5 6 -42.5s12.333 -10.5 25 -10.5l32 2l5 -6l-7 -54c-60 1.33301 -102.333 2 -127 2l-120 -6l6 56
c23.333 4.66699 38.833 11.167 46.5 19.5s11.5 23.5 11.5 45.5v289c0 16.667 -2 27.667 -6 33s-11.667 8 -23 8l-27 -1l-5 8zM153.999 707.5c39.333 -11 62.998 -16.5 70.998 -16.5s17.5 4.66699 28.5 14s23.833 23.333 38.5 42h11l39 -37v-10l-78 -102l-17 -4
c-11.333 0 -36.666 5.66699 -75.999 17s-63.166 17 -71.499 17s-18 -4.66699 -29 -14s-23.5 -23.333 -37.5 -42h-11l-40 36v11l79 101l16 4c12 0 37.667 -5.5 77 -16.5z" />
    <glyph glyph-name="Imacron" unicode="&#x12a;" horiz-adv-x="365" 
d="M48 643l140 -0.999023l142 7l-6 -67c-25.333 -3.33301 -42 -8.5 -50 -15.5s-12.667 -19.833 -14 -38.5c-8 -138 -12 -269.667 -12 -395c0 -27.333 2.5 -45.5 7.5 -54.5s15.167 -13.5 30.5 -13.5l43 3l5 -7l-9 -64c-69.333 2 -115.666 3 -138.999 3c-46 0 -96 -3 -150 -9
l7 65c29.333 6 48.833 14.667 58.5 26s14.5 30.666 14.5 57.999l1 385c0 20.667 -2.33301 34.5 -7 41.5s-14.334 10.5 -29.001 10.5l-35 -1l-5 8zM331 800.001l8.00098 -14l-12 -77l-280 -2l-11 12l14 76c63.333 -0.666992 114.666 -1 153.999 -1z" />
    <glyph glyph-name="imacron" unicode="&#x12b;" horiz-adv-x="320" 
d="M44 502l119.999 -1l123 5l-5 -58c-20.667 -2.66699 -34.167 -6.5 -40.5 -11.5s-10.166 -15.167 -11.499 -30.5c-6 -104.667 -9 -203.667 -9 -297c0 -21.333 2 -35.5 6 -42.5s12.333 -10.5 25 -10.5l32 2l5 -6l-7 -54c-60 1.33301 -102.333 2 -127 2l-120 -6l6 56
c23.333 4.66699 38.833 11.167 46.5 19.5s11.5 23.5 11.5 45.5v289c0 16.667 -2 27.667 -6 33s-11.667 8 -23 8l-27 -1l-5 8zM306.999 658l8.00098 -14l-12 -77l-280 -2l-11 12l14 76c63.333 -0.666992 114.666 -1 153.999 -1z" />
    <glyph glyph-name="Ibreve" unicode="&#x12c;" horiz-adv-x="365" 
d="M48 643l140 -0.999023l142 7l-6 -67c-25.333 -3.33301 -42 -8.5 -50 -15.5s-12.667 -19.833 -14 -38.5c-8 -138 -12 -269.667 -12 -395c0 -27.333 2.5 -45.5 7.5 -54.5s15.167 -13.5 30.5 -13.5l43 3l5 -7l-9 -64c-69.333 2 -115.666 3 -138.999 3c-46 0 -96 -3 -150 -9
l7 65c29.333 6 48.833 14.667 58.5 26s14.5 30.666 14.5 57.999l1 385c0 20.667 -2.33301 34.5 -7 41.5s-14.334 10.5 -29.001 10.5l-35 -1l-5 8zM188 812.001c50.667 0 85 22.667 103 68l17 -4l28 -34c-10 -36 -27.333 -65.833 -52 -89.5s-56.667 -35.5 -96 -35.5
s-71.333 11.833 -96 35.5s-42 53.5 -52 89.5l28 34l17 4c18 -45.333 52.333 -68 103 -68z" />
    <glyph glyph-name="ibreve" unicode="&#x12d;" horiz-adv-x="320" 
d="M44 502l119.999 -1l123 5l-5 -58c-20.667 -2.66699 -34.167 -6.5 -40.5 -11.5s-10.166 -15.167 -11.499 -30.5c-6 -104.667 -9 -203.667 -9 -297c0 -21.333 2 -35.5 6 -42.5s12.333 -10.5 25 -10.5l32 2l5 -6l-7 -54c-60 1.33301 -102.333 2 -127 2l-120 -6l6 56
c23.333 4.66699 38.833 11.167 46.5 19.5s11.5 23.5 11.5 45.5v289c0 16.667 -2 27.667 -6 33s-11.667 8 -23 8l-27 -1l-5 8zM163.999 675c50.667 0 85 22.667 103 68l17 -4l28 -34c-10 -36 -27.333 -65.833 -52 -89.5s-56.667 -35.5 -96 -35.5s-71.333 11.833 -96 35.5
s-42 53.5 -52 89.5l28 34l17 4c18 -45.333 52.333 -68 103 -68z" />
    <glyph glyph-name="Iogonek" unicode="&#x12e;" horiz-adv-x="365" 
d="M48 643l140.001 -1l142 7l-6 -67c-25.333 -3.33301 -42 -8.5 -50 -15.5s-12.667 -19.833 -14 -38.5c-8 -138 -12 -269.667 -12 -395c0 -27.333 2.5 -45.5 7.5 -54.5s15.167 -13.5 30.5 -13.5l43 3l5 -7l-9 -64c-16 0.666992 -33.333 1.33398 -52 2.00098
c-26 -30.667 -43.833 -54.667 -53.5 -72s-14.5 -33.333 -14.5 -48s4.66699 -26.5 14 -35.5s20.333 -13.5 33 -13.5c23.333 0 48.333 8 75 24l18 -29c-34.667 -32.667 -68.667 -54.667 -102 -66c-36 0 -64.833 8.16699 -86.5 24.5s-32.5 36.833 -32.5 61.5
s7.33301 48.5 22 71.5s37.667 50.833 69 83.5h-39c-39.333 0 -86 -3 -140 -9l7 65c29.333 6 48.833 14.667 58.5 26s14.5 30.666 14.5 57.999l1 385c0 20.667 -2.33301 34.5 -7 41.5s-14.334 10.5 -29.001 10.5l-35 -1l-5 8z" />
    <glyph glyph-name="iogonek" unicode="&#x12f;" horiz-adv-x="320" 
d="M44 502l119.999 -1l123 5l-5 -58c-20.667 -2.66699 -34.167 -6.5 -40.5 -11.5s-10.166 -15.167 -11.499 -30.5c-6 -104.667 -9 -203.667 -9 -297c0 -21.333 2 -35.5 6 -42.5s12.333 -10.5 25 -10.5l32 2l5 -6l-7 -54c-13.333 0.666992 -27.333 1 -42 1
c-26 -30.667 -44 -54.667 -54 -72s-15 -33.333 -15 -48s4.66699 -26.5 14 -35.5s20.333 -13.5 33 -13.5c23.333 0 48.333 8 75 24l18 -29c-34.667 -32.667 -68.667 -54.667 -102 -66c-36 0 -64.833 8.16699 -86.5 24.5s-32.5 36.833 -32.5 61.5s7.33301 48.5 22 71.5
s37.667 50.833 69 83.5h-26l-120 -6l6 56c23.333 4.66699 38.833 11.167 46.5 19.5s11.5 23.5 11.5 45.5v289c0 16.667 -2 27.667 -6 33s-11.667 8 -23 8l-27 -1l-5 8z" />
    <glyph glyph-name="Idotaccent" unicode="&#x130;" horiz-adv-x="365" 
d="M48 643l140 -0.999023l142 7l-6 -67c-25.333 -3.33301 -42 -8.5 -50 -15.5s-12.667 -19.833 -14 -38.5c-8 -138 -12 -269.667 -12 -395c0 -27.333 2.5 -45.5 7.5 -54.5s15.167 -13.5 30.5 -13.5l43 3l5 -7l-9 -64c-69.333 2 -115.666 3 -138.999 3c-46 0 -96 -3 -150 -9
l7 65c29.333 6 48.833 14.667 58.5 26s14.5 30.666 14.5 57.999l1 385c0 20.667 -2.33301 34.5 -7 41.5s-14.334 10.5 -29.001 10.5l-35 -1l-5 8zM240 724.501c-14.667 -15 -33.667 -22.499 -57 -22.499s-41 6.66699 -53 20s-18 31.166 -18 53.499s7.33301 41 22 56
s33.5 22.5 56.5 22.5s40.667 -6.5 53 -19.5s18.5 -30.833 18.5 -53.5s-7.33301 -41.5 -22 -56.5z" />
    <glyph glyph-name="dotlessi" unicode="&#x131;" horiz-adv-x="320" 
d="M44 502l119.999 -1l123 5l-5 -58c-20.667 -2.66699 -34.167 -6.5 -40.5 -11.5s-10.166 -15.167 -11.499 -30.5c-6 -104.667 -9 -203.667 -9 -297c0 -21.333 2 -35.5 6 -42.5s12.333 -10.5 25 -10.5l32 2l5 -6l-7 -54c-60 1.33301 -102.333 2 -127 2l-120 -6l6 56
c23.333 4.66699 38.833 11.167 46.5 19.5s11.5 23.5 11.5 45.5v289c0 16.667 -2 27.667 -6 33s-11.667 8 -23 8l-27 -1l-5 8z" />
    <glyph glyph-name="IJ" unicode="&#x132;" horiz-adv-x="698" 
d="M48 643l140 -0.999023l142 7l-6 -67c-25.333 -3.33301 -42 -8.5 -50 -15.5s-12.667 -19.833 -14 -38.5c-8 -138 -12 -269.667 -12 -395c0 -27.333 2.5 -45.5 7.5 -54.5s15.167 -13.5 30.5 -13.5l43 3l5 -7l-9 -64c-69.333 2 -115.666 3 -138.999 3c-46 0 -96 -3 -150 -9
l7 65c29.333 6 48.833 14.667 58.5 26s14.5 30.666 14.5 57.999l1 385c0 20.667 -2.33301 34.5 -7 41.5s-14.334 10.5 -29.001 10.5l-35 -1l-5 8zM472 123.001l0.000976562 402c0 21.333 -2.16699 35.333 -6.5 42s-13.833 10 -28.5 10l-41 -3l-6 8l8 60h124l151 8l-6 -68
c-21.333 -4 -35 -9.16699 -41 -15.5s-9.66699 -19.166 -11 -38.499c-8 -145.333 -12 -287.666 -12 -426.999c-0.666992 -66 -16.834 -119.333 -48.501 -160s-82.167 -72.334 -151.5 -95.001l-28 41l2 11c38 27.333 63.333 56.166 76 86.499s19 76.5 19 138.5z" />
    <glyph glyph-name="ij" unicode="&#x133;" horiz-adv-x="596" 
d="M44 502l119.999 -1l123 5l-5 -58c-20.667 -2.66699 -34.167 -6.5 -40.5 -11.5s-10.166 -15.167 -11.499 -30.5c-6 -104.667 -9 -203.667 -9 -297c0 -21.333 2 -35.5 6 -42.5s12.333 -10.5 25 -10.5l32 2l5 -6l-7 -54c-60 1.33301 -102.333 2 -127 2l-120 -6l6 56
c23.333 4.66699 38.833 11.167 46.5 19.5s11.5 23.5 11.5 45.5v289c0 16.667 -2 27.667 -6 33s-11.667 8 -23 8l-27 -1l-5 8zM426.999 98v306.001c0 16.667 -1.83301 27.667 -5.5 33s-11.167 8 -22.5 8l-33 -2l-5 8l6 50h106l133 6l-5 -59
c-17.333 -2.66699 -28.5 -6.5 -33.5 -11.5s-8.16699 -15.167 -9.5 -30.5c-6.66699 -116.667 -10 -227 -10 -331c0 -50.667 -13.833 -91.834 -41.5 -123.501s-71.5 -56.167 -131.5 -73.5l-25 33l1 10c30.667 22.667 51 45.667 61 69s15 59.333 15 108z" />
    <glyph glyph-name="Jcircumflex" unicode="&#x134;" horiz-adv-x="333" 
d="M107 123l0.000976562 402c0 21.333 -2.16699 35.333 -6.5 42s-13.833 10 -28.5 10l-41 -3l-6 8l8 60h124l151 8l-6 -68c-21.333 -4 -35 -9.16699 -41 -15.5s-9.66699 -19.166 -11 -38.499c-8 -145.333 -12 -287.666 -12 -426.999
c-0.666992 -66 -16.834 -119.333 -48.501 -160s-82.167 -72.334 -151.5 -95.001l-28 41l2 11c38 27.333 63.333 56.166 76 86.499s19 76.5 19 138.5zM41.001 709l-29 40.999c42.667 40 93.334 91.333 152.001 154h20c53.333 -57.333 103.666 -108.666 150.999 -153.999
l-29 -41l-15 -4c-13.333 10.667 -52.333 38.334 -117 83.001c-47.333 -30.667 -86.333 -58.334 -117 -83.001z" />
    <glyph glyph-name="jcircumflex" unicode="&#x135;" horiz-adv-x="294" 
d="M91 98l1.00098 305.998c0 16.667 -1.83301 27.667 -5.5 33s-11.167 8 -22.5 8l-33 -2l-6 8l7 50h105l133 6l-5 -59c-17.333 -2.66699 -28.333 -6.5 -33 -11.5s-7.66699 -15.167 -9 -30.5c-6.66699 -116.667 -10 -227 -10 -331
c-0.666992 -51.333 -14.834 -92.666 -42.501 -123.999s-71.5 -55.666 -131.5 -72.999l-25 33l2 10c30 22.667 50 45.667 60 69s15 59.333 15 108zM19.001 566.998l-29 40.999c42.667 40 93.334 91.333 152.001 154h20c53.333 -57.333 103.666 -108.666 150.999 -153.999
l-29 -41l-15 -4c-13.333 10.667 -52.333 38.334 -117 83.001c-47.333 -30.667 -86.333 -58.334 -117 -83.001z" />
    <glyph glyph-name="Kcommaaccent" unicode="&#x136;" horiz-adv-x="659" 
d="M257 524c-6 -264 -8.99902 -402.334 -8.99902 -415.001s2.33301 -23.167 7 -31.5s15 -12.5 31 -12.5l39 3l4 -7l-9 -64c-67.333 2 -115.333 3 -144 3l-139 -3l9 64c28.667 4.66699 47.5 12 56.5 22s13.5 29 13.5 57l1 385c0 20.667 -2.33301 34.5 -7 41.5
s-14.334 10.5 -29.001 10.5l-31 -1l-5 8l8 60c70.667 -1.33301 115.667 -2 135 -2l138 7l-6 -67c-24.667 -5.33301 -41.167 -11.666 -49.5 -18.999s-12.833 -20.333 -13.5 -39zM443.001 546.999c0 18.667 -17.667 29 -53 31l-3 7l8 62c56 -3.33301 97.667 -5 125 -5l117 4
l7 -11l-8 -57c-20.667 -8.66699 -40.5 -21.167 -59.5 -37.5s-42.833 -41.833 -71.5 -76.5l-103 -116l132 -202c20 -30 38.5 -51.667 55.5 -65s36.5 -20.666 58.5 -21.999l6 -9l-8 -53c-66 -8 -105 -12 -117 -12c-39.333 0 -76.333 28 -111 84l-151 247l3 22l147 160
c17.333 17.333 26 33.666 26 48.999zM276.001 -86.001c29.333 23.333 54.834 35 76.501 35s39 -7.83301 52 -23.5s19.5 -38.334 19.5 -68.001s-13.833 -60.5 -41.5 -92.5s-62.834 -59.667 -105.501 -83l-37 30v17c20 14 36.333 30.333 49 49s19 36.334 19 53.001
c0 27.333 -11.667 50.333 -35 69z" />
    <glyph glyph-name="kcommaaccent" unicode="&#x137;" horiz-adv-x="568" 
d="M99 115l0.00292969 288.999c0 16.667 -2 27.667 -6 33s-11.667 8 -23 8l-24 -1l-6 8l7 50c63.333 -0.666992 102.333 -1 117 -1l120 5l-4 -58c-20.667 -4 -34.334 -8.83301 -41.001 -14.5s-10.334 -15.5 -11.001 -29.5c-4.66699 -200.667 -7 -305.5 -7 -314.5
s2 -16.833 6 -23.5s12.333 -10 25 -10l30 2l4 -6l-7 -54c-58.667 1.33301 -100 2 -124 2l-120 -2l7 54c23.333 4 38.666 9.83301 45.999 17.5s11 22.834 11 45.501zM372.003 420.999c0 15.333 -13.666 23.3311 -40.999 23.998l-3 7l7 52c48 -2 83.333 -3 106 -3l103 3l6 -9
l-7 -49c-30.667 -13.333 -67.667 -45.666 -111 -96.999l-73 -76l101 -152c16 -23.333 30.5 -40.166 43.5 -50.499s28.5 -16.5 46.5 -18.5l7 -9l-7 -46c-58.667 -6 -93.334 -9 -104.001 -9c-34 0 -64.667 21.667 -92 65l-119 193l3 19l114 119c13.333 12 20 24.333 20 37z
M234.004 -86.0029c29.333 23.333 54.834 35 76.501 35s39 -7.83301 52 -23.5s19.5 -38.334 19.5 -68.001s-13.833 -60.5 -41.5 -92.5s-62.834 -59.667 -105.501 -83l-37 30v17c20 14 36.333 30.333 49 49s19 36.334 19 53.001c0 27.333 -11.667 50.333 -35 69z" />
    <glyph glyph-name="kgreenlandic" unicode="&#x138;" horiz-adv-x="568" 
d="M99 115l0.00292969 288.999c0 16.667 -2 27.667 -6 33s-11.667 8 -23 8l-24 -1l-6 8l7 50c63.333 -0.666992 102.333 -1 117 -1l120 5l-4 -58c-20.667 -4 -34.334 -8.83301 -41.001 -14.5s-10.334 -15.5 -11.001 -29.5c-4.66699 -200.667 -7 -305.5 -7 -314.5
s2 -16.833 6 -23.5s12.333 -10 25 -10l30 2l4 -6l-7 -54c-58.667 1.33301 -100 2 -124 2l-120 -2l7 54c23.333 4 38.666 9.83301 45.999 17.5s11 22.834 11 45.501zM372.003 420.999c0 15.333 -13.666 23.3311 -40.999 23.998l-3 7l7 52c48 -2 83.333 -3 106 -3l103 3l6 -9
l-7 -49c-30.667 -13.333 -67.667 -45.666 -111 -96.999l-73 -76l101 -152c16 -23.333 30.5 -40.166 43.5 -50.499s28.5 -16.5 46.5 -18.5l7 -9l-7 -46c-58.667 -6 -93.334 -9 -104.001 -9c-34 0 -64.667 21.667 -92 65l-119 193l3 19l114 119c13.333 12 20 24.333 20 37z
" />
    <glyph glyph-name="Lacute" unicode="&#x139;" horiz-adv-x="531" 
d="M52 643l136 -1l155 7l-8 -71c-32.667 -4 -53.167 -10.333 -61.5 -19s-13.166 -26.667 -14.499 -54c-7.33301 -99.333 -11 -221.333 -11 -366c0 -25.333 3.83301 -41.666 11.5 -48.999s24.5 -11 50.5 -11c47.333 0 78.833 9.16699 94.5 27.5s26.834 59.833 33.501 124.5
l85 9l7 -10c-11.333 -72.667 -20.333 -148.334 -27 -227.001l-9 -11c-108.667 5.33301 -189.334 8 -242.001 8c-78.667 0 -148.667 -3.33301 -210 -10l7 68c25.333 4 42.833 12.167 52.5 24.5s14.5 32.833 14.5 61.5v381c0 20.667 -2.33301 34.5 -7 41.5
s-14.334 10.5 -29.001 10.5l-30 -1l-5 8zM364 775l-6 -13c-76.667 -19.333 -153 -41 -229 -65l-13 9l-13 47l223 104l12 -5z" />
    <glyph glyph-name="lacute" unicode="&#x13a;" horiz-adv-x="461" 
d="M46 502l117.997 -1.00098l138 5l-7 -62c-27.333 -2.66699 -44.666 -7.16699 -51.999 -13.5s-11.666 -18.833 -12.999 -37.5c-6.66699 -88.667 -10 -182 -10 -280c0 -17.333 3.16699 -28.833 9.5 -34.5s18.833 -8.5 37.5 -8.5c36 0 60.167 7.5 72.5 22.5
s21.5 48.167 27.5 99.5l78 7l7 -9c-8.66699 -59.333 -15.667 -121.333 -21 -186l-10 -10c-88 4 -154.667 6 -200 6c-68 0 -129.333 -2.66699 -184 -8l7 59c20.667 2.66699 34.834 8.83398 42.501 18.501s11.5 26.167 11.5 49.5l1 285c0 16.667 -2 27.667 -6 33s-12 8 -24 8
l-23 -1l-6 8zM328.997 632.999l-6 -13c-76.667 -19.333 -153 -41 -229 -65l-13 9l-13 47l223 104l12 -5z" />
    <glyph glyph-name="Lcommaaccent" unicode="&#x13b;" horiz-adv-x="531" 
d="M52 643l136 -1l155 7l-8 -71c-32.667 -4 -53.167 -10.333 -61.5 -19s-13.166 -26.667 -14.499 -54c-7.33301 -99.333 -11 -221.333 -11 -366c0 -25.333 3.83301 -41.666 11.5 -48.999s24.5 -11 50.5 -11c47.333 0 78.833 9.16699 94.5 27.5s26.834 59.833 33.501 124.5
l85 9l7 -10c-11.333 -72.667 -20.333 -148.334 -27 -227.001l-9 -11c-108.667 5.33301 -189.334 8 -242.001 8c-78.667 0 -148.667 -3.33301 -210 -10l7 68c25.333 4 42.833 12.167 52.5 24.5s14.5 32.833 14.5 61.5v381c0 20.667 -2.33301 34.5 -7 41.5
s-14.334 10.5 -29.001 10.5l-30 -1l-5 8zM220 -86c29.333 23.333 54.834 35 76.501 35s39 -7.83301 52 -23.5s19.5 -38.334 19.5 -68.001s-13.833 -60.5 -41.5 -92.5s-62.834 -59.667 -105.501 -83l-37 30v17c20 14 36.333 30.333 49 49s19 36.334 19 53.001
c0 27.333 -11.667 50.333 -35 69z" />
    <glyph glyph-name="lcommaaccent" unicode="&#x13c;" horiz-adv-x="461" 
d="M46 502l117.997 -1.00098l138 5l-7 -62c-27.333 -2.66699 -44.666 -7.16699 -51.999 -13.5s-11.666 -18.833 -12.999 -37.5c-6.66699 -88.667 -10 -182 -10 -280c0 -17.333 3.16699 -28.833 9.5 -34.5s18.833 -8.5 37.5 -8.5c36 0 60.167 7.5 72.5 22.5
s21.5 48.167 27.5 99.5l78 7l7 -9c-8.66699 -59.333 -15.667 -121.333 -21 -186l-10 -10c-88 4 -154.667 6 -200 6c-68 0 -129.333 -2.66699 -184 -8l7 59c20.667 2.66699 34.834 8.83398 42.501 18.501s11.5 26.167 11.5 49.5l1 285c0 16.667 -2 27.667 -6 33s-12 8 -24 8
l-23 -1l-6 8zM180.997 -86.001c29.333 23.333 54.834 35 76.501 35s39 -7.83301 52 -23.5s19.5 -38.334 19.5 -68.001s-13.833 -60.5 -41.5 -92.5s-62.834 -59.667 -105.501 -83l-37 30v17c20 14 36.333 30.333 49 49s19 36.334 19 53.001c0 27.333 -11.667 50.333 -35 69z
" />
    <glyph glyph-name="Lcaron" unicode="&#x13d;" horiz-adv-x="537" 
d="M428 398v43.999c0 52.667 -2.66699 114 -8 184l101 14l8 -10c-10 -73.333 -23 -145.666 -39 -216.999l-48 -19zM52 642.999l136 -1l155 7l-8 -71c-32.667 -4 -53.167 -10.333 -61.5 -19s-13.166 -26.667 -14.499 -54c-7.33301 -99.333 -11 -221.333 -11 -366
c0 -25.333 3.83301 -41.666 11.5 -48.999s24.5 -11 50.5 -11c47.333 0 78.833 9.16699 94.5 27.5s26.834 59.833 33.501 124.5l85 9l7 -10c-11.333 -72.667 -20.333 -148.334 -27 -227.001l-9 -11c-108.667 5.33301 -189.334 8 -242.001 8
c-78.667 0 -148.667 -3.33301 -210 -10l7 68c25.333 4 42.833 12.167 52.5 24.5s14.5 32.833 14.5 61.5v381c0 20.667 -2.33301 34.5 -7 41.5s-14.334 10.5 -29.001 10.5l-30 -1l-5 8z" />
    <glyph glyph-name="lcaron" unicode="&#x13e;" horiz-adv-x="483" 
d="M364 309v37c0 42 -2 89.667 -6 143l90 11l7 -8c-8.66699 -57.333 -19.667 -114 -33 -170l-45 -16zM46 502l117.997 -1.00098l138 5l-7 -62c-27.333 -2.66699 -44.666 -7.16699 -51.999 -13.5s-11.666 -18.833 -12.999 -37.5c-6.66699 -88.667 -10 -182 -10 -280
c0 -17.333 3.16699 -28.833 9.5 -34.5s18.833 -8.5 37.5 -8.5c36 0 60.167 7.5 72.5 22.5s21.5 48.167 27.5 99.5l78 7l7 -9c-8.66699 -59.333 -15.667 -121.333 -21 -186l-10 -10c-88 4 -154.667 6 -200 6c-68 0 -129.333 -2.66699 -184 -8l7 59
c20.667 2.66699 34.834 8.83398 42.501 18.501s11.5 26.167 11.5 49.5l1 285c0 16.667 -2 27.667 -6 33s-12 8 -24 8l-23 -1l-6 8z" />
    <glyph glyph-name="Ldot" unicode="&#x13f;" horiz-adv-x="554" 
d="M52 643l136 -1l155 7l-8 -71c-32.667 -4 -53.167 -10.333 -61.5 -19s-13.166 -26.667 -14.499 -54c-7.33301 -99.333 -11 -221.333 -11 -366c0 -25.333 3.83301 -41.666 11.5 -48.999s24.5 -11 50.5 -11c47.333 0 78.833 9.16699 94.5 27.5s26.834 59.833 33.501 124.5
l85 9l7 -10c-11.333 -72.667 -20.333 -148.334 -27 -227.001l-9 -11c-108.667 5.33301 -189.334 8 -242.001 8c-78.667 0 -148.667 -3.33301 -210 -10l7 68c25.333 4 42.833 12.167 52.5 24.5s14.5 32.833 14.5 61.5v381c0 20.667 -2.33301 34.5 -7 41.5
s-14.334 10.5 -29.001 10.5l-30 -1l-5 8zM453 380c-24.667 0 -43.332 6.83105 -55.999 20.498s-19 32.334 -19 56.001s7.33301 43.167 22 58.5s34 23 58 23s42.667 -7 56 -21s20 -32.667 20 -56s-7.33301 -42.666 -22 -57.999s-34.334 -23 -59.001 -23z" />
    <glyph glyph-name="ldot" unicode="&#x140;" horiz-adv-x="516" 
d="M46 502l117.997 -1.00098l138 5l-7 -62c-27.333 -2.66699 -44.666 -7.16699 -51.999 -13.5s-11.666 -18.833 -12.999 -37.5c-6.66699 -88.667 -10 -182 -10 -280c0 -17.333 3.16699 -28.833 9.5 -34.5s18.833 -8.5 37.5 -8.5c36 0 60.167 7.5 72.5 22.5
s21.5 48.167 27.5 99.5l78 7l7 -9c-8.66699 -59.333 -15.667 -121.333 -21 -186l-10 -10c-88 4 -154.667 6 -200 6c-68 0 -129.333 -2.66699 -184 -8l7 59c20.667 2.66699 34.834 8.83398 42.501 18.501s11.5 26.167 11.5 49.5l1 285c0 16.667 -2 27.667 -6 33s-12 8 -24 8
l-23 -1l-6 8zM400.997 275.999c-23.333 0 -41.167 6.5 -53.5 19.5s-18.5 30.833 -18.5 53.5s7 41.167 21 55.5s32.5 21.5 55.5 21.5s40.833 -6.5 53.5 -19.5s19 -30.833 19 -53.5s-7 -41.167 -21 -55.5s-32.667 -21.5 -56 -21.5z" />
    <glyph glyph-name="Lslash" unicode="&#x141;" horiz-adv-x="566" 
d="M64 643l136 -0.999023l155 7l-8 -71c-32.667 -4 -53.167 -10.333 -61.5 -19s-13.666 -28.334 -15.999 -59.001s-3.83301 -65 -4.5 -103l133 67l8 -4l17 -61l-161 -81c-1.33301 -40 -2 -99.667 -2 -179c0 -25.333 3.83301 -41.666 11.5 -48.999s24.5 -11 50.5 -11
c47.333 0 78.833 9.16699 94.5 27.5s26.834 59.833 33.501 124.5l85 9l7 -10c-11.333 -72.667 -20.333 -148.334 -27 -227.001l-9 -11c-108.667 5.33301 -189.334 8 -242.001 8c-78.667 0 -148.667 -3.33301 -210 -10l7 68c25.333 4 42.833 12.167 52.5 24.5
s14.5 32.833 14.5 61.5v122l-62 -31l-10 2l-17 62l89 44v182c0 20.667 -2.33301 34.5 -7 41.5s-14.334 10.5 -29.001 10.5l-30 -1l-5 8z" />
    <glyph glyph-name="lslash" unicode="&#x142;" horiz-adv-x="476" 
d="M64 502l116.999 -1.00098l139 5l-7 -62c-27.333 -2.66699 -44.666 -7.16699 -51.999 -13.5s-12 -21.833 -14 -46.5s-3.33301 -47 -4 -67l100 47l7 -3l17 -56l-127 -60c-1.33301 -28 -2 -72 -2 -132c0 -17.333 3 -28.833 9 -34.5s18.333 -8.5 37 -8.5
c36.667 0 61.167 7.5 73.5 22.5s21.166 48.167 26.499 99.5l79 7l6 -9c-8.66699 -59.333 -15.667 -121.333 -21 -186l-9 -10c-88 4 -154.667 6 -200 6c-68 0 -129.333 -2.66699 -184 -8l7 59c20.667 2.66699 34.834 8.83398 42.501 18.501s11.5 26.167 11.5 49.5v81l-48 -23
l-8 2l-17 56l73 35l1 134c0 16.667 -2 27.667 -6 33s-12 8 -24 8l-23 -1l-6 8z" />
    <glyph glyph-name="Nacute" unicode="&#x143;" horiz-adv-x="729" 
d="M495 577l-34 -0.998047l-4 8l7 62c56.667 -2.66699 99.667 -4 129 -4l118 5l-5 -67c-22 -3.33301 -37.833 -9.66602 -47.5 -18.999s-14.834 -24 -15.501 -44l-13 -531l-106 -13c-98.667 158 -195.667 306 -291 444h-10l-1 -308c0 -16.667 2.5 -28.334 7.5 -35.001
s13.833 -10 26.5 -10l43 3l6 -7l-10 -64c-57.333 2.66699 -97 4 -119 4c-38 0 -82.333 -2.66699 -133 -8l8 67c38.667 4.66699 58.334 25.667 59.001 63l13 395c0 21.333 -5.33301 36.166 -16 44.499s-32.334 14.166 -65.001 17.499l-8 10l7 58
c44.667 -3.33301 83.334 -5 116.001 -5l96 4c87.333 -142 176.333 -279 267 -411h10l-2 299c-0.666992 28.667 -11.667 43 -33 43zM552 775.002l-6 -13c-76.667 -19.333 -153 -41 -229 -65l-13 9l-13 47l223 104l12 -5z" />
    <glyph glyph-name="nacute" unicode="&#x144;" horiz-adv-x="622" 
d="M411 445l-26.9951 0.000976562l-4 6l6 53c50 -2 98.5 -3 145.5 -3s70.5 1.33301 70.5 4l-4 -58c-18.667 -2.66699 -31.834 -7.66699 -39.501 -15s-11.834 -18.666 -12.501 -33.999l-11 -405l-103 -10c-70.667 105.333 -145.334 210.666 -224.001 315.999h-9v-207
c0.666992 -14 3.16699 -23.667 7.5 -29s11.833 -8 22.5 -8l33 2l6 -5l-9 -55c-50.667 2 -87.667 3 -111 3l-108 -6l7 58c16.667 2 28.667 6.66699 36 14s11.333 19 12 35l11 296c0 16.667 -4.33301 28.167 -13 34.5s-26.334 11.166 -53.001 14.499l-7 8l6 51
c37.333 -2.66699 71.333 -4 102 -4l86 3c63.333 -98 131.666 -196.667 204.999 -296h9l-3 203c-0.666992 12.667 -3 21.5 -7 26.5s-10.667 7.5 -20 7.5zM485.005 633.001l-6 -13c-76.667 -19.333 -153 -41 -229 -65l-13 9l-13 47l223 104l12 -5z" />
    <glyph glyph-name="Ncommaaccent" unicode="&#x145;" horiz-adv-x="729" 
d="M495 577l-34 -0.998047l-4 8l7 62c56.667 -2.66699 99.667 -4 129 -4l118 5l-5 -67c-22 -3.33301 -37.833 -9.66602 -47.5 -18.999s-14.834 -24 -15.501 -44l-13 -531l-106 -13c-98.667 158 -195.667 306 -291 444h-10l-1 -308c0 -16.667 2.5 -28.334 7.5 -35.001
s13.833 -10 26.5 -10l43 3l6 -7l-10 -64c-57.333 2.66699 -97 4 -119 4c-38 0 -82.333 -2.66699 -133 -8l8 67c38.667 4.66699 58.334 25.667 59.001 63l13 395c0 21.333 -5.33301 36.166 -16 44.499s-32.334 14.166 -65.001 17.499l-8 10l7 58
c44.667 -3.33301 83.334 -5 116.001 -5l96 4c87.333 -142 176.333 -279 267 -411h10l-2 299c-0.666992 28.667 -11.667 43 -33 43zM300 -85.998c29.333 23.333 54.834 35 76.501 35s39 -7.83301 52 -23.5s19.5 -38.334 19.5 -68.001s-13.833 -60.5 -41.5 -92.5
s-62.834 -59.667 -105.501 -83l-37 30v17c20 14 36.333 30.333 49 49s19 36.334 19 53.001c0 27.333 -11.667 50.333 -35 69z" />
    <glyph glyph-name="ncommaaccent" unicode="&#x146;" horiz-adv-x="622" 
d="M411 445l-26.9951 0.000976562l-4 6l6 53c50 -2 98.5 -3 145.5 -3s70.5 1.33301 70.5 4l-4 -58c-18.667 -2.66699 -31.834 -7.66699 -39.501 -15s-11.834 -18.666 -12.501 -33.999l-11 -405l-103 -10c-70.667 105.333 -145.334 210.666 -224.001 315.999h-9v-207
c0.666992 -14 3.16699 -23.667 7.5 -29s11.833 -8 22.5 -8l33 2l6 -5l-9 -55c-50.667 2 -87.667 3 -111 3l-108 -6l7 58c16.667 2 28.667 6.66699 36 14s11.333 19 12 35l11 296c0 16.667 -4.33301 28.167 -13 34.5s-26.334 11.166 -53.001 14.499l-7 8l6 51
c37.333 -2.66699 71.333 -4 102 -4l86 3c63.333 -98 131.666 -196.667 204.999 -296h9l-3 203c-0.666992 12.667 -3 21.5 -7 26.5s-10.667 7.5 -20 7.5zM251.005 -85.999c29.333 23.333 54.834 35 76.501 35s39 -7.83301 52 -23.5s19.5 -38.334 19.5 -68.001
s-13.833 -60.5 -41.5 -92.5s-62.834 -59.667 -105.501 -83l-37 30v17c20 14 36.333 30.333 49 49s19 36.334 19 53.001c0 27.333 -11.667 50.333 -35 69z" />
    <glyph glyph-name="Ncaron" unicode="&#x147;" horiz-adv-x="729" 
d="M495 577l-34 -0.998047l-4 8l7 62c56.667 -2.66699 99.667 -4 129 -4l118 5l-5 -67c-22 -3.33301 -37.833 -9.66602 -47.5 -18.999s-14.834 -24 -15.501 -44l-13 -531l-106 -13c-98.667 158 -195.667 306 -291 444h-10l-1 -308c0 -16.667 2.5 -28.334 7.5 -35.001
s13.833 -10 26.5 -10l43 3l6 -7l-10 -64c-57.333 2.66699 -97 4 -119 4c-38 0 -82.333 -2.66699 -133 -8l8 67c38.667 4.66699 58.334 25.667 59.001 63l13 395c0 21.333 -5.33301 36.166 -16 44.499s-32.334 14.166 -65.001 17.499l-8 10l7 58
c44.667 -3.33301 83.334 -5 116.001 -5l96 4c87.333 -142 176.333 -279 267 -411h10l-2 299c-0.666992 28.667 -11.667 43 -33 43zM519 861.002l25 -41c-48.667 -35.333 -101 -76.666 -157 -123.999h-20c-55.333 46.667 -107.666 88 -156.999 124l24 41l16 4
c33.333 -16.667 75.666 -36 126.999 -58c32 13.333 74 32.666 126 57.999z" />
    <glyph glyph-name="ncaron" unicode="&#x148;" horiz-adv-x="622" 
d="M411 445l-26.9951 0.000976562l-4 6l6 53c50 -2 98.5 -3 145.5 -3s70.5 1.33301 70.5 4l-4 -58c-18.667 -2.66699 -31.834 -7.66699 -39.501 -15s-11.834 -18.666 -12.501 -33.999l-11 -405l-103 -10c-70.667 105.333 -145.334 210.666 -224.001 315.999h-9v-207
c0.666992 -14 3.16699 -23.667 7.5 -29s11.833 -8 22.5 -8l33 2l6 -5l-9 -55c-50.667 2 -87.667 3 -111 3l-108 -6l7 58c16.667 2 28.667 6.66699 36 14s11.333 19 12 35l11 296c0 16.667 -4.33301 28.167 -13 34.5s-26.334 11.166 -53.001 14.499l-7 8l6 51
c37.333 -2.66699 71.333 -4 102 -4l86 3c63.333 -98 131.666 -196.667 204.999 -296h9l-3 203c-0.666992 12.667 -3 21.5 -7 26.5s-10.667 7.5 -20 7.5zM463.005 719.001l25 -41c-48.667 -35.333 -101 -76.666 -157 -123.999h-20c-55.333 46.667 -107.666 88 -156.999 124
l24 41l16 4c33.333 -16.667 75.666 -36 126.999 -58c32 13.333 74 32.666 126 57.999z" />
    <glyph glyph-name="Eng" unicode="&#x14a;" horiz-adv-x="727" 
d="M155 642l96.001 3.99902c69.333 -116 160 -255.333 272 -418h9l-1 308c0 28.667 -11 43 -33 43l-35 -1l-4 6l8 62c64 -2.66699 106.667 -4 128 -4l115 6l-5 -66c-22.667 -2.66699 -38.834 -8.83398 -48.501 -18.501s-14.834 -24.5 -15.501 -44.5l-10 -433
c-2 -66 -18.333 -118.5 -49 -157.5s-80 -69.5 -148 -91.5l-27 40l3 11c28.667 17.333 50.5 34.833 65.5 52.5s25.833 38.834 32.5 63.501l-278 421h-9l-2 -317c0.666992 -17.333 3.5 -29.166 8.5 -35.499s13.833 -9.5 26.5 -9.5l43 2l5 -6l-9 -63
c-55.333 2.66699 -103.666 4 -144.999 4l-103 -8l8 65c21.333 2.66699 36.5 9.5 45.5 20.5s13.833 29.5 14.5 55.5l12 386c0 20.667 -5.33301 35.167 -16 43.5s-32.667 14.5 -66 18.5l-7 10l7 56c50 -3.33301 87.333 -5 112 -5z" />
    <glyph glyph-name="eng" unicode="&#x14b;" horiz-adv-x="619" 
d="M140 501l84.001 2.99609c54.667 -85.333 124.667 -186.666 210 -303.999h9l-2 213c0 22.667 -9 34 -27 34l-28 -1l-3 6l5 52c58.667 -2 96.334 -3 113.001 -3l99 4l-4 -56c-18.667 -2.66699 -31.834 -7.66699 -39.501 -15s-11.834 -18.666 -12.501 -33.999l-8 -333
c-1.33301 -52 -15.333 -93.5 -42 -124.5s-69.334 -54.833 -128.001 -71.5l-25 32l3 10c42.667 26.667 68.334 56.334 77.001 89.001l-215 305h-8l-1 -217c0 -13.333 2.16699 -22.666 6.5 -27.999s11.833 -8 22.5 -8l34 2l5 -5l-8 -54c-47.333 2 -89.333 3 -126 3l-89 -6
l7 55c17.333 2 29.666 7.16699 36.999 15.5s11.333 22.166 12 41.499l10 293c0 16 -4.16699 27.333 -12.5 34s-26.166 11.334 -53.499 14.001l-7 9l6 49c43.333 -2.66699 76.333 -4 99 -4z" />
    <glyph glyph-name="Omacron" unicode="&#x14c;" horiz-adv-x="674" 
d="M224 144c27.333 -46 65.333 -69 114 -69s86.167 18.5 112.5 55.5s39.5 94.5 39.5 172.5s-14 139.833 -42 185.5s-66.5 68.5 -115.5 68.5s-86.167 -18.5 -111.5 -55.5s-38 -94.333 -38 -172s13.667 -139.5 41 -185.5zM555 85c-60.667 -64.667 -138 -97 -232 -97
s-166.667 28.333 -218 85s-77 135.667 -77 237s30 184 90 248s137.333 96 232 96s167.667 -27.667 219 -83s77 -134 77 -236s-30.333 -185.333 -91 -250zM479 800l8.00098 -14l-12 -77l-280 -2l-11 12l14 76c63.333 -0.666992 114.666 -1 153.999 -1z" />
    <glyph glyph-name="omacron" unicode="&#x14d;" horiz-adv-x="570" 
d="M288 68c34.667 0 61.5 13 80.5 39s28.5 64.333 28.5 115c0 135.333 -39.667 203 -119 203c-70 0 -105 -51 -105 -153c0 -136 38.333 -204 115 -204zM467 65c-49.333 -49.333 -113.5 -74.002 -192.5 -74.002s-139.667 21.833 -182 65.5s-63.5 105.834 -63.5 186.501
s24.333 145.334 73 194.001s113 73 193 73s141 -21.333 183 -64s63 -104.5 63 -185.5s-24.667 -146.167 -74 -195.5zM433 657.998l8.00098 -14l-12 -77l-280 -2l-11 12l14 76c63.333 -0.666992 114.666 -1 153.999 -1z" />
    <glyph glyph-name="Obreve" unicode="&#x14e;" horiz-adv-x="674" 
d="M224 144c27.333 -46 65.333 -69 114 -69s86.167 18.5 112.5 55.5s39.5 94.5 39.5 172.5s-14 139.833 -42 185.5s-66.5 68.5 -115.5 68.5s-86.167 -18.5 -111.5 -55.5s-38 -94.333 -38 -172s13.667 -139.5 41 -185.5zM555 85c-60.667 -64.667 -138 -97 -232 -97
s-166.667 28.333 -218 85s-77 135.667 -77 237s30 184 90 248s137.333 96 232 96s167.667 -27.667 219 -83s77 -134 77 -236s-30.333 -185.333 -91 -250zM325 812c50.667 0 85 22.667 103 68l17 -4l28 -34c-10 -36 -27.333 -65.833 -52 -89.5s-56.667 -35.5 -96 -35.5
s-71.333 11.833 -96 35.5s-42 53.5 -52 89.5l28 34l17 4c18 -45.333 52.333 -68 103 -68z" />
    <glyph glyph-name="obreve" unicode="&#x14f;" horiz-adv-x="570" 
d="M288 68c34.667 0 61.5 13 80.5 39s28.5 64.333 28.5 115c0 135.333 -39.667 203 -119 203c-70 0 -105 -51 -105 -153c0 -136 38.333 -204 115 -204zM467 65c-49.333 -49.333 -113.5 -74.002 -192.5 -74.002s-139.667 21.833 -182 65.5s-63.5 105.834 -63.5 186.501
s24.333 145.334 73 194.001s113 73 193 73s141 -21.333 183 -64s63 -104.5 63 -185.5s-24.667 -146.167 -74 -195.5zM282 669.998c50.667 0 85 22.667 103 68l17 -4l28 -34c-10 -36 -27.333 -65.833 -52 -89.5s-56.667 -35.5 -96 -35.5s-71.333 11.833 -96 35.5
s-42 53.5 -52 89.5l28 34l17 4c18 -45.333 52.333 -68 103 -68z" />
    <glyph glyph-name="Ohungarumlaut" unicode="&#x150;" horiz-adv-x="674" 
d="M224 144c27.333 -46 65.333 -69 114 -69s86.167 18.5 112.5 55.5s39.5 94.5 39.5 172.5s-14 139.833 -42 185.5s-66.5 68.5 -115.5 68.5s-86.167 -18.5 -111.5 -55.5s-38 -94.333 -38 -172s13.667 -139.5 41 -185.5zM555 85c-60.667 -64.667 -138 -97 -232 -97
s-166.667 28.333 -218 85s-77 135.667 -77 237s30 184 90 248s137.333 96 232 96s167.667 -27.667 219 -83s77 -134 77 -236s-30.333 -185.333 -91 -250zM402 794l-1 -11.999c-56 -30.667 -112 -63.334 -168 -98.001l-14 5l-23 34l151 134l12 -1zM570 790.001l-1 -11.999
c-56.667 -30.667 -113 -63.334 -169 -98.001l-12 4l-24 34l151 134l12 -2z" />
    <glyph glyph-name="ohungarumlaut" unicode="&#x151;" horiz-adv-x="570" 
d="M288 68c34.667 0 61.5 13 80.5 39s28.5 64.333 28.5 115c0 135.333 -39.667 203 -119 203c-70 0 -105 -51 -105 -153c0 -136 38.333 -204 115 -204zM467 65c-49.333 -49.333 -113.5 -74.002 -192.5 -74.002s-139.667 21.833 -182 65.5s-63.5 105.834 -63.5 186.501
s24.333 145.334 73 194.001s113 73 193 73s141 -21.333 183 -64s63 -104.5 63 -185.5s-24.667 -146.167 -74 -195.5zM336 651.998l-1 -11.999c-56 -30.667 -112 -63.334 -168 -98.001l-14 5l-23 34l151 134l12 -1zM504 647.999l-1 -11.999
c-56.667 -30.667 -113 -63.334 -169 -98.001l-12 4l-24 34l151 134l12 -2z" />
    <glyph glyph-name="OE" unicode="&#x152;" horiz-adv-x="940" 
d="M653 79c62 0 101.83 6.50391 119.497 19.5039s29.834 44.5 36.501 94.5l85 7l7 -10c-12 -60 -21 -122 -27 -186l-10 -11c-127.333 6 -219.5 9 -276.5 9s-112 -2.16699 -165 -6.5s-89.167 -6.5 -108.5 -6.5c-88 0 -157.5 28.167 -208.5 84.5s-76.5 135.166 -76.5 236.499
s29.167 183.166 87.5 245.499s136.5 93.5 234.5 93.5c20.667 0 55.334 -2.16699 104.001 -6.5s88.334 -6.5 119.001 -6.5c122.667 0 226.667 6 312 18l8 -11c-12 -59.333 -19.667 -120 -23 -182l-91 -6c1.33301 17.333 2 30.666 2 39.999
c0 27.333 -7.33301 44.666 -22 51.999s-41.834 11 -81.501 11s-62.167 -1.66699 -67.5 -5s-8.33301 -12.666 -9 -27.999l-7 -155l93 -1l116 8l8 -9l-14 -86c-53.333 2 -96.666 3 -129.999 3l-77 -6l-2 -140c0 -26.667 3.5 -43.334 10.5 -50.001s24.833 -10 53.5 -10z
M221.997 142.504c26.667 -46.333 63.665 -69.499 110.998 -69.499s80.833 10 100.5 30s29.834 53 30.501 99l1 252c0 40.667 -9.83301 68.667 -29.5 84s-53.667 23 -102 23s-85.666 -18.833 -111.999 -56.5s-39.5 -95.834 -39.5 -174.501s13.333 -141.167 40 -187.5z" />
    <glyph glyph-name="oe" unicode="&#x153;" horiz-adv-x="785" 
d="M503.5 78c5.66699 -5.33301 25.6631 -7.99609 59.9961 -7.99609s58.5 5 72.5 15s23.667 34 29 72l79 6l6 -9c-9.33301 -48 -16.666 -98 -21.999 -150l-9 -9c-102 4.66699 -177.333 7 -226 7s-94.667 -1.66699 -138 -5s-72.333 -5 -87 -5
c-74.667 0 -133.167 21.833 -175.5 65.5s-63.5 105.667 -63.5 186s23.5 144.166 70.5 191.499s111.833 71 194.5 71c16.667 0 45.334 -1.66699 86.001 -5s90.667 -5 150 -5s128.666 4.66699 207.999 14l8 -9c-10 -48.667 -16.333 -97.334 -19 -146.001l-85 -6
c1.33301 13.333 2 23.666 2 30.999c0 20.667 -5.66699 33.667 -17 39s-32.166 8 -62.499 8s-47.666 -1.33301 -51.999 -4s-6.83301 -9.33398 -7.5 -20.001l-5 -111l75 -1l94 7l8 -9l-12 -74c-43.333 1.33301 -78.666 2 -105.999 2l-62 -4l-2 -96
c0 -20.667 2.83301 -33.667 8.5 -39zM283.996 65.0039c32.667 0 56.5 7.16699 71.5 21.5s22.5 37.5 22.5 69.5l1 193c0 30 -7.66699 50.667 -23 62s-41.333 17 -78 17c-72 0 -108 -51.667 -108 -155c0 -138.667 38 -208 114 -208z" />
    <glyph glyph-name="Racute" unicode="&#x154;" horiz-adv-x="643" 
d="M569 475c0 -80.667 -44.668 -144.331 -134.001 -190.998l87 -140c18.667 -30.667 36.667 -52.834 54 -66.501s36.333 -20.5 57 -20.5l7 -9l-7 -53l-119 -11c-44 0 -80.333 31 -109 93l-86 174h-70l-1 -110c0 -33.333 3.83301 -54.333 11.5 -63s27.5 -13.334 59.5 -14.001
l4 -6l-10 -62c0 2 -44.667 3 -134 3l-143 -5l9 67c28 4 46.833 11.5 56.5 22.5s14.5 30.833 14.5 59.5l1 385c0 19.333 -2.16699 32.333 -6.5 39s-12.833 10 -25.5 10l-35 -2l-5 8l8 61c58 -1.33301 100 -2 126 -2l153 5c76.667 0 135.334 -14.833 176.001 -44.5
s61 -72.167 61 -127.5zM426.999 456.003c0 72 -49.666 108 -148.999 108c-6.66699 0 -11.334 -1.33301 -14.001 -4c-5.33301 -6 -9.33301 -79 -12 -219l90 -10c56.667 24 85 65.667 85 125zM497 775.003l-6 -13c-76.667 -19.333 -153 -41 -229 -65l-13 9l-13 47l223 104
l12 -5z" />
    <glyph glyph-name="racute" unicode="&#x155;" horiz-adv-x="555" 
d="M99 117l-0.00195312 291c0 14.667 -1.66699 24.5 -5 29.5s-9.66602 7.5 -18.999 7.5l-29 -1l-6 6l8 52c49.333 -0.666992 85 -1 107 -1l132 4c66.667 0 117.334 -11.833 152.001 -35.5s52 -57.834 52 -102.501c0 -62.667 -35.667 -112 -107 -148l66 -100
c29.333 -45.333 59 -68 89 -68l7 -9l-7 -46l-105 -8c-38.667 0 -69 24 -91 72l-66 130h-55l-1 -76c0 -25.333 3.16699 -41.166 9.5 -47.499s22.833 -9.83301 49.5 -10.5l3 -5l-8 -54c0 1.33301 -38.667 2 -116 2l-124 -5l7 59c22 3.33301 37 9.33301 45 18s12 24 12 46z
M360.998 352c0 52 -38.667 78.001 -116 78.001c-5.33301 0 -9 -1.33301 -11 -4c-4 -4 -7.33301 -56.333 -10 -157l71 -8c44 17.333 66 47.666 66 90.999zM442.998 633.001l-6 -13c-76.667 -19.333 -153 -41 -229 -65l-13 9l-13 47l223 104l12 -5z" />
    <glyph glyph-name="Rcommaaccent" unicode="&#x156;" horiz-adv-x="643" 
d="M569 475c0 -80.667 -44.668 -144.331 -134.001 -190.998l87 -140c18.667 -30.667 36.667 -52.834 54 -66.501s36.333 -20.5 57 -20.5l7 -9l-7 -53l-119 -11c-44 0 -80.333 31 -109 93l-86 174h-70l-1 -110c0 -33.333 3.83301 -54.333 11.5 -63s27.5 -13.334 59.5 -14.001
l4 -6l-10 -62c0 2 -44.667 3 -134 3l-143 -5l9 67c28 4 46.833 11.5 56.5 22.5s14.5 30.833 14.5 59.5l1 385c0 19.333 -2.16699 32.333 -6.5 39s-12.833 10 -25.5 10l-35 -2l-5 8l8 61c58 -1.33301 100 -2 126 -2l153 5c76.667 0 135.334 -14.833 176.001 -44.5
s61 -72.167 61 -127.5zM426.999 456.003c0 72 -49.666 108 -148.999 108c-6.66699 0 -11.334 -1.33301 -14.001 -4c-5.33301 -6 -9.33301 -79 -12 -219l90 -10c56.667 24 85 65.667 85 125zM260 -85.9971c29.333 23.333 54.834 35 76.501 35s39 -7.83301 52 -23.5
s19.5 -38.334 19.5 -68.001s-13.833 -60.5 -41.5 -92.5s-62.834 -59.667 -105.501 -83l-37 30v17c20 14 36.333 30.333 49 49s19 36.334 19 53.001c0 27.333 -11.667 50.333 -35 69z" />
    <glyph glyph-name="rcommaaccent" unicode="&#x157;" horiz-adv-x="555" 
d="M99 117l-0.00195312 291c0 14.667 -1.66699 24.5 -5 29.5s-9.66602 7.5 -18.999 7.5l-29 -1l-6 6l8 52c49.333 -0.666992 85 -1 107 -1l132 4c66.667 0 117.334 -11.833 152.001 -35.5s52 -57.834 52 -102.501c0 -62.667 -35.667 -112 -107 -148l66 -100
c29.333 -45.333 59 -68 89 -68l7 -9l-7 -46l-105 -8c-38.667 0 -69 24 -91 72l-66 130h-55l-1 -76c0 -25.333 3.16699 -41.166 9.5 -47.499s22.833 -9.83301 49.5 -10.5l3 -5l-8 -54c0 1.33301 -38.667 2 -116 2l-124 -5l7 59c22 3.33301 37 9.33301 45 18s12 24 12 46z
M360.998 352c0 52 -38.667 78.001 -116 78.001c-5.33301 0 -9 -1.33301 -11 -4c-4 -4 -7.33301 -56.333 -10 -157l71 -8c44 17.333 66 47.666 66 90.999zM218.998 -85.999c29.333 23.333 54.834 35 76.501 35s39 -7.83301 52 -23.5s19.5 -38.334 19.5 -68.001
s-13.833 -60.5 -41.5 -92.5s-62.834 -59.667 -105.501 -83l-37 30v17c20 14 36.333 30.333 49 49s19 36.334 19 53.001c0 27.333 -11.667 50.333 -35 69z" />
    <glyph glyph-name="Rcaron" unicode="&#x158;" horiz-adv-x="643" 
d="M569 475c0 -80.667 -44.668 -144.331 -134.001 -190.998l87 -140c18.667 -30.667 36.667 -52.834 54 -66.501s36.333 -20.5 57 -20.5l7 -9l-7 -53l-119 -11c-44 0 -80.333 31 -109 93l-86 174h-70l-1 -110c0 -33.333 3.83301 -54.333 11.5 -63s27.5 -13.334 59.5 -14.001
l4 -6l-10 -62c0 2 -44.667 3 -134 3l-143 -5l9 67c28 4 46.833 11.5 56.5 22.5s14.5 30.833 14.5 59.5l1 385c0 19.333 -2.16699 32.333 -6.5 39s-12.833 10 -25.5 10l-35 -2l-5 8l8 61c58 -1.33301 100 -2 126 -2l153 5c76.667 0 135.334 -14.833 176.001 -44.5
s61 -72.167 61 -127.5zM426.999 456.003c0 72 -49.666 108 -148.999 108c-6.66699 0 -11.334 -1.33301 -14.001 -4c-5.33301 -6 -9.33301 -79 -12 -219l90 -10c56.667 24 85 65.667 85 125zM465 861.003l25 -41c-48.667 -35.333 -101 -76.666 -157 -123.999h-20
c-55.333 46.667 -107.666 88 -156.999 124l24 41l16 4c33.333 -16.667 75.666 -36 126.999 -58c32 13.333 74 32.666 126 57.999z" />
    <glyph glyph-name="rcaron" unicode="&#x159;" horiz-adv-x="555" 
d="M99 117l-0.00195312 291c0 14.667 -1.66699 24.5 -5 29.5s-9.66602 7.5 -18.999 7.5l-29 -1l-6 6l8 52c49.333 -0.666992 85 -1 107 -1l132 4c66.667 0 117.334 -11.833 152.001 -35.5s52 -57.834 52 -102.501c0 -62.667 -35.667 -112 -107 -148l66 -100
c29.333 -45.333 59 -68 89 -68l7 -9l-7 -46l-105 -8c-38.667 0 -69 24 -91 72l-66 130h-55l-1 -76c0 -25.333 3.16699 -41.166 9.5 -47.499s22.833 -9.83301 49.5 -10.5l3 -5l-8 -54c0 1.33301 -38.667 2 -116 2l-124 -5l7 59c22 3.33301 37 9.33301 45 18s12 24 12 46z
M360.998 352c0 52 -38.667 78.001 -116 78.001c-5.33301 0 -9 -1.33301 -11 -4c-4 -4 -7.33301 -56.333 -10 -157l71 -8c44 17.333 66 47.666 66 90.999zM420.998 719.001l25 -41c-48.667 -35.333 -101 -76.666 -157 -123.999h-20c-55.333 46.667 -107.666 88 -156.999 124
l24 41l16 4c33.333 -16.667 75.666 -36 126.999 -58c32 13.333 74 32.666 126 57.999z" />
    </font>
</defs>
</svg>
