<?xml version="1.0" standalone="no"?>
<!DOCTYPE svg PUBLIC "-//W3C//DTD SVG 1.1//EN" "http://www.w3.org/Graphics/SVG/1.1/DTD/svg11.dtd" >
<svg>
<metadata>
Created by FontForge 20090914 at Sat Aug  3 07:25:57 2013
 By www-data
Copyright (c) 2012 TypeSETit, LLC (typesetit@att.net),with Reserved Font Name "Lovers Quarrel"
</metadata>
<defs>
<font id="LoversQuarrel-Regular" horiz-adv-x="333" >
  <font-face 
    font-family="Lovers Quarrel"
    font-weight="400"
    font-stretch="normal"
    units-per-em="1000"
    panose-1="2 0 6 4 6 0 0 2 0 2"
    ascent="800"
    descent="-200"
    x-height="216"
    cap-height="596.001"
    bbox="-268.997 -399.997 1157 725.999"
    underline-thickness="6"
    underline-position="-36"
    unicode-range="U+001E-U+FB02"
  />
<missing-glyph horiz-adv-x="323" 
d="M240 276c-10 0 -24 4 -42 12c-21.333 9.33301 -37.5 14 -48.5 14s-20.5 -7.33301 -28.5 -22c-0.666992 -1.33301 -3.5 -2 -8.5 -2s-7.5 1 -7.5 3c18.667 33.333 39 50 61 50c8.66699 0 22.667 -3.66699 42 -11c22 -8.66699 37 -13 45 -13c15.333 0 27 8 35 24
c0 1.33301 0.666992 2 2 2c8 0 12 -1 12 -3c0 -36 -20.667 -54 -62 -54z" />
    <glyph glyph-name=".notdef" horiz-adv-x="323" 
d="M240 276c-10 0 -24 4 -42 12c-21.333 9.33301 -37.5 14 -48.5 14s-20.5 -7.33301 -28.5 -22c-0.666992 -1.33301 -3.5 -2 -8.5 -2s-7.5 1 -7.5 3c18.667 33.333 39 50 61 50c8.66699 0 22.667 -3.66699 42 -11c22 -8.66699 37 -13 45 -13c15.333 0 27 8 35 24
c0 1.33301 0.666992 2 2 2c8 0 12 -1 12 -3c0 -36 -20.667 -54 -62 -54z" />
    <glyph glyph-name="RS" 
 />
    <glyph glyph-name="US" 
 />
    <glyph glyph-name="space" unicode=" " horiz-adv-x="184" 
 />
    <glyph glyph-name="exclam" unicode="!" horiz-adv-x="277" 
d="M160 121c-4 -12 -10.501 -18 -19.501 -18s-13.5 4.33301 -13.5 13c0 12 28.667 74.333 86 187s100.666 193 129.999 241c0 1.33301 2.83301 2 8.5 2s11.834 -3 18.501 -9c13.333 -10.667 20 -17.167 20 -19.5s-0.333008 -3.83301 -1 -4.5
c-131.333 -204 -207.666 -334.667 -228.999 -392zM115.999 31c6 -6 9 -13.168 9 -21.501s-3 -15.333 -9 -21s-13.5 -8.5 -22.5 -8.5s-16.5 3 -22.5 9c-6.66699 4.66699 -10 11.334 -10 20.001s3.16699 16 9.5 22s14 9 23 9s16.5 -3 22.5 -9z" />
    <glyph glyph-name="quotedbl" unicode="&#x22;" horiz-adv-x="212" 
d="M182 467c12.667 0 18.999 -7 18.999 -21s-20.667 -70.333 -62 -169h-10l19 159c0.666992 8 4.33398 15.333 11.001 22c7.33301 6 15 9 23 9zM78.999 467c12 0 18 -7.5 18 -22.5s-20.333 -70.833 -61 -167.5h-9l18 158c1.33301 9.33301 5.5 17 12.5 23s14.167 9 21.5 9z
" />
    <glyph glyph-name="numbersign" unicode="#" horiz-adv-x="497" 
d="M479 310l-18 -32h-100l-55 -94h107l-19 -31h-107l-93 -153h-35l91 153h-92l-93 -153h-35l92 153h-105l20 31h104l56 94h-114l20 32h113l92 154h37l-94 -154h94l92 154h36l-92 -154h98zM325 278h-92l-57 -94h93z" />
    <glyph glyph-name="dollar" unicode="$" horiz-adv-x="299" 
d="M317 325c0 -12 -3.50098 -22.3311 -10.501 -30.998s-15.5 -13 -25.5 -13s-17.333 3 -22 9c-6 6 -8.66699 13 -8 21c0.666992 18.667 10.667 28 30 28c11.333 0 18 -3.66699 20 -11c-3.33301 22 -17.333 35.333 -42 40l-78 -141c30 -40 45 -73 45 -99
c0 -40 -18 -71.5 -54 -94.5s-75 -34.5 -117 -34.5l-18 -36l-23 -4l23 41c-42 8 -69.333 19.667 -82 35c0.666992 3.33301 4.66699 8.66602 12 15.999h6c18.667 -18.667 42.667 -31 72 -37l100 181c-26.667 33.333 -40 61.666 -40 84.999c0 33.333 15.333 58.833 46 76.5
s63.334 26.5 98.001 26.5l19 35l21 4l-22 -41c33.333 -5.33301 50 -24 50 -56zM183.999 116.002c0 19.333 -9 41 -27 65l-94 -169c30 0 57.667 9.83301 83 29.5s38 44.5 38 74.5zM232.999 371.002c-20 0 -39.332 -6.66699 -57.999 -20c-18.667 -14.667 -28 -32.667 -28 -54
c0 -10.667 2.66699 -20 8 -28c5.33301 -10.667 10.666 -20 15.999 -28l72 130h-10z" />
    <glyph glyph-name="percent" unicode="%" horiz-adv-x="414" 
d="M178 488c35.333 0 52.9961 -16.334 52.9961 -49.001c0 -21.333 -8 -48.166 -24 -80.499s-32 -55.833 -48 -70.5c4.66699 -10.667 13.667 -16 27 -16c21.333 0 51 15 89 45c13.333 10.667 36 34 68 70c33.333 36 51 54.667 53 56c2.66699 1.33301 6.16699 2 10.5 2
s6.5 -1.33301 6.5 -4l-410 -497h-24l-1 3c68 71.333 172.333 194 313 368c-41.333 -36.667 -76.666 -55 -105.999 -55c-16 0 -29 5.66699 -39 17c-19.333 -15.333 -38.666 -23 -57.999 -23c-31.333 1.33301 -47 21 -47 59c0 19.333 5.83301 42.5 17.5 69.5
s29.334 51.333 53.001 73s45.834 32.5 66.501 32.5zM324.996 213.999c34 0 51 -17.5 51 -52.5s-15.833 -73.833 -47.5 -116.5s-62.5 -64 -92.5 -64c-33.333 0 -50 19.333 -50 58c0 19.333 5.66699 42.5 17 69.5s29 51.333 53 73s47 32.5 69 32.5zM188.996 465.999
c-14 0 -29.168 -8.33398 -45.501 -25.001s-31.166 -39.334 -44.499 -68.001s-20 -53.167 -20 -73.5s7.33301 -30.5 22 -30.5c12 0 24.667 5.66699 38 17c-6.66699 10.667 -10 21.667 -10 33c0 18.667 7 28 21 28s21 -6.66699 21 -20c0 -2.66699 -0.333008 -5 -1 -7
c8 10.667 17.167 28.334 27.5 53.001s15.5 46.334 15.5 65.001s-8 28 -24 28zM314.995 46.998c10 12 19.667 30.501 29 55.501s14 46.333 14 64s-8.33301 26.5 -25 26.5c-12.667 0 -27.667 -8.66699 -45 -26c-16.667 -18 -31.667 -41.333 -45 -70s-20 -52.834 -20 -72.501
s8 -29.5 24 -29.5c17.333 0 40 17.333 68 52z" />
    <glyph glyph-name="ampersand" unicode="&#x26;" horiz-adv-x="476" 
d="M70 -158c8 -34 29.9932 -51.001 65.9932 -51.001c16.667 0 32.5 6.16699 47.5 18.5s27.833 31.166 38.5 56.499c16.667 41.333 30 84 40 128c-25.333 -4 -38.666 -6 -39.999 -6c-20.667 -87.333 -43 -144.333 -67 -171c-3.33301 -3.33301 -5.66602 -3 -6.99902 1l1 4
c22 24 42.667 79.333 62 166c-7.33301 -0.666992 -16 -1 -26 -1s-22.333 0.5 -37 1.5s-30 3.66699 -46 8s-33 10.333 -51 18s-33 18.834 -45 33.501c-16 17.333 -24 35.833 -24 55.5s6 41.167 18 64.5s26 43.333 42 60c24.667 27.333 55.334 53 92.001 77
c-18 12 -33.667 27.333 -47 46c-26.667 38 -40 72.667 -40 104c0 16.667 4 32.667 12 48c16.667 32 42.834 48 78.501 48s63.834 -17.667 84.501 -53c18 -29.333 29.333 -71.666 34 -126.999l56 31c9.33301 53.333 20.666 88 33.999 104s25.333 24 36 24c18 0 27 -12 27 -36
c0 -20 -9.33301 -37.667 -28 -53c-16.667 -14 -33.667 -26.333 -51 -37c-5.33301 -23.333 -9.33301 -56.666 -12 -99.999c26.667 10 49.667 24.333 69 43s32.333 39 39 61c0.666992 2.66699 2.33398 3.66699 5.00098 3s3.66699 -2.33398 3 -5.00098
c-6.66699 -22.667 -20.667 -43.834 -42 -63.501s-46.333 -35.167 -75 -46.5c0 -3.33301 -0.166992 -8.33301 -0.5 -15s-0.5 -11.667 -0.5 -15c34.667 22 69.334 33 104.001 33c61.333 0 92 -24 92 -72c0 -30 -13.667 -64 -41 -102c-40.667 -59.333 -98 -99 -172 -119
c-8 -56.667 -22.667 -107.667 -44 -153c-24 -50.667 -58.667 -76 -104 -76c-22 0 -41.5 6.16699 -58.5 18.5s-26.5 27.833 -28.5 46.5c-1.33301 2.66699 -0.666016 4 2.00098 4c2.66699 -1.33301 4 -2.66602 4 -3.99902zM193.493 94.999
c-3 0 -5.16797 0.998047 -6.50098 2.99805c-4.66699 8 -7 16.5 -7 25.5s1.66699 18.5 5 28.5c9.33301 24 28 48 56 72c0.666992 12 1 30.333 1 55h-13c-28 0 -53.667 5.33301 -77 16c-12 -9.33301 -28.333 -24.5 -49 -45.5s-38 -44.167 -52 -69.5s-21 -47.666 -21 -66.999
c0 -35.333 16 -61.333 48 -78c40.667 -22 86 -33 136 -33c11.333 50.667 20 119 26 205c-33.333 -24 -50.666 -51.333 -51.999 -82c0 -9.33301 1.66699 -16.666 5 -21.999s3.5 -8 0.5 -8zM485.992 205.997c0 42.667 -30.001 63.999 -90.001 63.999c-28.667 0 -56 -7 -82 -21
c-1.33301 -17.333 -2.66602 -41.666 -3.99902 -72.999c-2 -68.667 -5.66699 -121 -11 -157c66.667 17.333 117 50.333 151 99c24 34 36 63.333 36 88zM130.991 542.996c-24 0 -43 -11.333 -57 -34c-10 -16 -15 -34.333 -15 -55c0 -28.667 13 -61 39 -97
c14.667 -19.333 30.667 -34 48 -44l93 50c-2.66699 38.667 -10 74 -22 106c-19.333 49.333 -48 74 -86 74zM262.991 7.99609c6.66699 34.667 16.334 111.999 29.001 231.999c-16.667 -8 -29.667 -15.667 -39 -23c-0.666992 -11.333 -2.33398 -28 -5.00098 -50
c-7.33301 -73.333 -15 -128 -23 -164c8 0.666992 20.667 2.33398 38 5.00098zM256.991 362.995c0.666992 -20.667 1.00098 -36.5 1.00098 -47.5v-25.5c8.66699 0.666992 21.667 3 39 7c5.33301 42.667 9.66602 74 12.999 94zM232.992 288.995h9.00098
c0 15.333 -0.666992 37 -2 65c-20.667 -10 -46.334 -26.667 -77.001 -50c22.667 -10 46 -15 70 -15zM332.993 414.995c10.667 6.66699 23.667 19 39 37s23 31.5 23 40.5s-2.66699 13.833 -8 14.5c-4.66699 0 -11.667 -4.66699 -21 -14c-12 -13.333 -23 -39.333 -33 -78z
M293.993 259.995l2 28.999c-12 -4 -24.667 -7 -38 -9l-3 -46c14 10.667 27 19.334 39 26.001z" />
    <glyph glyph-name="quotesingle" unicode="'" horiz-adv-x="145" 
d="M184 346c0 -12 -9.33301 -31 -28 -57s-38.667 -45 -60 -57c-10.667 -6 -17.5 -9 -20.5 -9s-4.5 1.5 -4.5 4.5s6.66699 12.167 20 27.5s27.333 36 42 62c-10.667 1.33301 -16 10.333 -16 27c0 8 3.5 15.5 10.5 22.5s13.5 10.5 19.5 10.5h10c18 0 27 -10.333 27 -31z" />
    <glyph glyph-name="parenleft" unicode="(" horiz-adv-x="353" 
d="M407 565c-82.667 -33.333 -158 -95.666 -226 -186.999s-102 -184 -102 -278s6.66699 -149.667 20 -167c2.66699 -3.33301 4 -7.33301 4 -12c0 -6.66699 -3 -10 -9 -10s-13 4 -21 12s-15.5 32.167 -22.5 72.5s-10.5 73.5 -10.5 99.5c0 109.333 30.667 205.666 92 288.999
c44.667 61.333 112.334 120 203.001 176c27.333 16.667 46.166 25 56.499 25s15.5 -6.66699 15.5 -20z" />
    <glyph glyph-name="parenright" unicode=")" horiz-adv-x="411" 
d="M373 397c0 -111.333 -30.666 -208 -91.999 -290c-44.667 -62 -112 -120.667 -202 -176c-26.667 -16.667 -45.334 -25 -56.001 -25s-16 6.33301 -16 19c82 34.667 156.833 97.5 224.5 188.5s101.5 183.667 101.5 278s-6.66699 149.5 -20 165.5
c-3.33301 5.33301 -5 10 -5 14c0 6.66699 3.66699 10 11 10c5.33301 0 12 -4.33301 20 -13s15.667 -32.667 23 -72s11 -72.333 11 -99z" />
    <glyph glyph-name="asterisk" unicode="*" horiz-adv-x="287" 
d="M161 235l36 -74.002c0 -4 -1.66699 -8.66699 -5 -14c-4 -4 -7.66699 -6 -11 -6c-5.33301 0 -13.333 12.333 -24 37l-20 45l-72 -79c-3.33301 -2 -6.33301 -3 -9 -3c-11.333 0 -17 4.33301 -17 13c0 3.33301 2 7 6 11l67 68l-88 -4c-4 0 -7.16699 1.83301 -9.5 5.5
s-3.5 7.83398 -3.5 12.501c0 8 4.66699 12 14 12h96c-26.667 60 -40 91.333 -40 94s3 4 9 4s12.667 -6.66699 20 -20s19 -36.666 35 -69.999l78 78c2.66699 2.66699 5.66699 4 9 4s5 -3 5 -9s-3.33301 -12.333 -10 -19l-56 -62h90c6.66699 0 10 -2 10 -6
c0 -9.33301 -7.33301 -14.333 -22 -15z" />
    <glyph glyph-name="plus" unicode="+" horiz-adv-x="305" 
d="M307 159c8 0 12 -3.33105 12 -9.99805c0 -5.33301 -3.33301 -8 -10 -8s-13.667 -0.333008 -21 -1c-34 -1.33301 -57.667 -2.33301 -71 -3c-3.33301 -15.333 -8.66602 -46 -15.999 -92c0 -2.66699 -2.66699 -5 -8 -7c-4.66699 -2.66699 -9.33398 -4 -14.001 -4
c-8 0 -11.333 3.66699 -10 11c0.666992 3.33301 3.66699 15.166 9 35.499l14 54.5c-24 -0.666992 -55.333 -2.66699 -94 -6c-4.66699 0 -7 5.33301 -7 16s5 16 15 16h39c32 -1.33301 50 -2 54 -2c2.66699 12.667 10.334 45 23.001 97c2 9.33301 6.66699 14 14 14
c5.33301 0 6.66602 -4.83301 3.99902 -14.5s-9 -41.834 -19 -96.501h86z" />
    <glyph glyph-name="comma" unicode="," horiz-adv-x="155" 
d="M128 21c0 -12.667 -9.49902 -31.834 -28.499 -57.501s-38.833 -44.5 -59.5 -56.5c-10.667 -6.66699 -17.5 -10 -20.5 -10s-4.5 0.666992 -4.5 2c0 4 4.33301 11 13 21c12.667 12.667 29.667 36.334 51 71.001c-12 2 -18 11.333 -18 28c0 8 3.66699 15.5 11 22.5
s17.666 10.5 30.999 10.5c16.667 0 25 -10.333 25 -31z" />
    <glyph glyph-name="hyphen" unicode="-" horiz-adv-x="253" 
d="M40 112c-12.667 0 -19 2.66797 -19 8.00098c0 3.33301 4.33301 8.33301 13 15c10 6 19.833 10.667 29.5 14s25 5 46 5s48.5 -2 82.5 -6s51 -8.66699 51 -14s-13.667 -8.33301 -41 -9s-53.5 -2.83398 -78.5 -6.50098s-44.5 -5.66699 -58.5 -6s-22.333 -0.5 -25 -0.5z" />
    <glyph glyph-name="period" unicode="." horiz-adv-x="160" 
d="M116 31c6 -6 9 -13.168 9 -21.501s-3 -15.333 -9 -21s-13.5 -8.5 -22.5 -8.5s-16.5 3 -22.5 9c-6.66699 4.66699 -10 11.334 -10 20.001s3.16699 16 9.5 22s14 9 23 9s16.5 -3 22.5 -9z" />
    <glyph glyph-name="slash" unicode="/" horiz-adv-x="365" 
d="M563 517c6.66699 -4.66699 9.99805 -9 9.99805 -13s-1.5 -6 -4.5 -6s-7.16699 1.5 -12.5 4.5s-11 4.5 -17 4.5c-28.667 0 -76 -36.667 -142 -110c-39.333 -43.333 -99.166 -116.5 -179.499 -219.5s-143.166 -169.5 -188.499 -199.5c-4.66699 -3.33301 -8.5 -5 -11.5 -5
s-4.5 1.5 -4.5 4.5s2 6.16699 6 9.5c64 58.667 120.667 124.667 170 198l42 61l39 59c40.667 59.333 81.667 109 123 149c52 48.667 96 73 132 73c12 0 24.667 -3.33301 38 -10z" />
    <glyph glyph-name="zero" unicode="0" horiz-adv-x="547" 
d="M48 10c-30 26 -45 60.001 -45 102.001c0 15.333 2 31 6 47c15.333 57.333 45.333 104.333 90 141c31.333 26.667 75.166 51.334 131.499 74.001s105.833 34 148.5 34c10 0 17.833 -0.166992 23.5 -0.5s8.5 -2.66602 8.5 -6.99902s-4 -7.16602 -12 -8.49902
c-47.333 -4 -93.666 -14.333 -138.999 -31c-89.333 -32.667 -154 -87.334 -194 -164.001c-19.333 -36 -29 -70 -29 -102s10 -57.333 30 -76s51.167 -28 93.5 -28s86.5 11 132.5 33s89.333 51.333 130 88c26.667 24.667 48.334 51.667 65.001 81s25 57 25 83
c0 48 -30.333 72 -91 72c-80.667 0 -154.667 -29.333 -222 -88c-1.33301 -2 -3.33301 -3 -6 -3c-8 0 -11 3.66699 -9 11c3.33301 12.667 24 29 62 49c54.667 30.667 107 46.667 157 48h13c41.333 0 73.333 -8.83301 96 -26.5s34 -40.834 34 -69.501
s-7.83301 -57.834 -23.5 -87.501s-36.834 -56.834 -63.501 -81.501c-41.333 -38 -89 -69 -143 -93s-104.833 -36 -152.5 -36s-86.5 13 -116.5 39z" />
    <glyph glyph-name="one" unicode="1" horiz-adv-x="244" 
d="M47 -7c-7.33301 0 -11.001 3.33203 -11.001 9.99902c0 1.33301 0.666992 4 2 8l86.5 181c16.333 35.333 34.5 79.333 54.5 132l-26 -19c-14 -10 -24.667 -18.167 -32 -24.5s-12.166 -9.5 -14.499 -9.5s-3.5 1.83301 -3.5 5.5s3.66699 8.66699 11 15s24.5 23 51.5 50
l71.5 70.5c2 0.666992 5.5 1 10.5 1s10.167 -2.33301 15.5 -7s8 -9.66699 8 -15v-3c-24 -31.333 -57.667 -85.666 -101 -162.999c-48.667 -90 -85 -165 -109 -225c-2 -4.66699 -6.66699 -7 -14 -7z" />
    <glyph glyph-name="two" unicode="2" horiz-adv-x="377" 
d="M285 -33c-0.666992 -0.666992 -2.5 -0.669922 -5.5 -0.00292969s-4.5 2.33398 -4.5 5.00098s2.33301 5.33398 7 8.00098c12.667 6.66699 19 13 19 19c0 9.33301 -12.167 18 -36.5 26s-50.833 11.833 -79.5 11.5s-81 -14.166 -157 -41.499
c-9.33301 -4 -17.833 -6 -25.5 -6s-11.5 4 -11.5 12s5.66699 17.333 17 28c12 10 24.333 15 37 15c43.333 14.667 97.333 43.5 162 86.5s112.667 84.167 144 123.5s47 71.333 47 96c0 26.667 -16.5 40 -49.5 40s-71 -14.5 -114 -43.5s-69.5 -60.167 -79.5 -93.5
c-2 -6 -5 -9 -9 -9c-2 0 -3 1.66699 -3 5c7.33301 45.333 30.333 83 69 113s82.334 45 131.001 45c24 0 43 -7 57 -21c13.333 -14.667 20 -33 20 -55c0 -32.667 -12 -62.167 -36 -88.5s-53 -50.166 -87 -71.499c-10 -6.66699 -24.333 -15.667 -43 -27
c-68.667 -40.667 -112.334 -70.334 -131.001 -89.001c124 0 186 -17.667 186 -53c0 -18 -8 -29.667 -24 -35z" />
    <glyph glyph-name="three" unicode="3" horiz-adv-x="377" 
d="M72 292c2 41.333 25.333 71.834 70 91.501s83.5 29.5 116.5 29.5s62.167 -3.66699 87.5 -11c50 -14 80 -37 90 -69c2 -6.66699 3 -13 3 -19c0 -22.667 -10.333 -43.5 -31 -62.5s-42.334 -33.667 -65.001 -44s-42.5 -17.5 -59.5 -21.5s-40.167 -8.66699 -69.5 -14
c46.667 -2 80.5 -11 101.5 -27s31.5 -35.333 31.5 -58s-11.667 -43.667 -35 -63c-40 -34.667 -101.333 -55.334 -184 -62.001c-6.66699 -0.666992 -18 -1 -34 -1s-34 4 -54 12c-27.333 11.333 -41 28 -41 50c0 11.333 4.5 22.333 13.5 33s22.5 17.334 40.5 20.001
c7.33301 0 11 -1.5 11 -4.5s-4 -4.5 -12 -4.5c-8 1.33301 -15.667 -2.5 -23 -11.5s-11 -16.333 -11 -22s0.333008 -9.83398 1 -12.501c8 -26 41 -39 99 -39c54 0 101.333 13.333 142 40c28 17.333 42 38.333 42 63c0 32 -27 54.667 -81 68c-26 6.66699 -45.667 10 -59 10
h-31.5c-7.66699 0 -11.5 3 -11.5 9c0 8 7.66699 11.667 23 11h39c20 0 51 5.16699 93 15.5s75 26.833 99 49.5c22 22.667 33 43 33 61c0 25.333 -13.5 45.5 -40.5 60.5s-59.333 22.5 -97 22.5s-77 -9.5 -118 -28.5s-62.167 -43.167 -63.5 -72.5c0 -6 -1.5 -10.333 -4.5 -13
s-5.66699 -2.5 -8 0.5s-3.16602 7.5 -2.49902 13.5z" />
    <glyph glyph-name="four" unicode="4" horiz-adv-x="368" 
d="M297 181c16 -4 24 -9.16699 24 -15.5s-3 -9.5 -9 -9.5v2c-0.666992 -1.33301 -1.66699 -2 -3 -2l-22 4c-16 2.66699 -25.667 4 -29 4s-6.33301 -0.333008 -9 -1h-12l-60 -122l-25 -53c0 -0.666992 -4.33301 -8.33398 -13 -23.001c-8 0 -12 5.33301 -12 16
s13 43.5 39 98.5s39 83.167 39 84.5c-0.666992 0.666992 -3.66699 1 -9 1c-60.667 0 -118 -8.66699 -172 -26c-10 0 -15 4.66699 -15 14c0 5.33301 8.66699 14 26 26l33 21l48 33l102 72c54.667 40.667 99 82 133 124c13.333 0 20 -12.667 20 -38v-15
c-8.66699 -7.33301 -30 -38.666 -64 -93.999c-36 -56 -54 -87 -54 -93c11.333 -4 26 -6.66699 44 -8zM159 195l35.001 -1l17 -1c3.33301 0 5.33301 -0.333008 6 -1c9.33301 0 39.333 53.333 90 160c-38.667 -32 -79.334 -63.667 -122.001 -95s-70 -52 -82 -62h56z" />
    <glyph glyph-name="five" unicode="5" horiz-adv-x="367" 
d="M401 361c-98.667 -4 -164.333 -12.667 -197 -26h-5l-6 -2c-4 0 -6 -0.666992 -6 -2c-12 -14 -27.333 -38 -46 -72c34 10.667 61.333 16 82 16c67.333 0 101 -28 101 -84c0 -47.333 -22.667 -95.5 -68 -144.5s-95 -73.5 -149 -73.5c-27.333 0 -51.833 8.66699 -73.5 26
s-32.5 40.666 -32.5 69.999c0 2.66699 3.33301 13.334 10 32.001c7.33301 16 12.666 24 15.999 24c6 0 9 -3.33301 9 -10c0 -0.666992 -1.83301 -6 -5.5 -16s-5.5 -18 -5.5 -24c0 -52 25.667 -78 77 -78c26.667 0 53.167 7.66699 79.5 23s50 39.666 71 72.999
s31.5 62.833 31.5 88.5s-5.33301 43.334 -16 53.001s-30 14.5 -58 14.5s-64.667 -22.667 -110 -68c-3.33301 -2 -7 -3 -11 -3c-12 0 -18 5 -18 15c0 1.33301 0.666992 4 2 8c2 2 3.33301 4.33301 4 7l32 45c19.333 29.333 32 53 38 71l-10 5c-3.33301 2 -5 6 -5 12l20 16
c10 8 16.667 12 20 12h15c6 -0.666992 13.667 -1 23 -1s30.833 2.16699 64.5 6.5s59.334 6.5 77.001 6.5s34.167 -1.66699 49.5 -5v-15z" />
    <glyph glyph-name="six" unicode="6" horiz-adv-x="328" 
d="M123 188c-2.66699 1.33301 -3.99902 4 -3.99902 8c0 10 12.167 21.833 36.5 35.5s42.166 20.5 53.499 20.5c28 0 50.667 -9.66699 68 -29s26 -42.666 26 -69.999c0 -42 -22 -83.667 -66 -125c-44 -40 -87.333 -60 -130 -60c-29.333 0 -51.5 12.333 -66.5 37
s-22.5 52.667 -22.5 84c0 58.667 31.333 125.5 94 200.5s122.334 123.5 179.001 145.5c2.66699 1.33301 5.83398 2 9.50098 2s5.5 -0.833008 5.5 -2.5s-0.333008 -4 -1 -7s-5.33398 -7.83301 -14.001 -14.5c-56.667 -38 -108 -84.833 -154 -140.5s-74 -112.834 -84 -171.501
c-1.33301 -10.667 -2 -23.5 -2 -38.5s5.16699 -31 15.5 -48s25.833 -25.5 46.5 -25.5c30.667 0 59.5 13.333 86.5 40s46.833 58 59.5 94c4.66699 13.333 7 28 7 44c0 40.667 -17 61 -51 61c-20 0 -45 -11 -75 -33c-8.66699 -4.66699 -14.334 -7 -17.001 -7z" />
    <glyph glyph-name="seven" unicode="7" horiz-adv-x="331" 
d="M272 408c11.333 0 24.167 -4.33301 38.5 -13s21.5 -19 21.5 -31s-19.667 -38.667 -59 -80l-59 -60c-62 -63.333 -101.667 -107.666 -119 -132.999c-28 -42.667 -42 -78.667 -42 -108v-6c-1.33301 -2.66699 -2.83301 -4 -4.5 -4s-4.5 1.83301 -8.5 5.5
s-7.33301 8.83398 -10 15.501c-4.66699 10 -7 20 -7 30s2.16699 18.5 6.5 25.5s7 11.5 8 13.5s5.16699 7.66699 12.5 17l17.5 22.5c4.33301 5.66699 26.166 30.834 65.499 75.501c104 119.333 156 185.666 156 198.999c0 6 -6 8.66699 -18 8
c-47.333 -3.33301 -91 -13 -131 -29s-66.667 -31 -80 -45c-4 -4.66699 -7.66699 -2.66699 -11 6c-1.33301 3.33301 -2 8.16602 -2 14.499s1.83301 12.166 5.5 17.499s7 8.83301 10 10.5s7 3.16699 12 4.5s8.16699 2.33301 9.5 3c74.667 27.333 137.334 41 188.001 41z" />
    <glyph glyph-name="eight" unicode="8" horiz-adv-x="344" 
d="M345 367c57.333 30.667 88.498 45.999 93.498 45.999s7.5 -1.83301 7.5 -5.5s-2.33301 -7.16699 -7 -10.5c-18 -12 -35.5 -22 -52.5 -30s-27.833 -13.333 -32.5 -16c6.66699 -14 11.334 -27.667 14.001 -41c0.666992 -12.667 -2 -19 -8 -19c-4 0 -8 1.66699 -12 5
s-11.667 16 -23 38c-8.66699 -2.66699 -35.5 -21.167 -80.5 -55.5s-69.167 -54.166 -72.5 -59.499c18.667 -36.667 28 -65.334 28 -86.001c0 -43.333 -16.333 -81.166 -49 -113.499s-68.667 -48.5 -108 -48.5c-22.667 0 -39.167 6.33301 -49.5 19s-15.5 27.667 -15.5 45
c0 31.333 25 70.333 75 117c21.333 18.667 47 40 77 64c-10.667 23.333 -16 46 -16 68c0 40.667 15 71 45 91c26 19.333 59.333 29 100 29s69.334 -12.333 86.001 -37zM315.998 348.999c-11.333 24 -34.001 35.999 -68.001 35.999c-23.333 0 -46.166 -7.66699 -68.499 -23
s-33.5 -36.666 -33.5 -63.999c0 -16 6 -36 18 -60c94 69.333 144.667 106.333 152 111zM8.99707 22.998c0 -22.667 12.5 -34 37.5 -34s51.333 13.167 79 39.5s41.5 56.5 41.5 90.5c0 4 -3.83301 16.333 -11.5 37s-13.167 33.667 -16.5 39c-54 -36 -90.667 -73.333 -110 -112
c-13.333 -26.667 -20 -46.667 -20 -60z" />
    <glyph glyph-name="nine" unicode="9" horiz-adv-x="340" 
d="M311 329c6.66699 20 10.002 35.6689 10.002 47.002c0 24.667 -16 37 -48 37c-40 0 -86.333 -24.667 -139 -74c-52 -50 -78 -95 -78 -135c0 -23.333 10.333 -35 31 -35c15.333 0 35.5 6.16699 60.5 18.5s43.667 23.166 56 32.499s28.166 24.666 47.499 45.999s30 33 32 35
c0.666992 2 3.16699 3 7.5 3s9.5 -3.16699 15.5 -9.5s9 -11 9 -14s-18 -32.5 -54 -88.5c-62.667 -98.667 -98.667 -171.667 -108 -219l-5 -20c-1.33301 -5.33301 -4.83301 -8 -10.5 -8s-8.5 4 -8.5 12c2 52 33.333 137 94 255c-58.667 -43.333 -108 -65 -148 -65
c-36 0 -54 21.667 -54 65c0 50 31.667 100 95 150c57.333 46.667 109.5 70 156.5 70s70.5 -18.333 70.5 -55c0 -12 -2.83301 -24 -8.5 -36s-10.834 -19 -15.501 -21l-4 3v-2l-2 3c-1.33301 0 -2 1.66699 -2 5z" />
    <glyph glyph-name="colon" unicode=":" horiz-adv-x="160" 
d="M192 148c0 -8.66699 -3.16699 -16 -9.5 -22s-13.666 -9 -21.999 -9s-16.166 3 -23.499 9c-6 6 -9 13.333 -9 22s3 16 9 22c7.33301 6 15.166 9 23.499 9s15.666 -3 21.999 -9s9.5 -13.333 9.5 -22zM76 48c6 6 13.5 9 22.5 9s16.667 -3 23 -9s9.5 -13.167 9.5 -21.5
s-3.16699 -15.5 -9.5 -21.5s-14 -9 -23 -9s-16.5 3 -22.5 9s-9 13.167 -9 21.5s3 15.5 9 21.5z" />
    <glyph glyph-name="semicolon" unicode=";" horiz-adv-x="155" 
d="M216 169c0 -8 -3 -15 -9 -21c-7.33301 -6 -15 -9 -23 -9s-15.667 3 -23 9c-6 6 -9 13 -9 21s3 15 9 21c7.33301 6 15 9 23 9s15.667 -3 23 -9c6 -6 9 -13 9 -21zM128 21c0 -12.667 -9.49902 -31.834 -28.499 -57.501s-38.833 -44.5 -59.5 -56.5
c-10.667 -6.66699 -17.5 -10 -20.5 -10s-4.5 0.666992 -4.5 2c0 4 4.33301 11 13 21c12.667 12.667 29.667 36.334 51 71.001c-12 2 -18 11.333 -18 28c0 8 3.66699 15.5 11 22.5s17.666 10.5 30.999 10.5c16.667 0 25 -10.333 25 -31z" />
    <glyph glyph-name="less" unicode="&#x3c;" horiz-adv-x="219" 
d="M222 198c-5.33301 -8 -22.332 -23 -50.999 -45l-57 -40l-1 -90l-3 -7l-5 -2c-0.666992 0 -2.33398 0.666992 -5.00098 2c-3.33301 8.66699 -8 26 -14 52s-9.66699 43 -11 51c90.667 57.333 138 86 142 86l4 -2z" />
    <glyph glyph-name="equal" unicode="=" horiz-adv-x="305" 
d="M273 215c0 -5.33301 -4 -7.99902 -12 -7.99902c-38 0 -65.833 -1 -83.5 -3l-35.5 -4c-6 -0.666992 -11 -1.33398 -15 -2.00098c-8 -1.33301 -13.667 -2 -17 -2h-1c-7.33301 0 -11 5.33301 -11 16s3.66699 16 11 16h98c44 0 66 -4.33301 66 -13zM273 148.001
c0 -4.66699 -4 -6.99902 -12 -6.99902c-32.667 0 -59.167 -1.16699 -79.5 -3.5l-39.5 -4.5c-6 -0.666992 -11 -1.33398 -15 -2.00098c-8 -1.33301 -13.667 -2 -17 -2h-1c-7.33301 0 -11 5.33301 -11 16s3.66699 16 11 16h98c44 0 66 -4.33301 66 -13z" />
    <glyph glyph-name="greater" unicode="&#x3e;" horiz-adv-x="219" 
d="M165 100l-136.001 -85l-5 -1c-2 0 -3.66699 0.333008 -5 1l-1 3c0 6 17.667 22 53 48l55 39l1 91l3 6l5 3l6 -3c4.66699 -10 9.33398 -27 14.001 -51z" />
    <glyph glyph-name="question" unicode="?" horiz-adv-x="400" 
d="M136 135l-3.00195 -14c-0.666992 -8 -5.16699 -12 -13.5 -12s-14.333 3.66699 -18 11s-5.5 13.666 -5.5 18.999c0 26 14.333 55.667 43 89c16 18.667 47 49 93 91c30 25.333 60.667 54.666 92 87.999c26.667 26.667 40 50.834 40 72.501s-10.667 32.5 -32 32.5
c-51.333 0 -105.666 -18.333 -162.999 -55c-43.333 -27.333 -73 -52.666 -89 -75.999c-3.33301 -4 -7.83301 -6 -13.5 -6s-8.5 2.66699 -8.5 8s2.33301 11.333 7 18c16.667 24.667 48.667 52 96 82c58.667 38.667 113.334 58 164.001 58c19.333 0 37.5 -6.16699 54.5 -18.5
s25.5 -28.833 25.5 -49.5c0 -30.667 -14.667 -62 -44 -94c-20 -22.667 -51.333 -50 -94 -82s-74.667 -57.667 -96 -77c-28.667 -24.667 -43 -49.667 -43 -75v-1c0 -6 2.66699 -9 8 -9zM111.998 31c6 -6 9 -13.168 9 -21.501s-3 -15.333 -9 -21s-13.5 -8.5 -22.5 -8.5
s-16.5 3 -22.5 9c-6.66699 4.66699 -10 11.334 -10 20.001s3.16699 16 9.5 22s14 9 23 9s16.5 -3 22.5 -9z" />
    <glyph glyph-name="at" unicode="@" horiz-adv-x="650" 
d="M192 33h-4.00098c-51.333 0 -93.333 14.5 -126 43.5s-49 66.5 -49 112.5c0 16.667 2 34 6 52c16 62.667 49 115 99 157c34 28 78.833 53.5 134.5 76.5s112.834 34.5 171.501 34.5c106.667 0 170.667 -23.333 192 -70c4 -8.66699 6 -20 6 -34s-6.66699 -31.667 -20 -53
v-10c0 -24.667 -8 -53 -24 -85c-18 -32 -40.333 -60.667 -67 -86c-44 -40 -94.333 -73 -151 -99c-61.333 -26 -117.333 -39 -168 -39zM438.999 435c-14.667 0 -22 2.49902 -22 7.49902s19.167 7.5 57.5 7.5s67.833 -8.16699 88.5 -24.5s33 -36.166 37 -59.499
c8 14 12 27 12 39c0 26.667 -19.5 47.5 -58.5 62.5s-81.833 22.5 -128.5 22.5c-50.667 0 -92.667 -6 -126 -18c-55.333 -20 -101 -45.333 -137 -76c-36.667 -32.667 -66.167 -70.167 -88.5 -112.5s-33.5 -81.833 -33.5 -118.5s11.667 -65.667 35 -87s59.666 -32 108.999 -32
s100 12.833 152 38.5s96 54.834 132 87.501c47.333 42.667 80.333 88 99 136c-51.333 -60 -107.666 -105.333 -168.999 -136c-22 -11.333 -38.167 -17 -48.5 -17s-17.833 0.666992 -22.5 2c-12 4 -21.167 14.5 -27.5 31.5s-9.66602 32.833 -9.99902 47.5
s-0.166016 22.334 0.500977 23.001l-15.5 -23c-5.66699 -8.66699 -10.667 -16 -15 -22l-13.5 -18c-4.66699 -6 -9.83398 -11.833 -15.501 -17.5s-11.167 -10.5 -16.5 -14.5c-10.667 -8.66699 -21 -12.334 -31 -11.001c-22 3.33301 -33 18.166 -33 44.499
s8.33301 55.5 25 87.5s39 61.167 67 87.5s56 39.5 84 39.5c13.333 0 26 -3.33301 38 -10s18 -17.167 18 -31.5s-6.33301 -22.5 -19 -24.5c4.66699 8 7 15.333 7 22s-3.16699 11.667 -9.5 15s-12.166 5 -17.499 5c-14 0 -30.833 -8.16699 -50.5 -24.5
s-39.167 -37.833 -58.5 -64.5s-33 -49.667 -41 -69s-12 -33.5 -12 -42.5s3 -13.5 9 -13.5c7.33301 0 17.666 6.16699 30.999 18.5s39.666 46.166 78.999 101.499c10 14 17.833 21 23.5 21s8.16699 -7.66699 7.5 -23s-1 -28.666 -1 -39.999c0 -52.667 10.667 -79 32 -79
c8 0 18 3 30 9c76 41.333 136 89.333 180 144c2.66699 10 4 21 4 33c0 52 -33 78 -99 78z" />
    <glyph glyph-name="A" unicode="A" horiz-adv-x="769" 
d="M666 566c24.667 0 37.0029 -15.666 37.0029 -46.999c0 -16.667 -4.16699 -61.5 -12.5 -134.5s-13.5 -130.5 -15.5 -172.5c33.333 2 54 5.66699 62 11s12.167 6 12.5 2s-5.33398 -9.5 -17.001 -16.5s-30.834 -12.5 -57.501 -16.5v-62c0 -64.667 11 -107.667 33 -129
c8 -8 14.833 -12 20.5 -12s12.334 1.16699 20.001 3.5s17.5 10 29.5 23s22.333 29.5 31 49.5c2.66699 6 5.16699 8.5 7.5 7.5s3.5 -2.5 3.5 -4.5s-0.333008 -4.33301 -1 -7c-8.66699 -24.667 -22.334 -45.334 -41.001 -62.001c-40.667 -37.333 -77 -41.666 -109 -12.999
c-16.667 14.667 -27.167 36 -31.5 64s-6.5 53.5 -6.5 76.5s0.333008 43.167 1 60.5c-10 -0.666992 -51.667 -1 -125 -1c-35.333 -38.667 -73.333 -75 -114 -109c4.66699 -0.666992 9.66699 -1 15 -1c48 0 90.667 24.667 128 74c2.66699 3.33301 4.66699 3 6 -1v-4
c-40 -52.667 -84.667 -79 -134 -79c-8.66699 0 -17 0.666992 -25 2c-104 -83.333 -192.667 -125 -266 -125c-39.333 0 -69.666 11 -90.999 33c-13.333 14.667 -20 32.667 -20 54c0 31.333 11.167 58 33.5 80s49 38.167 80 48.5s71.5 19.5 121.5 27.5
c-16.667 38 -25 75.667 -25 113c0 101.333 28.667 175.666 86 222.999c30.667 24.667 62 37 94 37c11.333 0 23 -1.66699 35 -5c42 -10.667 69.667 -38 83 -82c5.33301 -16.667 8 -34.667 8 -54c0 -64 -26.667 -135.667 -80 -215h45c13.333 13.333 39.666 47.5 78.999 102.5
s69 95.167 89 120.5c6.66699 43.333 10 71.333 10 84c0 23.333 -6 35 -18 35c-14 0 -32.667 -13.667 -56 -41c-12.667 -14.667 -20.334 -25 -23.001 -31s-6 -7.66699 -10 -5c-4 5.33301 2 18 18 38c33.333 40 63.333 60 90 60zM470.003 272.001
c25.333 52 38.001 95.332 38.001 129.999s-6.33301 63.334 -19 86.001c-21.333 38.667 -53.833 58 -97.5 58s-81.334 -22 -113.001 -66s-47.5 -104.333 -47.5 -181c0 -40 8 -77 24 -111c60.667 8.66699 118.667 13.334 174 14.001c16 23.333 29.667 46.666 41 69.999z
M19.0039 42c0 -18.667 9.33398 -34.667 28.001 -48c23.333 -17.333 54.333 -26 93 -26c70 0 143.667 35 221 105l-23 9c-68.667 -60 -135.334 -90 -200.001 -90c-19.333 0 -38.333 2.66699 -57 8c-3.33301 0.666992 -4.33301 2.33398 -3 5.00098s3 3.66699 5 3
c78 -20.667 159.667 6 245 80c-30.667 18 -55.667 43.667 -75 77c-64 -12.667 -112 -24 -144 -34c-60 -20.667 -90 -50.334 -90 -89.001zM525.005 208c9.33301 -0.666992 22.5 -1.00098 39.5 -1.00098s40.167 0.666992 69.5 2c2 52 8.33301 113 19 183
c-16.667 -29.333 -32.5 -54.166 -47.5 -74.499l-46 -63c-15.667 -21.667 -27.167 -37.167 -34.5 -46.5zM418.005 186.999c-49.333 -4.66699 -100 -11.332 -152 -19.999c20 -32.667 43.667 -56.334 71 -71.001c28.667 26 55.667 56.333 81 91zM455.005 189.001
c-7.33301 0 -15 -0.332031 -23 -0.999023c-26 -38 -54.333 -70.667 -85 -98c8.66699 -3.33301 16.334 -6 23.001 -8c14 13.333 32.667 32.166 56 56.499s39.666 40.833 48.999 49.5c-6 0.666992 -12.667 1 -20 1z" />
    <glyph glyph-name="B" unicode="B" horiz-adv-x="592" 
d="M169 283l-46.001 -3.99902c-46.667 0 -77.667 13.333 -93 40c-6 10 -9 22.5 -9 37.5s9.66699 33.833 29 56.5c43.333 51.333 115.666 84.333 216.999 99c23.333 42.667 45.333 69.334 66 80.001c0.666992 0.666992 1.5 1 2.5 1s1.83301 -1 2.5 -3s0 -3.66699 -2 -5
c-16.667 -9.33301 -36.334 -33.333 -59.001 -72c18.667 2.66699 35 4.33398 49 5.00098c20.667 30.667 39.334 49.667 56.001 57c9.33301 4.66699 20.5 7 33.5 7s27.5 -5.83301 43.5 -17.5s24 -20.167 24 -25.5c0 -3.33301 -1.33301 -5 -4 -5s-4.5 0.666992 -5.5 2
s-2.5 3.5 -4.5 6.5s-4.66699 5.83301 -8 8.5c-14 8.66699 -24.833 13 -32.5 13s-13.167 -0.333008 -16.5 -1c-10.667 -2.66699 -25.334 -17.334 -44.001 -44.001h7c68 -0.666992 125.167 -11.5 171.5 -32.5s69.5 -49.167 69.5 -84.5c0 -44 -27.833 -82.167 -83.5 -114.5
s-105.5 -50.833 -149.5 -55.5c41.333 0 77.333 -5.33301 108 -16c58.667 -20.667 88 -52.334 88 -95.001c0 -24 -11.667 -49.167 -35 -75.5s-57.166 -49.333 -101.499 -69s-84.833 -29.5 -121.5 -29.5c-14.667 0 -31 1.66699 -49 5s-33.333 15.666 -46 36.999
c-7.33301 12.667 -11 24.334 -11 35.001s1.66699 20.334 5 29.001c0.666992 2 -5.16602 -5 -17.499 -21s-24.833 -36.333 -37.5 -61c-2 -2 -5.66699 -2.16699 -11 -0.5s-10.5 5.66699 -15.5 12s-7.16699 12.166 -6.5 17.499c4.66699 36 14.667 80 30 132
c-8.66699 -0.666992 -21.667 -2.33398 -39 -5.00098c-19.333 -53.333 -37 -93 -53 -119c-40 -66 -85.333 -99 -136 -99c-28 0 -48.667 11.333 -62 34c-6.66699 11.333 -10 24.5 -10 39.5s8.66699 32.833 26 53.5s45.833 39.667 85.5 57s86.834 31 141.501 41
c14 36 32 85.667 54 149zM219.999 144.001c95.333 0 146.996 -31.333 154.996 -94c0.666992 -3.33301 -0.166016 -5 -2.49902 -5s-3.83301 1 -4.5 3c-9.33301 58 -59.333 87 -150 87h-12c-17.333 -59.333 -29 -104 -35 -134c4.66699 4.66699 12.334 15.667 23.001 33
c22.667 38 40.667 61.833 54 71.5s22 12.5 26 8.5c2 -1.33301 1.66699 -3 -1 -5c-28.667 -24.667 -43 -52.667 -43 -84c0 -21.333 9.33301 -37 28 -47c8.66699 -5.33301 21.834 -8 39.501 -8s41.834 4.66699 72.501 14c45.333 16 84.5 37.833 117.5 65.5
s49.5 53.5 49.5 77.5c0 13.333 -4.66699 26 -14 38c-28.667 36 -86.667 54 -174 54c-39.333 0 -80 -4.66699 -122 -14l-19 -61h12zM519.995 477.001c-39.333 20.667 -88.3311 31.3311 -146.998 31.998h-11c-28.667 -45.333 -58 -105 -88 -179
c58.667 18.667 111 44.667 157 78c8 6 12.167 6.33301 12.5 1s-2.83398 -10 -9.50098 -14c-64.667 -43.333 -121.334 -73 -170.001 -89c-14 -34 -24.333 -62 -31 -84c45.333 0 81.333 3.33301 108 10c76 16 134 39.333 174 70c42.667 32.667 64 64.834 64 96.501
s-19.667 57.834 -59 78.501zM-123.003 -28.002c0 -20 8.66797 -35 26.001 -45c10 -6 22.667 -9 38 -9s34.166 8.5 56.499 25.5s41.833 39 58.5 66s35 65.5 55 115.5c-142 -27.333 -219.333 -73 -232 -137c-1.33301 -6 -2 -11.333 -2 -16zM38.998 341.998
c0 -7.33301 2.33301 -14 7 -20c10 -14 31.333 -21 64 -21c26 0 48.333 2 67 6c28 76.667 55 139.334 81 188.001c-79.333 -18 -141 -49.333 -185 -94c-22.667 -22.667 -34 -42.334 -34 -59.001zM267.998 497.998c-26.667 -49.333 -53.668 -112.334 -81.001 -189.001
c17.333 2.66699 30.333 5.33398 39 8.00098c30.667 77.333 61.334 140.333 92.001 189c-13.333 -1.33301 -30 -4 -50 -8zM178.997 284.997c-30 -87.333 -47.334 -137.001 -52.001 -149.001c15.333 2.66699 28 4.33398 38 5.00098c17.333 58 34.333 108.333 51 151
c-9.33301 -2 -21.666 -4.33301 -36.999 -7z" />
    <glyph glyph-name="C" unicode="C" horiz-adv-x="553" 
d="M569 396c14 -3.33301 21.001 -8.66406 21.001 -15.9971c0 -4.66699 -3.66699 -5 -11 -1l-11 5c-4.66699 -39.333 -25 -78.666 -61 -117.999c-61.333 -66 -128.666 -99 -201.999 -99c-42 0 -73.333 11.667 -94 35c-12.667 14 -19 28.667 -19 44
c0 35.333 20.333 69.666 61 102.999c26 22 59 38.5 99 49.5s77.667 16.5 113 16.5c7.33301 0 15 -0.333008 23 -1c0 33.333 -18 55.333 -54 66c-12.667 3.33301 -26 5 -40 5c-35.333 0 -73.666 -11.667 -114.999 -35c-58 -32.667 -105.333 -82.334 -142 -149.001
c-28.667 -53.333 -46 -110.333 -52 -171c16.667 -44.667 43.667 -79 81 -103s79 -36 125 -36c18 0 41.333 2.66699 70 8c12 22 18 44.333 18 67c0 35.333 -11 59 -33 71c-1.33301 0.666992 -2 1.66699 -2 3c1.33301 4 3.33301 5.33301 6 4c27.333 -14.667 41 -41 41 -79
c0 -20.667 -5.33301 -41.334 -16 -62.001c68 20.667 118.667 57.667 152 111c15.333 25.333 25.333 38 30 38c2.66699 0 4 -2 4 -6c0 -7.33301 -7.5 -22 -22.5 -44s-38.667 -45.333 -71 -70s-68.5 -43.334 -108.5 -56.001c-33.333 -46.667 -77.333 -70 -132 -70
c-40.667 0 -76.334 16.667 -107.001 50c-22.667 24 -37.334 54.333 -44.001 91c-35.333 43.333 -53 95.5 -53 156.5s19.667 120.333 59 178s95.333 100.167 168 127.5c42.667 16 81 24 115 24s65.5 -4 94.5 -12s54.667 -23 77 -45s33.166 -48.667 32.499 -80z
M295.001 255.002c-15.333 0 -23.165 1.66602 -23.498 4.99902s2.66699 4.83301 9 4.5s10.5 -0.5 12.5 -0.5c34.667 0 68 7.5 100 22.5s54.667 33.5 68 55.5s21.666 40.667 24.999 56c-40 0 -80.833 -6.5 -122.5 -19.5s-72.834 -28.5 -93.501 -46.5
c-32 -28 -48 -55.667 -48 -83c0 -19.333 10.667 -37 32 -53c14 -9.33301 32 -14 54 -14s46.333 4 73 12c44 15.333 83.5 42.333 118.5 81s52.167 77 51.5 115c-18.667 4.66699 -37 7.33398 -55 8.00098c-3.33301 -18 -11 -35.333 -23 -52
c-20.667 -30.667 -47 -53.5 -79 -68.5s-65 -22.5 -99 -22.5zM314.002 480.001c28.667 10 55 14.999 79 14.999s45.667 -5 65 -15c28 -15.333 41.333 -37.666 40 -66.999c18 -0.666992 35 -3.66699 51 -9c-6.66699 43.333 -38 75.333 -94 96
c-21.333 8.66699 -46.5 13 -75.5 13s-60 -4.5 -93 -13.5s-66 -27.167 -99 -54.5s-60.5 -62.5 -82.5 -105.5s-33 -85.833 -33 -128.5c0 -16.667 1.66699 -33.667 5 -51c7.33301 53.333 24.333 104 51 152c46.667 84.667 108.667 140.667 186 168zM341.002 -29
c-26.667 -6 -53.333 -9 -80 -9c-68 0 -124.667 22.667 -170 68c10.667 -41.333 31 -72 61 -92c23.333 -15.333 48 -23 74 -23c44.667 0 83 18.667 115 56z" />
    <glyph glyph-name="D" unicode="D" horiz-adv-x="724" 
d="M455 568c17.333 0 33.999 -5.83301 49.999 -17.5s24 -19.667 24 -24s-1.5 -6.5 -4.5 -6.5s-5 0.666992 -6 2s-2.5 3.5 -4.5 6.5s-4.66699 5.5 -8 7.5c-12 9.33301 -22.167 14 -30.5 14s-14.5 -0.666992 -18.5 -2c-11.333 -2 -23.666 -12.333 -36.999 -31
c64 -5.33301 120.333 -18.666 169 -39.999c92 -40 144.333 -102.333 157 -187c0.666992 -8.66699 1 -17.334 1 -26.001c0 -30.667 -9 -64.834 -27 -102.501s-49 -75.5 -93 -113.5s-100.333 -63.333 -169 -76c-18 -35.333 -40 -64.833 -66 -88.5
s-48.833 -38.334 -68.5 -44.001s-35.834 -8.5 -48.501 -8.5c-41.333 0 -72.333 15 -93 45c-22.667 34.667 -34 78 -34 130c0 68 21.333 156.667 64 266c-30 -7.33301 -57.667 -11 -83 -11s-49 6.33301 -71 19c-26 14.667 -39 36.334 -39 65.001c0 20 7.66699 42.167 23 66.5
s40.666 45.166 75.999 62.499c49.333 24.667 116.333 39.667 201 45c11.333 24.667 17.833 42.834 19.5 54.501s3 17.5 4 17.5s2.16699 -1 3.5 -3s2 -6.66699 2 -14s-5.66699 -25.666 -17 -54.999c8.66699 0.666992 17.334 1 26.001 1s17.334 -0.333008 26.001 -1
c22.667 32.667 46.667 49 72 49zM439.999 377c44 -54 65.999 -125.333 65.999 -214c0 -42.667 -6.66699 -83.667 -20 -123l-11 -31c51.333 16 95.666 41 132.999 75s62.833 67.5 76.5 100.5s20.5 58.5 20.5 76.5c0 51.333 -16.333 97.666 -49 138.999
c-24 28.667 -57.167 52.5 -99.5 71.5s-90.166 30.5 -143.499 34.5c-14 -20.667 -27.333 -45 -40 -73c20.667 -10.667 40.334 -26 59.001 -46c29.333 18 50.5 33.833 63.5 47.5s19.5 18.334 19.5 14.001s-1.33301 -7.83301 -4 -10.5c-19.333 -20 -43 -40.333 -71 -61z
M456.998 4c21.333 46.667 32 94.0029 32 142.003c0 95.333 -20.333 169.666 -61 222.999c-34 -22.667 -69 -42 -105 -58c-21.333 -60 -40.333 -120.167 -57 -180.5s-26.334 -103.5 -29.001 -129.5c3.33301 3.33301 10 13.666 20 30.999l19 32.5
c2.66699 4.33301 8 11.333 16 21s14.333 16.167 19 19.5c12.667 10 21.334 13 26.001 9c2 -1.33301 1.66699 -3 -1 -5c-30.667 -26.667 -46 -49.334 -46 -68.001c0 -10 4.66699 -19 14 -27c16 -14 40 -21 72 -21c26 0 53 3.66699 81 11zM225.998 275.003
c-25.333 -69.333 -41.832 -124.668 -49.499 -166.001s-11.5 -74 -11.5 -98c0 -72 15.667 -119.667 47 -143c20.667 -14.667 43 -22 67 -22c28.667 0 57.834 11.333 87.501 34s54.5 52.334 74.5 89.001c-16.667 -2 -36.334 -3 -59.001 -3s-45.334 5 -68.001 15
s-34 25.667 -34 47c0 8 1.33301 16.333 4 25c-14 -13.333 -31.667 -40.666 -53 -81.999c-2 -2 -5.66699 -2.16699 -11 -0.5s-10.5 5.66699 -15.5 12s-7.16699 12.166 -6.5 17.499c6 70 31 167 75 291c-21.333 -8 -37 -13.333 -47 -16zM263.999 449.001
c-36 0 -65.334 -11.832 -88.001 -35.499s-34 -44.5 -34 -62.5c0 -4.66699 0.5 -8.83398 1.5 -12.501s0.166992 -5.83398 -2.5 -6.50098c-4.66699 -1.33301 -7 6.66699 -7 24s11.5 38.5 34.5 63.5s56.5 37.5 100.5 37.5c11.333 0 18.666 -0.333008 21.999 -1l23 50
c-75.333 -7.33301 -134 -23.333 -176 -48s-71.333 -51.667 -88 -81c-8.66699 -14.667 -13 -28.167 -13 -40.5s4 -23.166 12 -32.499c12.667 -15.333 35.334 -23 68.001 -23c32 0 67 5.66699 105 17c18.667 47.333 40.334 97.333 65.001 150c-3.33301 0.666992 -11 1 -23 1z
M296.998 447.002c-22.667 -46 -43.3311 -94.333 -61.998 -145c16 4 32 9 48 15c15.333 42 32.666 82 51.999 120c-10.667 4.66699 -23.334 8 -38.001 10zM420.001 379.002c-16.667 18.667 -34 33.001 -52 43.001c-11.333 -24.667 -23 -53.334 -35 -86.001
c32.667 14 61.667 28.333 87 43zM325.001 507.003c-1.33301 -4 -9.33301 -21.3311 -24 -51.998c12 -0.666992 24.667 -3.33398 38 -8.00098c13.333 25.333 25.333 45.666 36 60.999c-22 0 -38.667 -0.333008 -50 -1z" />
    <glyph glyph-name="E" unicode="E" horiz-adv-x="522" 
d="M422 12l0.996094 -17.998c0 -32.667 -6 -61.334 -18 -86.001c-24.667 -52 -63.667 -78 -117 -78c-46.667 0 -86.667 21.333 -120 64c-18.667 24 -32.667 53.333 -42 88c-60.667 31.333 -91 84.333 -91 159c0 36 8.33301 75 25 117
c-4 -0.666992 -9.16699 -1.83398 -15.5 -3.50098s-9.5 -0.166992 -9.5 4.5c0 10 5 18.333 15 25c2 0.666992 3.66699 1.33398 5 2.00098l20 4l6 12c38.667 73.333 96.334 133 173.001 179c59.333 35.333 116.333 53 171 53s92.334 -10 113.001 -30
c26.667 32.667 43.667 49 51 49c3.33301 0 5 -1.33301 5 -4s-1 -5 -3 -7c-15.333 -12 -30.333 -27.333 -45 -46c10.667 -14 16 -27 16 -39c0 -35.333 -14.333 -57 -43 -65c-4.66699 -1.33301 -8.66699 -2 -12 -2c-11.333 0 -18 6 -20 18c-2.66699 14 1.5 29.167 12.5 45.5
s19.833 27.833 26.5 34.5c-14 16 -46.667 24 -98 24s-101.666 -16 -150.999 -48c-61.333 -40 -112 -95 -152 -165c10.667 1.33301 25.334 2.66602 44.001 3.99902c52.667 92.667 130.667 154 234 184c2.66699 0.666992 4.5 -0.333008 5.5 -3
s0.166992 -4.33398 -2.5 -5.00098c-89.333 -24 -161.333 -82.333 -216 -175c23.333 1.33301 108 2 254 2c7.33301 0 11.166 -2.16699 11.499 -6.5s-5.5 -6.5 -17.5 -6.5c-92.667 0 -180 -5 -262 -15c-32 -64 -48 -128.667 -48 -194c0 -24.667 1.33301 -45.334 4 -62.001
c8 -8 22.333 -17.167 43 -27.5s47.334 -15.5 80.001 -15.5c51.333 0 101.333 15 150 45c-8 34 -25.333 66.667 -52 98c-40.667 -24 -75.667 -53.667 -105 -89c-4.66699 -5.33301 -7 -6.33301 -7 -3c0 5.33301 1.33301 9.33301 4 12c24 26.667 49 51 75 73
c14 10.667 21.667 16.334 23 17.001c-38.667 38.667 -79.667 58.334 -123 59.001c-2 0 -3.33301 0.666992 -4 2s-0.5 2.66602 0.5 3.99902s2.16699 2 3.5 2c46 -1.33301 90 -21.666 132 -60.999c44 27.333 83.5 41 118.5 41s52.5 -15.667 52.5 -47
c0 -38 -33.667 -78 -101 -120zM406.996 4.00195c-56 -30.667 -113.667 -45.999 -173 -45.999c-39.333 0 -70 5.66699 -92 17c13.333 -47.333 34.333 -82 63 -104s56 -33 82 -33c33.333 0 61.833 14.667 85.5 44s35.5 66.666 35.5 111.999c0 4.66699 -0.333008 8 -1 10z
M417.996 32.0029c30 21.333 51.833 42.333 65.5 63s20.5 35.667 20.5 45c0 18.667 -10.333 28 -31 28c-25.333 0 -62 -13.667 -110 -41c28 -30 46.333 -61.667 55 -95zM112.996 88.0029c0 64 14 126.334 42 187.001l-46 -7l-3 -7c-18 -36.667 -27 -73.334 -27 -110.001
c0 -44 12 -81 36 -111c-1.33301 20 -2 36 -2 48zM534.996 417.004c4 9.33301 6 19.001 6 29.001s-2.66699 20.667 -8 32c-18 -26.667 -27 -49.334 -27 -68.001c0 -6 3.33301 -9 10 -9s13 5.33301 19 16z" />
    <glyph glyph-name="F" unicode="F" horiz-adv-x="534" 
d="M280 336c-74 7.33301 -134.667 27.332 -182 59.999c-27.333 -38.667 -41 -72.667 -41 -102c0 -13.333 2.66699 -25.666 8 -36.999c11.333 -24.667 31.333 -37 60 -37c46.667 0 91 27.667 133 83c6.66699 8.66699 14 19.667 22 33zM310 561.999
c-24 7.33301 -50.166 11 -78.499 11s-58.833 -6.33301 -91.5 -19c-52.667 -20 -79 -46.667 -79 -80c0 -15.333 6.66699 -30.333 20 -45c55.333 66.667 131.666 111 228.999 133zM454.001 228.999c44 90.667 66.001 162.333 66.001 215c0 35.333 -11 63 -33 83
s-52.667 30 -92 30c-12 0 -24.667 -1 -38 -3c61.333 -33.333 92 -90 92 -170c0 -54.667 -9.66699 -106.667 -29 -156c7.33301 0.666992 18.666 1 33.999 1zM493.002 227.998c44 -3.33301 65.9951 -8.00684 65.9951 -14.0068c0 -1.33301 -1.5 -3.5 -4.5 -6.5
s-9.66699 -3 -20 0s-27.166 4.5 -50.499 4.5c-45.333 -83.333 -100.333 -159.666 -165 -228.999s-123.667 -112.333 -177 -129c-1.33301 -0.666992 -2.66602 -1 -3.99902 -1s-2.83301 1 -4.5 3s-2.33398 4.5 -2.00098 7.5s2.16602 5.16699 5.49902 6.5
c49.333 16 102.666 56.5 159.999 121.5s106.666 138.167 147.999 219.5c-14.667 -1.33301 -26 -2.66602 -34 -3.99902c-15.333 -35.333 -32.166 -64.5 -50.499 -87.5l-41.5 -51.5c-9.33301 -11.333 -22.166 -25 -38.499 -41l-36.5 -35
c-41.333 -38 -64.5 -59.167 -69.5 -63.5s-7.5 -4.16602 -7.5 0.500977c0 2 1 4 3 6s10.5 9.83301 25.5 23.5s26 24 33 31l32.5 33c14.667 15 26.834 28.333 36.501 40s20.5 25.5 32.5 41.5c24 32 44 65.333 60 100c-62 -12 -121.167 -31.5 -177.5 -58.5
s-95.833 -57.167 -118.5 -90.5c-2 -3.33301 -4 -1.16602 -6 6.50098s-3 14.334 -3 20.001s1 10.167 3 13.5c23.333 35.333 64.5 64.5 123.5 87.5s121.833 37.5 188.5 43.5c21.333 52 32 105.333 32 160c0 80 -31.333 135 -94 165
c-43.333 -9.33301 -86.166 -26.833 -128.499 -52.5s-76.833 -56.167 -103.5 -91.5c49.333 -33.333 109 -54.333 179 -63c20.667 35.333 38.334 76.666 53.001 123.999c1.33301 5.33301 3.83301 6.5 7.5 3.5s4.5 -7.16699 2.5 -12.5
c-13.333 -44.667 -28.333 -83.667 -45 -117c24 -1.33301 39.333 -2 46 -2s10.334 -0.666992 11.001 -2c2 -4 0.666992 -6 -4 -6c-24.667 0 -43.667 0.666992 -57 2c-8 -15.333 -17.667 -30.333 -29 -45c-44 -60.667 -93.333 -91 -148 -91c-37.333 0 -65 15.333 -83 46
c-10 16.667 -15 37 -15 61c0 34.667 16 72 48 112c-20 18.667 -30 36.834 -30 54.501s8 34.834 24 51.501c31.333 31.333 78 50.333 140 57c12 1.33301 28.833 2 50.5 2s46.834 -5.33301 75.501 -16c19.333 3.33301 40 5 62 5c70 0 119 -24.667 147 -74
c10.667 -19.333 16 -41.666 16 -66.999c0 -50 -21.333 -117.333 -64 -202z" />
    <glyph glyph-name="G" unicode="G" horiz-adv-x="572" 
d="M102 86c16.667 -48.667 50.4971 -73.002 101.497 -73.002s104.167 21 159.5 63c-18 40 -46 60 -84 60c-9.33301 0 -18.166 -0.833008 -26.499 -2.5s-17.166 -7.33398 -26.499 -17.001s-14 -17.5 -14 -23.5s-0.666992 -9.66699 -2 -11c-4 -2.66699 -6 -1 -6 5
c0 12 5.5 23.667 16.5 35s21.333 18 31 20s19.834 3 30.501 3c40.667 0 71.334 -20.333 92.001 -61c70.667 56.667 129.667 130.667 177 222c6.66699 10 12 13.333 16 10c6 0.666992 11.5 -0.166016 16.5 -2.49902s7.16699 -5.5 6.5 -9.5
c-10.667 -86 -32.334 -176 -65.001 -270c14.667 1.33301 26.167 2 34.5 2s12.833 -1.66699 13.5 -5s-1 -5.66602 -5 -6.99902l-7 -1c-13.333 0 -27 -1 -41 -3c-18.667 -53.333 -39.667 -102.666 -63 -147.999c-39.333 -74.667 -91.333 -130.667 -156 -168
c-33.333 -19.333 -61.333 -29 -84 -29c-10 0 -19 2 -27 6c-14 6.66699 -21 19.167 -21 37.5s10 44.166 30 77.499c-39.333 4.66699 -70.166 23.167 -92.499 55.5s-33.5 71.833 -33.5 118.5c0 10 0.333008 20.333 1 31l4 31c-20.667 26 -31 62.333 -31 109s13.333 93 40 139
c-40.667 26.667 -61 64.667 -61 114c0 20 5.16699 42 15.5 66s29.833 46.833 58.5 68.5s60.334 32.834 95.001 33.501c8 0 12.333 -2 13 -6c1.33301 -4 -1 -6.33301 -7 -7c-30 0 -58 -9.66699 -84 -29c-47.333 -35.333 -71 -76 -71 -122c0 -42.667 18 -75 54 -97
c32 48.667 73.833 93.334 125.5 134.001s106.167 71.667 163.5 93c36.667 14 71 21 103 21c61.333 0 101.333 -17.667 120 -53c4 -7.33301 6 -16.333 6 -27s-3.33301 -23.667 -10 -39c-12 -26 -35.167 -53.833 -69.5 -83.5s-78.333 -54.834 -132 -75.501
s-104.834 -31 -153.501 -31c-26.667 0 -53.334 2.33301 -80.001 7c-31.333 -52 -55 -105.667 -71 -161zM520.997 496.998c-64 0 -124.666 -20.835 -181.999 -62.502s-107.666 -95.834 -150.999 -162.501c16.667 -2.66699 37 -4 61 -4c92 0 178.667 28.667 260 86
c34 24 56.833 45.833 68.5 65.5s17.5 33.834 17.5 42.501c0 25.333 -13 45.333 -39 60c-16 8 -36.333 12 -61 12c-32.667 0 -71.167 -8.66699 -115.5 -26s-90.333 -46.666 -138 -87.999s-84.834 -86 -111.501 -134c14 -5.33301 29.333 -9.33301 46 -12
c44 68.667 95.667 124.334 155 167.001s122.666 64 189.999 64c2.66699 0 4 -1.33301 4 -4s-1.33301 -4 -4 -4zM366.998 64.9961c-67.333 -52 -128.666 -78.001 -183.999 -78.001c-40.667 0 -72.667 11.667 -96 35c-2.66699 -20.667 -4 -39.667 -4 -57
c0 -43.333 9.66699 -78.666 29 -105.999c23.333 -34 54 -52.333 92 -55c11.333 18 26.666 38.667 45.999 62c39.333 47.333 81.333 85.333 126 114c0.666992 8 1 19.5 1 34.5s-3.33301 31.833 -10 50.5zM226.998 -204.005c-20 -36 -29.999 -63.334 -29.999 -82.001
s9.83301 -28 29.5 -28s45.5 12 77.5 36c48 36.667 84.667 80.667 110 132s46.333 103.333 63 156c-30 -9.33301 -59.333 -23 -88 -41l-1 -5c-8.66699 -50 -28.334 -89.667 -59.001 -119s-64.667 -45.666 -102 -48.999zM378.999 73.9941
c8.66699 -21.333 12.999 -39.332 12.999 -53.999s-0.333008 -24.667 -1 -30c30 17.333 60.667 29.666 92 36.999c24.667 80 45.334 160 62.001 240c-46.667 -76.667 -102 -141 -166 -193zM371.998 -42.0049c-48.667 -34 -90 -76.333 -124 -127l-16 -26
c32 5.33301 61 21 87 47s43.667 60 53 102v4zM117.998 262.995c-17.333 -36.667 -26 -68.833 -26 -96.5s1.33301 -48.167 4 -61.5c16 50 37.667 98.333 65 145c-12 2 -26.333 6.33301 -43 13z" />
    <glyph glyph-name="H" unicode="H" horiz-adv-x="833" 
d="M660 32c-6.66699 14.667 -9.99707 35.8379 -9.99707 63.5049s2 59.5 6 95.5c-46.667 -3.33301 -100.334 -5 -161.001 -5c-31.333 -48 -73.5 -91.833 -126.5 -131.5s-106.167 -68.167 -159.5 -85.5c-28 -9.33301 -50 -14 -66 -14s-27.667 0.333008 -35 1
c-28.667 3.33301 -51.834 13.666 -69.501 30.999s-26.5 38.666 -26.5 63.999c0 28.667 9.5 53.167 28.5 73.5s42.833 35.5 71.5 45.5c54.667 18 156.334 29.667 305.001 35l21 42c-16 -2 -32 -3 -48 -3c-47.333 2 -88 17.333 -122 46c-51.333 44 -77 98 -77 162
c0 62 20.667 106.667 62 134c24 16 45.5 24 64.5 24s38.833 -3.66699 59.5 -11s40.334 -23.666 59.001 -48.999l6 -9c10 5.33301 20.833 8 32.5 8s23.834 -4.66699 36.501 -14c22.667 -16.667 36.667 -45 42 -85c2 -14 3 -33.333 3 -58s-5.66699 -56.667 -17 -96
c36.667 26 63.667 57.667 81 95c1.33301 3.33301 3.16602 4 5.49902 2s2.83301 -4 1.5 -6c-20 -42.667 -50.333 -77 -91 -103c-7.33301 -22.667 -17.666 -48.334 -30.999 -77.001c72.667 1.33301 124 2.66602 154 3.99902c11.333 62.667 35.666 133.667 72.999 213
c18 39.333 38.667 71.5 62 96.5s43.833 37.5 61.5 37.5s26.5 -2.66699 26.5 -8c0 -2.66699 -2.83301 -3.66699 -8.5 -3s-9.16699 1 -10.5 1c-23.333 0 -47.833 -21.833 -73.5 -65.5s-46.5 -91 -62.5 -142s-26.667 -93.5 -32 -127.5
c30.667 3.33301 50.167 7.66602 58.5 12.999s12.166 5.66602 11.499 0.999023c-0.666992 -13.333 -25 -24 -73 -32c-4 -29.333 -6 -55 -6 -77c0 -52.667 10.667 -85.667 32 -99c5.33301 -4 12.666 -6 21.999 -6s24.166 5.5 44.499 16.5s36.833 27.167 49.5 48.5
c8.66699 13.333 13 16 13 8c0 -20.667 -22 -44.667 -66 -72c-24.667 -16 -45.667 -24 -63 -24c-24.667 0 -44 14 -58 42zM441.003 256.004c19.333 47.333 29 92.832 29 136.499s-10 85.167 -30 124.5c-26.667 -31.333 -40 -91.666 -40 -180.999
c0 -4.66699 -1.33301 -7 -4 -7c-4 0.666992 -6.66699 3.66699 -8 9c-3.33301 22.667 -5 43.667 -5 63c0 61.333 15.667 105.333 47 132l-7 9c-29.333 38.667 -63.666 58 -102.999 58c-20 0 -42 -7.66699 -66 -23c-32.667 -22 -49 -61.333 -49 -118
c0 -64 24.667 -118 74 -162c31.333 -28 68.666 -43 111.999 -45c19.333 0 36 1.33301 50 4zM442.003 189.003c-7.33301 0 -15.333 -0.333008 -24 -1c-36.667 -58.667 -82.667 -105 -138 -139c-44.667 -27.333 -90 -41 -136 -41c-22.667 0 -34.667 1 -36 3
c-1.33301 4.66699 0 7 4 7c10.667 -1.33301 21.667 -2 33 -2c44 0 87 12.667 129 38c52.667 32.667 96.667 77.334 132 134.001c-50 -2 -104.167 -7.33301 -162.5 -16s-103.833 -18.334 -136.5 -29.001c-55.333 -18 -83 -45.667 -83 -83c0 -21.333 10 -38.833 30 -52.5
s39.333 -21.667 58 -24s33 -3.5 43 -3.5c107.333 0 210 69.333 308 208c-6.66699 0.666992 -13.667 1 -21 1zM451.003 527.003c22.667 -38.667 34 -80.501 34 -125.501s-10.333 -92.833 -31 -143.5c18.667 4.66699 32.667 9.33398 42 14.001c17.333 53.333 26 103 26 149
c0 49.333 -9 83 -27 101c-8 8 -15.667 12 -23 12s-14.333 -2.33301 -21 -7zM493.003 262.002c-18.667 -6.66699 -33 -11 -43 -13c-6 -14.667 -13.333 -29.334 -22 -44.001c10 0.666992 24.333 1 43 1c8.66699 18.667 16 37.334 22 56.001z" />
    <glyph glyph-name="I" unicode="I" horiz-adv-x="441" 
d="M265 502c-21.333 57.333 -57.001 86.002 -107.001 86.002c-34 0 -65.667 -18 -95 -54s-44 -84.333 -44 -145c0 -18 1.33301 -37.333 4 -58c10 -69.333 33.833 -118.666 71.5 -147.999s78.167 -44 121.5 -44c6 0 12.333 0.333008 19 1c31.333 90.667 47 172.667 47 246
c0 31.333 -3.33301 62.666 -10 93.999c-83.333 -8.66699 -139 -32.334 -167 -71.001c-10 -13.333 -15 -27 -15 -41s8.5 -29.5 25.5 -46.5s46.167 -29.167 87.5 -36.5c4.66699 -1.33301 5.33398 -3.5 2.00098 -6.5s-7.33301 -3.83301 -12 -2.5
c-44 13.333 -77.833 29.166 -101.5 47.499s-35.5 36.666 -35.5 54.999s7.5 36 22.5 53s39 31.833 72 44.5s71.167 21.334 114.5 26.001zM294.999 482.002c7.33301 -26 11.001 -55.667 11.001 -89c0 -72.667 -17.333 -156 -52 -250c13.333 2.66699 24.666 6 33.999 10
c18.667 56.667 34.167 117 46.5 181s18.833 113.333 19.5 148c-10.667 0.666992 -21 1 -31 1s-19.333 -0.333008 -28 -1zM197 23.002c6.66699 0 17.334 -0.667969 32.001 -2.00098c20 30.667 38.333 70.334 55 119.001c-8.66699 -2.66699 -20.334 -5.33398 -35.001 -8.00098
c-12.667 -35.333 -30 -71.666 -52 -108.999zM183 0.000976562h-1.00195c-7.33301 -12 -16.333 -24.333 -27 -37c18.667 0 38.334 12 59.001 36c-7.33301 0.666992 -17.666 1 -30.999 1zM260.998 18.001c45.333 -5.33301 81.499 -11.167 108.499 -17.5s44.333 -9.5 52 -9.5
s11.5 1.66699 11.5 5c0 5.33301 -9.66699 14 -29 26c-2.66699 2 -3 3.5 -1 4.5s4 1.16699 6 0.5c18 -7.33301 29.333 -17.333 34 -30c0.666992 -2.66699 1 -5 1 -7c0 -9.33301 -9 -14 -27 -14c-8.66699 0 -28.334 3 -59.001 9s-67.667 10.333 -111 13
c-28 -35.333 -53.667 -53 -77 -53c-8 0 -16.667 1.66699 -26 5c-46.667 -51.333 -90.667 -77 -132 -77c-16 0 -29.333 6 -40 18c-0.666992 1.33301 -1 2.66602 -1 3.99902s1 2.33301 3 3s3.33301 0.333984 4 -0.999023c8.66699 -11.333 20.5 -17 35.5 -17
s33.833 6.16699 56.5 18.5s44.334 30.833 65.001 55.5c-21.333 9.33301 -34.333 19.666 -39 30.999c-1.33301 5.33301 -0.333008 8 3 8s5.5 -0.666992 6.5 -2s2.5 -3.66602 4.5 -6.99902c6.66699 -10 17.667 -16.667 33 -20c10.667 12.667 19.334 24.667 26.001 36
c-94 -2 -141 -17.667 -141 -47c0 -6.66699 3.33301 -14.167 10 -22.5s13 -14.333 19 -18s6 -5.83398 0 -6.50098s-11 0.333008 -15 3c-27.333 18.667 -41 35.667 -41 51c0 42.667 57.333 64 172 64c4.66699 0 8 -0.333008 10 -1c18 30.667 34.333 66.334 49 107.001
c-5.33301 -0.666992 -10.666 -1 -15.999 -1c-47.333 0 -91.666 16.667 -132.999 50c-53.333 42 -80 111.333 -80 208c0 68.667 19.333 123 58 163c30 30.667 63.333 46 100 46c59.333 0 101.666 -30.667 126.999 -92h38c18.667 0 32 0.333008 40 1l16 15
c5.33301 4 9.66602 6 12.999 6c6.66699 0 10.334 -6.66699 11.001 -20c2.66699 0 6.66699 -0.333008 12 -1c64.667 -2.66699 97 -9.66699 97 -21c0 -4 -3.66699 -5.33301 -11 -4s-14 2 -20 2l-82 1c-16.667 -114 -40 -216.333 -70 -307c34 24 54.333 54 61 90
c0.666992 3.33301 2.16699 4 4.5 2s3.16602 -4 2.49902 -6c-10.667 -43.333 -35 -77 -73 -101c-20.667 -59.333 -42.667 -107 -66 -143z" />
    <glyph glyph-name="J" unicode="J" horiz-adv-x="421" 
d="M461 506c72 -3.33301 107.997 -10.6689 107.997 -22.002c0 -4 -3.66699 -5.33301 -11 -4s-14 2 -20 2l-81 1c-12 -96.667 -38.333 -201.667 -79 -315l44 3c14 1.33301 21.667 0.666016 23 -2.00098c2.66699 -5.33301 -3 -8.33301 -17 -9
c-18 -1.33301 -36 -3.33301 -54 -6c-73.333 -203.333 -154.666 -332.666 -243.999 -387.999c-61.333 -38.667 -117 -58 -167 -58c-40 0 -68.333 15 -85 45c-9.33301 15.333 -14 29.333 -14 42s0.333008 21.667 1 27c2.66699 26 13.5 55.333 32.5 88s45.5 64 79.5 94
c80 72 181.333 121.333 304 148c8.66699 38.667 13 74.667 13 108c0 62.667 -15.333 114.334 -46 155.001c-10 12 -19 21.667 -27 29c-56.667 -26 -85 -60.333 -85 -103c0 -10.667 2.33301 -20.667 7 -30c10 -21.333 26.833 -40 50.5 -56s49.834 -25 78.501 -27
c5.33301 -0.666992 6.16602 -3 2.49902 -7s-8.16699 -5.66699 -13.5 -5c-45.333 8.66699 -81.666 22.667 -108.999 42c-33.333 24 -50 51 -50 81c0 18 7 37.833 21 59.5s39.333 41.834 76 60.501c-17.333 9.33301 -35.833 14 -55.5 14s-41.167 -7.83301 -64.5 -23.5
s-39.666 -39.5 -48.999 -71.5c-6 -20 -9 -37.667 -9 -53c0 -49.333 15 -90.333 45 -123c22 -23.333 49.333 -35.666 82 -36.999c10 -0.666992 14.667 -2 14 -4s-5.66699 -2.66699 -15 -2c-47.333 2 -84 22.333 -110 61c-20 29.333 -30 61.666 -30 96.999
c0 62 23.667 109 71 141c25.333 16.667 49.166 25 71.499 25s43.5 -5.66699 63.5 -17c14 6 33.167 12.667 57.5 20s67.833 13 130.5 17l20 2c4.66699 4 8.33398 7.33301 11.001 10c8 6.66699 14.667 10 20 10s8 -3.33301 8 -10v-7c0 -1.33301 0.333008 -2 1 -2z
M-54.0029 -243.003c-17.333 0 -26.501 1.00195 -27.501 3.00195s-1 3.66699 0 5s4 1.66602 9 0.999023s11.5 -1 19.5 -1c40.667 0 83.667 16.167 129 48.5s86 77.5 122 135.5s62.333 120 79 186c-129.333 -33.333 -228.666 -88 -297.999 -164c-30 -32 -53 -63 -69 -93
c-17.333 -31.333 -26 -57.333 -26 -78s5.33301 -37.334 16 -50.001c13.333 -16 31 -24 53 -24c49.333 0 104 20.667 164 62c77.333 54 148.666 173.667 213.999 359c-11.333 -1.33301 -25 -4 -41 -8c-17.333 -68 -44.666 -132 -81.999 -192s-79.833 -106.667 -127.5 -140
s-92.5 -50 -134.5 -50zM307.996 265.999c0 -34 -4.66602 -71.002 -13.999 -111.002l42 7c41.333 126 66 232.333 74 319c-62.667 -4.66699 -102.5 -9.16699 -119.5 -13.5s-35.167 -10.166 -54.5 -17.499c11.333 -11.333 19.666 -20.666 24.999 -27.999
c31.333 -41.333 47 -93.333 47 -156z" />
    <glyph glyph-name="K" unicode="K" horiz-adv-x="655" 
d="M287 554c0 2 1.33594 3.00684 4.00293 3.00684s4 -3.66699 4 -11s-1 -21 -3 -41h44l16 15c5.33301 4 9.66602 6 12.999 6c6.66699 0 10.334 -6.66699 11.001 -20c12 -0.666992 17.667 -4.33398 17 -11.001c0 -8 -7.33301 -12 -22 -12
c-8 -54.667 -17.333 -105.334 -28 -152.001c22 -1.33301 40 -3.66602 54 -6.99902c30 60 60 107.667 90 143s68.333 58.666 115 69.999l15 3c6 0.666992 12 1 18 1c27.333 0 52.666 -10.167 75.999 -30.5s37 -48.166 41 -83.499c0 -10 -0.333008 -15 -1 -15
c-2.66699 0 -4 4 -4 12c-4 32.667 -17.833 56 -41.5 70s-48.167 21 -73.5 21c-46.667 0 -87.5 -18.667 -122.5 -56s-68.167 -83.333 -99.5 -138c45.333 -12.667 78.666 -33 99.999 -61c15.333 -20.667 23 -41.667 23 -63c0 -8.66699 -1.33301 -17.334 -4 -26.001
c-10.667 -34.667 -36 -61.667 -76 -81c35.333 -45.333 63.666 -75.333 84.999 -90c24.667 -16 44.667 -24 60 -24c25.333 0 38 15.667 38 47s-9.33301 60.666 -28 87.999c-1.33301 1.33301 -2 2.66602 -2 3.99902s0.666992 2 2 2s3.66602 -1.66699 6.99902 -5
c22 -25.333 33 -50.833 33 -76.5s-6.5 -45.834 -19.5 -60.501s-30.167 -22 -51.5 -22c-30.667 0 -63 15 -97 45c-24.667 20.667 -47 47 -67 79c-10 -2 -19.667 -3 -29 -3c-26 0 -49.667 7 -71 21c-2 1.33301 -2.33301 3.16602 -1 5.49902s3.33301 2.83301 6 1.5
c20.667 -13.333 42 -20 64 -20c8.66699 0 17.334 1 26.001 3c-12 20 -28 49.5 -48 88.5l-38 73.5c-44.667 -164.667 -96.667 -263 -156 -295c-9.33301 -4.66699 -20.5 -7 -33.5 -7s-27.5 5.83301 -43.5 17.5s-24 20.167 -24 25.5c0 3.33301 1.33301 5 4 5
s4.5 -0.666992 5.5 -2s2.5 -3.5 4.5 -6.5s4.66699 -5.5 8 -7.5c12 -8.66699 22.167 -13 30.5 -13s14.5 0.333008 18.5 1c34 8 65.667 47.167 95 117.5s53 150.5 71 240.5c-18 -1.33301 -31.333 -3 -40 -5c-18 -79.333 -39.5 -148 -64.5 -206s-58.5 -93 -100.5 -105
c-33.333 -9.33301 -59.666 -1 -78.999 25c-12.667 16 -19 34.333 -19 55c0 34 11.667 68.167 35 102.5s59.666 65.166 108.999 92.499c-78.667 26.667 -118 60.667 -118 102c0 31.333 24.5 58.833 73.5 82.5s110.833 36.5 185.5 38.5c2 20 3 36.333 3 49zM18.0029 98.0068
c0 -14 2.66797 -27.335 8.00098 -40.002c12 -25.333 31 -38 57 -38c44 0 80.333 33 109 99c24.667 58 45 123.667 61 197c-28 -5.33301 -56 -15.333 -84 -30l4 -1c5.33301 -1.33301 5.66602 -3.33301 0.999023 -6c-4 -3.33301 -10.333 -3.66602 -19 -0.999023
c-46.667 -26 -81.167 -55.667 -103.5 -89s-33.5 -63.666 -33.5 -90.999zM82.0039 418.005c-14.667 -15.333 -21.999 -30 -21.999 -44s4.66699 -27 14 -39c15.333 -21.333 42.333 -36.666 81 -45.999c33.333 16.667 66.666 28.667 99.999 36c11.333 50 20 102.667 26 158
c-96 -2.66699 -162.333 -24.334 -199 -65.001zM355.005 222.005l92.001 -124c35.333 18.667 57.666 43.667 66.999 75c2.66699 8 4 19 4 33s-6.66699 30.667 -20 50c-19.333 26.667 -50.333 46 -93 58zM303.006 331.005c13.333 64.667 19.999 115 19.999 151
c-7.33301 0.666992 -18.666 1 -33.999 1c-6 -53.333 -14.333 -105.333 -25 -156c16 2.66699 29 4 39 4zM341.005 324.005c-2.66699 -13.333 -7.33203 -33.333 -13.999 -60l23 -36l44 89c-20.667 4 -38.334 6.33301 -53.001 7z" />
    <glyph glyph-name="L" unicode="L" horiz-adv-x="433" 
d="M1 55c-5.33301 12.667 -8.00098 25.667 -8.00098 39s6.5 27.5 19.5 42.5s33.667 22.5 62 22.5s73.5 -15.333 135.5 -46c7.33301 14.667 15 34 23 58h-14c-48.667 0 -84.334 12.667 -107.001 38c-13.333 15.333 -20 32.166 -20 50.499s4.33301 36.833 13 55.5
c-24 34 -36 71.667 -36 113c0 72.667 26 122 78 148c12.667 6.66699 27.167 10 43.5 10s33.833 -9.33301 52.5 -28c30 -30 45 -81.667 45 -155c0 -45.333 -7.33301 -97.666 -22 -156.999c10 0 21.667 1.66699 35 5c20.667 108.667 44.334 186.667 71.001 234
c36.667 66.667 72.334 100 107.001 100c30 0 50.667 -21 62 -63c4.66699 -17.333 7 -35.333 7 -54c0 -36 -9.16699 -73 -27.5 -111s-45.833 -72.833 -82.5 -104.5s-79.667 -54.834 -129 -69.501c-11.333 -37.333 -24.666 -71.666 -39.999 -102.999
c39.333 -24 85.666 -47 138.999 -69c126 -51.333 198.667 -50.666 218 2.00098c2.66699 6 5.33398 8.66699 8.00098 8c1.33301 -0.666992 2 -1.83398 2 -3.50098s-0.333008 -3.5 -1 -5.5c-9.33301 -26 -27.333 -44 -54 -54c-20 -8 -37 -12 -51 -12
c-41.333 0 -84.333 10.5 -129 31.5s-79.667 40.167 -105 57.5l-37 26c-34 -52 -76.333 -78 -127 -78c-9.33301 0 -19.333 1 -30 3c-50.667 8.66699 -84.334 31.667 -101.001 69zM271.999 403c0 86.667 -19.333 141.336 -58 164.003c-11.333 6.66699 -23.833 10 -37.5 10
s-28.834 -7 -45.501 -21c-30 -26.667 -45 -64 -45 -112c0 -37.333 9.33301 -75 28 -113c10.667 18 25 33 43 45c4.66699 3.33301 7.5 4.16602 8.5 2.49902s0.833008 -2.83398 -0.5 -3.50098c-21.333 -17.333 -35.666 -37.333 -42.999 -60
c13.333 -20.667 32 -37.167 56 -49.5s49 -18.833 75 -19.5c12.667 59.333 19 111.666 19 156.999zM494.999 367.002c20.667 45.333 30.999 89 30.999 131s-10 63 -30 63c-36 0 -80.333 -71.333 -133 -214c-9.33301 -24.667 -18.666 -52.334 -27.999 -83.001
c38.667 20 69.334 53 92.001 99c1.33301 3.33301 3.16602 4 5.49902 2s2.83301 -3.66699 1.5 -5c-25.333 -51.333 -59.333 -87 -102 -107l-17 -50c82 22.667 142 77.334 180 164.001zM108.998 18.002l-3.99902 0.00195312c-4 0 -5.33301 1.66699 -4 5c0 2 0.833008 3 2.5 3
h4.5c35.333 0 65.666 22.333 90.999 67c-36 16 -60.167 25.167 -72.5 27.5s-22.833 3.5 -31.5 3.5c-24 0 -41.833 -6.33301 -53.5 -19s-17.5 -24.334 -17.5 -35.001s2.66699 -21.334 8 -32.001c16 -28 46.333 -42 91 -42c31.333 0 56.333 7.33301 75 22
c20.667 16 34 30.667 40 44l5 9l-35 18c-28.667 -47.333 -61.667 -71 -99 -71zM117.999 286.004c0 -26.667 11.833 -49.333 35.5 -68s51.834 -28 84.501 -28c3.33301 10.667 7.66602 26.667 12.999 48c-54.667 2 -98.667 21.667 -132 59c-0.666992 -4 -1 -7.66699 -1 -11z
M244.999 172.005c-9.33301 -26 -18.002 -47.333 -26.002 -64l34 -18c6.66699 13.333 17.334 43 32.001 89c-9.33301 -2 -22.666 -4.33301 -39.999 -7zM298.997 242.005c-10.667 -2.66699 -22.334 -4 -35.001 -4c-5.33301 -21.333 -9.66602 -37.333 -12.999 -48
c12 1.33301 25 3.33301 39 6z" />
    <glyph glyph-name="M" unicode="M" horiz-adv-x="833" 
d="M64 440c16 40 43.4951 71.6709 82.4951 95.0039s76.833 35 113.5 35s68.334 -8 95.001 -24c4.66699 0.666992 11.667 1 21 1c68 0 118 -20.333 150 -61c8.66699 6 16.334 9.66699 23.001 11s10.334 0.666016 11.001 -2.00098
c-1.33301 -4.66699 -4.66602 -7.66699 -9.99902 -9s-11.333 -4.33301 -18 -9c23.333 -34.667 35 -80.834 35 -138.501s-14.333 -128.834 -43 -213.501c7.33301 -1.33301 17.666 -4 30.999 -8l13 23c64 105.333 112.667 180.333 146 225c85.333 112 159 168 221 168
c16 0 28.833 -6.16699 38.5 -18.5s14.5 -26.166 14.5 -41.499c0 -10.667 -1.16699 -16.334 -3.5 -17.001s-3.83301 0.666016 -4.5 3.99902l-1 3c0 29.333 -15.333 44 -46 44c-11.333 0 -27.166 -4.5 -47.499 -13.5s-45.666 -28 -75.999 -57s-59.5 -62.5 -87.5 -100.5
c-46.667 -62.667 -83.167 -114.834 -109.5 -156.501l-43.5 -68.5c57.333 -23.333 86 -56.333 86 -99c0 -12.667 -2.33301 -26 -7 -40c-0.666992 -1.33301 -1.83398 -2.16602 -3.50098 -2.49902s-3 0.166992 -4 1.5s-0.166992 5.66602 2.5 12.999s4 17.666 4 30.999
s-4 26.333 -12 39c-14 22 -37.333 39 -70 51c-54 -80.667 -88.333 -121 -103 -121c-4 0 -5.33301 2 -4 6c16.667 42.667 30.667 86.334 42 131.001c-6.66699 1.33301 -16.667 2.66602 -30 3.99902c-16 -56 -40.333 -102.833 -73 -140.5s-64.834 -63.667 -96.501 -78
s-59.5 -21.5 -83.5 -21.5c-48 0 -78 15.667 -90 47c-4.66699 -0.666992 -12 -1 -22 -1s-20.667 0.833008 -32 2.5s-22.666 6.33398 -33.999 14.001s-17 17.167 -17 28.5s4 18 12 20c4 0.666992 6.16699 0 6.5 -2s-0.166992 -3.66699 -1.5 -5c-6 -8 -5 -16 3 -24
c15.333 -14 36.666 -21 63.999 -21c6 0 11.667 0.333008 17 1c-0.666992 4 -1 8 -1 12c0 25.333 13 53 39 83c33.333 38.667 86.333 66.667 159 84c10.667 20 25.334 52.667 44.001 98c33.333 78.667 64 140.334 92 185.001c-18 56 -48 97.333 -90 124
c-4.66699 0.666992 -11.667 1 -21 1c-46 0 -93 -18 -141 -54c-64.667 -48 -105 -108 -121 -180c20 -39.333 49.667 -59 89 -59h3c26.667 0 52 8.33301 76 25s37.333 36.334 40 59.001c0 1.33301 0.666992 2.33301 2 3s2.66602 0.5 3.99902 -0.5s2 -2.16699 2 -3.5
c-2.66699 -24.667 -17 -46 -43 -64s-53 -27 -81 -27h-3c-37.333 0 -67.666 15.333 -90.999 46c-0.666992 -6 -1 -12 -1 -18c0 -27.333 7 -51.666 21 -72.999s37.833 -32 71.5 -32s62 8.16699 85 24.5s38.167 29.666 45.5 39.999s11.333 14 12 11s0 -6.5 -2 -10.5
c-7.33301 -18 -26.666 -37.167 -57.999 -57.5s-61.5 -30.5 -90.5 -30.5s-52.5 5.66699 -70.5 17c-31.333 21.333 -47 56.333 -47 105c0 23.333 3.66699 46.666 11 69.999c-4.66699 16 -7 33.5 -7 52.5s4.33301 40.5 13 64.5zM142.995 -65.9961
c10.667 -28 35.668 -41.999 75.001 -41.999c21.333 0 44.666 5.66699 69.999 17c42 19.333 77.333 48.166 106 86.499s49.667 81.5 63 129.5c-8 0.666992 -19.5 1 -34.5 1s-34.167 -2 -57.5 -6c-58.667 -111.333 -132.667 -173.333 -222 -186zM878.996 434.005
c3.33301 0 5 -1.99805 5 -5.99805s-2 -6 -6 -6h-2c-19.333 0 -38 -16.667 -56 -50c-29.333 -54.667 -52 -138 -68 -250c-4.66699 -34.667 -7 -57.334 -7 -68.001c0 -58.667 15 -88 45 -88c8.66699 0 19.667 4.33301 33 13s27.333 24.667 42 48
c3.33301 5.33301 6.33301 7.16602 9 5.49902s2.66699 -5.16699 0 -10.5c-15.333 -30 -36.666 -51.333 -63.999 -64c-12.667 -6.66699 -25.167 -10 -37.5 -10s-24.5 4 -36.5 12c-22 14 -33.333 41.667 -34 83c0 58.667 14 134.667 42 228c13.333 46 31.666 84.667 54.999 116
s48.333 47 75 47h5zM338.996 545.007c-27.333 11.333 -56.3311 16.999 -86.998 16.999s-62.834 -10.167 -96.501 -30.5s-56.834 -45.333 -69.501 -75s-19 -57.834 -19 -84.501c0 -7.33301 0.333008 -14.666 1 -21.999l9 18c26.667 46 64 85.333 112 118
s98 52.334 150 59.001zM459.998 134.006c10 40 15 81.333 15 124s-3.33301 80 -10 112c-10 -22.667 -24 -58.5 -42 -107.5s-31 -82.5 -39 -100.5l-13 -30c16 2 31.667 3 47 3s29.333 -0.333008 42 -1zM137.998 -43.9941c0 -3.33301 0.333008 -6.33301 1 -9
c64.667 12.667 122.667 67 174 163c-62.667 -15.333 -107.5 -38.833 -134.5 -70.5s-40.5 -59.5 -40.5 -83.5zM476.998 395.006c10 -34 15 -72.333 15 -115s-6.66699 -91.667 -20 -147l30 -3c16 66.667 24 126 24 178s-8.33301 96 -25 132c-8 -13.333 -16 -28.333 -24 -45z
M466.998 424.006c4.66699 7.33301 13.001 18.333 25.001 33c-23.333 39.333 -59 63.333 -107 72c37.333 -25.333 64.666 -60.333 81.999 -105zM550.999 110.006l-28.999 7.99902c-14.667 -44 -31.334 -84.333 -50.001 -121c14 6.66699 40.333 44.334 79 113.001z" />
    <glyph glyph-name="N" unicode="N" horiz-adv-x="686" 
d="M283 39c-30 16 -45.002 38.499 -45.002 67.499s12.667 56.833 38 83.5c39.333 38.667 86 63.667 140 75c18 45.333 29 88.666 33 129.999c-25.333 78.667 -68.666 123.667 -129.999 135c-12.667 -16.667 -19 -39.167 -19 -67.5s9 -54.833 27 -79.5
c0.666992 -1.33301 0.666992 -2.66602 0 -3.99902s-1.66699 -2 -3 -2s-2.66602 0.666992 -3.99902 2c-18.667 25.333 -28 52.666 -28 81.999s6 52.666 18 69.999c-5.33301 0.666992 -11 1 -17 1c-35.333 0 -72 -14 -110 -42s-67 -67.333 -87 -118
c-12.667 -32 -19 -64 -19 -96c0 -50.667 18.667 -76 56 -76c21.333 0 41.666 9.83301 60.999 29.5s33 36.5 41 50.5c3.33301 4.66699 5.66602 5.66699 6.99902 3v-8c-6.66699 -16 -22.667 -35.667 -48 -59c-26 -24 -51.333 -36 -76 -36s-42.334 10.333 -53.001 31
s-16 43 -16 67c0 38 8.66699 74 26 108c25.333 49.333 61 88.833 107 118.5s91.333 44.5 136 44.5h6c14.667 16.667 34.667 25 60 25c33.333 0 61 -14.667 83 -44c26 -35.333 44.333 -72.333 55 -111c16 -57.333 28.333 -112.666 37 -165.999
c13.333 -5.33301 28 -13.666 44 -24.999c24 111.333 44.333 184.333 61 219c24.667 48.667 50.334 80 77.001 94c16.667 8.66699 36.334 13 59.001 13s41.667 -8.66699 57 -26s25 -35 29 -53c0.666992 -2 1 -4 1 -6s-1.66699 -3 -5 -3
c-1.33301 0 -3.16602 3.66699 -5.49902 11s-10 16.666 -23 27.999s-28.667 17 -47 17s-35.333 -4 -51 -12s-29.5 -20.167 -41.5 -36.5s-22.833 -33.166 -32.5 -50.499s-18.834 -39 -27.501 -65c-12 -38.667 -24.667 -85.334 -38 -140.001c13.333 -10.667 26 -24 38 -40
c22 -30 33 -60.667 33 -92s-8.66699 -51 -26 -59c-4 -2 -7.66699 -3 -11 -3c-24 0 -45.333 25 -64 75c-5.33301 -18 -10.666 -32.333 -15.999 -43c22 -44 46 -66 72 -66c18.667 0 38.667 10 60 30c6.66699 6.66699 10.5 10 11.5 10s1.5 -0.666992 1.5 -2l2 -5
c-29.333 -30.667 -58.5 -46 -87.5 -46s-55.5 16.333 -79.5 49c-4 -3.33301 -10.5 -5 -19.5 -5s-13.5 3 -13.5 9c0 1.33301 3.33301 2.83301 10 4.5s11.334 3.16699 14.001 4.5c-27.333 57.333 -48 131 -62 221h-11l-31 -3c-30.667 -81.333 -75 -154 -133 -218
c8 -2.66699 16 -4 24 -4c22 0 44 10 66 30c3.33301 3.33301 5.33301 3.5 6 0.5s0.333984 -5.16699 -0.999023 -6.5c-22.667 -20.667 -46.667 -31 -72 -31c-9.33301 0 -19 1.33301 -29 4c-76.667 -84.667 -155.334 -127 -236.001 -127c-19.333 0 -35 5.66699 -47 17
s-18 27.5 -18 48.5s8.33301 42.167 25 63.5c0 2 1.33301 3 4 3c1.33301 0 2 -1 2 -3l-8 -20c-5.33301 -13.333 -8 -26.666 -8 -39.999s5 -26.166 15 -38.499s23 -18.5 39 -18.5c73.333 0 145.666 40.667 216.999 122zM287.998 44.999c50 58.667 91 127.667 123 207
c-44.667 -12 -85.667 -35.667 -123 -71c-24 -26 -36 -51.667 -36 -77s12 -45 36 -59zM333.998 547.999c74.667 -8 123.667 -55 147 -141c10.667 -38 21 -85 31 -141c12.667 -2 25 -5 37 -9c-14 70 -33.667 136 -59 198c-15.333 36.667 -32.833 64.167 -52.5 82.5
s-38.167 27.5 -55.5 27.5s-33.333 -5.66699 -48 -17zM614.498 59.499c9 -13 16.167 -20.668 21.5 -23.001s9.66602 -3.5 12.999 -3.5s6.33301 0.666992 9 2c14 6.66699 21 23.5 21 50.5s-10.333 56.167 -31 87.5c-11.333 14.667 -22.666 26.667 -33.999 36
c-10 -43.333 -18 -75.666 -24 -96.999c7.33301 -22 15.5 -39.5 24.5 -52.5zM550.998 246.998c-10.667 4.66699 -22.999 8.00098 -36.999 10.001c18 -90.667 34.333 -152.667 49 -186c5.33301 11.333 10.666 27.333 15.999 48c-8 23.333 -15.667 56.666 -23 99.999z
M559.999 242.999l4 -23c6.66699 -37.333 13 -66 19 -86c4.66699 19.333 10.667 48 18 86c-14 9.33301 -27.667 17 -41 23zM440.999 268.999c8 0.666992 20.333 0.999023 37 0.999023c-4 20 -8.33301 48 -13 84c-6.66699 -29.333 -14.667 -57.666 -24 -84.999z" />
    <glyph glyph-name="O" unicode="O" horiz-adv-x="534" 
d="M39 268c-0.666992 52.667 28.001 103.333 86.001 152v10c0 63.333 24.667 106.666 74 129.999c17.333 8 34.666 12 51.999 12c53.333 0 104 -28.333 152 -85c44.667 -9.33301 81.667 -30.166 111 -62.499s44 -74.5 44 -126.5s-17 -104 -51 -156
c-9.33301 -60 -32 -108.667 -68 -146s-76.333 -56 -121 -56s-85 9.33301 -121 28c-66 0.666992 -111 20.334 -135 59.001c-14 23.333 -21 47.666 -21 72.999s3 49.333 9 72c-7.33301 27.333 -11 59 -11 95v1zM355.001 318.999
c-9.33301 -24 -21.6689 -40.332 -37.002 -48.999s-27.666 -13 -36.999 -13s-20 1 -32 3s-27 8.5 -45 19.5s-33.333 24.5 -46 40.5c-42 -46.667 -71 -94.667 -87 -144c12 -73.333 43 -131 93 -173c5.33301 -1.33301 10.833 -2 16.5 -2s11.167 0.333008 16.5 1
c54.667 2.66699 111 22.5 169 59.5s101.333 83.167 130 138.5c-5.33301 109.333 -39.666 201.333 -102.999 276c-11.333 2.66699 -24.666 4 -39.999 4c-88 0 -159.667 -27.333 -215 -82c4.66699 -22.667 10 -39.334 16 -50.001c60 57.333 120.333 86 181 86
c8 0 12 -2.16699 12 -6.5s-4.33301 -6.5 -13 -6.5c-52 0 -108.333 -31 -169 -93c15.333 -22 32.666 -37.833 51.999 -47.5s36.666 -14.5 51.999 -14.5l25 4c24 6.66699 41.667 24 53 52c0.666992 2.66699 2.33398 3.5 5.00098 2.5s3.66699 -2.83301 3 -5.5zM379.998 491
c-44 48 -88 72 -132 72c-15.333 0 -30.333 -3.33301 -45 -10c-44.667 -22 -67 -60.667 -67 -116v-10c60.667 44 133 66 217 66c6 0 15 -0.666992 27 -2zM216.998 -31c30 -14 63.999 -21.001 101.999 -21.001s73 15.333 105 46s53.333 71.334 64 122.001
c-33.333 -42.667 -74.166 -77.167 -122.499 -103.5s-97.833 -40.833 -148.5 -43.5zM508.997 230.999c10 27.333 15 58 15 92s-9.66699 64.167 -29 90.5s-45 44.833 -77 55.5c48 -64.667 78.333 -144 91 -238zM128.997 388.999
c-36.667 -40.667 -57.666 -84.332 -62.999 -130.999v-36c16.667 41.333 43 80.666 79 117.999l-5 10c-4.66699 14.667 -8.33398 27.667 -11.001 39zM59.998 115.001c0 -24 6.5 -46.167 19.5 -66.5s34.167 -34.5 63.5 -42.5c-36.667 34.667 -64 76.667 -82 126
c-0.666992 -6 -1 -11.667 -1 -17z" />
    <glyph glyph-name="P" unicode="P" horiz-adv-x="606" 
d="M147 313c-8 10 -11.9951 21.332 -11.9951 33.999s3.16699 25.167 9.5 37.5s15.666 25 27.999 38s28.666 25.333 48.999 37s43.166 21.834 68.499 30.501c52.667 19.333 118.667 29 198 29c17.333 18 35.666 29 54.999 33h1c4 0 6 -1.33301 6 -4
c-1.33301 -4.66699 -5.83301 -8 -13.5 -10s-16.834 -8.66699 -27.501 -20c64 -2.66699 116.833 -14.334 158.5 -35.001s62.5 -48.334 62.5 -83.001c0 -32 -17.5 -62.333 -52.5 -91s-79.5 -51.667 -133.5 -69c-6 -52.667 -33.667 -90 -83 -112
c-3.33301 -1.33301 -5.33301 -0.666016 -6 2.00098s0 4.33398 2 5.00098c22 10 39.833 24.167 53.5 42.5s22.167 38.166 25.5 59.499c-40.667 -12 -86 -20 -136 -24l-9 -27c-60 -164 -152.667 -246 -278 -246c-34 0 -60.333 8.5 -79 25.5s-28 37.667 -28 62
s8.66699 51.833 26 82.5c0 10 1 20 3 30c10.667 64.667 48 122.334 112 173.001zM330.005 291.999c-34.667 -8 -67.667 -12 -99 -12s-56.333 8 -75 24c-61.333 -48 -97 -103.333 -107 -166l-1 -5c48.667 54.667 117.334 86.667 206.001 96c4 0.666992 6 -1 6 -5
c-0.666992 -4 -3 -6.66699 -7 -8c-48 -7.33301 -89.833 -22.666 -125.5 -45.999s-62.834 -50 -81.501 -80c2 -26.667 9.33301 -47.334 22 -62.001c14.667 -17.333 34 -26 58 -26s47.167 8.5 69.5 25.5s42.166 41.833 59.499 74.5c28.667 54.667 51.334 110.667 68.001 168z
M639.005 474.499c-36 20.333 -81.666 31.501 -136.999 33.501c-16 -22.667 -33.333 -66 -52 -130c12 -5.33301 20.333 -9.33301 25 -12c24 11.333 47.333 25.333 70 42c8 6 12 6.33301 12 1c0 -8 -22.667 -25 -68 -51c35.333 -24.667 53.666 -58 54.999 -100
c47.333 18 83.333 39.333 108 64c27.333 26.667 41 53.667 41 81s-18 51.166 -54 71.499zM196.006 409.5c-20.667 -17 -32.6689 -30.998 -36.002 -41.998s-5 -19.833 -5 -26.5s1.33301 -13 4 -19c60.667 44 130.334 66.667 209.001 68c24 52.667 44 85 60 97
c3.33301 2 5.33301 1.66699 6 -1s0.333984 -4.66699 -0.999023 -6c-16 -12 -34 -42 -54 -90c4 0 8.83301 -0.166992 14.5 -0.5s12.5 -1.5 20.5 -3.5c24 58.667 45.667 99.667 65 123c-39.333 -0.666992 -78 -5.83398 -116 -15.501s-70.167 -21.834 -96.5 -36.501
s-49.833 -30.5 -70.5 -47.5zM67.5039 15.002c-15.667 14 -26.165 32 -31.498 54c-8 -16 -12 -30.667 -12 -44s3.33301 -25.333 10 -36c13.333 -23.333 37.5 -35 72.5 -35s65.5 7.5 91.5 22.5s48.667 35.833 68 62.5c31.333 44.667 58.333 98 81 160l39 110l-40 -13l-8 -28
c-12 -44 -27.333 -84.167 -46 -120.5s-35.834 -64.833 -51.501 -85.5s-33.667 -37.167 -54 -49.5s-41.333 -18.5 -63 -18.5s-40.334 7 -56.001 21zM537.006 255.002c-1.33301 42 -20.001 74.6689 -56.001 98.002c-20 -10.667 -35 -18.334 -45 -23.001
c-17.333 -60 -27.666 -94.667 -30.999 -104c6.66699 1.33301 15.667 2.66602 27 3.99902c30.667 2 65.667 10.333 105 25zM168.005 314.004c12 -9.33301 27 -14 45 -14s35.667 1 53 3s41.333 6.33301 72 13c6 18 14.667 40 26 66c-72 -2 -137.333 -24.667 -196 -68z
M376.005 382.004c-10.667 -28 -18.002 -48.666 -22.002 -61.999l40 12c3.33301 10 9 25.667 17 47c-9.33301 1.33301 -16.166 2.16602 -20.499 2.49902s-9.16602 0.5 -14.499 0.5zM467.003 362.005l-19 8l-6 -20z" />
    <glyph glyph-name="Q" unicode="Q" horiz-adv-x="535" 
d="M486 93c0 -27.333 -7.33398 -54.834 -22.001 -82.501s-39.667 -47.5 -75 -59.5c-15.333 -5.33301 -30.666 -8 -45.999 -8l-90 30c-18.667 -3.33301 -36 -5 -52 -5c-48.667 0 -87 11 -115 33c-29.333 24 -44 57 -44 99c0 30 5 62.333 15 97
c-12 20.667 -18 44.334 -18 71.001c0 44 18 84.667 54 122c12.667 14.667 28.667 28.334 48 41.001c14.667 32 34.167 59.5 58.5 82.5s49.5 39.167 75.5 48.5s51.5 14 76.5 14s47.167 -6 66.5 -18c30.667 -20 46 -51 46 -93c62.667 -35.333 94 -88 94 -158
s-24.333 -134.667 -73 -194c0.666992 -6.66699 1 -13.334 1 -20.001zM523.999 318.999c0 56 -20.998 98.6719 -62.998 128.005c-5.33301 -22.667 -16.5 -42 -33.5 -58s-36.5 -24.333 -58.5 -25c-2.66699 0 -4 1.33301 -4 4s1.33301 4 4 4c20.667 0.666992 39 8.66699 55 24
s26 34 30 56c-30 18.667 -63.667 28 -101 28c-84.667 0 -154.334 -25.333 -209.001 -76c-8.66699 -26.667 -14.334 -54.667 -17.001 -84c29.333 33.333 62.333 60.666 99 81.999s73 32 109 32c10 0 14.333 -3 13 -9c-0.666992 -2.66699 -5.33398 -4 -14.001 -4
c-32.667 0 -68.167 -13.333 -106.5 -40s-72.5 -60.334 -102.5 -101.001l2 -35c8 -98.667 43.333 -178.334 106 -239.001c42.667 8 85 25 127 51s77 57.667 105 95c-10 26 -25.833 47.333 -47.5 64s-44.167 25 -67.5 25c-31.333 0 -55.333 -15.667 -72 -47
c-0.666992 -1.33301 -1.66699 -2 -3 -2s-2.5 0.666992 -3.5 2s-1.16699 2.66602 -0.5 3.99902c19.333 35.333 46 53 80 53c26 0 53.667 -13 83 -39c16.667 -14.667 29.334 -31.334 38.001 -50.001c34.667 48.667 52 101 52 157zM634.001 -260.996
c-11.333 -16 -26.1709 -28 -44.5039 -36s-31.833 -12 -40.5 -12c-25.333 0 -47.666 2 -66.999 6c-28.667 8 -59 22.833 -91 44.5s-60 44.167 -84 67.5c-95.333 92.667 -164.333 139 -207 139c-17.333 0 -32 -7 -44 -21s-18 -27.333 -18 -40s1.66699 -23.667 5 -33
c8.66699 -26 28.334 -43 59.001 -51c7.33301 -2 11.166 -4.33301 11.499 -7s-1.16699 -4.33398 -4.5 -5.00098s-7.66602 0 -12.999 2c-52 17.333 -78 46.666 -78 87.999c0 24 9.83301 42.833 29.5 56.5s38.5 20.5 56.5 20.5s38.333 -3.83301 61 -11.5
s49.834 -23.167 81.501 -46.5s59.5 -46.166 83.5 -68.499s53.833 -44.833 89.5 -67.5s71.834 -38.667 108.501 -48c7.33301 -3.33301 15.333 -5 24 -5c35.333 0 60 10 74 30c7.33301 10.667 11 12.334 11 5.00098c0 -2 -1 -4.33301 -3 -7zM346.996 570.004
c-27.333 0 -56.333 -8.00098 -87 -24.001c-41.333 -21.333 -74.333 -55.333 -99 -102c57.333 32.667 121.333 49 192 49c38 0 72.333 -8 103 -24c0 12.667 -2 24.334 -6 35.001c-12 33.333 -36 54 -72 62c-10.667 2.66699 -21 4 -31 4zM110.996 259.003
c-34 -51.333 -50.999 -99 -50.999 -143c0 -26 6.66699 -48.667 20 -68c21.333 -30.667 56.333 -46 105 -46c7.33301 0 13.666 0.166992 18.999 0.5s9 0.5 11 0.5c-60 60 -94.333 141.333 -103 244c0 1.33301 -0.166992 3.33301 -0.5 6s-0.5 4.66699 -0.5 6z
M271.997 -23.9971c26 -16 48.6689 -23.999 68.002 -23.999c53.333 0 91.666 20.667 114.999 62c13.333 24 20 50.333 20 79v8c-56.667 -64.667 -124.334 -106.334 -203.001 -125.001zM64.999 236.004c0 -6 0.333008 -10.666 1 -13.999c10 25.333 25 51.333 45 78
c0.666992 29.333 4.66699 56.666 12 81.999c-38.667 -44 -58 -92.667 -58 -146z" />
    <glyph glyph-name="R" unicode="R" horiz-adv-x="688" 
d="M327 291c-40 -7.33301 -72 -10.998 -96 -10.998s-46.167 5.83301 -66.5 17.5s-29.833 29.5 -28.5 53.5c-19.333 7.33301 -36 18.166 -50 32.499s-22.333 28.333 -25 42s-4 27.5 -4 41.5s5 31.333 15 52s26 37 48 49c24.667 14 50.167 21 76.5 21s51 -7.83301 74 -23.5
s41.5 -37.167 55.5 -64.5c50 12 104 18 162 18c17.333 18 35.666 29 54.999 33c4.66699 0.666992 7 -0.666016 7 -3.99902c-1.33301 -4.66699 -5.83301 -8 -13.5 -10s-16.834 -8.66699 -27.501 -20c64 -2.66699 116.833 -14.334 158.5 -35.001s62.5 -48.334 62.5 -83.001
c0 -43.333 -30.333 -82.833 -91 -118.5s-133.667 -57.834 -219 -66.501l43.5 -65l51 -75.5c11 -15.667 26.5 -34.5 46.5 -56.5c45.333 -50.667 84.333 -76 117 -76c25.333 0 38 16 38 48s-9.66699 61 -29 87c-2.66699 4 -2.66699 6 0 6s5.33398 -1.66699 8.00098 -5
c21.333 -24.667 32 -50 32 -76s-6.5 -46.167 -19.5 -60.5s-30.167 -21.5 -51.5 -21.5c-31.333 0 -63.666 14.667 -96.999 44c-31.333 27.333 -60.333 66 -87 116c-10 17.333 -22.333 40.666 -37 69.999s-25.667 50.333 -33 63h-2l-9 -27c-60 -164 -152.667 -246 -278 -246
c-52.667 0 -86.334 19 -101.001 57c-4.66699 12 -7 24.333 -7 37c0 26.667 10.667 54.667 32 84c40.667 56.667 104 92.334 190 107.001l27 4c4 0.666992 6 -1 6 -5c-0.666992 -4 -3 -6.66699 -7 -8c-79.333 -12.667 -141.666 -45.667 -186.999 -99
c-27.333 -32.667 -41 -63 -41 -91c0 -7.33301 0.666992 -14.333 2 -21c8.66699 -34 37 -51 85 -51c62 0 113.333 28.333 154 85c31.333 44.667 58.333 98 81 160l39 109l-42 -13c-14.667 -81.333 -46.334 -158 -95.001 -230c-20 -29.333 -43.833 -52 -71.5 -68
s-56.5 -24 -86.5 -24c-2 0 -4.66699 0.166992 -8 0.5s-4.5 1.83301 -3.5 4.5s2.66699 3.83398 5 3.50098s4.5 -0.5 6.5 -0.5c28.667 0 55.834 7.66699 81.501 23s47.5 37.333 65.5 66c42 63.333 71.667 137 89 221zM639 474.502c-36 20.333 -81.668 31.502 -137.001 33.502
c-17.333 -24.667 -37.333 -77.334 -60 -158.001c38.667 17.333 73 36.666 103 57.999c8 6 12 6.33301 12 1s-3.33301 -10 -10 -14c-40.667 -28 -77.667 -49.667 -111 -65l-29 -97l4 -6c28.667 3.33301 43.334 5 44.001 5c75.333 16 133 39.333 173 70
c43.333 32.667 65 64.5 65 95.5s-18 56.667 -54 77zM193.999 580.004c-52 0 -89 -23.332 -111 -69.999c-7.33301 -16 -11 -30.333 -11 -43s1 -23.667 3 -33c6 -32.667 26.667 -57 62 -73c4.66699 26.667 22.5 52.667 53.5 78s73.167 45.333 126.5 60
c-12.667 25.333 -30 45.166 -52 59.499s-45.667 21.5 -71 21.5zM331.999 315.005c4 26 6.00195 53.499 6.00195 82.499s-4.66699 57.167 -14 84.5c-44.667 -15.333 -82.334 -35.166 -113.001 -59.499s-49 -47.166 -55 -68.499c10 -2.66699 19.667 -4 29 -4
c27.333 0 51 10 71 30c3.33301 3.33301 5.33301 2.66602 6 -2.00098l-1 -4c-21.333 -21.333 -46.333 -32 -75 -32c-10 0 -20.667 1.33301 -32 4c-2 -16.667 6 -29 24 -37c11.333 -5.33301 24.666 -8 39.999 -8c38.667 0 76.667 4.66699 114 14zM333.001 485.004
c12.667 -30 19 -59.833 19 -89.5s-1.66699 -55.5 -5 -77.5c13.333 3.33301 29 8 47 14c30 84.667 58.333 143.667 85 177c-51.333 -0.666992 -100 -8.66699 -146 -24z" />
    <glyph glyph-name="S" unicode="S" horiz-adv-x="520" 
d="M471 227c21.333 -32 31.9971 -62.502 31.9971 -91.502s-13 -58.167 -39 -87.5c-44 -48.667 -109 -81.334 -195 -98.001c-33.333 -7.33301 -59.5 -11 -78.5 -11s-32.167 0.333008 -39.5 1c4.66699 -38 16.834 -65.167 36.501 -81.5s39.167 -24.5 58.5 -24.5
c26 0 50.5 8.66699 73.5 26s35.833 36.333 38.5 57c0 1.33301 0.666992 2.33301 2 3c4 1.33301 6 0 6 -4c-2.66699 -18.667 -12 -36 -28 -52c-27.333 -27.333 -62.333 -41 -105 -41l-17 1c-22 2 -41 13.167 -57 33.5s-25 48.5 -27 84.5c-34 5.33301 -60.667 16.833 -80 34.5
s-29 38.5 -29 62.5c0 40 13.667 72.667 41 98c-40.667 38 -61 83.5 -61 136.5s20.333 104.167 61 153.5c28 30.667 59.5 52.834 94.5 66.501s68.5 20.5 100.5 20.5c5.33301 0 11 -0.333008 17 -1c40.667 31.333 87.834 47 141.501 47s92.167 -16.333 115.5 -49
c29.333 30.667 48.333 46 57 46c3.33301 0 5 -1.33301 5 -4s-5.16699 -7.66699 -15.5 -15s-23.5 -19.333 -39.5 -36c7.33301 -12 11 -23.833 11 -35.5s-3 -23.167 -9 -34.5c-11.333 -22.667 -29.333 -34 -54 -34c-12 0 -18.333 6.33301 -19 19
c-1.33301 21.333 15 47.333 49 78c-9.33301 24 -30.666 39.667 -63.999 47c-11.333 2 -25.666 3 -42.999 3c-31.333 0 -65.333 -12.333 -102 -37c53.333 -12 89 -39 107 -81c0.666992 -1.33301 0.5 -2.66602 -0.5 -3.99902s-2.16699 -2 -3.5 -2s-2.33301 0.666992 -3 2
c-18.667 42 -54 68.333 -106 79c-20.667 -17.333 -31 -36.666 -31 -57.999c0 -30 16.333 -59 49 -87l25 -20c29.333 17.333 56 26 80 26c25.333 0 43.666 -12 54.999 -36c4.66699 -10 7 -23.5 7 -40.5s-5.66699 -36.833 -17 -59.5zM269.997 341.998
c-29.333 30 -44 58.833 -44 86.5s14 53.5 42 77.5h-7c-70 0 -130 -27.667 -180 -83c-41.333 -45.333 -62 -96 -62 -152c0 -50 17.333 -92.667 52 -128c36 31.333 84.667 53.333 146 66c24.667 36.667 48.667 65 72 85l20 17c-24 18.667 -37 29 -39 31zM206.997 84.998
c-16 0 -28.999 0.666992 -38.999 2c-7.33301 -20.667 -12.333 -42.5 -15 -65.5s-4 -43.167 -4 -60.5c13.333 -2.66699 29.833 -4 49.5 -4s42.834 3.66699 69.501 11c65.333 16 114.666 43.333 147.999 82c22.667 26.667 34 54.667 34 84c0 18.667 -3.33301 35 -10 49
c-6.66699 -8 -16.334 -17.333 -29.001 -28c-54.667 -46.667 -122.667 -70 -204 -70zM202.998 91.998c74.667 0 139.999 23.332 195.999 69.999c13.333 11.333 25 23 35 35c-17.333 30.667 -56.666 67.334 -117.999 110.001c-14 -12 -21.333 -18.333 -22 -19
c-22.667 -20 -44.667 -45.333 -66 -76c20 2.66699 35.667 4 47 4s20.333 -0.5 27 -1.5s9.66699 -4.5 9 -10.5c-0.666992 -3.33301 -4.66699 -4.33301 -12 -3s-18 2 -32 2s-30 -1.66699 -48 -5c-20.667 -34 -37 -68.667 -49 -104l18 -2h15zM77.9971 123.997
c-16.667 -20.667 -24.999 -44 -24.999 -70c0 -12 2.66699 -23.333 8 -34c12 -26 35.333 -44.333 70 -55c0 36 8 77.333 24 124c-28.667 6 -54.334 17.667 -77.001 35zM460.998 238.997c10 22 15 41.333 15 58s-5 30.5 -15 41.5s-23.5 16.5 -40.5 16.5
s-39.5 -7.66699 -67.5 -23c53.333 -39.333 89.333 -70.333 108 -93zM157.998 95.9971c13.333 34.667 30 68 50 100c-56 -11.333 -97.333 -33 -124 -65c20 -17.333 44.667 -29 74 -35zM523.998 483.997c-24 -30.667 -36 -53.333 -36 -68c0 -5.33301 2.33301 -8 7 -8
c8.66699 0 16.5 5.33301 23.5 16s10.5 21.167 10.5 31.5s-1.66699 19.833 -5 28.5z" />
    <glyph glyph-name="T" unicode="T" horiz-adv-x="464" 
d="M26 2c0 -44 27.3301 -66.0039 81.9971 -66.0039c16 0 32.667 2.33301 50 7c74 62.667 130 150 168 262c21.333 60.667 32 114.167 32 160.5s-7.66699 87.166 -23 122.499c-66.667 15.333 -108.5 23.833 -125.5 25.5s-34.167 2.5 -51.5 2.5s-35.333 -4 -54 -12
c-6.66699 -19.333 -10 -36.666 -10 -51.999c0 -48.667 9.33301 -87.667 28 -117c4 -0.666992 9.66699 -1 17 -1c44.667 0 83.667 10 117 30s54 40.333 62 61c2 6.66699 4.5 8.5 7.5 5.5s3.5 -6.83301 1.5 -11.5c-9.33301 -25.333 -30.5 -48.666 -63.5 -69.999
s-73.167 -32 -120.5 -32h-4h-4c19.333 -21.333 43 -33 71 -35c2.66699 0 3.83398 -1 3.50098 -3s-1.83301 -3 -4.5 -3c-32.667 2 -60 16 -82 42c-35.333 3.33301 -64.333 15.333 -87 36c-25.333 24 -38 48.333 -38 73s9 47.667 27 69s46.333 35.333 85 42
c20.667 32.667 48.667 52.667 84 60c5.33301 0.666992 13.166 1 23.499 1s26 -3.83301 47 -11.5s40.833 -24.167 59.5 -49.5l19 -31c90.667 -23.333 142.334 -36.333 155.001 -39c28.667 39.333 57.334 61.333 86.001 66c4 0.666992 6 -0.333008 6 -3
c-0.666992 -5.33301 -4 -8.66602 -10 -9.99902c-19.333 -3.33301 -38.666 -22.333 -57.999 -57c30 -5.33301 58 -8 84 -8c66.667 0 119 16.667 157 50c4.66699 3.33301 7 2.33301 7 -3s-2.33301 -9.66602 -7 -12.999c-34.667 -30.667 -87.334 -46 -158.001 -46
c-27.333 0 -57.333 2.33301 -90 7c-12 -24.667 -30 -70.167 -54 -136.5s-43 -115.166 -57 -146.499c-64 -145.333 -149 -226 -255 -242c-48 -36 -94.667 -54 -140 -54c-18.667 0 -28 1.66699 -28 5s2.83301 4.66602 8.5 3.99902s12.5 -1 20.5 -1
c40.667 0 81.667 14.667 123 44c-5.33301 -0.666992 -13.666 -1 -24.999 -1c-52 0 -84 18.667 -96 56c-3.33301 10 -5 20 -5 30c0 28 12.333 58 37 90c50 64.667 125.333 102.334 226 113.001c4 0.666992 6 -1 6 -5c-0.666992 -4 -3 -6.66699 -7 -8
c-82 -12.667 -147.667 -46.667 -197 -102c-30.667 -34 -46 -65.667 -46 -95zM352.997 483.996c12 -33.333 18 -72.335 18 -117.002s-10.333 -97 -31 -157c-36 -107.333 -89.333 -193.666 -160 -258.999c65.333 28.667 125.666 105.334 180.999 230.001l39 91
c38 89.333 67.667 150.333 89 183c-47.333 8 -92.666 17.667 -135.999 29zM310.997 529.994c-18 24 -36.666 40 -55.999 48s-33.333 12 -42 12c-40 0 -70.667 -16.667 -92 -50c11.333 1.33301 23.666 2 36.999 2c37.333 0 92.333 -9.66699 165 -29zM108.998 336.994
c-18 29.333 -27.001 63 -27.001 101c0 20.667 3.33301 41 10 61c-36.667 -17.333 -55 -43.666 -55 -78.999c0 -14 4.33301 -28 13 -42c12.667 -20.667 32.334 -34.334 59.001 -41.001z" />
    <glyph glyph-name="U" unicode="U" horiz-adv-x="707" 
d="M-27 398c-12.667 18 -19.002 37 -19.002 57s7.5 40.833 22.5 62.5s37.5 37.834 67.5 48.501c14.667 5.33301 29 8 43 8s28 -2.66699 42 -8c3.33301 -1.33301 4.33301 -3.33301 3 -6c-1.33301 -0.666992 -3 -1 -5 -1c-14 5.33301 -27.667 8 -41 8
c-25.333 0 -52.333 -10.833 -81 -32.5s-43 -48.167 -43 -79.5c0 -7.33301 1.33301 -15.5 4 -24.5s6.33398 -17.5 11.001 -25.5c16 28.667 40.333 54.334 73 77.001c61.333 42.667 125.333 64 192 64c44.667 0 79.334 -10.667 104.001 -32c26.667 6 48.334 9 65.001 9
s34.167 -4.33301 52.5 -13s29.833 -21.667 34.5 -39c1.33301 -2.66699 2 -5.33398 2 -8.00098c0 -16 -10.833 -33.333 -32.5 -52s-52.167 -35 -91.5 -49c-7.33301 -28.667 -22.666 -65.5 -45.999 -110.5s-41.833 -84.833 -55.5 -119.5s-20.5 -65 -20.5 -91
c0 -6.66699 0.333008 -13.334 1 -20.001c44.667 8.66699 81.667 27.667 111 57c25.333 24 41.333 52.667 48 86c2 6.66699 3 13 3 19c0 18.667 -5.33301 31.334 -16 38.001c-4 2.66699 -4.83301 4.5 -2.5 5.5s4.16602 1.16699 5.49902 0.5
c15.333 -9.33301 23 -27.333 23 -54c0 -32 -13 -63.667 -39 -95c-31.333 -38 -74.666 -61.667 -129.999 -71c6 -24.667 22 -37 48 -37c51.333 0 109 53.667 173 161c21.333 35.333 47.666 90.333 78.999 165s60.333 152.334 87 233.001c1.33301 7.33301 7 12 17 14
s19.5 0.666992 28.5 -4s12.833 -11.334 11.5 -20.001c-74 -174.667 -111 -318.334 -111 -431.001c0 -66 13 -98.667 39 -98c11.333 0.666992 24 8 38 22s25.667 33.333 35 58c0.666992 1.33301 2 2 4 2c4 1.33301 6 0 6 -4c0 -19.333 -14 -43.666 -42 -72.999
c-17.333 -19.333 -35 -29 -53 -29c-8.66699 0 -17.334 2.33301 -26.001 7c-27.333 14 -41.666 45.667 -42.999 95v43c0 22.667 4.33301 66 13 130c-31.333 -56.667 -53 -94.667 -65 -114c-72.667 -118 -137.334 -177 -194.001 -177c-40 0 -66.333 18 -79 54h-5
c-28 0 -54.667 5.66699 -80 17c-50.667 22.667 -83.667 63.667 -99 123c-3.33301 13.333 -5 27.666 -5 42.999c0 49.333 16 98.333 48 147c-36.667 8 -66 21.667 -88 41c-9.33301 -18 -14 -33.167 -14 -45.5s0.666992 -22.833 2 -31.5s6.5 -18.334 15.5 -29.001
s21.5 -19 37.5 -25c3.33301 -1.33301 3.83301 -3.33301 1.5 -6s-5.5 -3 -9.5 -1c-40 20.667 -62.667 45.334 -68 74.001c-1.33301 8 -2 19 -2 33s5 32 15 54zM220.998 16c-2.66699 10.667 -4 25.167 -4 43.5s5 42.833 15 73.5s27.167 68.667 51.5 114s40.5 79.333 48.5 102
c-62 -16.667 -117 -25 -165 -25c-18.667 0 -32.667 0.833008 -42 2.5s-16 2.5 -20 2.5c-36.667 -56.667 -55 -108.667 -55 -156s16 -85.333 48 -114s70 -43 114 -43h9zM250.998 530c-65.333 0 -128.333 -24.666 -189 -73.999c-28.667 -23.333 -50 -48 -64 -74
c22.667 -18.667 52.667 -32.334 90 -41.001c13.333 18 22 29.333 26 34c53.333 61.333 121.333 105 204 131c-16.667 16 -39 24 -67 24zM109.998 337.001c14 -3.33301 32.332 -4.99902 54.999 -4.99902c52.667 0 109.334 9 170.001 27c8 23.333 12 42.666 12 57.999
s-1 29.333 -3 42s-8 25.667 -18 39c-76.667 -26 -142 -71.333 -196 -136zM353.997 506.002c20 -24 29.998 -52.999 29.998 -86.999c0 -14.667 -2 -30.334 -6 -47.001c38 14.667 65 29 81 43c20.667 19.333 31 36.666 31 51.999c0 8 -3 15.333 -9 22
c-15.333 17.333 -37.666 26 -66.999 26c-3.33301 0 -11.166 -0.666992 -23.499 -2s-24.5 -3.66602 -36.5 -6.99902z" />
    <glyph glyph-name="V" unicode="V" horiz-adv-x="543" 
d="M247 545c-28 28 -56.334 41.999 -85.001 41.999c-15.333 0 -29.333 -5 -42 -15c-21.333 -16 -32 -38.667 -32 -68c0 -9.33301 1.33301 -19.666 4 -30.999c48.667 43.333 100.334 67.333 155.001 72zM237.999 531.999c-49.333 0 -96.667 -25 -142 -75
c14 -45.333 44 -78.333 90 -99c35.333 -16 73 -24 113 -24c12.667 0 25.667 0.666992 39 2c-12 83.333 -38 148.333 -78 195c-4.66699 0.666992 -12 1 -22 1zM273.998 527.999c40 -48 65.999 -111.334 77.999 -190.001c16 2.66699 27.333 5.33398 34 8.00098
c-9.33301 104 -46.666 164.667 -111.999 182zM0.99707 289.998c0 62 25.9951 118.996 77.9951 170.996c-3.33301 12 -5 25.333 -5 40s4.33301 30 13 46c16 30.667 40 46 72 46c20 0 39 -5.33301 57 -16s32 -21.334 42 -32.001h5h3c49.333 0 86.5 -17 111.5 -51
s39.5 -79.333 43.5 -136c54 23.333 90.667 57.333 110 102c4.66699 10 7 20 7 30s-2 16.833 -6 20.5s-4.66699 6 -2 7s6 -0.166992 10 -3.5c5.33301 -4.66699 8 -13.167 8 -25.5s-2 -22.833 -6 -31.5c-20.667 -49.333 -60.667 -85.666 -120 -108.999
c0.666992 -8.66699 1 -17.334 1 -26.001c0 -50 -7.16699 -105.833 -21.5 -167.5s-32.5 -114.167 -54.5 -157.5c12 6.66699 25.5 22.5 40.5 47.5l37.5 64l18.5 32.5l27.5 46.5l40 67l46 73c20 31 37.833 57.167 53.5 78.5s34.334 44.833 56.001 70.5s41.5 46.334 59.5 62.001
s37 28.834 57 39.501s38.333 16 55 16s29.834 -6.33301 39.501 -19s14.5 -25.667 14.5 -39s-1.66699 -19.833 -5 -19.5s-5 2.83301 -5 7.5c0 28.667 -15.333 43 -46 43c-53.333 0 -120 -55 -200 -165c-70.667 -97.333 -136.667 -197.333 -198 -300
c-1.33301 -1.33301 -4.33301 -5.5 -9 -12.5l-13.5 -20l-15.5 -22.5c-6 -8.66699 -11.833 -16.334 -17.5 -23.001l-16.5 -20c-12.667 -13.333 -22.334 -20 -29.001 -20c-5.33301 0 -6.66602 2 -3.99902 6c17.333 41.333 31 90.833 41 148.5s15 101.5 15 131.5
s-0.666992 52.333 -2 67c-6 -1.33301 -17.333 -3.66602 -34 -6.99902c3.33301 -27.333 5 -60.166 5 -98.499s-5.33301 -82.166 -16 -131.499c-18 -78 -46 -139.667 -84 -185c-1.33301 -1.33301 -2.66602 -2 -3.99902 -2s-2.33301 0.833008 -3 2.5
s-0.333984 3.16699 0.999023 4.5c34.667 42 60 101.667 76 179c10.667 49.333 16 93 16 131s-1.66699 70.667 -5 98c-12.667 -1.33301 -25 -2 -37 -2c-42 0 -82 8 -120 24c-48.667 20.667 -81 52 -97 94c-38.667 -47.333 -58 -98 -58 -152c0 -22 6.16699 -42.333 18.5 -61
s31.333 -28 57 -28s47.834 7.16699 66.501 21.5s31 26.166 37 35.499s9 11.333 9 6c-0.666992 -15.333 -15.167 -33.166 -43.5 -53.499s-56.666 -30.5 -84.999 -30.5s-49.666 11.333 -63.999 34s-21.5 47.334 -21.5 74.001z" />
    <glyph glyph-name="W" unicode="W" horiz-adv-x="816" 
d="M591 439c0 15.333 -4 22.667 -12 22c-12 -1.33301 -21 -12.666 -27 -33.999s-9 -40.333 -9 -57s0.666992 -38.334 2 -65.001c30.667 61.333 46 106 46 134zM77 15.001c-26 -37.333 -39.0029 -70.335 -39.0029 -99.002c0 -8.66699 3 -16.667 9 -24
c8.66699 -10 19.834 -15 33.501 -15s29.334 5.33301 47.001 16s34.5 27.334 50.5 50.001c40 56.667 71.667 134.334 95 233.001c-83.333 -41.333 -148.666 -95 -195.999 -161zM504.997 229.999c-33.333 -1.33301 -59.333 -3.16699 -78 -5.5s-38 -6.5 -58 -12.5
c-22 -81.333 -56 -168.333 -102 -261c7.33301 2 13.333 5.33301 18 10c40 39.333 81.333 84.5 124 135.5s74.667 95.167 96 132.5v1zM551.997 228.998c5.33301 -45.333 9.16797 -76.5 11.501 -93.5s3.5 -38.333 3.5 -64s-4 -49.5 -12 -71.5
c10.667 15.333 34.167 43.5 70.5 84.5s64.166 74.167 83.499 99.5c-40 25.333 -92.333 40.333 -157 45zM882.999 467.998c0 -66.667 -51.0029 -161.331 -153.003 -283.998c33.333 -26.667 50 -55.667 50 -87c0 -36 -18 -60.333 -54 -73c-10 -3.33301 -19 -5 -27 -5
c-17.333 0 -31.666 7.66699 -42.999 23c-0.666992 1.33301 -0.666992 2.66602 0 3.99902s1.66699 2 3 2s2.66602 -0.666992 3.99902 -2c8.66699 -13.333 18.667 -20 30 -20s21 1.66699 29 5c26.667 9.33301 42.667 26 48 50c0.666992 4.66699 1 9 1 13
c0 28 -16.333 55 -49 81l-68 -77c-60 -65.333 -94.667 -106 -104 -122c-4.66699 -8 -8 -5 -10 9c-1.33301 6.66699 -2 17.834 -2 33.501s-4.83301 48.5 -14.5 98.5s-15.167 81.333 -16.5 94c-24 -37.333 -58.5 -84 -103.5 -140s-84.5 -98.333 -118.5 -127
c-14 -11.333 -23.333 -17 -28 -17c-10 0 -12.333 6 -7 18c39.333 95.333 66.666 180.666 81.999 255.999c-15.333 -5.33301 -29.333 -11 -42 -17c-23.333 -98 -58.666 -180 -105.999 -246c-34 -48.667 -71.667 -73 -113 -73c-24 0 -39.333 10.667 -46 32
c-2 6.66699 -3 13.667 -3 21c0 25.333 12.667 56 38 92c50 70 121.667 128.333 215 175c10.667 50 16 88.833 16 116.5s-1.16699 52.167 -3.5 73.5s-8.83301 40.833 -19.5 58.5s-22.5 28.667 -35.5 33s-22.833 6.5 -29.5 6.5c-19.333 0 -36 -3.33301 -50 -10
c-3.33301 -2 -5.16602 -1.5 -5.49902 1.5s0.5 4.83301 2.5 5.5c14.667 7.33301 29.334 11 44.001 11s29.5 -2.33301 44.5 -7s28.833 -16.667 41.5 -36c16.667 -26 25 -62.333 25 -109s-4.33301 -91.667 -13 -135v-1c14 7.33301 28 13.333 42 18c7.33301 40 11 77.5 11 112.5
s-4.66699 66.167 -14 93.5c-20 56 -56.833 84 -110.5 84s-101.167 -21.833 -142.5 -65.5s-62 -91.5 -62 -143.5c0 -25.333 6 -45.833 18 -61.5s30 -23.5 54 -23.5s47.833 8 71.5 24s42.834 34.667 57.501 56l4 4c1.33301 0 2 -0.833008 2 -2.5
s-0.666992 -3.83398 -2 -6.50098c-14 -22.667 -35.667 -43.834 -65 -63.501s-57 -29.5 -83 -29.5s-45.833 9 -59.5 27s-20.5 42 -20.5 72s6.66699 59 20 87c18.667 40.667 49.167 74.5 91.5 101.5s84.833 40.5 127.5 40.5c82 0 131.333 -30.333 148 -91
c6.66699 -24 10 -44 10 -60s-0.5 -33.667 -1.5 -53s-6.5 -49 -16.5 -89c40 12.667 84 19 132 19v44c0 22 4.5 54.167 13.5 96.5s24.167 69.5 45.5 81.5c5.33301 3.33301 10.666 5 15.999 5c18 0 27 -11.667 27 -35c0 -32 -19.667 -81.667 -59 -149
c0 -2 1.33301 -16.333 4 -43c68 -3.33301 123.333 -19.666 166 -48.999c79.333 105.333 119 201 119 287c0 28 -6.16699 50.167 -18.5 66.5s-32.5 28.833 -60.5 37.5c-6 2 -9 5 -9 9c-0.666992 3.33301 0.833008 5 4.5 5s8.16699 -1 13.5 -3
c40.667 -13.333 70.334 -31.5 89.001 -54.5s28 -47.5 28 -73.5z" />
    <glyph glyph-name="X" unicode="X" horiz-adv-x="577" 
d="M-22 274c0 61.333 30.6631 121.667 91.9961 181c-4.66699 17.333 -7 32 -7 44c0 34 10.333 59.667 31 77c10.667 8 20.667 12 30 12c41.333 0 75.333 -17.667 102 -53c10.667 1.33301 22.167 2 34.5 2s26.333 -2.83301 42 -8.5s27.834 -17.667 36.501 -36
s14.5 -36.333 17.5 -54s4.83301 -40.5 5.5 -68.5c27.333 17.333 46.333 36.5 57 57.5s16 35.667 16 44s-0.833008 14.166 -2.5 17.499s-1.16699 5.66602 1.5 6.99902s5.33398 -0.5 8.00098 -5.5s4 -13.167 4 -24.5s-4 -25 -12 -41c-14 -27.333 -37.667 -49.666 -71 -66.999
c0 -12 0.666992 -30 2 -54l169 135c52 40.667 90.5 75.167 115.5 103.5s44.5 43.166 58.5 44.499c4 0 6 -2.66699 6 -8c0 -15.333 -49 -60.666 -147 -135.999c-103.333 -78 -170.333 -129.667 -201 -155v-78c0 -64.667 2.5 -107.5 7.5 -128.5s9.83301 -38.167 14.5 -51.5
c10.667 -26.667 25.5 -39.334 44.5 -38.001s36.167 6.83301 51.5 16.5s27.5 18.834 36.5 27.501s23.167 25.334 42.5 50.001c4 4.66699 7.5 5.66699 10.5 3s2.16699 -7 -2.5 -13c-26 -30.667 -54.333 -59 -85 -85c-33.333 -28 -61.333 -42 -84 -42
c-24.667 0 -42.667 15.333 -54 46c-11.333 32 -18 63 -20 93c-2.66699 50.667 -4 84.667 -4 102l2 46c0 6.66699 -0.333008 12.334 -1 17.001l-37 -31l2 -61c0 -76.667 5.33301 -131.5 16 -164.5s22.334 -53.5 35.001 -61.5s25.334 -12 38.001 -12
c24 0 44.667 8.33301 62 25c2 2 4 2 6 0s2 -4 0 -6c-22.667 -19.333 -43.5 -29 -62.5 -29s-34.333 3 -46 9s-21 15.167 -28 27.5s-12.667 24.666 -17 36.999s-7.5 27.666 -9.5 45.999s-3.5 33.666 -4.5 45.999s-1.5 27.5 -1.5 45.5s-0.333008 31.333 -1 40
s-1 24.334 -1 47.001c-139.333 -120.667 -238 -234 -296 -340c-14.667 -26.667 -28.334 -40 -41.001 -40c-4 0 -6 3.83301 -6 11.5s3.33301 16.167 10 25.5c72 115.333 183 236 333 362c0 56 -0.333008 90 -1 102c-7.33301 -0.666992 -14.333 -1 -21 -1
c-92 0 -151.667 35.667 -179 107c-46 -50 -69 -103 -69 -159c0 -22 6.5 -42 19.5 -60s33.167 -27 60.5 -27s50.833 7 70.5 21s32.5 25.167 38.5 33.5s9.33301 10.833 10 7.5c-4 -17.333 -20.167 -35.333 -48.5 -54s-57.666 -28 -87.999 -28s-53 10.833 -68 32.5
s-22.5 44.834 -22.5 69.501zM121.996 382.001c19.333 -18 41.8311 -29.666 67.498 -34.999s44.667 -8 57 -8s21.833 0.333008 28.5 1c-3.33301 79.333 -18.666 138.666 -45.999 177.999c-51.333 0 -100.666 -24.333 -147.999 -73c8 -24 21.667 -45 41 -63zM216.994 533.002
c-24.667 28.667 -49.334 43 -74.001 43c-13.333 0 -26.333 -4.66699 -39 -14c-20.667 -17.333 -31 -40.333 -31 -69c0 -10 1.33301 -20.667 4 -32c42.667 38 87.334 61.667 134.001 71c0.666992 0 1.66699 0.166992 3 0.5s2.33301 0.5 3 0.5zM237.994 518.002
c24.667 -40.667 40 -99.667 46 -177c13.333 2 26.333 5 39 9c-2 78 -16.333 128 -43 150c-11.333 10 -25.333 16 -42 18zM322.994 342.002c-12.667 -4 -25.333 -7 -38 -9c2 -28 3 -59 3 -93l36 30c-0.666992 13.333 -1 37.333 -1 72z" />
    <glyph glyph-name="Y" unicode="Y" horiz-adv-x="707" 
d="M283 528c50 -56 78.666 -119 85.999 -189l26 5c-11.333 104 -48.666 165.333 -111.999 184zM246.999 545c-29.333 24.667 -58.667 37 -88 37c-24 0 -45 -10.667 -63 -32c-10 -11.333 -15 -25.833 -15 -43.5s5 -36.167 15 -55.5c40.667 54.667 91 86 151 94zM321.998 336
c12 0 24 0.666992 36 2c-7.33301 55.333 -29.333 108.333 -66 159c-11.333 14.667 -21.666 26.667 -30.999 36c-4.66699 0.666992 -9.33398 1 -14.001 1l-72 -22c-28.667 -16.667 -52.334 -41 -71.001 -73c17.333 -26 44.833 -49.667 82.5 -71s82.834 -32 135.501 -32z
M43.998 -244c26 43.333 85.999 86 179.999 128c-8 14.667 -20 28 -36 40c-17.333 13.333 -36.666 20 -57.999 20c-40 0 -71.333 -18 -94 -54c-10 -16 -15 -36 -15 -60s7.66699 -48.667 23 -74zM57.9971 -264c32 -37.333 74.332 -56 126.999 -56c40 0 82.5 14.5 127.5 43.5
s82.833 67.833 113.5 116.5c20 30 38 71.667 54 125c-93.333 -36.667 -171.333 -70.334 -234 -101.001c2 -9.33301 3 -22.166 3 -38.499s-6.33301 -35.833 -19 -58.5c-0.666992 -1.33301 -2 -2 -4 -2c-3.33301 0 -4.33301 2 -3 6c10 17.333 15 33.5 15 48.5
s-1.33301 27.833 -4 38.5c-46 -21.333 -85.333 -43 -118 -65c-27.333 -20 -46.666 -39 -57.999 -57zM185.996 -328c-56 0 -100.333 18.332 -133 54.999c-4 -8 -6 -15.833 -6 -23.5s2.33301 -15.167 7 -22.5c14.667 -25.333 49.667 -38 105 -38c30 0 57 4 81 12
c71.333 18.667 134.666 58 189.999 118s91.333 132 108 216l-42 -17c-15.333 -57.333 -33.666 -102.666 -54.999 -135.999c-33.333 -50 -73.833 -89.833 -121.5 -119.5s-92.167 -44.5 -133.5 -44.5zM38.9961 -254.001c-17.333 27.333 -25.9961 54.3408 -25.9961 81.0078
c0 47.333 20.667 85 62 113c17.333 12 36.666 18 57.999 18c25.333 0 47.166 -7 65.499 -21s31.5 -29.667 39.5 -47c41.333 18 88.166 36.333 140.499 55s87.833 31.667 106.5 39c6.66699 24 14.334 55.333 23.001 94c28 127.333 46.667 186.666 56 177.999
c1.33301 -2.66699 1.33301 -6 0 -10c-13.333 -28.667 -25.833 -73 -37.5 -133s-20.167 -100.667 -25.5 -122c21.333 8 34.666 13.333 39.999 16c0 4 2.66699 24.333 8 61s11.166 70.5 17.499 101.5s13.5 61.167 21.5 90.5c18 71.333 42 134.333 72 189
c-46 -54.667 -98 -132.334 -156 -233.001l-49 -82c-52.667 -79.333 -86.334 -119 -101.001 -119c-2 0 -3.5 0.833008 -4.5 2.5s-0.833008 3.16699 0.5 4.5c16 39.333 28 83.5 36 132.5s12 87.167 12 114.5s-0.666992 49.666 -2 66.999
c-6 -1.33301 -13.667 -2.66602 -23 -3.99902h-4c1.33301 -13.333 2 -29.333 2 -48c0 -85.333 -14.667 -173 -44 -263c-0.666992 -3.33301 -2.16699 -4.33301 -4.5 -3s-3.16602 3 -2.49902 5c19.333 59.333 31.666 124 36.999 194c2.66699 26 4 48.167 4 66.5
s-0.666992 34.166 -2 47.499c-13.333 -1.33301 -26.333 -2 -39 -2c-52.667 0 -98.5 11 -137.5 33s-66.5 45 -82.5 69c-2.66699 -4 -7.83398 -15.333 -15.501 -34s-11.5 -37.334 -11.5 -56.001s4.83301 -35.5 14.5 -50.5s27.334 -22.5 53.001 -22.5s50.5 16.333 74.5 49
c2.66699 4 4 4.33301 4 1c-4.66699 -14.667 -16.834 -29.334 -36.501 -44.001s-40.667 -22 -63 -22s-39 8.83301 -50 26.5s-16.5 36.5 -16.5 56.5c0 40 12.667 76.333 38 109c-10.667 18.667 -16 36.667 -16 54s3.16699 32 9.5 44s15.5 22.333 27.5 31
c16 11.333 33.667 17 53 17c32.667 0 65.667 -14.333 99 -43h7c31.333 0 60 -9.33301 86 -28c43.333 -30.667 67.666 -86 72.999 -166c29.333 10 53 23.167 71 39.5s27.667 35.166 29 56.499c0 1.33301 0.666992 2.33301 2 3c4 2 6 0.666992 6 -4
c-4 -46.667 -39.667 -81 -107 -103c0.666992 -8.66699 1 -17.667 1 -27c0 -44.667 -6.16699 -93.834 -18.5 -147.501s-28.833 -100.834 -49.5 -141.501c12 5.33301 29 27 51 65l27 46.5l21 36.5c4 6.66699 16.667 29.167 38 67.5l57 100.5
c16.667 28.667 38.667 61.167 66 97.5s54.333 66.166 81 89.499c6 5.33301 11.167 7.16602 15.5 5.49902s6.5 -4.16699 6.5 -7.5s-1.66699 -7.66602 -5 -12.999c-31.333 -46 -57.166 -98.667 -77.499 -158s-33.666 -110.5 -39.999 -153.5s-11.166 -83 -14.499 -120
s-5.33301 -56.5 -6 -58.5c18.667 8 39.667 18.667 63 32s34.666 18.333 33.999 15c-1.33301 -4.66699 -14.333 -15.167 -39 -31.5s-45.667 -28.5 -63 -36.5c-15.333 -61.333 -41 -120.666 -77 -177.999s-81.667 -105 -137 -143c-42 -28.667 -85.333 -49 -130 -61
c-23.333 -6.66699 -44.333 -10 -63 -10c-65.333 0 -108.666 18.333 -129.999 55c-7.33301 12 -11 24.5 -11 37.5s2.66699 26.167 8 39.5z" />
    <glyph glyph-name="Z" unicode="Z" horiz-adv-x="546" 
d="M536 458c-170 11.333 -268.337 17.0039 -295.004 17.0039s-52.667 -5.33301 -78 -16s-39 -27.334 -41 -50.001c-1.33301 -8.66699 -0.166016 -16.834 3.50098 -24.501s5.5 -11.834 5.5 -12.501c0 -4 -1.66699 -6 -5 -6l-2 1c-8 13.333 -12 24 -12 32
c0 30.667 9.83301 54.834 29.5 72.501s37.667 28.167 54 31.5s35.5 5 57.5 5s51.167 -2.16699 87.5 -6.5s76.166 -9.83301 119.499 -16.5s75.333 -11.334 96 -14.001c25.333 14 47 21 65 21s27 -3.66699 27 -11c0 -15.333 -32.333 -23 -97 -23
c-40 -30 -86.667 -74.667 -140 -134c62 -33.333 101.667 -85 119 -155c5.33301 -20.667 8 -40.667 8 -60c0 -46 -14.667 -88 -44 -126c31.333 4.66699 56.666 20.334 75.999 47.001c12 16 18 31.167 18 45.5s-2 25.166 -6 32.499s-4.33301 12 -1 14
c2.66699 0 4.33398 -0.333008 5.00098 -1c7.33301 -15.333 11 -32.333 11 -51s-9 -38.667 -27 -60c-30.667 -34 -67.667 -54.667 -111 -62c-37.333 -29.333 -83.666 -48.333 -138.999 -57c-12.667 -2 -24.334 -3 -35.001 -3c-32 0 -55.833 8.5 -71.5 25.5
s-23.5 36.167 -23.5 57.5c0 10 1.66699 20.667 5 32l-44 15c-34.667 -28.667 -66.667 -43 -96 -43c-8.66699 0 -17 1 -25 3c-21.333 6.66699 -32 18 -32 34s12.333 28 37 36c13.333 4 29.833 6 49.5 6s38.834 -2 57.501 -6c0.666992 0.666992 18.834 24 54.501 70
s62.167 79.333 79.5 100c-7.33301 0 -18 -1 -32 -3c-24 -30 -50.667 -59 -80 -87s-56 -42 -80 -42c-10 0 -19.333 2.66699 -28 8c-17.333 11.333 -26 30.333 -26 57c0 58.667 28.333 108 85 148c48.667 34.667 110.334 52 185.001 52c14 0 29.333 -1.66699 46 -5
c52.667 54 88.334 85.333 107.001 94c6.66699 3.33301 10 3.83301 10 1.5s-4.5 -5.83301 -13.5 -10.5s-40.5 -33.334 -94.5 -86.001l29 -9c54 52 104.667 92.667 152 122zM207.996 31.0039c29.333 46 73.6689 69.001 133.002 69.001c32.667 0 52 -7.33301 58 -22
c1.33301 -3.33301 0.333008 -5 -3 -5c-2 0 -3.33301 0.666992 -4 2c-7.33301 11.333 -23.333 17 -48 17c-58 0 -101 -21 -129 -63c96 -32 158.667 -48 188 -48l49 -3c8.66699 0 16 1 22 3c32.667 39.333 49 83.666 49 132.999c0 16 -1.66699 32.667 -5 50
c-14.667 70.667 -52 121.667 -112 153c-21.333 -22.667 -45.333 -49.667 -72 -81c42 -1.33301 77 -5.33301 105 -12c3.33301 0 5 -1 5 -3c-0.666992 -1.33301 -2.33398 -2 -5.00098 -2h-3c-12 2 -31 3 -57 3s-45.667 -0.333008 -59 -1c-18 -19.333 -44.5 -51.333 -79.5 -96
l-66.5 -84c17.333 -4.66699 28.666 -8 33.999 -10zM151.999 174.005c-1.33301 -2 -0.332031 -6 3.00098 -12l-1 -1c-2 0 -6.66699 3.66699 -14 11c-3.33301 6 -4.66602 12.333 -3.99902 19c2.66699 29.333 40 44.666 112 45.999c45.333 52.667 75.666 87 90.999 103
c-12.667 2 -25.667 3 -39 3c-94 0 -166.667 -30.667 -218 -92c-29.333 -35.333 -44 -70.166 -44 -104.499s12.667 -51.5 38 -51.5c22 0 49.333 15.333 82 46c15.333 14.667 37.666 38 66.999 70c-48 -8.66699 -72.333 -21 -73 -37zM197 -27.9951
c0 -19.333 7.66992 -36.833 23.0029 -52.5s37.666 -23.5 66.999 -23.5c10 0 20.667 1 32 3c48 8 87.333 23.667 118 47h-25c-12.667 0 -33.334 3 -62.001 9s-50.334 11.5 -65.001 16.5l-83 29.5c-3.33301 -10 -5 -19.667 -5 -29zM124.003 25.0049
c-27.333 7.33301 -54.001 11 -80.001 11s-39 -6.33301 -39 -19c0 -10 8 -17.667 24 -23c8.66699 -3.33301 17.334 -5 26.001 -5c24 0 47 12 69 36zM263.002 238.005l29 -1c32.667 37.333 61.334 68.333 86.001 93c-10.667 4 -20.334 6.66699 -29.001 8
c-16 -16.667 -44.667 -50 -86 -100z" />
    <glyph glyph-name="bracketleft" unicode="[" horiz-adv-x="585" 
d="M164 4l74.999 5c19.333 0 29 -4 29 -12c0 -9.33301 -36.667 -14 -110 -14s-110 12 -110 36c0 50.667 20.333 124.667 61 222s89.334 190.5 146.001 279.5s105.667 148.5 147 178.5c16.667 12.667 40 19 70 19c67.333 0 101 -7 101 -21c0 -6 -0.333008 -10.333 -1 -13
c-2.66699 -0.666992 -7.33398 -1 -14.001 -1l-72 4c-28.667 0 -47 -2.33301 -55 -7c-17.333 -10.667 -37.666 -30.667 -60.999 -60c-53.333 -62.667 -113.833 -156.667 -181.5 -282s-101.5 -218 -101.5 -278c0 -37.333 25.667 -56 77 -56z" />
    <glyph glyph-name="backslash" unicode="\" horiz-adv-x="551" 
d="M523 -84c0 -21.333 -8.66797 -31.9971 -26.001 -31.9971v20c0 56.667 -17 123.5 -51 200.5s-77.667 153.5 -131 229.5c-103.333 147.333 -205 272.333 -305 375c0.666992 4 7.5 6 20.5 6s27.667 -6.83301 44 -20.5s43.833 -45.167 82.5 -94.5
s76.334 -100.333 113.001 -153s75.167 -111.834 115.5 -177.501s73.333 -130.334 99 -194.001s38.5 -116.834 38.5 -159.501z" />
    <glyph glyph-name="bracketright" unicode="]" horiz-adv-x="556" 
d="M465 716l27.0068 1.00195c17.333 0 28 -2 32 -6c9.33301 -8 14 -18.667 14 -32c0 -96.667 -27.833 -211.334 -83.5 -344.001s-117.834 -235.334 -186.501 -308.001c-28 -29.333 -86.333 -44 -175 -44c-32 0 -52.333 0.666992 -61 2c13.333 12 23.666 18.833 30.999 20.5
s12.166 2.66699 14.499 3s8.16602 0.333008 17.499 0s23.166 -0.5 41.499 -0.5s38.833 3.83301 61.5 11.5s43 22.167 61 43.5c52.667 62.667 105.834 156.5 159.501 281.5s80.5 224.5 80.5 298.5c0 8.66699 -1.33301 21 -4 37c-8.66699 6 -20.334 9 -35.001 9
s-49.334 -1.66699 -104.001 -5c21.333 21.333 57.666 32 108.999 32z" />
    <glyph glyph-name="asciicircum" unicode="^" horiz-adv-x="323" 
d="M91 245c-5.33301 -1.33301 -7.99902 -1.16602 -7.99902 0.500977s0.166992 2.5 0.5 2.5s0.5 0.333008 0.5 1l122 86c10 1.33301 17.5 2 22.5 2s7.83301 -0.666992 8.5 -2l30 -86c0 -2.66699 -0.666992 -4.33398 -2 -5.00098c-8.66699 0 -13.667 1.66699 -15 5l-37 58
l-108 -58c-2.66699 -2.66699 -7.33398 -4 -14.001 -4z" />
    <glyph glyph-name="underscore" unicode="_" horiz-adv-x="760" 
d="M40 -61c-12.667 0 -19.001 2.66699 -19.001 8c0 3.33301 4.33301 8.33301 13 15c10 6 18.833 10.333 26.5 13s109.167 4 304.5 4s307.333 -1.66699 336 -5s43 -7.5 43 -12.5s-10 -8.16699 -30 -9.5c-133.333 -4 -204.166 -6.5 -212.499 -7.5s-47.5 -1.83301 -117.5 -2.5
c-208.667 -2 -317.5 -3 -326.5 -3h-17.5z" />
    <glyph glyph-name="grave" unicode="`" horiz-adv-x="245" 
d="M79 415c-4 4 -5.99902 10 -5.99902 18s3 12 9 12c3.33301 0 7.66602 -2.16699 12.999 -6.5s13.333 -10.5 24 -18.5c17.333 -12 38 -27.667 62 -47c2.66699 -2 4 -4.33301 4 -7c0 -4.66699 -2.66699 -7 -8 -7c-8 0 -40.667 18.667 -98 56z" />
    <glyph glyph-name="a" unicode="a" horiz-adv-x="269" 
d="M108 142c-19.333 -26 -33.001 -48.665 -41.001 -67.998s-12 -33.666 -12 -42.999s3 -14 9 -14c18 0 54.333 40 109 120c21.333 27.333 32 27 32 -1c-1.33301 -17.333 -2 -32 -2 -44c0 -50.667 10.667 -76 32 -76c22.667 0 50.334 18.333 83.001 55
c2 2 4.33301 0.666992 7 -4c-2 -4.66699 -8.83301 -12.834 -20.5 -24.501s-26.167 -22.167 -43.5 -31.5s-30.5 -14 -39.5 -14s-16.167 1 -21.5 3c-24.667 8.66699 -37 42.667 -37 102c-26.667 -42 -46 -68.667 -58 -80c-18.667 -17.333 -34 -26 -46 -26h-3
c-22 3.33301 -33 18.166 -33 44.499s8.5 55.666 25.5 87.999s39.5 61.5 67.5 87.5s56 39 84 39c13.333 0 26.333 -3.33301 39 -10c11.333 -6.66699 17 -17.167 17 -31.5s-6.33301 -22.5 -19 -24.5c4.66699 8 7 15.5 7 22.5s-3.33301 12.167 -10 15.5s-12.667 5 -18 5
c-28.667 0 -64.667 -30 -108 -90z" />
    <glyph glyph-name="b" unicode="b" horiz-adv-x="259" 
d="M222 253c20.667 0 31.001 -12.0039 31.001 -36.0039c0 -14 -3 -34.667 -9 -62s-18 -55.166 -36 -83.499s-44 -50.166 -78 -65.499c-20.667 -8.66699 -38 -13 -52 -13c-40.667 0 -61 14.333 -61 43c0 12.667 5 23.667 15 33c4.66699 -43.333 21 -65 49 -65h6
c16.667 2.66699 34.5 13.167 53.5 31.5s35.5 42.333 49.5 72s21 57.834 21 84.501c0 22.667 -4 32 -12 28c-30.667 -15.333 -57 -40.166 -79 -74.499s-33.333 -68.5 -34 -102.5c0 -4 -2 -6 -6 -6s-9.33301 3.5 -16 10.5s-10.667 10.833 -12 11.5c0 31.333 8 80.5 24 147.5
s38.167 127.667 66.5 182s60.166 92.5 95.499 114.5c3.33301 2 11.333 4.66699 24 8s20.667 5 24 5s5.33301 -0.333008 6 -1c18.667 -4.66699 32.667 -14.334 42 -29.001c3.33301 -4.66699 5 -8 5 -10s-1.33301 -3 -4 -3s-5 1 -7 3c-14.667 12 -32 18 -52 18h-3
c-31.333 -0.666992 -68.5 -51.667 -111.5 -153s-66.167 -173.666 -69.5 -216.999c9.33301 16 27 38.333 53 67s42.833 46.167 50.5 52.5s16.5 9.5 26.5 9.5z" />
    <glyph glyph-name="c" unicode="c" horiz-adv-x="199" 
d="M61 -18c-32 0 -47.999 22.668 -47.999 68.001c0 14 2 29.333 6 46c13.333 50.667 37.666 95 72.999 133c16.667 17.333 32.167 26 46.5 26s27.5 -5.33301 39.5 -16c3.33301 -2.66699 6.5 -7.83398 9.5 -15.501s3.5 -13.834 1.5 -18.501s-5 -2.66699 -9 6
c-4 7.33301 -11.333 11 -22 11c-18.667 0 -37.667 -15.333 -57 -46c-35.333 -56.667 -53 -101.667 -53 -135c0 -10.667 2.5 -20 7.5 -28s10.833 -12 17.5 -12c40.667 0 83.334 25.667 128.001 77c4.66699 4.66699 7 5 7 1s-3.83301 -10.667 -11.5 -20
s-21.834 -21.666 -42.501 -36.999c-34 -26.667 -65 -40 -93 -40z" />
    <glyph glyph-name="d" unicode="d" horiz-adv-x="306" 
d="M248 202c-13.333 -36.667 -19.9971 -73.5 -19.9971 -110.5s4.66699 -59.167 14 -66.5c3.33301 -1.33301 8.16602 -2 14.499 -2s16.833 4 31.5 12s28.5 17.333 41.5 28s19.833 15.5 20.5 14.5s1 -2.16699 1 -3.5c0 -6.66699 -7.66699 -17 -23 -31
s-32.833 -25.5 -52.5 -34.5s-34 -13.5 -43 -13.5s-15.5 0.833008 -19.5 2.5s-7.33301 4.5 -10 8.5s-4.5 8.83301 -5.5 14.5s-1.83301 12 -2.5 19s-0.666992 14.167 0 21.5l2 21.5c0.666992 7 1.5 13.833 2.5 20.5l2.5 17c0.666992 4.66699 1.66699 10 3 16l-12 -14
c-66.667 -84 -111.667 -126 -135 -126h-3c-21.333 3.33301 -32 18 -32 44c0 8.66699 1 18.667 3 30c10.667 46.667 34.167 89.167 70.5 127.5s70.166 57.5 101.499 57.5c12.667 0 26 -3.33301 40 -10c9.33301 20.667 22.833 57 40.5 109s36.167 83 55.5 93
c2.66699 1.33301 5 2 7 2c7.33301 0 10 -8.33301 8 -25c0 -2 -5 -12.667 -15 -32c-32.667 -64.667 -53.5 -108.5 -62.5 -131.5s-14.167 -35.833 -15.5 -38.5c7.33301 -16 6.66602 -23.333 -2.00098 -22zM64.0029 70c-6.66699 -16.667 -10.001 -29.667 -10.001 -39
s3 -14 9 -14c16.667 0 47.667 30.667 93 92c22.667 30.667 40.834 57.167 54.501 79.5s20.5 35.5 20.5 39.5s-7 6 -21 6s-37.833 -17.333 -71.5 -52s-58.5 -72 -74.5 -112z" />
    <glyph glyph-name="e" unicode="e" horiz-adv-x="225" 
d="M190 235c12.667 -10 19.002 -22.665 19.002 -37.998s-7.33301 -33 -22 -53h20c10 0 9.66699 -1.83301 -1 -5.5s-20.667 -6.5 -30 -8.5c-6.66699 -8 -14.334 -15.167 -23.001 -21.5s-12.667 -6.83301 -12 -1.5l5 9l10 11c-54 -4 -82.667 -6.33301 -86 -7
c-7.33301 -18 -11 -37.333 -11 -58s5 -35.167 15 -43.5s18.667 -12.5 26 -12.5c46 0 92.667 25 140 75c6 6 9 5.66699 9 -1c0 -2 -2 -5.33301 -6 -10c-13.333 -16 -32 -31.333 -56 -46c-38.667 -24.667 -69.834 -37 -93.501 -37s-42.5 6.5 -56.5 19.5s-21 32.833 -21 59.5
c0 9.33301 1.5 21.666 4.5 36.999s10.667 35.166 23 59.499s27.333 45 45 62s35 25.5 52 25.5s33.5 -5 49.5 -15zM166.002 143.002c11.333 23.333 17 42 17 56s-6 21 -18 21s-26.667 -8.33301 -44 -25s-31 -34.667 -41 -54c49.333 1.33301 78 2 86 2z" />
    <glyph glyph-name="f" unicode="f" horiz-adv-x="151" 
d="M205 234c5.33301 0 8.33008 -1.16602 8.99707 -3.49902s-5 -4.83301 -17 -7.5c-39.333 -8 -68.333 -12 -87 -12c-18 -44 -31.5 -99.167 -40.5 -165.5s-13.5 -115.166 -13.5 -146.499c0 -46.667 7.33301 -77.334 22 -92.001c3.33301 -3.33301 7.83301 -6.5 13.5 -9.5
s7.16699 -5.16699 4.5 -6.5c-3.33301 -1.33301 -8.66602 -2 -15.999 -2s-18.666 5 -33.999 15s-24.333 26.667 -27 50c-1.33301 10 -2 27.333 -2 52s6.83301 70.167 20.5 136.5s27.834 121.166 42.501 164.499c-3.33301 -0.666992 -6.66602 -1 -9.99902 -1
c-12.667 0 -20.5 3.66699 -23.5 11s-2.66699 11.333 1 12s10.334 1.33398 20.001 2.00098s15.834 1.33398 18.501 2.00098c33.333 86 60.666 146.333 81.999 181c38.667 64.667 78 97 118 97c7.33301 0 14.666 -1 21.999 -3c15.333 -5.33301 23 -15 23 -29
s-4.33301 -23 -13 -27c3.33301 11.333 2.66602 20.166 -2.00098 26.499s-12 9.5 -22 9.5c-21.333 -0.666992 -45.333 -18.667 -72 -54c-45.333 -60.667 -80.333 -127.334 -105 -200.001h88z" />
    <glyph glyph-name="g" unicode="g" horiz-adv-x="258" 
d="M98.5 142.5c-19 -26.333 -32.498 -49.3301 -40.498 -68.9971s-12 -34 -12 -43s3 -13.5 9 -13.5c18 0 54.333 40 109 120c21.333 27.333 32 27 32 -1c-0.666992 -4.66699 -1 -10.667 -1 -18c0 -25.333 0.666992 -48 2 -68c18 12 35.167 25.333 51.5 40
s24.5 19.667 24.5 15s-4.33301 -11.667 -13 -21c-28.667 -28.667 -49.334 -47 -62.001 -55c2.66699 -20.667 4 -46.5 4 -77.5s-5 -66.167 -15 -105.5c-14.667 -60 -42 -111.667 -82 -155c-30.667 -32.667 -65.667 -57 -105 -73c-26 -12 -54 -18 -84 -18
c-50.667 0 -90.667 14.667 -120 44c-20 22 -30 45.333 -30 70c0 51.333 45.333 106.666 136 165.999c40 25.333 88.333 53.333 145 84s98 54 124 70c-8.66699 42.667 -14.334 65.334 -17.001 68.001c-26.667 -42 -46 -68.667 -58 -80
c-20 -18.667 -36.333 -27.334 -49 -26.001c-22 3.33301 -33 18.166 -33 44.499s8.5 55.666 25.5 87.999s39.5 61.5 67.5 87.5s56 39 84 39c13.333 0 26.333 -3.33301 39 -10c11.333 -6.66699 17 -17.167 17 -31.5s-6.33301 -22.5 -19 -24.5c4.66699 8 7 15.5 7 22.5
s-3.16699 12.167 -9.5 15.5s-12.5 5 -18.5 5c-14 0 -30.833 -8.33301 -50.5 -25s-39 -38.167 -58 -64.5zM-175.998 -225.997c-26.667 -28 -39.999 -51.333 -39.999 -70s6.66699 -34.667 20 -48c18.667 -18.667 48.667 -28 90 -28c31.333 0 64.666 7.33301 99.999 22
c43.333 16.667 81 42 113 76c49.333 54 74 122.667 74 206c0 26.667 -2.33301 54.667 -7 84c-189.333 -114 -306 -194.667 -350 -242z" />
    <glyph glyph-name="h" unicode="h" horiz-adv-x="242" 
d="M164 88c0 -42 7.33789 -62.999 22.0049 -62.999c20 0 47.333 21.667 82 65c6.66699 8 10.5 12.5 11.5 13.5s2.16699 -0.5 3.5 -4.5l1 -2c-5.33301 -13.333 -21.5 -33.333 -48.5 -60s-49.833 -40 -68.5 -40c-6.66699 0 -13 1.66699 -19 5c-16.667 8 -25 37.333 -25 88
c0 8 0.666992 19.167 2 33.5s2.66602 22.166 3.99902 23.499c0 0.666992 -0.833008 0.166992 -2.5 -1.5s-4.33398 -4.66699 -8.00098 -9l-11.5 -13.5c-4 -4.66699 -8.66699 -10.667 -14 -18s-10.333 -13.666 -15 -18.999c-12 -13.333 -21.333 -25.333 -28 -36
c-2 -24 -10.667 -40.667 -26 -50c-3.33301 -2 -5.83301 -3 -7.5 -3s-2.5 6.16699 -2.5 18.5s4.33301 44.166 13 95.499s16.667 86.666 24 105.999c-20.667 -5.33301 -31.667 -13.666 -33 -24.999c-1.33301 -8 -3.5 -11.833 -6.5 -11.5s-4.5 3.16602 -4.5 8.49902
c0 20.667 17 36 51 46c17.333 56.667 42.666 112.667 75.999 168s70.333 98.333 111 129c40.667 32 82 48 124 48c18 0 35.667 -3.66699 53 -11c26 -11.333 44.333 -30.333 55 -57c4.66699 -12 7 -24.333 7 -37c0 -38.667 -19 -72.334 -57 -101.001
c-26.667 -20.667 -62.334 -41.167 -107.001 -61.5s-81.167 -35.333 -109.5 -45l-124.5 -40.5c-10.667 -28.667 -22 -82 -34 -160c9.33301 14 24 33.833 44 59.5l39 50.5c3.33301 14.667 11.166 26.5 23.499 35.5s18.5 7.16699 18.5 -5.5
c0 -3.33301 -2.16699 -18.666 -6.5 -45.999s-6.5 -51.666 -6.5 -72.999zM468.005 501.001c-12.667 33.333 -44.333 50.0029 -95 50.0029c-47.333 0 -93.666 -16.333 -138.999 -49c-20 -14 -42.333 -39.333 -67 -76c-14 -21.333 -25.833 -44.5 -35.5 -69.5l-26 -70
c-7.66699 -21.667 -12.834 -35.834 -15.501 -42.501c44.667 12.667 102.5 35.5 173.5 68.5s123.5 62.667 157.5 89s51 52.166 51 77.499c0 7.33301 -1.33301 14.666 -4 21.999z" />
    <glyph glyph-name="i" unicode="i" horiz-adv-x="142" 
d="M138 307c4.66699 0 7 -1.5 7 -4.5s-4 -9.16699 -12 -18.5c-17.333 -21.333 -34.333 -25.333 -51 -12c-2.66699 2 -3 4 -1 6c23.333 19.333 42.333 29 57 29zM61 53c0 -20 6 -30 18 -30c6.66699 0 23.167 10.833 49.5 32.5s40.5 33.5 42.5 35.5s3.66699 2.5 5 1.5
s2 -2 2 -3s-0.333008 -2.16699 -1 -3.5c-10 -16.667 -31 -36.667 -63 -60c-21.333 -17.333 -39.333 -26 -54 -26c-22.667 -0 -34 19.333 -34 58c0 7.33301 0.666992 17.833 2 31.5s12 55.834 32 126.501c1.33301 5.33301 8.83301 8 22.5 8s20.5 -3.83301 20.5 -11.5
s-2.5 -17.667 -7.5 -30s-10.833 -19.166 -17.5 -20.499c-3.33301 -0.666992 -7 -17.334 -11 -50.001s-6 -52.334 -6 -59.001z" />
    <glyph glyph-name="j" unicode="j" horiz-adv-x="138" 
d="M157 307c4.66699 0 7 -1.5 7 -4.5s-4 -9.16699 -12 -18.5c-17.333 -20 -34.333 -24 -51 -12c-3.33301 2 -4 4 -2 6c24 19.333 43.333 29 58 29zM43 -61.5c-8.66699 -25.667 -19.002 -48.332 -31.002 -67.999s-28 -34.834 -48 -45.501s-36.833 -16 -50.5 -16
s-25.5 1.66699 -35.5 5s-15 11 -15 23c0 14 2 21.333 6 22c2.66699 0.666992 3.83398 -2.33301 3.50098 -9s2.66699 -13.5 9 -20.5s15.166 -10.167 26.499 -9.5c18.667 0.666992 35.334 9.66699 50.001 27s27.834 38.5 39.501 63.5s21.5 50.5 29.5 76.5s15.667 53.5 23 82.5
s12.833 54 16.5 75s6.83398 40.167 9.50098 57.5l5 25c0.666992 3.33301 3.5 5 8.5 5s11.333 -1.5 19 -4.5s11.5 -5.5 11.5 -7.5l-2 -10c-4.66699 -36 -13.334 -54.667 -26.001 -56l-13.5 -68l-16 -78.5c-4.33301 -20.333 -10.833 -43.333 -19.5 -69z" />
    <glyph glyph-name="k" unicode="k" horiz-adv-x="207" 
d="M82 163c49.333 82.667 103.664 124 162.997 124c17.333 0 28.666 -5.66699 33.999 -17c2 -3.33301 1.5 -5.5 -1.5 -6.5s-5.83301 0.333008 -8.5 4s-9.33398 4.5 -20.001 2.5c-24.667 -4.66699 -52.167 -21.834 -82.5 -51.501s-54.5 -56.167 -72.5 -79.5
c15.333 -28 38.333 -56 69 -84s57.667 -44.667 81 -50c4 -0.666992 3 -2 -3 -4c-11.333 -3.33301 -21.5 -5 -30.5 -5s-15.5 0.833008 -19.5 2.5s-8 3.16699 -12 4.5s-6.83301 2.33301 -8.5 3s-4.16699 2 -7.5 4s-6.33301 4 -9 6
c-3.33301 3.33301 -9.66602 10.333 -18.999 21c-20.667 26.667 -38.334 55 -53.001 85c-24 -36 -39 -73 -45 -111v-5c0 -5.33301 -1.66699 -8 -5 -8s-8.66602 3.83301 -15.999 11.5s-11.666 11.834 -12.999 12.501c0 21.333 5.83301 62.333 17.5 123s25.834 118 42.501 172
c29.333 96 71.333 158 126 186c16.667 8.66699 33.5 13 50.5 13s32.167 -10 45.5 -30c3.33301 -4.66699 5 -8.33398 5 -11.001c0 -4 -3.66699 -3.66699 -11 1c-13.333 12 -30.666 18 -51.999 18h-3c-29.333 0 -57.666 -25.667 -84.999 -77
c-48.667 -91.333 -81.334 -206.666 -98.001 -345.999c8.66699 28 19 52.333 31 73c-2.66699 5.33301 -4 9.33301 -4 12c-3.33301 14.667 -3.16602 22.667 0.500977 24s6.5 0 8.5 -4s3.66699 -8 5 -12v-1z" />
    <glyph glyph-name="l" unicode="l" horiz-adv-x="166" 
d="M83 181c-15.333 -54.667 -22.999 -94.0029 -22.999 -118.003s3.16699 -38.333 9.5 -43s14.166 -7 23.499 -7s25 5 47 15s39 22.667 51 38s17.667 19 17 11c-0.666992 -6.66699 -2.66699 -12.667 -6 -18c-12 -15.333 -31.667 -29.833 -59 -43.5s-49 -20.5 -65 -20.5
c-4 0 -7.66699 0.333008 -11 1c-26 6 -39 29.667 -39 71c0 19.333 3 43 9 71c-6.66699 -1.33301 -10 0.333984 -10 5.00098c0 6 6 15.333 18 28c40 166.667 92.667 277.334 158 332.001c14.667 12 28 18 40 18c26 0 39 -12 39 -36
c-1.33301 -53.333 -26 -109.666 -74 -168.999c-24.667 -30 -44.5 -53 -59.5 -69s-36.833 -38 -65.5 -66zM267.001 480.997c0 16.667 -4.33301 25 -13 25c-27.333 0 -64 -50.667 -110 -152c-26.667 -60.667 -46 -111 -58 -151c36.667 34.667 76 80.667 118 138s63 104 63 140
z" />
    <glyph glyph-name="m" unicode="m" horiz-adv-x="402" 
d="M339 -4c-38 0 -57 28.3311 -57 84.998c0 12 3.33301 37.333 10 76c-40 -42.667 -69.333 -76.667 -88 -102c-0.666992 -22.667 -13.334 -41 -38.001 -55c-11.333 -6.66699 -17 -8 -17 -4c6 18 12.333 49.5 19 94.5s10 77.167 10 96.5
c-1.33301 -1.33301 -14 -17.666 -38 -48.999c-52 -66.667 -80.667 -107.834 -86 -123.501s-15.333 -25.5 -30 -29.5c-2.66699 -0.666992 -4.66699 -1 -6 -1c-4 0 -6 2 -6 6c0 1.33301 1.83301 9.83301 5.5 25.5l9.5 40.5c9.33301 39.333 14.333 66.5 15 81.5
s1 26.167 1 33.5s-0.5 17.333 -1.5 30s7.5 23 25.5 31c7.33301 3.33301 13.333 5 18 5c9.33301 0 11.833 -5.66699 7.5 -17s-10.166 -41.333 -17.499 -90s-11.666 -74 -12.999 -76c26 23.333 58.667 68 98 134c14 22.667 26 34 36 34c9.33301 0 15 -15.333 17 -46
c0 -36.667 -2.66699 -71 -8 -103c5.33301 6.66699 14.666 17.667 27.999 33c22 24.667 44 52 66 82c4.66699 16 13.334 28.667 26.001 38s18.667 6.33301 18 -9c0 -2.66699 -2.66699 -19.667 -8 -51s-8.83301 -53.166 -10.5 -65.499s-2.5 -21.166 -2.5 -26.499
c0 -22 6 -36.667 18 -44c4.66699 -4 11.667 -6 21 -6s20 4 32 12s22.5 15.833 31.5 23.5s16.333 14.667 22 21l16 18.5c5 6 7.83301 9.33301 8.5 10c3.33301 1.33301 5.66602 -0.666992 6.99902 -6c-8 -16 -27.833 -37.833 -59.5 -65.5s-58.167 -41.5 -79.5 -41.5z" />
    <glyph glyph-name="n" unicode="n" horiz-adv-x="253" 
d="M272 21c0 -15.333 -13.002 -29 -39.002 -41c-9.33301 -4 -18.666 -6 -27.999 -6c-21.333 2 -35.166 9.5 -41.499 22.5s-9.5 24.167 -9.5 33.5s0.666992 20.166 2 32.499s3.83301 27.333 7.5 45s8.33398 35.334 14.001 53.001s8.5 26.834 8.5 27.501
c-6 -8 -19.333 -24 -40 -48c-53.333 -59.333 -82.5 -96 -87.5 -110s-14.833 -23.333 -29.5 -28c-8 -2.66699 -12 -1 -12 5c0 1.33301 2.33301 11 7 29c14.667 56 22 100.667 22 134l-1 27c0 11.333 7.66699 20.666 23 27.999c6.66699 3.33301 12.667 5 18 5
c9.33301 0 13 -4.5 11 -13.5s-5.33301 -25.833 -10 -50.5c-10.667 -58 -17.334 -89.667 -20.001 -95c39.333 36 81.666 89.333 126.999 160c2.66699 4.66699 6.66699 7 12 7c19.333 0 30 -3.33301 32 -10c1.33301 -4.66699 -2.16699 -19.5 -10.5 -44.5
s-14.5 -45.5 -18.5 -61.5c-10 -40.667 -15 -69.834 -15 -87.501s1.33301 -30.167 4 -37.5s7.33398 -10.666 14.001 -9.99902c19.333 2.66699 38 15 56 37c2.66699 2.66699 4 1.66699 4 -3z" />
    <glyph glyph-name="o" unicode="o" horiz-adv-x="235" 
d="M246 180l47.001 5c2 0 3 -0.666992 3 -2s-1 -3 -3 -5l-8 -7c-16 -7.33301 -32.333 -11 -49 -11s-27.667 1.33301 -33 4v-11c0 -6 -3.16699 -19 -9.5 -39s-15.833 -41 -28.5 -63s-26.334 -38 -41.001 -48s-25.5 -15 -32.5 -15s-14.333 1 -22 3s-16.167 9 -25.5 21
c-10.667 12 -16 28.833 -16 50.5s3.33301 43.834 10 66.501c24.667 74.667 55 113.667 91 117c4.66699 5.33301 10.5 8 17.5 8s16.167 -3.33301 27.5 -10c20 -12.667 31 -28.334 33 -47.001c9.33301 -11.333 22.333 -17 39 -17zM103.001 173
c-13.333 -23.333 -23.168 -46.668 -29.501 -70.001s-9.5 -43.166 -9.5 -59.499s6 -27.5 18 -33.5c3.33301 -1.33301 7 -2 11 -2c16 0 34 15.667 54 47c11.333 18 20.333 38 27 60s10 36 10 42s-0.333008 10 -1 12c-12.667 2 -22.667 6.66699 -30 14s-11.333 14 -12 20l-1 9
c-11.333 -2.66699 -23.666 -15.667 -36.999 -39z" />
    <glyph glyph-name="p" unicode="p" horiz-adv-x="226" 
d="M102 -4c-15.333 0 -22.998 8.66602 -22.998 25.999c0 22.667 14.333 45.334 43 68.001l28 22l12 11c0 14 -6 33.667 -18 59s-22.667 38 -32 38c-0.666992 0 -9.66699 -24.333 -27 -73c-52 -147.333 -80.667 -246 -86 -296c0 -2 -0.5 -6 -1.5 -12l-2.5 -15.5
c-0.666992 -4.33301 -1.16699 -9.5 -1.5 -15.5s-0.166016 -11.333 0.500977 -16s2 -9.33398 4 -14.001c2.66699 -9.33301 8.5 -14.666 17.5 -15.999s13.5 -3.33301 13.5 -6c0.666992 -2 -1 -3 -5 -3c-26 0 -44 13 -54 39c-6 13.333 -9 25.833 -9 37.5s2.16699 27.5 6.5 47.5
s16.166 60.667 35.499 122s37 115 53 161l25 68c-0.666992 0 -2 0.5 -4 1.5l-5 2.5c-3.33301 0.666992 -4.33301 3.16699 -3 7.5s4 8.5 8 12.5c10 8.66699 15 11.667 15 9c2 4 3.5 8 4.5 12s2.16699 8.33301 3.5 13c5.33301 14 8 24.833 8 32.5s-0.666992 12.667 -2 15
s-2.33301 3.83301 -3 4.5s-1.83398 1.66699 -3.50098 3s-2.83398 2.33301 -3.50098 3c-4.66699 2 -5.33398 3.5 -2.00098 4.5s5.83301 1.5 7.5 1.5s6.16699 -0.833008 13.5 -2.5s14.333 -6.16699 21 -13.5s9.33398 -13.666 8.00098 -18.999l-19 -64
c40.667 -26 64.334 -62.667 71.001 -110c0 -2 6 0.666992 18 8c24.667 14.667 37 19.667 37 15c-0.666992 -4.66699 -4.66699 -9.66699 -12 -15c-28 -16.667 -42 -25.334 -42 -26.001c-1.33301 -36 -9.33301 -64.333 -24 -85s-33.334 -34 -56.001 -40
c-6 -1.33301 -11 -2 -15 -2zM162.002 108.999c-41.333 -35.333 -62 -62 -62 -80c0 -8 4.66699 -12 14 -12c13.333 0 25 9 35 27c9.33301 18.667 14 37.667 14 57c0 3.33301 -0.333008 6 -1 8z" />
    <glyph glyph-name="q" unicode="q" horiz-adv-x="232" 
d="M96 142c-19.333 -26 -32.998 -48.6641 -40.998 -67.9971s-12 -33.666 -12 -42.999s3 -14 9 -14c18 0 54.333 40 109 120c13.333 17.333 23.666 23 30.999 17c3.33301 -2.66699 4.66602 -9.33398 3.99902 -20.001c-43.333 -116 -65 -203 -65 -261
c0 -40 9.66699 -65.667 29 -77c10.667 -4.66699 20.167 -5.5 28.5 -2.5s14.333 7.5 18 13.5s6.5 8.16699 8.5 6.5s1.66699 -5.5 -1 -11.5c-6.66699 -16.667 -15.667 -25 -27 -25h-2c-28.667 4 -49.834 17 -63.501 39s-20.5 45.333 -20.5 70v7
c0.666992 55.333 17.334 125 50.001 209c-26.667 -42 -46 -68.667 -58 -80c-20 -18.667 -36.333 -27.334 -49 -26.001c-22 3.33301 -33 18.166 -33 44.499s8.5 55.666 25.5 87.999s39.5 61.5 67.5 87.5s56 39 84 39c13.333 0 26.333 -3.33301 39 -10
c11.333 -6.66699 17 -17.167 17 -31.5s-6.33301 -22.5 -19 -24.5c4.66699 8 7 15.5 7 22.5s-3.33301 12.167 -10 15.5s-12.667 5 -18 5c-28.667 0 -64.667 -30 -108 -90z" />
    <glyph glyph-name="r" unicode="r" horiz-adv-x="177" 
d="M207 192c-8.66699 11.333 -17.6689 17 -27.002 17c-26.667 0 -59 -29.333 -97 -88c-19.333 -29.333 -36 -67.666 -50 -114.999c-0.666992 -5.33301 -3.66699 -8 -9 -8c-6 0 -9 2.66699 -9 8l15 106c6.66699 53.333 10.334 86.833 11.001 100.5s9.66699 23.167 27 28.5
c5.33301 1.33301 10.833 2 16.5 2s8.83398 -3 9.50098 -9c0 -2 -0.333008 -4.16699 -1 -6.5l-14.5 -53c-9 -33 -14.833 -52.5 -17.5 -58.5c16 28 36.333 55.167 61 81.5s43.667 39.5 57 39.5h1c18 0 29.667 -11 35 -33c1.33301 -5.33301 2 -9.83301 2 -13.5s-1 -5.5 -3 -5.5
c-2 -0.666992 -4.33301 1.66602 -7 6.99902z" />
    <glyph glyph-name="s" unicode="s" horiz-adv-x="198" 
d="M14 -28c-24 0 -36.001 6.00391 -36.001 18.0039c0 4 2.83301 8.16699 8.5 12.5s13.834 6.83301 24.501 7.5c64.667 5.33301 99.334 8.66602 104.001 9.99902c4.66699 7.33301 7 15.833 7 25.5s-9 22.167 -27 37.5s-31 31.333 -39 48s-12 30 -12 40s2.66699 19.333 8 28
c23.333 38.667 50.666 58 81.999 58c26.667 0 44 -9 52 -27c2 -5.33301 2.16699 -10 0.5 -14s-3.5 -5.66699 -5.5 -5s-3.33301 2.66699 -4 6c-1.33301 12 -7 18 -17 18c-5.33301 0 -11.666 -1.66699 -18.999 -5c-27.333 -10.667 -46.333 -29.334 -57 -56.001
c-2.66699 -6.66699 -4 -13.667 -4 -21s2.33301 -16.333 7 -27s12.334 -20.667 23.001 -30c18.667 -16 28 -32.667 28 -50c0 -6.66699 -1.66699 -13.334 -5 -20.001c34 16 60.333 30.667 79 44l2 -1c-0.666992 -8.66699 -17.334 -21.667 -50.001 -39l-28 -16l-11 -7
c-6.66699 -12.667 -28.334 -22.334 -65.001 -29.001c-18.667 -4 -34 -6 -46 -6z" />
    <glyph glyph-name="t" unicode="t" horiz-adv-x="167" 
d="M145 242c48.667 0 72.999 -3.00391 72.999 -9.00391c0 -1.33301 -8 -3 -24 -5c-51.333 -5.33301 -79.333 -8.66602 -84 -9.99902c-32.667 -80 -49 -137 -49 -171c0 -10.667 2.16699 -18.5 6.5 -23.5s9.33301 -7.16699 15 -6.5s10.334 1.33398 14.001 2.00098
s9.33398 2.83398 17.001 6.50098s13.834 6.5 18.501 8.5c11.333 5.33301 33 20.333 65 45c11.333 8 17.333 9.66699 18 5c0 -8.66699 -17.833 -25.667 -53.5 -51s-64.834 -38 -87.501 -38h-2c-20.667 1.33301 -34 7 -40 17c-2.66699 5.33301 -4 13.333 -4 24
s1.16699 23.5 3.5 38.5s7.5 34.167 15.5 57.5s15.167 43.333 21.5 60s9.16602 25 8.49902 25c-7.33301 0 -32 -3 -74 -9c-3.33301 -0.666992 -5 2.83301 -5 10.5s3.5 12.834 10.5 15.501s32.167 5 75.5 7c20.667 70.667 36 116.334 46 137.001c2 4.66699 5 7 9 7
s9.66699 -4.66699 17 -14s11 -16.333 11 -21s-0.666992 -8.33398 -2 -11.001l-49 -98c9.33301 0.666992 19 1 29 1z" />
    <glyph glyph-name="u" unicode="u" horiz-adv-x="281" 
d="M256 17c20 0 45.9971 17.999 77.9971 53.999l6 -4c-1.33301 -4 -8 -12.167 -20 -24.5s-26.5 -23 -43.5 -32s-30 -13.5 -39 -13.5s-16.167 1 -21.5 3c-12 4 -21.5 15.667 -28.5 35s-11.167 37.5 -12.5 54.5s-1.66602 25.833 -0.999023 26.5
c-5.33301 -8 -10.166 -15.833 -14.499 -23.5s-9.5 -15.834 -15.5 -24.501s-12.667 -17.334 -20 -26.001c-23.333 -30.667 -43.333 -46 -60 -46h-3c-25.333 4 -38 22 -38 54c0 48.667 24.333 109.334 73 182.001c4 6 10 9 18 9s15.667 -0.666992 23 -2
c10 -4 14.667 -7.66699 14 -11c-16 -16 -33 -40 -51 -72c-30.667 -56 -46 -95.667 -46 -119c0 -12.667 4.16699 -19 12.5 -19s18 4.83301 29 14.5s20.167 19.5 27.5 29.5l20 27.5c6 8.33301 13.333 19.333 22 33s15.334 23.834 20.001 30.501s9.5 11.834 14.5 15.501
s9 4 12 1s4.33301 -8.66699 4 -17s-0.5 -15.5 -0.5 -21.5c0 -76 13.667 -114 41 -114z" />
    <glyph glyph-name="v" unicode="v" horiz-adv-x="237" 
d="M257.5 188c7 0 14.5 3.00098 22.5 9.00098c4 -0.666992 6 -2.33398 6 -5.00098c0 -6.66699 -3.5 -11.334 -10.5 -14.001s-14.333 -4 -22 -4s-16.167 2.66699 -25.5 8c0 -10 -6.16699 -26.667 -18.5 -50s-27.166 -44.333 -44.499 -63
c-42.667 -47.333 -79.667 -71 -111 -71c-5.33301 0 -10.333 0.666992 -15 2c-12.667 2.66699 -19 12.834 -19 30.501s3 35.167 9 52.5c16 48 24 78.833 24 92.5s-4.66699 22.167 -14 25.5c-6 2.66699 -2 13.667 12 33c3.33301 4.66699 12.5 6 27.5 4s22.5 -5.33301 22.5 -10
c0 -15.333 -5.66699 -43.333 -17 -84c-14 -54 -21 -88 -21 -102s3.66699 -21 11 -21c18 0 44.667 20.333 80 61c37.333 46 57.666 82.333 60.999 109c-9.33301 10.667 -15.666 22.167 -18.999 34.5s-3.83301 22.5 -1.5 30.5s5.16602 12.333 8.49902 13s6 1 8 1
c8.66699 0 14.667 -4.83301 18 -14.5s5 -17.667 5 -24v-15.5l-3 -20c10.667 -5.33301 19.5 -8 26.5 -8z" />
    <glyph glyph-name="w" unicode="w" horiz-adv-x="407" 
d="M226 64c0 -41.333 10.6699 -62.001 32.0029 -62.001c14.667 0 29.334 9 44.001 27c24 32 36 67 36 105c0 8.66699 -0.666992 17 -2 25l-12 17c-7.33301 10.667 -10.833 18.667 -10.5 24s1.83301 10.666 4.5 15.999s9.83398 8 21.501 8s19.5 -4.33301 23.5 -13
c6 -14 28.667 -21 68 -21l28 2c4 0.666992 6 0.333984 6 -0.999023c0 -4.66699 -13.333 -10 -40 -16l-16 -3h-10c-5.33301 0 -17.333 1.33301 -36 4c2 -11.333 3 -25.833 3 -43.5s-4.16699 -38 -12.5 -61s-20.833 -42.167 -37.5 -57.5c-40 -36 -73.333 -39.333 -100 -10
c-14.667 16 -23.334 41.333 -26.001 76c-2 31.333 -2.33301 48.333 -1 51c-14 -31.333 -33.333 -64.333 -58 -99c-24 -32 -49 -48 -75 -48c-25.333 0 -38 13.667 -38 41c0 32 13.333 76.333 40 133c10 20 19 36 27 48s20 18 36 18c17.333 0 21.666 -5 12.999 -15
c-22.667 -25.333 -40.834 -59 -54.501 -101s-20.5 -69.667 -20.5 -83s4 -20 12 -20c11.333 0 27.666 12.667 48.999 38s42.333 61 63 107c2.66699 6 3 15.667 1 29c1.33301 11.333 10.666 18 27.999 20c15.333 0.666992 23 -3.66602 23 -12.999
c0 -1.33301 -1 -11.333 -3 -30c-4 -38 -6 -68.667 -6 -92z" />
    <glyph glyph-name="x" unicode="x" horiz-adv-x="212" 
d="M-2 -6c0 28.667 35.998 67.0029 107.998 115.003c-8 61.333 -16.667 94 -26 98c-5.33301 0.666992 -11.333 -2.33301 -18 -9s-11 -7.33398 -13 -2.00098c0 4 4 9.66699 12 17s18 13.5 30 18.5s20.667 4.5 26 -1.5c5.33301 -12 11 -37 17 -75l3 -19
c8 4.66699 25.167 18.667 51.5 42s44.833 43.166 55.5 59.499s16.334 24.666 17.001 24.999s1.5 0.5 2.5 0.5s2 -1.66699 3 -5s-0.833008 -9.83301 -5.5 -19.5s-13.334 -20.834 -26.001 -33.501l-95 -83c0 -6 1.16699 -14 3.5 -24s4.33301 -19.167 6 -27.5s3.5 -15 5.5 -20
l7.5 -18c3 -7 6.33301 -12 10 -15s7.5 -5.83301 11.5 -8.5c8.66699 -5.33301 20.667 -3.5 36 5.5s31 24.167 47 45.5c2 2 4.33301 0.666992 7 -4c-1.33301 -4 -7.16602 -12.167 -17.499 -24.5s-23.5 -23 -39.5 -32s-30 -13.5 -42 -13.5c-40.667 0 -62.667 36.667 -66 110
c-51.333 -43.333 -81.666 -72.666 -90.999 -87.999c-6 -11.333 -8.66699 -18.333 -8 -21c2 -4 1.33301 -6.66699 -2 -8c-6.66699 0 -10 5 -10 15z" />
    <glyph glyph-name="y" unicode="y" horiz-adv-x="242" 
d="M225 208c0 -18.667 -5.99902 -54.335 -17.999 -107.002s-22.333 -88.667 -31 -108c20.667 4.66699 32 12.667 34 24c0.666992 4 2.16699 7 4.5 9s4.33301 2.16699 6 0.5s2.16699 -5.16699 1.5 -10.5c-2.66699 -19.333 -20.667 -33 -54 -41
c-20 -55.333 -48 -109.666 -84 -162.999c-65.333 -96 -136.666 -150.333 -213.999 -163c-8 -1.33301 -19.167 -2 -33.5 -2s-30.5 4.33301 -48.5 13c-25.333 12.667 -42.666 33 -51.999 61c-3.33301 11.333 -5 23.166 -5 35.499s3 25.5 9 39.5c10 24 27.333 44.333 52 61
c60 40.667 176.333 83.334 349 128.001c11.333 26.667 24.666 87 39.999 181c-27.333 -49.333 -56.333 -92 -87 -128c-4 -14 -12.333 -25.5 -25 -34.5s-18.667 -6.83301 -18 6.5c0 3.33301 2.66699 17.166 8 41.499s8 49.666 8 75.999s-7 39.5 -21 39.5
c-6.66699 0 -13.667 -2.33301 -21 -7s-11.5 -5.16699 -12.5 -1.5s4.5 10 16.5 19s22.667 13.5 32 13.5s17.666 -2.16699 24.999 -6.5s11.833 -14.166 13.5 -29.499s2.5 -27.666 2.5 -36.999s-0.833008 -20.166 -2.5 -32.499s-3.16699 -19.166 -4.5 -20.499
c0 -4.66699 29.667 34.666 89 117.999c3.33301 22 12.666 33 27.999 33c8.66699 0 13 -2.66699 13 -8zM-40.999 -91.501c-72.667 -29.667 -122.334 -53.501 -149.001 -71.501s-44.667 -34.167 -54 -48.5s-14 -25.833 -14 -34.5c0 -34.667 18 -57.667 54 -69
c18.667 -5.33301 34.667 -8 48 -8s27 0.833008 41 2.5s29.833 6.16699 47.5 13.5s33 15.166 46 23.499s26 20 39 35s23.5 27.833 31.5 38.5s17 25.834 27 45.501l22 44c4.66699 9.66699 11.334 25.334 20.001 47.001s14.667 35.834 18 42.501
c-45.333 -10.667 -104.333 -30.834 -177 -60.501z" />
    <glyph glyph-name="z" unicode="z" horiz-adv-x="216" 
d="M147 240l91.9971 -2.00098c4 0 7.66699 -1 11 -3s5 -4.33301 5 -7c0 -8 -5.83301 -17.5 -17.5 -28.5s-22.167 -17.167 -31.5 -18.5c-88.667 -75.333 -141 -128.666 -157 -159.999c70.667 8.66699 115.834 13 135.501 13s32.834 -2.5 39.501 -7.5s9 -10.833 7 -17.5
s-5.33301 -13.5 -10 -20.5s-9.83398 -13 -15.501 -18s-9.83398 -7.5 -12.501 -7.5s-4 1.16699 -4 3.5s3.33301 6.66602 10 12.999s9.66699 11.5 9 15.5c-1.33301 7.33301 -17.666 11 -48.999 11s-61.833 -1.33301 -91.5 -4s-44.834 -4 -45.501 -4h-7
c-5.33301 3.33301 -8 7.33301 -8 12s1 8.33398 3 11.001c4.66699 10.667 19.834 29.167 45.501 55.5l84.5 85c30.667 30.333 50 49.833 58 58.5c-11.333 2 -22.666 3 -33.999 3c-42 0 -72 -9 -90 -27c-11.333 -12 -19 -18 -23 -18c-2 0 -3 1.66699 -3 5
c10 24 21.333 41 34 51c16.667 4 38.334 6 65.001 6z" />
    <glyph glyph-name="braceleft" unicode="{" horiz-adv-x="369" 
d="M69 305l-3 -0.00195312c28.667 -3.33301 53 -14.5 73 -33.5s30 -42.667 30 -71s-6.33301 -69.166 -19 -122.499s-19 -93 -19 -119s5.5 -45.5 16.5 -58.5s23 -20.333 36 -22s25.833 -3 38.5 -4s20 -2.83301 22 -5.5c-1.33301 -2 -8.66602 -3 -21.999 -3s-27 1 -41 3
s-27.667 6.33301 -41 13c-28 12.667 -42 39 -42 79c0 28 6.66699 68.833 20 122.5s20 94.167 20 121.5c0 62.667 -39 94.667 -117 96l5 8c56.667 6 94.167 17 112.5 33s32 35 41 57s15.167 44.5 18.5 67.5l10 72c3.33301 25 8.66602 48.5 15.999 70.5s18 41.667 32 59
c29.333 38.667 83 58 161 58c2.66699 0 4.66699 -0.666992 6 -2l-8 -3c-55.333 0 -95.333 -14.333 -120 -43c-20.667 -23.333 -35 -58 -43 -104c-10 -60 -19.667 -105.667 -29 -137s-28.333 -61.166 -57 -89.499s-61 -42.5 -97 -42.5z" />
    <glyph glyph-name="bar" unicode="|" horiz-adv-x="250" 
d="M181 617l-0.999023 -30.999c0 -60 -11.333 -182.833 -34 -368.5s-42.334 -290.5 -59.001 -314.5c-9.33301 -13.333 -18.666 -20 -27.999 -20c-0.666992 0 -1 1.33301 -1 4s0.666992 7 2 13s2.66602 12.667 3.99902 20c22.667 93.333 34 142.666 34 147.999
c24.667 141.333 37 286.333 37 435c0 60 -1.16699 98.833 -3.5 116.5s-5.5 34.167 -9.5 49.5s-6 26.833 -6 34.5s6.33301 11.5 19 11.5c30.667 0 46 -32.667 46 -98z" />
    <glyph glyph-name="braceright" unicode="}" horiz-adv-x="485" 
d="M31 -131c-3.33301 0 -5.32812 0.666992 -5.99512 2c2.66699 2 19.167 4.33301 49.5 7s54.166 10.334 71.499 23.001s32.333 33.834 45 63.501s22.5 59.667 29.5 90s17.333 62 31 95s29.667 58.333 48 76s40.5 32.834 66.5 45.501s51 20.334 75 23.001
c-30.667 2 -56.834 10.5 -78.501 25.5s-32.5 37.167 -32.5 66.5s9.66699 72.833 29 130.5s29 97.5 29 119.5s-1.83301 37.167 -5.5 45.5s-9.33398 14.5 -17.001 18.5s-14.834 6.66699 -21.501 8s-16.167 2.66602 -28.5 3.99902s-22.166 2.66602 -29.499 3.99902l-2 2l7 4
c64.667 0 105 -10.667 121 -32c8 -10.667 12 -28.334 12 -53.001s-10.5 -66.5 -31.5 -125.5s-31.5 -103.333 -31.5 -133s10 -50 30 -61s46.667 -18.167 80 -21.5l-7 -9c-41.333 -0.666992 -75.166 -8.83398 -101.499 -24.501s-45.5 -35.834 -57.5 -60.501
s-21.833 -51.834 -29.5 -81.501s-15.834 -59.167 -24.501 -88.5s-20.334 -56.166 -35.001 -80.499s-37.334 -44.166 -68.001 -59.499s-69.667 -23 -117 -23z" />
    <glyph glyph-name="asciitilde" unicode="~" horiz-adv-x="220" 
d="M205.5 144.5c-8.33301 -15 -16.834 -34.166 -25.501 -57.499s-13 -45.833 -13 -67.5s5.66699 -31.834 17 -30.501c17.333 1.33301 33.666 12 48.999 32c2.66699 2.66699 4 1.66699 4 -3c0 -6 -3 -12 -9 -18c-15.333 -15.333 -31.666 -23 -48.999 -23
c-10.667 0 -18.667 1.33301 -24 4c-12 6 -18 19 -18 39c0 24.667 13 64 39 118c7.33301 17.333 11 26.666 11 27.999s-0.333008 2 -1 2c-4 0 -14.333 -8.66699 -31 -26l-29 -30c-2.66699 -2.66699 -11 -10 -25 -22c-32 -26 -49.333 -44.833 -52 -56.5
s-9.33398 -19.167 -20.001 -22.5s-16 -2 -16 4c0 2.66699 7.83301 22.5 23.5 59.5s23.5 62.5 23.5 76.5c0 7.33301 7.33301 15 22 23c12 4.66699 17.667 3 17 -5c-2.66699 -13.333 -9.5 -32.5 -20.5 -57.5s-18.833 -41.5 -23.5 -49.5c42 37.333 68.5 62.333 79.5 75
s23.333 25 37 37s22.834 21.333 27.501 28c3.33301 4.66699 9.66602 6.33398 18.999 5.00098s14.333 -4 15 -8s-1.66602 -10.333 -6.99902 -19s-12.166 -20.5 -20.499 -35.5zM241.999 252.001c-9.33301 -7.33301 -17.668 -11.833 -25.001 -13.5s-14.833 -2.5 -22.5 -2.5
s-19.667 5.83301 -36 17.5s-29.166 17.5 -38.499 17.5s-18 -3.5 -26 -10.5s-13.333 -10.833 -16 -11.5c-6.66699 0 -10 1.66699 -10 5s7 10 21 20s24.5 16.167 31.5 18.5s11.833 3.5 14.5 3.5c12 0 25.667 -6.16699 41 -18.5s28 -18.5 38 -18.5h4h1
c2.66699 0 10 4.16699 22 12.5s18 8.83301 18 1.5c-2 -6.66699 -7.66699 -13.667 -17 -21z" />
    <glyph glyph-name="nbspace" unicode="&#xa0;" horiz-adv-x="184" 
 />
    <glyph glyph-name="exclamdown" unicode="&#xa1;" horiz-adv-x="277" 
d="M237 176c0 -8.66699 -3 -16 -9 -22s-13.5 -9 -22.5 -9s-16.667 3 -23 9s-9.5 13.333 -9.5 22s3.16699 16 9.5 22s14 9 23 9s16.5 -3 22.5 -9s9 -13.333 9 -22zM-44 -357c-0.666992 -2.66699 -3.16602 -4 -7.49902 -4s-10 2.33301 -17 7s-12.667 9.5 -17 14.5
s-6.5 8.16699 -6.5 9.5s11.5 18 34.5 50s55.667 80.667 98 146s75.166 131.333 98.499 198c4 11.333 10.167 17 18.5 17s12.5 -4 12.5 -12c0 -11.333 -28 -72 -84 -182s-99.333 -191.333 -130 -244z" />
    <glyph glyph-name="cent" unicode="&#xa2;" horiz-adv-x="211" 
d="M99 365c-25.333 -34.667 -38 -68.8291 -38 -102.496s12 -50.5 36 -50.5c34 0 70.667 39 110 117c3.33301 5.33301 6 8 8 8s3 -1.5 3 -4.5s-0.333008 -5.5 -1 -7.5c-17.333 -40 -33.333 -68.667 -48 -86c-22 -24.667 -47 -37.334 -75 -38.001l-30 -70
c-16.667 -42 -25 -71.5 -25 -88.5s4.33301 -26.833 13 -29.5c4.66699 -0.666992 7 -2.66699 7 -6s-1.16699 -5 -3.5 -5s-4.5 0.333008 -6.5 1c-16 4.66699 -24 18 -24 40s8 51.333 24 88l30 70c-37.333 3.33301 -56 24.166 -56 62.499s13.5 77 40.5 116
s58.167 58.5 93.5 58.5h4l24 61c19.333 46.667 32.333 70 39 70c1.33301 0 2 -2.16699 2 -6.5s-1 -8.16602 -3 -11.499s-8 -18 -18 -44l-27 -72c23.333 -8 35 -24.667 35 -50c-1.33301 -12.667 -5.16602 -22.834 -11.499 -30.501s-14.333 -11.5 -24 -11.5
s-17.5 3.16699 -23.5 9.5s-9 13.833 -9 22.5c1.33301 20 11 30 29 30h3c11.333 0 18.666 -4 21.999 -12c1.33301 7.33301 0.333008 13.666 -3 18.999c-4 6.66699 -10.5 10 -19.5 10s-19.833 -4.33301 -32.5 -13c-16.667 -10.667 -31.667 -25.334 -45 -44.001z" />
    <glyph glyph-name="sterling" unicode="&#xa3;" horiz-adv-x="382" 
d="M216 229c-22.667 0 -39.666 -4.33496 -50.999 -13.002c-2 0 -3.66699 2.83301 -5 8.5s-1.33301 9.16699 0 10.5c10.667 8.66699 24.334 13 41.001 13s31 -1 43 -3c46 194.667 101.667 292 167 292c12.667 0 25 -4.33301 37 -13c16 -12 24 -29.5 24 -52.5
s-4.83301 -47.5 -14.5 -73.5s-22.834 -49 -39.501 -69c-3.33301 -3.33301 -6 -5 -8 -5c-5.33301 0 -5.66602 3.66699 -0.999023 11c35.333 50.667 53 93.667 53 129s-10.833 53 -32.5 53s-41.5 -11.667 -59.5 -35c-29.333 -39.333 -49.333 -94 -60 -164l-13 -82
c12.667 -2 23 -3 31 -3s15 1 21 3l12 5c2 0 3.66699 -3 5 -9s1.33301 -9.66699 0 -11c-9.33301 -4.66699 -20.333 -7 -33 -7s-26 1.33301 -40 4c-18.667 -96 -52 -166 -100 -210c15.333 -12.667 38.833 -27.334 70.5 -44.001s55.667 -27.5 72 -32.5s33 -7.5 50 -7.5
s31.5 5.66699 43.5 17c12.667 9.33301 19 23 19 41c0 6 -0.333008 11.5 -1 16.5s-0.333984 7.5 0.999023 7.5c4 0 6 -7.66699 6 -23c0 -44.667 -26.333 -67 -79 -67c-22 0 -43.833 3.5 -65.5 10.5s-48.667 17.5 -81 31.5s-55.5 25.333 -69.5 34c-16.667 -12 -34 -18 -52 -18
s-36.333 5 -55 15c-22 12.667 -35 29.667 -39 51c-1.33301 4.66699 -2 10.834 -2 18.501s3.83301 15.5 11.5 23.5s19.5 12 35.5 12s35.333 -7.33301 58 -22c21.333 -16 40.666 -31.667 57.999 -47c14.667 22.667 28 54.334 40 95.001c0 0.666992 8.66699 36.334 26 107.001
c-12 1.33301 -20 2 -24 2zM148.001 -0.00195312c-60.667 48 -97.833 72 -111.5 72s-20.5 -5.66699 -20.5 -17c0 -18.667 8.33301 -35 25 -49c20 -16 39.5 -24 58.5 -24s35.167 6 48.5 18z" />
    <glyph glyph-name="currency" unicode="&#xa4;" horiz-adv-x="585" 
d="M180 267c0 32 11.001 59.333 33.001 82l-76 121l113 -93c20 12 41.833 18 65.5 18s43.5 -6 59.5 -18l158 96l-133 -126c6 -11.333 9 -23.333 9 -36c0 -30 -11 -56.333 -33 -79l78 -121l-113 94c-22 -12 -44.333 -18 -67 -18s-42.334 5.66699 -59.001 17l-157 -97l131 126
c-6 10 -9 21.333 -9 34zM297.001 367c-19.333 0 -36.668 -7.5 -52.001 -22.5s-23 -33.5 -23 -55.5s6.83301 -40 20.5 -54s30.167 -21 49.5 -21s37 7.33301 53 22s24 33 24 55s-7.16699 40.167 -21.5 54.5s-31.166 21.5 -50.499 21.5z" />
    <glyph glyph-name="yen" unicode="&#xa5;" horiz-adv-x="481" 
d="M476 361c0 0.666992 0.172852 3.83496 0.505859 9.50195s-3 12.167 -10 19.5s-15.5 11 -25.5 11c-32.667 0 -83.334 -60.667 -152.001 -182h70c0.666992 0 1 -1 1 -3s-1.33301 -4.33301 -4 -7s-5.33398 -4 -8.00098 -4h-67
c-2.66699 -6.66699 -14.334 -27.667 -35.001 -63h67c1.33301 0 2 -0.833008 2 -2.5s-1.5 -4.16699 -4.5 -7.5s-5.5 -5 -7.5 -5h-66c-28 -42 -54.667 -75.667 -80 -101c-36.667 -36.667 -73.667 -55 -111 -55c-8.66699 0 -13 1.33301 -13 4s3.33301 4 10 4
c26 0 56.667 19 92 57c20 23.333 42.667 53.666 68 90.999h-152c-1.33301 0 -2 0.833008 -2 2.5s1.66699 4.16699 5 7.5s5.66602 5 6.99902 5h152l3 5c0 17.333 -1.66699 36.666 -5 57.999h-94c-1.33301 0 -2 0.666992 -2 2s1.5 3.66602 4.5 6.99902s5.5 5 7.5 5h82
c-4.66699 32.667 -14.334 63 -29.001 91c-20 38 -42.667 57 -68 57c-16 0 -29.333 -8.16699 -40 -24.5s-16 -31.333 -16 -45s3 -26.5 9 -38.5l8 -17c0 -3.33301 -1 -5 -3 -5s-3.66699 0.666992 -5 2c-11.333 16.667 -17 35 -17 55s5.66699 38 17 54
c12 18.667 29.5 28 52.5 28s44.5 -12 64.5 -36c34 -40 53.333 -91.667 58 -155l13 20c0 0.666992 0.333008 1.5 1 2.5s1.5 2.33301 2.5 4s2.5 4 4.5 7s6.16699 9.83301 12.5 20.5s11.166 18.334 14.499 23.001c62.667 98.667 113.667 148 153 148
c12.667 0 23.167 -4.33301 31.5 -13s12.5 -18.167 12.5 -28.5s-1.66699 -15.5 -5 -15.5s-5 1.33301 -5 4z" />
    <glyph glyph-name="brokenbar" unicode="&#xa6;" horiz-adv-x="323" 
d="M285 499l-62 -284l-32 3l60 281h34zM207 144l-60 -298h-35l64 301z" />
    <glyph glyph-name="section" unicode="&#xa7;" horiz-adv-x="440" 
d="M177 -71l15.001 3.99902c2.66699 0 4 -1.33301 4 -4c0 -5.33301 -5 -8 -15 -8c-32.667 10.667 -53.334 24.667 -62.001 42c-38 6 -67.333 19.333 -88 40c-23.333 21.333 -35 50.333 -35 87s10.5 70.5 31.5 101.5s45.167 52 72.5 63s55.5 16.5 84.5 16.5
s53.833 -9 74.5 -27c25.333 27.333 44.666 52 57.999 74v9c0 32 4 56.667 12 74c-4 16 -6 28.667 -6 38c0 21.333 8 32 24 32c14.667 0 22 -8.83301 22 -26.5s-6.66699 -42.5 -20 -74.5c4 -7.33301 17.5 -28.166 40.5 -62.499s36.667 -60.5 41 -78.5s6.5 -35.667 6.5 -53
c0 -42.667 -11.667 -81.167 -35 -115.5s-55.333 -51.5 -96 -51.5c-8 0 -16.333 1 -25 3c-43.333 -34 -89 -51 -137 -51c-3.33301 0 -9 0.666992 -17 2c10.667 -16 24.667 -26.667 42 -32c2.66699 -1.33301 5.33398 -2 8.00098 -2zM173.001 260.999
c-42 0 -79.834 -18.001 -113.501 -54.001s-50.5 -76 -50.5 -120c0 -28.667 10 -54.667 30 -78c20.667 -22 45.667 -34 75 -36c-3.33301 8.66699 -5 22.667 -5 42s6.33301 44.666 19 75.999c-10.667 10 -16 22.333 -16 37c0 4.66699 1.66699 11.334 5 20.001
c2.66699 8.66699 6 13 10 13c2 0 0.833008 -3.83301 -3.5 -11.5s-6.5 -16.167 -6.5 -25.5s4.66699 -18.666 14 -27.999c20.667 46 59.334 92 116.001 138c-20 18 -44.667 27 -74 27zM321 200.998c0 43.333 -1.33301 78.334 -4 105.001c-12 -18.667 -30 -40.667 -54 -66
c14.667 -14.667 22 -33.5 22 -56.5s-6 -43.5 -18 -61.5s-28 -31 -48 -39c4 -22.667 17.333 -40.334 40 -53.001c41.333 43.333 62 100.333 62 171zM213 79.999c-12 -4 -25.3311 -5.99805 -39.998 -5.99805s-27.334 3.66699 -38.001 11
c-13.333 -28.667 -20 -51.334 -20 -68.001s2.33301 -31.334 7 -44.001c51.333 0 95.666 17.667 132.999 53c-23.333 14 -37.333 32 -42 54zM217.002 92.001c15.333 9.33301 28.167 21.832 38.5 37.499s15.5 32.5 15.5 50.5s-6.33301 34.333 -19 49
c-56 -48 -94.333 -94 -115 -138c10 -8 22 -12 36 -12s26.667 3.33301 38 10c-0.666992 2 -1 8.33301 -1 19s5 21.334 15 32.001c0.666992 0.666992 1.5 1 2.5 1s1.5 -1 1.5 -3l-6 -11c-4 -6 -6 -14.667 -6 -26v-9zM393.003 157c0.666992 4.66699 1 17.6709 1 39.0039
s-4.66699 46.666 -14 75.999c-0.666992 3.33301 -12.667 31.666 -36 84.999c-1.33301 -3.33301 -5 -12 -11 -26l19 -81.5c7.33301 -31.667 11 -59.834 11 -84.501c0 -55.333 -24.667 -104 -74 -146c26.667 0 50.5 16.167 71.5 48.5s31.833 62.166 32.5 89.499z
M346.003 376.004c10.667 26 16 46.833 16 62.5s-4.33301 23.5 -13 23.5c-13.333 0 -20 -8.16699 -20 -24.5s5.66699 -36.833 17 -61.5zM332.003 390.004c-2.66699 -5.33301 -4 -12.168 -4 -20.501s1 -17.5 3 -27.5l10 22c-4 8.66699 -7 17.334 -9 26.001z" />
    <glyph glyph-name="dieresis" unicode="&#xa8;" horiz-adv-x="185" 
d="M155 309c0 -14.667 -7 -22 -21 -22c-15.333 0 -23 7.33301 -23 22s7.33301 22 22 22s22 -7.33301 22 -22zM69 309c0 -14.667 -7 -22 -21 -22c-15.333 0 -23 7.33301 -23 22s7.33301 22 22 22s22 -7.33301 22 -22z" />
    <glyph glyph-name="copyright" unicode="&#xa9;" horiz-adv-x="369" 
d="M326 323c32.667 -32.667 49 -74.833 49 -126.5s-21 -98.5 -63 -140.5s-89.167 -63 -141.5 -63s-94.833 16.167 -127.5 48.5s-49 74.5 -49 126.5s21 98.833 63 140.5s89 62.5 141 62.5s94.667 -16 128 -48zM304 63.001c39.333 39.333 58.999 83.668 58.999 133.001
s-15.167 89.166 -45.5 119.499s-70.333 45.5 -120 45.5s-93.834 -19.667 -132.501 -59c-40 -38.667 -60 -82.667 -60 -132s15.333 -89.333 46 -120s70.334 -46 119.001 -46s93.334 19.667 134.001 59zM314.999 260.003c0 -14.667 -12.666 -26.665 -37.999 -35.998
c-19.333 -6 -42.833 -9 -70.5 -9s-53.834 7.33301 -78.501 22c-30 -32.667 -45 -68.667 -45 -108c0 -21.333 5 -39 15 -53c10.667 -16.667 26.334 -25 47.001 -25c39.333 0 71.333 18.667 96 56c8 12 12 23 12 33s-3 18 -9 24s-13.667 9 -23 9
c-19.333 0 -33 -9.33301 -41 -28c-0.666992 -2.66699 -1.66699 -4 -3 -4s-2 0.666992 -2 2l1 3c4.66699 20.667 20.334 31 47.001 31c11.333 0 20.666 -3.66699 27.999 -11s11 -16.333 11 -27c0 -24.667 -12.833 -46.167 -38.5 -64.5s-52 -27.5 -79 -27.5
s-48 7.66699 -63 23s-22.5 36.333 -22.5 63c0 43.333 17.667 81.666 53 114.999c-14 12 -21 24.667 -21 38c0 24.667 14.667 37 44 37c20 0 34.667 -4.66699 44 -14v-4c-14.667 8 -27.334 12 -38.001 12c-28 0 -42 -11.333 -42 -34c0 -10.667 5.33301 -21.334 16 -32.001
c35.333 32 78 48 128 48c16.667 0 32 -2.66699 46 -8c17.333 -6 26 -16.333 26 -31zM307 263.005c0 20.667 -20.5 31 -61.5 31s-79.167 -18 -114.5 -54c23.333 -13.333 47.833 -20 73.5 -20s46.5 2.66699 62.5 8c26.667 8 40 19.667 40 35z" />
    <glyph glyph-name="ordfeminine" unicode="&#xaa;" horiz-adv-x="249" 
d="M113 282c-18 0 -28.001 12.999 -30.001 38.999c-9.33301 -13.333 -18.166 -23.333 -26.499 -30s-15.5 -10 -21.5 -10c-8 0 -12 5.16699 -12 15.5s3 19.833 9 28.5c14 22 30.333 37.333 49 46c8.66699 3.33301 17.5 5 26.5 5s13.5 -3.66699 13.5 -11
c0 -1.33301 -1.33301 -2.5 -4 -3.5s-4 -1.83301 -4 -2.5c-8.66699 -14.667 -13 -29.667 -13 -45s6.83301 -23 20.5 -23s30.5 11 50.5 33c4.66699 3.33301 7 3.33301 7 0c0 -1.33301 -0.666992 -2.66602 -2 -3.99902c-24 -25.333 -45 -38 -63 -38zM44.999 324.999
c-4 -9.33301 -6 -16.333 -6 -21s2 -7 6 -7s10.5 3.66699 19.5 11s15.5 16.333 19.5 27c2 11.333 5 21 9 29c-18 0 -34 -13 -48 -39z" />
    <glyph glyph-name="guillemotleft" unicode="&#xab;" horiz-adv-x="301" 
d="M318 198c-5.33301 -9.33301 -22.332 -24.333 -50.999 -45l-56 -40l-1 -90l-3 -7l-5 -2l-5 2c-4.66699 8 -9.33398 24.667 -14.001 50l-12 53c92 57.333 139.333 86 142 86l4 -2zM222.001 198c-5.33301 -8 -22.332 -23 -50.999 -45l-57 -40l-1 -90l-3 -7l-5 -2
c-0.666992 0 -2.33398 0.666992 -5.00098 2c-3.33301 8.66699 -8 26 -14 52s-9.66699 43 -11 51c90.667 57.333 138 86 142 86l4 -2z" />
    <glyph glyph-name="logicalnot" unicode="&#xac;" horiz-adv-x="539" 
d="M394 9c-4 0 -7.16699 1.50098 -9.5 4.50098s-3.5 6.5 -3.5 10.5l28 129h-348c-9.33301 0 -14 2.66699 -14 8c0 3.33301 2.5 8.16602 7.5 14.499s9.16699 9.5 12.5 9.5h379l-34 -161c-2 -10 -8 -15 -18 -15z" />
    <glyph glyph-name="registered" unicode="&#xae;" horiz-adv-x="369" 
d="M326 323c32.667 -32.667 49 -74.833 49 -126.5s-21 -98.5 -63 -140.5s-89.167 -63 -141.5 -63s-94.833 16.167 -127.5 48.5s-49 74.5 -49 126.5s21 98.833 63 140.5s89 62.5 141 62.5s94.667 -16 128 -48zM304 63.001c39.333 39.333 58.999 83.668 58.999 133.001
s-15.167 89.166 -45.5 119.499s-70.333 45.5 -120 45.5s-93.834 -19.667 -132.501 -59c-40 -38.667 -60 -82.667 -60 -132s15.333 -89.333 46 -120s70.334 -46 119.001 -46s93.334 19.667 134.001 59zM108.999 218.003l2.00195 1.99805c1.33301 0 2 -0.833008 2 -2.5
s-1.66699 -2.5 -5 -2.5c-8.66699 0 -13 4.33301 -13 13s3.5 15.834 10.5 21.501s15.5 8.5 25.5 8.5s18.5 -3.5 25.5 -10.5s10.5 -17.833 10.5 -32.5s-6.33301 -27.334 -19 -38.001s-27.334 -16 -44.001 -16s-30.667 4.66699 -42 14c-10.667 10 -16 21.667 -16 35
c0 40 23.667 69.333 71 88c22.667 9.33301 48.167 14 76.5 14s51.5 -3 69.5 -9c16.667 10.667 32.667 16 48 16l3 -1l-1 -1c-18.667 -2 -33.667 -7.33301 -45 -16c28 -10 42 -25 42 -45s-8.83301 -35.5 -26.5 -46.5s-37.167 -17.5 -58.5 -19.5
c2.66699 -6.66699 4.83398 -18.5 6.50098 -35.5s3.5 -32.667 5.5 -47s6.16699 -22.333 12.5 -24s10.166 -2.5 11.499 -2.5c10.667 0 22.167 7 34.5 21s20.166 27.667 23.499 41h3l1 -1c-6.66699 -17.333 -16.5 -33.166 -29.5 -47.499s-26.167 -21.5 -39.5 -21.5
c-5.33301 0 -10.666 2 -15.999 6c-12 8 -19 25 -21 51c-2 38.667 -3 58.334 -3 59.001h-8c-4.66699 0 -8 0.333008 -10 1c-14.667 -35.333 -28.334 -60.333 -41.001 -75c-25.333 -32 -56.666 -48 -93.999 -48c-18.667 0 -28 6.16699 -28 18.5s6 18.5 18 18.5
c3.33301 0 5 -0.833008 5 -2.5s-0.333008 -2.5 -1 -2.5h-3c-0.666992 0.666992 -1.66699 1 -3 1c-6.66699 0 -10 -4.33301 -10 -13c0 -10.667 8 -16 24 -16c28 0 53.333 16 76 48c9.33301 14.667 23.666 42.667 42.999 84c22 44 47 76 75 96
c-17.333 5.33301 -37.333 8 -60 8c-62 0 -104.333 -19.333 -127 -58c-7.33301 -12.667 -11 -25.334 -11 -38.001s4 -23.5 12 -32.5s19.167 -13.5 33.5 -13.5s26.833 5.33301 37.5 16c11.333 9.33301 17 22 17 38c0 23.333 -10.667 35 -32 35
c-6.66699 0 -13.167 -2.66699 -19.5 -8s-9.5 -11.666 -9.5 -18.999c0 -6 3.66699 -9 11 -9zM223.001 195.001c18.667 3.33301 35 10 49 20s21 23.667 21 41s-10.333 31 -31 41c-18.667 -16.667 -37.667 -45.334 -57 -86.001c8 -3.33301 14 -8.66602 18 -15.999z
M213.001 194.001c-2.66699 6 -6 10.333 -10 13l-5 -13h15z" />
    <glyph glyph-name="macron" unicode="&#xaf;" horiz-adv-x="323" 
d="M288 301l-14 -32h-155l14 32h155z" />
    <glyph glyph-name="degree" unicode="&#xb0;" 
 />
    <glyph glyph-name="plusminus" unicode="&#xb1;" horiz-adv-x="305" 
d="M149 193l54 -1c2.66699 12.667 10.334 45 23.001 97c2 9.33301 6.66699 14 14 14c4 0 5.66699 -4 5 -12c-5.33301 -23.333 -12 -56.333 -20 -99c32 0 60.667 -0.333008 86 -1c8 0 12 -3 12 -9s-7 -9 -21 -9s-41 -1.33301 -81 -4c-4 -18 -9.33301 -48.333 -16 -91
c0 -2 -2.5 -4.33301 -7.5 -7s-9.83301 -4 -14.5 -4c-8.66699 0 -12 3.66699 -10 11l24 90c-24.667 -0.666992 -56.334 -2.66699 -95.001 -6c-4.66699 0 -7 5.33301 -7 16s5.5 16 16.5 16s23.5 -0.333008 37.5 -1zM99 47l67.999 -1.99902l106 -4
c9.33301 0 14 -3.33301 14 -10c0 -5.33301 -4 -8 -12 -8c-72 0 -119.5 -1.33301 -142.5 -4s-35.167 -4 -36.5 -4s-2.66602 2 -3.99902 6c-2.66699 3.33301 -4 7.66602 -4 12.999c0 8.66699 3.66699 13 11 13z" />
    <glyph glyph-name="twosuperior" unicode="&#xb2;" horiz-adv-x="238" 
d="M158 189c-1.33301 -0.666992 -2.50098 -1 -3.50098 -1s-1.5 1.16699 -1.5 3.5s2.33301 4.5 7 6.5s7 5.33301 7 10s-6.16699 9 -18.5 13s-23.833 6 -34.5 6h-7c-20 0 -51 -7.66699 -93 -23c-5.33301 -2 -10.166 -3 -14.499 -3s-6.5 2.33301 -6.5 7
s3.16699 9.83398 9.5 15.501s13.5 8.5 21.5 8.5c24 8.66699 54.333 25 91 49s63.5 47.167 80.5 69.5s25.5 39.833 25.5 52.5c0 15.333 -8.66699 23 -26 23c-10 0 -22.333 -3 -37 -9c-39.333 -16.667 -63.666 -39.334 -72.999 -68.001c-1.33301 -3.33301 -3 -5 -5 -5
c-0.666992 0 -1 2 -1 6c4 20.667 18.167 40.167 42.5 58.5s45.166 27.5 62.499 27.5s29.833 -4 37.5 -12s11.5 -19.667 11.5 -35s-7 -31.333 -21 -48c-14 -14.667 -31.667 -28.667 -53 -42c-43.333 -26 -74 -46.333 -92 -61c71.333 0 106 -10.333 104 -31
c0 -8.66699 -4.33301 -14.667 -13 -18z" />
    <glyph glyph-name="threesuperior" unicode="&#xb3;" horiz-adv-x="238" 
d="M31 218c0 -16.667 14.667 -25 44 -25s57.333 10.667 84 32c14.667 12 22 23.667 22 35s-8.66699 20 -26 26s-33 8.83301 -47 8.5s-21 1.33398 -21 5.00098s13 6.83398 39 9.50098s41 4.66699 45 6c45.333 11.333 68 30.666 68 57.999c0 12 -6.33301 23.333 -19 34
c-13.333 9.33301 -30 14 -50 14s-40.333 -4.66699 -61 -14c-24 -12 -37 -26.667 -39 -44c0 -4 -1.5 -6 -4.5 -6s-4.5 2.33301 -4.5 7c0.666992 20 14 35.5 40 46.5s51 16.5 75 16.5s43.5 -5 58.5 -15s22.5 -22 22.5 -36c0 -29.333 -26 -52 -78 -68l-41 -8
c20 0 35.167 -3.83301 45.5 -11.5s15.5 -18.667 15.5 -33s-12 -30.166 -36 -47.499s-53.5 -26 -88.5 -26s-52.5 12.333 -52.5 37c0 15.333 9 24.666 27 27.999c3.33301 0 5 -0.833008 5 -2.5s-1.83301 -2.5 -5.5 -2.5s-7.5 -2.33301 -11.5 -7s-6 -10.334 -6 -17.001z" />
    <glyph glyph-name="acute" unicode="&#xb4;" horiz-adv-x="178" 
d="M82.5 317l41 30.501c7 5 16 7.5 27 7.5s16.5 -4.33301 16.5 -13c0 -2 -1.16699 -5 -3.5 -9s-22 -14.667 -59 -32s-57.5 -26 -61.5 -26s-6 1.16699 -6 3.5s0.333008 4.16602 1 5.49902z" />
    <glyph glyph-name="mu" unicode="&#xb5;" horiz-adv-x="216" 
d="M179 -5c-23.333 0 -34.999 12.668 -34.999 38.001c0 12 2.33301 24 7 36c-30.667 -48.667 -59 -73 -85 -73c-14.667 0 -25 6.33301 -31 19l-86 -188c-0.666992 -1.33301 -5 -2 -13 -2c-14.667 0 -22 2.33301 -22 7l129 253l32 66c13.333 26 25.666 47.333 36.999 64h1
c2.66699 -2.66699 7.33398 -4 14.001 -4s16.334 4.66699 29.001 14l1 -1c-6.66699 -8 -15 -20.667 -25 -38c-18.667 -33.333 -31.334 -55.333 -38.001 -66c-26 -44 -39 -77 -39 -99c0 -12 5.33301 -18 16 -18c25.333 0 60 39 104 117c12 22 29 55 51 99h1
c6.66699 -3.33301 13.667 -5 21 -5s13 4.33301 17 13h2l-52 -101c-30.667 -57.333 -46 -92.5 -46 -105.5s3.66699 -19.5 11 -19.5c15.333 0 31.666 12.167 48.999 36.5s31 48.166 41 71.499h4l1 -2c-34 -74.667 -66 -112 -96 -112z" />
    <glyph glyph-name="paragraph" unicode="&#xb6;" horiz-adv-x="269" 
d="M123 298c0 10 2.66699 23 8 39c16 42.667 45.667 72.667 89 90c16 6 38.667 9 68 9h115l-12 -33h-14l-147 -403h-45l148 403h-33l-147 -403h-45l89 242c-49.333 0 -74 18.667 -74 56z" />
    <glyph glyph-name="periodcentered" unicode="&#xb7;" horiz-adv-x="549" 
 />
    <glyph glyph-name="cedilla" unicode="&#xb8;" horiz-adv-x="253" 
d="M189 -37c18.667 -10 27.998 -23.832 27.998 -41.499s-11.333 -33.834 -34 -48.501c-11.333 -8 -25.666 -12 -42.999 -12s-37 2.66699 -59 8s-33 13 -33 23c0 3.33301 1 5 3 5s5.66699 -2.66699 11 -8c10.667 -10.667 31 -16 61 -16s50 8 60 24
c6.66699 8.66699 10 18.167 10 28.5s-5.16699 19 -15.5 26s-20.833 10.5 -31.5 10.5s-22 -2.66699 -34 -8l-17 -8c-8.66699 0 -13 3.33301 -13 10c0 2 1 4 3 6l26 21c16 12 24.833 18 26.5 18s2.83398 -2 3.50098 -6c-19.333 -14 -29 -21.667 -29 -23
c12 1.33301 23.833 2 35.5 2s25.5 -3.66699 41.5 -11z" />
    <glyph glyph-name="onesuperior" unicode="&#xb9;" horiz-adv-x="244" 
d="M69 221c-0.666992 -2.66699 -3.16895 -4.00195 -7.50195 -4.00195s-6.5 2 -6.5 6c0 2 0.333008 3.33301 1 4l43 90c15.333 34 28 64.333 38 91c-11.333 -5.33301 -20.666 -11.833 -27.999 -19.5s-11.833 -11.5 -13.5 -11.5s-2.5 0.666992 -2.5 2
c0 4.66699 26 31.334 78 80.001h4c4.66699 0 8.33398 -1.5 11.001 -4.5s4 -5.5 4 -7.5l-58 -96c-26.667 -49.333 -47.667 -92.666 -63 -129.999z" />
    <glyph glyph-name="ordmasculine" unicode="&#xba;" horiz-adv-x="182" 
d="M47 303c0 -12.667 4 -19 12 -19c10.667 0 20 5.66699 28 17c-16 2 -28.667 8.66699 -38 20c-1.33301 -9.33301 -2 -15.333 -2 -18zM91 308c8 14.667 12 30.1689 12 46.502s-7.33301 25.166 -22 26.499c-10 -11.333 -18.667 -25 -26 -41c4 -18.667 16 -29.334 36 -32.001z
M89 390.002c0 -1.33301 -1.33301 -2.66699 -4 -4c18.667 -6 28 -18.5 28 -37.5s-4 -32.5 -12 -40.5c20.667 0 37.667 6.66699 51 20c1.33301 1.33301 2.5 2 3.5 2s1.5 -0.833008 1.5 -2.5s-1 -3.5 -3 -5.5c-16.667 -14.667 -35.667 -22 -57 -22c-14 -16.667 -29 -25 -45 -25
c-14.667 0 -22 7.66699 -22 23s3.33301 31 10 47l-1 12c0 18 9 28 27 30c5.33301 6 10.5 9 15.5 9s7.5 -2 7.5 -6z" />
    <glyph glyph-name="guillemotright" unicode="&#xbb;" horiz-adv-x="301" 
d="M165 100l-136.001 -85l-5 -1c-2 0 -3.66699 0.333008 -5 1l-1 3c0 6 17.667 22 53 48l55 39l1 91l3 6l5 3l6 -3c4.66699 -10 9.33398 -27 14.001 -51zM114.999 21c9.33301 13.333 45.334 41.332 108.001 83.999v30c-0.666992 8.66699 -1 16.334 -1 23.001
s0.166992 15 0.5 25s1.5 16.333 3.5 19l5 3l6 -3c1.33301 -1.33301 9.66602 -35.333 24.999 -102l-137 -85l-5 -1l-5 1v6z" />
    <glyph glyph-name="onequarter" unicode="&#xbc;" horiz-adv-x="415" 
d="M338 113c24.667 -3.33301 36.999 -7.16504 36.999 -11.498s-2 -6.5 -6 -6.5v1c0 -0.666992 -0.666992 -1 -2 -1h-3l-11 2c-6.66699 1.33301 -12.667 2 -18 2h-12c-4.66699 -7.33301 -16.667 -32 -36 -74l-16 -32c-2 -6 -4.66699 -10.667 -8 -14c-4.66699 0 -7 3 -7 9
s7 23.667 21 53l27 58c-1.33301 1.33301 -3.33301 2 -6 2c-36 0 -71 -5.66699 -105 -17c-5.33301 0 -8 3 -8 9c0 3.33301 5 8.66602 15 15.999l20 12l95 67c30.667 22.667 56.334 47 77.001 73c8.66699 0 13 -8 13 -24v-8c-5.33301 -4 -18.333 -23.333 -39 -58
c-22 -34 -33 -52.667 -33 -56c1.33301 -0.666992 3 -1.33398 5 -2.00098zM414.999 444.001l-390 -507h-21l389 507h22zM105.999 221.001c-0.666992 -2.66699 -3.16895 -4 -7.50195 -4s-6.5 2 -6.5 6c0 2 1.33301 5.33301 4 10s6.33398 12 11.001 22l15 33.5
c5.33301 12.333 13 29 23 50s19.667 44.167 29 69.5c-10 -4.66699 -19 -11 -27 -19s-13 -12 -15 -12c-0.666992 0 -1 0.666992 -1 2c0 4.66699 25.667 31.334 77 80.001h4c4.66699 0 8.83398 -1.83301 12.501 -5.5s4.5 -6.5 2.5 -8.5
c-15.333 -21.333 -34.833 -52.833 -58.5 -94.5s-44.5 -84.834 -62.5 -129.501zM274.997 118.001c23.333 0 35.333 -0.333984 36 -1.00098c6 0 24 32.333 54 97c-17.333 -15.333 -40 -33.166 -68 -53.499s-46.667 -34.5 -56 -42.5h34z" />
    <glyph glyph-name="onehalf" unicode="&#xbd;" horiz-adv-x="415" 
d="M415 444l-390 -507h-21l389 507h22zM370 -17c-1.33301 -0.666992 -2.66602 -0.999023 -3.99902 -0.999023s-2 1.16699 -2 3.5s2.5 4.66602 7.5 6.99902s7.5 5.5 7.5 9.5s-7 8.33301 -21 13s-29.833 6.66699 -47.5 6s-37.834 -5.16699 -60.501 -13.5s-35 -12.5 -37 -12.5
c-5.33301 0 -8 2 -8 6c0 6 3.16699 11.667 9.5 17s13.166 8 20.499 8c24.667 8 55 24.167 91 48.5s62.833 47.333 80.5 69s26.5 39.834 26.5 54.501s-8.66699 22 -26 22c-10.667 0 -23.334 -3 -38.001 -9c-38.667 -16.667 -62.667 -39.334 -72 -68.001
c-0.666992 -2.66699 -2.33398 -4 -5.00098 -4c-1.33301 0 -1.66602 1.66699 -0.999023 5c4 20 18 39.667 42 59c24 18 45 27 63 27c32.667 0 49 -14.333 49 -43c0 -30.667 -22.667 -60.667 -68 -90c-39.333 -22 -72 -43.667 -98 -65c70.667 0 105.334 -10.333 104.001 -31
c-1.33301 -9.33301 -5.66602 -15.333 -12.999 -18zM106 221.001c-0.666992 -2.66699 -3.16797 -4 -7.50098 -4s-6.5 2 -6.5 6c0 2 1.33301 5.33301 4 10s6.33398 12 11.001 22l15 33.5c5.33301 12.333 13 29 23 50s19.667 44.167 29 69.5c-10 -4.66699 -19 -11 -27 -19
s-13 -12 -15 -12c-0.666992 0 -1 0.666992 -1 2c0 4.66699 25.667 31.334 77 80.001h4c4.66699 0 8.5 -1.5 11.5 -4.5s4.5 -5.16699 4.5 -6.5s-4 -7.5 -12 -18.5s-23.833 -37.333 -47.5 -79s-44.5 -84.834 -62.5 -129.501z" />
    <glyph glyph-name="threequarters" unicode="&#xbe;" horiz-adv-x="415" 
d="M338 113c24.667 -3.33301 36.999 -7.16504 36.999 -11.498s-2 -6.5 -6 -6.5v1c0 -0.666992 -0.666992 -1 -2 -1h-3l-11 2c-6.66699 1.33301 -12.667 2 -18 2h-12c-4.66699 -7.33301 -16.667 -32 -36 -74l-16 -32c-2 -6 -4.66699 -10.667 -8 -14c-4.66699 0 -7 3 -7 9
s7 23.667 21 53l27 58c-1.33301 1.33301 -3.33301 2 -6 2c-36 0 -71 -5.66699 -105 -17c-5.33301 0 -8 3 -8 9c0 3.33301 5 8.66602 15 15.999l20 12l95 67c30.667 22.667 56.334 47 77.001 73c8.66699 0 13 -8 13 -24v-8c-5.33301 -4 -18.333 -23.333 -39 -58
c-22 -34 -33 -52.667 -33 -56c1.33301 -0.666992 3 -1.33398 5 -2.00098zM414.999 444.001l-390 -507h-21l389 507h22zM30.999 218.001c0 -16.667 14.667 -25 44 -25s57.333 10.667 84 32c14.667 12 22 23.667 22 35s-8.66699 20 -26 26s-33 8.83301 -47 8.5
s-21 1.33398 -21 5.00098s13 6.83398 39 9.50098s41 4.66699 45 6c45.333 11.333 68 30.666 68 57.999c0 12 -6.33301 23.333 -19 34c-13.333 9.33301 -30 14 -50 14s-40.333 -4.66699 -61 -14c-24 -12 -37 -26.667 -39 -44c0 -4 -1.5 -6 -4.5 -6s-4.5 2.33301 -4.5 7
c0.666992 20 14 35.5 40 46.5s51 16.5 75 16.5s43.5 -5 58.5 -15s22.5 -22 22.5 -36c0 -29.333 -26 -52 -78 -68l-41 -8c20 0 35.167 -3.83301 45.5 -11.5s15.5 -18.667 15.5 -33s-12 -30.166 -36 -47.499s-53.5 -26 -88.5 -26s-52.5 12.333 -52.5 37
c0 15.333 9 24.666 27 27.999c3.33301 0 5 -0.833008 5 -2.5s-1.83301 -2.5 -5.5 -2.5s-7.5 -2.33301 -11.5 -7s-6 -10.334 -6 -17.001zM274.999 118.001c23.333 0 35.333 -0.333984 36 -1.00098c6 0 24 32.333 54 97c-17.333 -15.333 -40 -33.166 -68 -53.499
s-46.667 -34.5 -56 -42.5h34z" />
    <glyph glyph-name="questiondown" unicode="&#xbf;" horiz-adv-x="400" 
d="M340 176c0 -8.66699 -3 -16 -9 -22c-7.33301 -6 -15 -9 -23 -9s-15.667 3 -23 9c-6 6 -9 13.333 -9 22s3 16 9 22c7.33301 6 15 9 23 9s15.667 -3 23 -9c6 -6 9 -13.333 9 -22zM72 -356c-17.333 0 -35.168 6.33594 -53.501 19.0029s-27.5 29.334 -27.5 50.001
c0 31.333 14.667 62.666 44 93.999c18 21.333 50 48.666 96 81.999c52.667 40.667 84.667 66 96 76c27.333 25.333 41 50.333 41 75v3c0 5.33301 -2.66699 8 -8 8c2 5.33301 3.5 11 4.5 17s5.5 9 13.5 9s13.833 -3.33301 17.5 -10s5.5 -13.334 5.5 -20.001
c0 -26 -12 -53 -36 -81s-56.5 -60.5 -97.5 -97.5s-73.833 -68.5 -98.5 -94.5s-37 -49.333 -37 -70s10.667 -31 32 -31c50.667 0 101.334 16.167 152.001 48.5s84 59.833 100 82.5c3.33301 4.66699 8 7 14 7s9 -3.33301 9 -10c0 -4.66699 -2.33301 -10.334 -7 -17.001
c-18 -25.333 -53.833 -55 -107.5 -89s-104.5 -51 -152.5 -51z" />
    <glyph glyph-name="Agrave" unicode="&#xc0;" horiz-adv-x="769" 
d="M666 566c24.667 0 37.0029 -15.666 37.0029 -46.999c0 -16.667 -4.16699 -61.5 -12.5 -134.5s-13.5 -130.5 -15.5 -172.5c33.333 2 54 5.66699 62 11s12.167 6 12.5 2s-5.33398 -9.5 -17.001 -16.5s-30.834 -12.5 -57.501 -16.5v-62c0 -64.667 11 -107.667 33 -129
c8 -8 14.833 -12 20.5 -12s12.334 1.16699 20.001 3.5s17.5 10 29.5 23s22.333 29.5 31 49.5c2.66699 6 5.16699 8.5 7.5 7.5s3.5 -2.5 3.5 -4.5s-0.333008 -4.33301 -1 -7c-8.66699 -24.667 -22.334 -45.334 -41.001 -62.001c-40.667 -37.333 -77 -41.666 -109 -12.999
c-16.667 14.667 -27.167 36 -31.5 64s-6.5 53.5 -6.5 76.5s0.333008 43.167 1 60.5c-10 -0.666992 -51.667 -1 -125 -1c-35.333 -38.667 -73.333 -75 -114 -109c4.66699 -0.666992 9.66699 -1 15 -1c48 0 90.667 24.667 128 74c2.66699 3.33301 4.66699 3 6 -1v-4
c-40 -52.667 -84.667 -79 -134 -79c-8.66699 0 -17 0.666992 -25 2c-104 -83.333 -192.667 -125 -266 -125c-39.333 0 -69.666 11 -90.999 33c-13.333 14.667 -20 32.667 -20 54c0 31.333 11.167 58 33.5 80s49 38.167 80 48.5s71.5 19.5 121.5 27.5
c-16.667 38 -25 75.667 -25 113c0 101.333 28.667 175.666 86 222.999c30.667 24.667 62 37 94 37c11.333 0 23 -1.66699 35 -5c42 -10.667 69.667 -38 83 -82c5.33301 -16.667 8 -34.667 8 -54c0 -64 -26.667 -135.667 -80 -215h45c13.333 13.333 39.666 47.5 78.999 102.5
s69 95.167 89 120.5c6.66699 43.333 10 71.333 10 84c0 23.333 -6 35 -18 35c-14 0 -32.667 -13.667 -56 -41c-12.667 -14.667 -20.334 -25 -23.001 -31s-6 -7.66699 -10 -5c-4 5.33301 2 18 18 38c33.333 40 63.333 60 90 60zM470.003 272.001
c25.333 52 38.001 95.332 38.001 129.999s-6.33301 63.334 -19 86.001c-21.333 38.667 -53.833 58 -97.5 58s-81.334 -22 -113.001 -66s-47.5 -104.333 -47.5 -181c0 -40 8 -77 24 -111c60.667 8.66699 118.667 13.334 174 14.001c16 23.333 29.667 46.666 41 69.999z
M19.0039 42c0 -18.667 9.33398 -34.667 28.001 -48c23.333 -17.333 54.333 -26 93 -26c70 0 143.667 35 221 105l-23 9c-68.667 -60 -135.334 -90 -200.001 -90c-19.333 0 -38.333 2.66699 -57 8c-3.33301 0.666992 -4.33301 2.33398 -3 5.00098s3 3.66699 5 3
c78 -20.667 159.667 6 245 80c-30.667 18 -55.667 43.667 -75 77c-64 -12.667 -112 -24 -144 -34c-60 -20.667 -90 -50.334 -90 -89.001zM525.005 208c9.33301 -0.666992 22.5 -1.00098 39.5 -1.00098s40.167 0.666992 69.5 2c2 52 8.33301 113 19 183
c-16.667 -29.333 -32.5 -54.166 -47.5 -74.499l-46 -63c-15.667 -21.667 -27.167 -37.167 -34.5 -46.5zM418.005 186.999c-49.333 -4.66699 -100 -11.332 -152 -19.999c20 -32.667 43.667 -56.334 71 -71.001c28.667 26 55.667 56.333 81 91zM455.005 189.001
c-7.33301 0 -15 -0.332031 -23 -0.999023c-26 -38 -54.333 -70.667 -85 -98c8.66699 -3.33301 16.334 -6 23.001 -8c14 13.333 32.667 32.166 56 56.499s39.666 40.833 48.999 49.5c-6 0.666992 -12.667 1 -20 1zM599.005 648.002c-4 4 -6 10 -6 18s3 12 9 12
c3.33301 0 8.33301 -2.66699 15 -8l84 -64c2.66699 -2 4 -4.33301 4 -7c0 -4.66699 -2.66699 -7 -8 -7c-8 0 -40.667 18.667 -98 56z" />
    <glyph glyph-name="Aacute" unicode="&#xc1;" horiz-adv-x="769" 
d="M666 566c24.667 0 37.0029 -15.666 37.0029 -46.999c0 -16.667 -4.16699 -61.5 -12.5 -134.5s-13.5 -130.5 -15.5 -172.5c33.333 2 54 5.66699 62 11s12.167 6 12.5 2s-5.33398 -9.5 -17.001 -16.5s-30.834 -12.5 -57.501 -16.5v-62c0 -64.667 11 -107.667 33 -129
c8 -8 14.833 -12 20.5 -12s12.334 1.16699 20.001 3.5s17.5 10 29.5 23s22.333 29.5 31 49.5c2.66699 6 5.16699 8.5 7.5 7.5s3.5 -2.5 3.5 -4.5s-0.333008 -4.33301 -1 -7c-8.66699 -24.667 -22.334 -45.334 -41.001 -62.001c-40.667 -37.333 -77 -41.666 -109 -12.999
c-16.667 14.667 -27.167 36 -31.5 64s-6.5 53.5 -6.5 76.5s0.333008 43.167 1 60.5c-10 -0.666992 -51.667 -1 -125 -1c-35.333 -38.667 -73.333 -75 -114 -109c4.66699 -0.666992 9.66699 -1 15 -1c48 0 90.667 24.667 128 74c2.66699 3.33301 4.66699 3 6 -1v-4
c-40 -52.667 -84.667 -79 -134 -79c-8.66699 0 -17 0.666992 -25 2c-104 -83.333 -192.667 -125 -266 -125c-39.333 0 -69.666 11 -90.999 33c-13.333 14.667 -20 32.667 -20 54c0 31.333 11.167 58 33.5 80s49 38.167 80 48.5s71.5 19.5 121.5 27.5
c-16.667 38 -25 75.667 -25 113c0 101.333 28.667 175.666 86 222.999c30.667 24.667 62 37 94 37c11.333 0 23 -1.66699 35 -5c42 -10.667 69.667 -38 83 -82c5.33301 -16.667 8 -34.667 8 -54c0 -64 -26.667 -135.667 -80 -215h45c13.333 13.333 39.666 47.5 78.999 102.5
s69 95.167 89 120.5c6.66699 43.333 10 71.333 10 84c0 23.333 -6 35 -18 35c-14 0 -32.667 -13.667 -56 -41c-12.667 -14.667 -20.334 -25 -23.001 -31s-6 -7.66699 -10 -5c-4 5.33301 2 18 18 38c33.333 40 63.333 60 90 60zM470.003 272.001
c25.333 52 38.001 95.332 38.001 129.999s-6.33301 63.334 -19 86.001c-21.333 38.667 -53.833 58 -97.5 58s-81.334 -22 -113.001 -66s-47.5 -104.333 -47.5 -181c0 -40 8 -77 24 -111c60.667 8.66699 118.667 13.334 174 14.001c16 23.333 29.667 46.666 41 69.999z
M19.0039 42c0 -18.667 9.33398 -34.667 28.001 -48c23.333 -17.333 54.333 -26 93 -26c70 0 143.667 35 221 105l-23 9c-68.667 -60 -135.334 -90 -200.001 -90c-19.333 0 -38.333 2.66699 -57 8c-3.33301 0.666992 -4.33301 2.33398 -3 5.00098s3 3.66699 5 3
c78 -20.667 159.667 6 245 80c-30.667 18 -55.667 43.667 -75 77c-64 -12.667 -112 -24 -144 -34c-60 -20.667 -90 -50.334 -90 -89.001zM525.005 208c9.33301 -0.666992 22.5 -1.00098 39.5 -1.00098s40.167 0.666992 69.5 2c2 52 8.33301 113 19 183
c-16.667 -29.333 -32.5 -54.166 -47.5 -74.499l-46 -63c-15.667 -21.667 -27.167 -37.167 -34.5 -46.5zM418.005 186.999c-49.333 -4.66699 -100 -11.332 -152 -19.999c20 -32.667 43.667 -56.334 71 -71.001c28.667 26 55.667 56.333 81 91zM455.005 189.001
c-7.33301 0 -15 -0.332031 -23 -0.999023c-26 -38 -54.333 -70.667 -85 -98c8.66699 -3.33301 16.334 -6 23.001 -8c14 13.333 32.667 32.166 56 56.499s39.666 40.833 48.999 49.5c-6 0.666992 -12.667 1 -20 1zM674.505 640.002l41 30.501c7 5 16 7.5 27 7.5
s16.5 -4.33301 16.5 -13c0 -2 -1.16699 -5 -3.5 -9s-22 -14.667 -59 -32s-57.5 -26 -61.5 -26s-6 1.16699 -6 3.5s0.333008 4.16602 1 5.49902z" />
    <glyph glyph-name="Acircumflex" unicode="&#xc2;" horiz-adv-x="769" 
d="M666 566c24.667 0 37.0029 -15.666 37.0029 -46.999c0 -16.667 -4.16699 -61.5 -12.5 -134.5s-13.5 -130.5 -15.5 -172.5c33.333 2 54 5.66699 62 11s12.167 6 12.5 2s-5.33398 -9.5 -17.001 -16.5s-30.834 -12.5 -57.501 -16.5v-62c0 -64.667 11 -107.667 33 -129
c8 -8 14.833 -12 20.5 -12s12.334 1.16699 20.001 3.5s17.5 10 29.5 23s22.333 29.5 31 49.5c2.66699 6 5.16699 8.5 7.5 7.5s3.5 -2.5 3.5 -4.5s-0.333008 -4.33301 -1 -7c-8.66699 -24.667 -22.334 -45.334 -41.001 -62.001c-40.667 -37.333 -77 -41.666 -109 -12.999
c-16.667 14.667 -27.167 36 -31.5 64s-6.5 53.5 -6.5 76.5s0.333008 43.167 1 60.5c-10 -0.666992 -51.667 -1 -125 -1c-35.333 -38.667 -73.333 -75 -114 -109c4.66699 -0.666992 9.66699 -1 15 -1c48 0 90.667 24.667 128 74c2.66699 3.33301 4.66699 3 6 -1v-4
c-40 -52.667 -84.667 -79 -134 -79c-8.66699 0 -17 0.666992 -25 2c-104 -83.333 -192.667 -125 -266 -125c-39.333 0 -69.666 11 -90.999 33c-13.333 14.667 -20 32.667 -20 54c0 31.333 11.167 58 33.5 80s49 38.167 80 48.5s71.5 19.5 121.5 27.5
c-16.667 38 -25 75.667 -25 113c0 101.333 28.667 175.666 86 222.999c30.667 24.667 62 37 94 37c11.333 0 23 -1.66699 35 -5c42 -10.667 69.667 -38 83 -82c5.33301 -16.667 8 -34.667 8 -54c0 -64 -26.667 -135.667 -80 -215h45c13.333 13.333 39.666 47.5 78.999 102.5
s69 95.167 89 120.5c6.66699 43.333 10 71.333 10 84c0 23.333 -6 35 -18 35c-14 0 -32.667 -13.667 -56 -41c-12.667 -14.667 -20.334 -25 -23.001 -31s-6 -7.66699 -10 -5c-4 5.33301 2 18 18 38c33.333 40 63.333 60 90 60zM470.003 272.001
c25.333 52 38.001 95.332 38.001 129.999s-6.33301 63.334 -19 86.001c-21.333 38.667 -53.833 58 -97.5 58s-81.334 -22 -113.001 -66s-47.5 -104.333 -47.5 -181c0 -40 8 -77 24 -111c60.667 8.66699 118.667 13.334 174 14.001c16 23.333 29.667 46.666 41 69.999z
M19.0039 42c0 -18.667 9.33398 -34.667 28.001 -48c23.333 -17.333 54.333 -26 93 -26c70 0 143.667 35 221 105l-23 9c-68.667 -60 -135.334 -90 -200.001 -90c-19.333 0 -38.333 2.66699 -57 8c-3.33301 0.666992 -4.33301 2.33398 -3 5.00098s3 3.66699 5 3
c78 -20.667 159.667 6 245 80c-30.667 18 -55.667 43.667 -75 77c-64 -12.667 -112 -24 -144 -34c-60 -20.667 -90 -50.334 -90 -89.001zM525.005 208c9.33301 -0.666992 22.5 -1.00098 39.5 -1.00098s40.167 0.666992 69.5 2c2 52 8.33301 113 19 183
c-16.667 -29.333 -32.5 -54.166 -47.5 -74.499l-46 -63c-15.667 -21.667 -27.167 -37.167 -34.5 -46.5zM418.005 186.999c-49.333 -4.66699 -100 -11.332 -152 -19.999c20 -32.667 43.667 -56.334 71 -71.001c28.667 26 55.667 56.333 81 91zM708.505 690.001
c5 0 7.83398 -0.666992 8.50098 -2l30 -86c0 -2.66699 -0.666992 -4.33398 -2 -5.00098c-8.66699 0 -13.667 1.66699 -15 5l-37 58l-108 -58c-2.66699 -2.66699 -7.33398 -4 -14.001 -4c-5.33301 -1.33301 -8 -0.666016 -8 2.00098l1 2l122 86c10 1.33301 17.5 2 22.5 2z
M455.006 189.001c-7.33301 0 -15 -0.332031 -23 -0.999023c-26 -38 -54.333 -70.667 -85 -98c8.66699 -3.33301 16.334 -6 23.001 -8c14 13.333 32.667 32.166 56 56.499s39.666 40.833 48.999 49.5c-6 0.666992 -12.667 1 -20 1z" />
    <glyph glyph-name="Atilde" unicode="&#xc3;" horiz-adv-x="769" 
d="M666 566c24.667 0 37.0029 -15.666 37.0029 -46.999c0 -16.667 -4.16699 -61.5 -12.5 -134.5s-13.5 -130.5 -15.5 -172.5c33.333 2 54 5.66699 62 11s12.167 6 12.5 2s-5.33398 -9.5 -17.001 -16.5s-30.834 -12.5 -57.501 -16.5v-62c0 -64.667 11 -107.667 33 -129
c8 -8 14.833 -12 20.5 -12s12.334 1.16699 20.001 3.5s17.5 10 29.5 23s22.333 29.5 31 49.5c2.66699 6 5.16699 8.5 7.5 7.5s3.5 -2.5 3.5 -4.5s-0.333008 -4.33301 -1 -7c-8.66699 -24.667 -22.334 -45.334 -41.001 -62.001c-40.667 -37.333 -77 -41.666 -109 -12.999
c-16.667 14.667 -27.167 36 -31.5 64s-6.5 53.5 -6.5 76.5s0.333008 43.167 1 60.5c-10 -0.666992 -51.667 -1 -125 -1c-35.333 -38.667 -73.333 -75 -114 -109c4.66699 -0.666992 9.66699 -1 15 -1c48 0 90.667 24.667 128 74c2.66699 3.33301 4.66699 3 6 -1v-4
c-40 -52.667 -84.667 -79 -134 -79c-8.66699 0 -17 0.666992 -25 2c-104 -83.333 -192.667 -125 -266 -125c-39.333 0 -69.666 11 -90.999 33c-13.333 14.667 -20 32.667 -20 54c0 31.333 11.167 58 33.5 80s49 38.167 80 48.5s71.5 19.5 121.5 27.5
c-16.667 38 -25 75.667 -25 113c0 101.333 28.667 175.666 86 222.999c30.667 24.667 62 37 94 37c11.333 0 23 -1.66699 35 -5c42 -10.667 69.667 -38 83 -82c5.33301 -16.667 8 -34.667 8 -54c0 -64 -26.667 -135.667 -80 -215h45c13.333 13.333 39.666 47.5 78.999 102.5
s69 95.167 89 120.5c6.66699 43.333 10 71.333 10 84c0 23.333 -6 35 -18 35c-14 0 -32.667 -13.667 -56 -41c-12.667 -14.667 -20.334 -25 -23.001 -31s-6 -7.66699 -10 -5c-4 5.33301 2 18 18 38c33.333 40 63.333 60 90 60zM470.003 272.001
c25.333 52 38.001 95.332 38.001 129.999s-6.33301 63.334 -19 86.001c-21.333 38.667 -53.833 58 -97.5 58s-81.334 -22 -113.001 -66s-47.5 -104.333 -47.5 -181c0 -40 8 -77 24 -111c60.667 8.66699 118.667 13.334 174 14.001c16 23.333 29.667 46.666 41 69.999z
M19.0039 42c0 -18.667 9.33398 -34.667 28.001 -48c23.333 -17.333 54.333 -26 93 -26c70 0 143.667 35 221 105l-23 9c-68.667 -60 -135.334 -90 -200.001 -90c-19.333 0 -38.333 2.66699 -57 8c-3.33301 0.666992 -4.33301 2.33398 -3 5.00098s3 3.66699 5 3
c78 -20.667 159.667 6 245 80c-30.667 18 -55.667 43.667 -75 77c-64 -12.667 -112 -24 -144 -34c-60 -20.667 -90 -50.334 -90 -89.001zM525.005 208c9.33301 -0.666992 22.5 -1.00098 39.5 -1.00098s40.167 0.666992 69.5 2c2 52 8.33301 113 19 183
c-16.667 -29.333 -32.5 -54.166 -47.5 -74.499l-46 -63c-15.667 -21.667 -27.167 -37.167 -34.5 -46.5zM418.005 186.999c-49.333 -4.66699 -100 -11.332 -152 -19.999c20 -32.667 43.667 -56.334 71 -71.001c28.667 26 55.667 56.333 81 91zM715.005 604.001
c-9.33301 0 -22.001 3.66504 -38.001 10.998s-29 11 -39 11s-18 -6.33301 -24 -19c-1.33301 -1.33301 -3.83301 -1.66602 -7.5 -0.999023s-5.5 1.33398 -5.5 2.00098c15.333 28.667 32.333 43 51 43c10 0 23 -3.66699 39 -11c18 -6.66699 31.833 -10 41.5 -10
s17.167 6.66699 22.5 20c0.666992 1.33301 2.83398 1.83301 6.50098 1.5s5.5 -0.833008 5.5 -1.5c0 -30.667 -17.333 -46 -52 -46zM455.004 188.999c-7.33301 0 -15 -0.332031 -23 -0.999023c-26 -38 -54.333 -70.667 -85 -98c8.66699 -3.33301 16.334 -6 23.001 -8
c14 13.333 32.667 32.166 56 56.499s39.666 40.833 48.999 49.5c-6 0.666992 -12.667 1 -20 1z" />
    <glyph glyph-name="Adieresis" unicode="&#xc4;" horiz-adv-x="769" 
d="M666 566c24.667 0 37.0029 -15.666 37.0029 -46.999c0 -16.667 -4.16699 -61.5 -12.5 -134.5s-13.5 -130.5 -15.5 -172.5c33.333 2 54 5.66699 62 11s12.167 6 12.5 2s-5.33398 -9.5 -17.001 -16.5s-30.834 -12.5 -57.501 -16.5v-62c0 -64.667 11 -107.667 33 -129
c8 -8 14.833 -12 20.5 -12s12.334 1.16699 20.001 3.5s17.5 10 29.5 23s22.333 29.5 31 49.5c2.66699 6 5.16699 8.5 7.5 7.5s3.5 -2.5 3.5 -4.5s-0.333008 -4.33301 -1 -7c-8.66699 -24.667 -22.334 -45.334 -41.001 -62.001c-40.667 -37.333 -77 -41.666 -109 -12.999
c-16.667 14.667 -27.167 36 -31.5 64s-6.5 53.5 -6.5 76.5s0.333008 43.167 1 60.5c-10 -0.666992 -51.667 -1 -125 -1c-35.333 -38.667 -73.333 -75 -114 -109c4.66699 -0.666992 9.66699 -1 15 -1c48 0 90.667 24.667 128 74c2.66699 3.33301 4.66699 3 6 -1v-4
c-40 -52.667 -84.667 -79 -134 -79c-8.66699 0 -17 0.666992 -25 2c-104 -83.333 -192.667 -125 -266 -125c-39.333 0 -69.666 11 -90.999 33c-13.333 14.667 -20 32.667 -20 54c0 31.333 11.167 58 33.5 80s49 38.167 80 48.5s71.5 19.5 121.5 27.5
c-16.667 38 -25 75.667 -25 113c0 101.333 28.667 175.666 86 222.999c30.667 24.667 62 37 94 37c11.333 0 23 -1.66699 35 -5c42 -10.667 69.667 -38 83 -82c5.33301 -16.667 8 -34.667 8 -54c0 -64 -26.667 -135.667 -80 -215h45c13.333 13.333 39.666 47.5 78.999 102.5
s69 95.167 89 120.5c6.66699 43.333 10 71.333 10 84c0 23.333 -6 35 -18 35c-14 0 -32.667 -13.667 -56 -41c-12.667 -14.667 -20.334 -25 -23.001 -31s-6 -7.66699 -10 -5c-4 5.33301 2 18 18 38c33.333 40 63.333 60 90 60zM470.003 272.001
c25.333 52 38.001 95.332 38.001 129.999s-6.33301 63.334 -19 86.001c-21.333 38.667 -53.833 58 -97.5 58s-81.334 -22 -113.001 -66s-47.5 -104.333 -47.5 -181c0 -40 8 -77 24 -111c60.667 8.66699 118.667 13.334 174 14.001c16 23.333 29.667 46.666 41 69.999z
M19.0039 42c0 -18.667 9.33398 -34.667 28.001 -48c23.333 -17.333 54.333 -26 93 -26c70 0 143.667 35 221 105l-23 9c-68.667 -60 -135.334 -90 -200.001 -90c-19.333 0 -38.333 2.66699 -57 8c-3.33301 0.666992 -4.33301 2.33398 -3 5.00098s3 3.66699 5 3
c78 -20.667 159.667 6 245 80c-30.667 18 -55.667 43.667 -75 77c-64 -12.667 -112 -24 -144 -34c-60 -20.667 -90 -50.334 -90 -89.001zM525.005 208c9.33301 -0.666992 22.5 -1.00098 39.5 -1.00098s40.167 0.666992 69.5 2c2 52 8.33301 113 19 183
c-16.667 -29.333 -32.5 -54.166 -47.5 -74.499l-46 -63c-15.667 -21.667 -27.167 -37.167 -34.5 -46.5zM418.005 186.999c-49.333 -4.66699 -100 -11.332 -152 -19.999c20 -32.667 43.667 -56.334 71 -71.001c28.667 26 55.667 56.333 81 91zM455.005 189.001
c-7.33301 0 -15 -0.332031 -23 -0.999023c-26 -38 -54.333 -70.667 -85 -98c8.66699 -3.33301 16.334 -6 23.001 -8c14 13.333 32.667 32.166 56 56.499s39.666 40.833 48.999 49.5c-6 0.666992 -12.667 1 -20 1zM651.005 619.002c0 -14.667 -7 -22 -21 -22
c-15.333 0 -23 7.33301 -23 22s7.33301 22 22 22s22 -7.33301 22 -22zM737.005 619.002c0 -14.667 -7 -22 -21 -22c-15.333 0 -23 7.33301 -23 22s7.33301 22 22 22s22 -7.33301 22 -22z" />
    <glyph glyph-name="Aring" unicode="&#xc5;" horiz-adv-x="769" 
d="M522 418c0 -64 -26.665 -135.668 -79.998 -215.001h45c13.333 13.333 39.666 47.5 78.999 102.5s69 95.167 89 120.5c6.66699 43.333 10 71.333 10 84c0 23.333 -6 35 -18 35c-14 0 -32.667 -13.667 -56 -41c-12.667 -14.667 -20.334 -25 -23.001 -31s-6 -7.66699 -10 -5
c-4 5.33301 2 18 18 38c28.667 34.667 55.667 54.334 81 59.001c-1.33301 0.666992 -4.83301 3.83398 -10.5 9.50098s-8.5 14.5 -8.5 26.5s4.5 22.167 13.5 30.5s18.833 12.5 29.5 12.5s20.334 -4.16699 29.001 -12.5s13 -18.5 13 -30.5s-3.66699 -21.5 -11 -28.5
s-15.333 -11.5 -24 -13.5c10 -8.66699 15 -21.667 15 -39s-4.16699 -62.5 -12.5 -135.5s-13.5 -130.5 -15.5 -172.5c33.333 2 54 5.66699 62 11s12.167 6 12.5 2s-5.33398 -9.5 -17.001 -16.5s-30.834 -12.5 -57.501 -16.5v-62c0 -64.667 11 -107.667 33 -129
c8 -8 14.833 -12 20.5 -12s12.334 1.16699 20.001 3.5s17.5 10 29.5 23s22.333 29.5 31 49.5c2.66699 6 5.16699 8.5 7.5 7.5s3.5 -2.5 3.5 -4.5s-0.333008 -4.33301 -1 -7c-8.66699 -24.667 -22.334 -45.334 -41.001 -62.001c-40.667 -37.333 -77 -41.666 -109 -12.999
c-16.667 14.667 -27.167 36 -31.5 64s-6.5 53.5 -6.5 76.5s0.333008 43.167 1 60.5c-10 -0.666992 -51.667 -1 -125 -1c-35.333 -38.667 -73.333 -75 -114 -109c4.66699 -0.666992 9.66699 -1 15 -1c48 0 90.667 24.667 128 74c2.66699 3.33301 4.66699 3 6 -1v-4
c-40 -52.667 -84.667 -79 -134 -79c-8.66699 0 -17 0.666992 -25 2c-104 -83.333 -192.667 -125 -266 -125c-39.333 0 -69.666 11 -90.999 33c-13.333 14.667 -20 32.667 -20 54c0 31.333 11.167 58 33.5 80s49 38.167 80 48.5s71.5 19.5 121.5 27.5
c-16.667 38 -25 75.667 -25 113c0 101.333 28.667 175.666 86 222.999c30.667 24.667 62 37 94 37c11.333 0 23 -1.66699 35 -5c42 -10.667 69.667 -38 83 -82c5.33301 -16.667 8 -34.667 8 -54zM470.002 271.999c25.333 52 38.001 95.332 38.001 129.999
s-6.33301 63.334 -19 86.001c-21.333 38.667 -53.833 58 -97.5 58s-81.334 -22 -113.001 -66s-47.5 -104.333 -47.5 -181c0 -40 8 -77 24 -111c60.667 8.66699 118.667 13.334 174 14.001c16 23.333 29.667 46.666 41 69.999zM19.0029 41.998
c0 -18.667 9.33398 -34.667 28.001 -48c23.333 -17.333 54.333 -26 93 -26c70 0 143.667 35 221 105l-23 9c-68.667 -60 -135.334 -90 -200.001 -90c-19.333 0 -38.333 2.66699 -57 8c-3.33301 0.666992 -4.33301 2.33398 -3 5.00098s3 3.66699 5 3
c78 -20.667 159.667 6 245 80c-30.667 18 -55.667 43.667 -75 77c-64 -12.667 -112 -24 -144 -34c-60 -20.667 -90 -50.334 -90 -89.001zM525.004 207.998c9.33301 -0.666992 22.5 -1.00098 39.5 -1.00098s40.167 0.666992 69.5 2c2 52 8.33301 113 19 183
c-16.667 -29.333 -32.5 -54.166 -47.5 -74.499l-46 -63c-15.667 -21.667 -27.167 -37.167 -34.5 -46.5zM418.004 186.997c-49.333 -4.66699 -100 -11.332 -152 -19.999c20 -32.667 43.667 -56.334 71 -71.001c28.667 26 55.667 56.333 81 91zM455.004 188.999
c-7.33301 0 -15 -0.332031 -23 -0.999023c-26 -38 -54.333 -70.667 -85 -98c8.66699 -3.33301 16.334 -6 23.001 -8c14 13.333 32.667 32.166 56 56.499s39.666 40.833 48.999 49.5c-6 0.666992 -12.667 1 -20 1zM711.004 601c0 8.66699 -3 16 -9 22s-13.333 9 -22 9
s-16 -3 -22 -9s-9 -13.333 -9 -22s3 -16 9 -22s13.333 -9 22 -9s16 3 22 9s9 13.333 9 22z" />
    <glyph glyph-name="AE" unicode="&#xc6;" horiz-adv-x="969" 
d="M842 266l-23.999 0.000976562c-50 0 -102.667 -7.33301 -158 -22s-97.666 -36 -126.999 -64s-44 -57.5 -44 -88.5s15 -57.5 45 -79.5s71.667 -33 125 -33c18.667 0 36.334 1.33301 53.001 4c61.333 8 116 26.667 164 56s73.333 61.666 76 96.999c1.33301 6 3 9 5 9
s3 -3.33301 3 -10c-2 -42.667 -28.667 -79.667 -80 -111c-68.667 -42.667 -148.334 -64 -239.001 -64c-50.667 0 -93.334 9.33301 -128.001 28c-44.667 24 -67 57 -67 99c0 32.667 15 64.334 45 95.001v4c-50 -1.33301 -105.333 -3.66602 -166 -6.99902l-90 -85
c26 -21.333 56.667 -32 92 -32s60 7 74 21c1.33301 2 3 2 5 0s2 -4 0 -6c-16.667 -15.333 -39.667 -23 -69 -23c-44 0 -80.333 11.333 -109 34l-36 -33c-52 -48 -96 -82.667 -132 -104c20.667 -10.667 39.667 -16.667 57 -18s26 -3 26 -5c0 -4 -4 -5.33301 -12 -4
c-30.667 2.66699 -58 9.66699 -82 21c-68 -40 -123 -60 -165 -60h-6c-18.667 0 -28 6 -28 18c0 4.66699 2 10.667 6 18c2 6.66699 5.66699 11 11 13c-4 -9.33301 -6 -17 -6 -23c0 -10 7.33301 -15 22 -15h4c40.667 0 90.667 18.333 150 55c-35.333 16 -53 39 -53 69
c0 19.333 8.66699 40.333 26 63c32.667 40 79 68.333 139 85l23 6c-8.66699 26 -13 58.833 -13 98.5s7 78.5 21 116.5c24 64 54.333 112 91 144c31.333 29.333 64.333 44 99 44c24 0 43.833 -7.83301 59.5 -23.5s23.5 -37.167 23.5 -64.5s-7 -56 -21 -86
c-20 -43.333 -71 -111.333 -153 -204l-9 -10c8 0.666992 22.333 2.33398 43 5.00098c48 46.667 99 103.667 153 171c74.667 93.333 112 156.666 112 189.999c0 16 -8.66699 24.667 -26 26c-4 0 -6 1 -6 3c0 4 3.66699 6 11 6c33.333 -1.33301 50 -15.333 50 -42
c0 -16.667 -7.33301 -39.667 -22 -69c2.66699 -4 3 -8.66699 1 -14c-14.667 -58.667 -33.334 -142.334 -56.001 -251.001c30.667 20.667 69 38.667 115 54l95 20c-34 0 -64 8 -90 24c-25.333 17.333 -37 37.333 -35 60c4 30.667 23.167 58.167 57.5 82.5
s72.166 42.166 113.499 53.499s78.333 17 111 17s59 -6.66699 79 -20s30 -28.166 30 -44.499s-5.66699 -30.333 -17 -42s-26.666 -18.834 -45.999 -21.501c-8 0 -12 1.33301 -12 4c0 4.66699 4 6.5 12 5.5s15.333 3.16699 22 12.5s10 20.833 10 34.5
s-6.5 26.334 -19.5 38.001s-34 17.5 -63 17.5s-62.333 -5.83301 -100 -17.5s-69.167 -28.834 -94.5 -51.501s-39 -46.667 -41 -72c-3.33301 -25.333 16.667 -45.333 60 -60c31.333 -10.667 66 -16 104 -16h19c14.667 0.666992 22 -3.5 22 -12.5s-6.66699 -13.5 -20 -13.5z
M196.001 387.001c-14.667 -39.333 -21.999 -77.833 -21.999 -115.5s3.66699 -69.5 11 -95.5c24 4.66699 48.333 8.33398 73 11.001c72 72 125.333 145 160 219c14.667 30 22 57.667 22 83s-6.33301 45.166 -19 59.499s-29.334 21.5 -50.001 21.5
c-30.667 0 -60.667 -14.333 -90 -43c-34 -31.333 -62.333 -78 -85 -140zM16.002 10.001c0 -19.333 10.6689 -37 32.002 -53c32 20.667 73 54 123 100l45 42c-5.33301 5.33301 -10 11 -14 17c-47.333 -46.667 -82 -70 -104 -70c-2 0 -3 1 -3 3
c-0.666992 2 -0.333984 3.33301 0.999023 4c36 25.333 68.667 50.333 98 75c-4.66699 6.66699 -8.33398 13.334 -11.001 20.001c-20 -6.66699 -38.667 -14.334 -56 -23.001c-74 -36.667 -111 -75 -111 -115zM566.004 445.001c-30 -47.333 -59.5 -86.5 -88.5 -117.5
s-73.167 -74.5 -132.5 -130.5c14 1.33301 38.5 2.33301 73.5 3s60.5 1.66699 76.5 3c8.66699 37.333 20.667 79.333 36 126zM294.004 175.001l-43.999 -9l-41 -43h1c5.33301 -8 9.66602 -13.667 12.999 -17zM194.005 151.001l8 -15.999l30 27
c-23.333 -6.66699 -36 -10.334 -38 -11.001z" />
    <glyph glyph-name="Ccedilla" unicode="&#xc7;" horiz-adv-x="586" 
d="M557 152c2.66699 0 4.00098 -1.99805 4.00098 -5.99805c0 -7.33301 -7.5 -22 -22.5 -44s-38.667 -45.333 -71 -70s-68.5 -43.334 -108.5 -56.001c-22.667 -30 -49.667 -50.333 -81 -61c22 -15.333 33 -35.833 33 -61.5s-15.333 -50.167 -46 -73.5
c-15.333 -12 -34.5 -18 -57.5 -18s-48.833 4 -77.5 12s-43 19.667 -43 35c0 4.66699 1.66699 7 5 7s8 -3.66699 14 -11c14 -16.667 40.667 -25 80 -25s66 12 80 36c8 14.667 12 30 12 46s-7.33301 29.333 -22 40l-7 5c-6.66699 -0.666992 -15.334 -1 -26.001 -1
s-22.334 2 -35.001 6l-39 -20c-11.333 0 -17 5 -17 15c0 5.33301 5.66699 13 17 23c-38.667 25.333 -63 64.333 -73 117c-35.333 43.333 -53 95.5 -53 156.5s19.667 120.333 59 178s95.333 100.167 168 127.5c42.667 16 81 24 115 24s65.5 -4 94.5 -12s54.667 -23 77 -45
s33.166 -48.667 32.499 -80c14 -3.33301 21 -8.66602 21 -15.999c0 -4.66699 -3.66699 -5 -11 -1l-11 5c-4.66699 -39.333 -25 -78.666 -61 -117.999c-61.333 -66 -128.666 -99 -201.999 -99c-42 0 -73.333 11.667 -94 35c-12.667 14 -19 28.667 -19 44
c0 35.333 20.333 69.666 61 102.999c26 22 59 38.5 99 49.5s77.667 16.5 113 16.5c7.33301 0 15 -0.333008 23 -1c0 33.333 -18 55.333 -54 66c-12.667 3.33301 -26 5 -40 5c-35.333 0 -73.666 -11.667 -114.999 -35c-58 -32.667 -105.333 -82.334 -142 -149.001
c-28.667 -53.333 -46 -110.333 -52 -171c16.667 -44.667 43.667 -79 81 -103s79 -36 125 -36c18 0 41.333 2.66699 70 8c12 22 18 44.333 18 67c0 35.333 -11 59 -33 71c-1.33301 0.666992 -2 1.66699 -2 3c1.33301 4 3.33301 5.33301 6 4c27.333 -14.667 41 -41 41 -79
c0 -20.667 -5.33301 -41.334 -16 -62.001c68 20.667 118.667 57.667 152 111c15.333 25.333 25.333 38 30 38zM295.001 255.002c-15.333 0 -23.165 1.66602 -23.498 4.99902s2.66699 4.83301 9 4.5s10.5 -0.5 12.5 -0.5c34.667 0 68 7.5 100 22.5s54.667 33.5 68 55.5
s21.666 40.667 24.999 56c-40 0 -80.833 -6.5 -122.5 -19.5s-72.834 -28.5 -93.501 -46.5c-32 -28 -48 -55.667 -48 -83c0 -19.333 10.667 -37 32 -53c14 -9.33301 32 -14 54 -14s46.333 4 73 12c44 15.333 83.5 42.333 118.5 81s52.167 77 51.5 115
c-18.667 4.66699 -37 7.33398 -55 8.00098c-3.33301 -18 -11 -35.333 -23 -52c-20.667 -30.667 -47 -53.5 -79 -68.5s-65 -22.5 -99 -22.5zM314.002 480.001c28.667 10 55 14.999 79 14.999s45.667 -5 65 -15c28 -15.333 41.333 -37.666 40 -66.999
c18 -0.666992 35 -3.66699 51 -9c-6.66699 43.333 -38 75.333 -94 96c-21.333 8.66699 -46.5 13 -75.5 13s-60 -4.5 -93 -13.5s-66 -27.167 -99 -54.5s-60.5 -62.5 -82.5 -105.5s-33 -85.833 -33 -128.5c0 -16.667 1.66699 -33.667 5 -51c7.33301 53.333 24.333 104 51 152
c46.667 84.667 108.667 140.667 186 168zM341.002 -29c-26 -6 -50.167 -9 -72.5 -9s-41.833 1.66699 -58.5 5c-25.333 -21.333 -38 -33 -38 -35c12 2 26.333 3 43 3s33.667 -4.33301 51 -13c28.667 8.66699 53.667 25 75 49zM91.002 30
c10.667 -42 32.334 -73.333 65.001 -94l39 35c-42.667 11.333 -77.334 31 -104.001 59z" />
    <glyph glyph-name="Egrave" unicode="&#xc8;" horiz-adv-x="568" 
d="M422 12l0.996094 -17.998c0 -32.667 -6 -61.334 -18 -86.001c-24.667 -52 -63.667 -78 -117 -78c-46.667 0 -86.667 21.333 -120 64c-18.667 24 -32.667 53.333 -42 88c-60.667 31.333 -91 84.333 -91 159c0 36 8.33301 75 25 117
c-4 -0.666992 -9.16699 -1.83398 -15.5 -3.50098s-9.5 -0.166992 -9.5 4.5c0 10 5 18.333 15 25c2 0.666992 3.66699 1.33398 5 2.00098l20 4l6 12c38.667 73.333 96.334 133 173.001 179c59.333 35.333 116.333 53 171 53s92.334 -10 113.001 -30
c32 38.667 50.667 54 56 46v-3c0 -1.33301 -1 -3 -3 -5c-15.333 -12 -30.333 -27.333 -45 -46c10.667 -14 16 -27 16 -39c0 -35.333 -14.333 -57 -43 -65c-4.66699 -1.33301 -8.66699 -2 -12 -2c-11.333 0 -18 6 -20 18c-2.66699 14 1.5 29.167 12.5 45.5
s19.833 27.833 26.5 34.5c-14 16 -46.667 24 -98 24s-101.666 -16 -150.999 -48c-61.333 -40 -112 -95 -152 -165c10.667 1.33301 25.334 2.66602 44.001 3.99902c52.667 92.667 130.667 154 234 184c2.66699 0.666992 4.5 -0.333008 5.5 -3
s0.166992 -4.33398 -2.5 -5.00098c-89.333 -24 -161.333 -82.333 -216 -175c23.333 1.33301 108 2 254 2c7.33301 0 11.166 -2.16699 11.499 -6.5s-5.5 -6.5 -17.5 -6.5c-92.667 0 -180 -5 -262 -15c-32 -64 -48 -128.667 -48 -194c0 -24.667 1.33301 -45.334 4 -62.001
c8 -8 22.333 -17.167 43 -27.5s47.334 -15.5 80.001 -15.5c51.333 0 101.333 15 150 45c-8 34 -25.333 66.667 -52 98c-40.667 -24 -75.667 -53.667 -105 -89c-4.66699 -5.33301 -7 -6.33301 -7 -3c0 5.33301 1.33301 9.33301 4 12c24 26.667 49 51 75 73
c14 10.667 21.667 16.334 23 17.001c-38.667 38.667 -79.667 58.334 -123 59.001c-2 0 -3.33301 0.666992 -4 2s-0.5 2.66602 0.5 3.99902s2.16699 2 3.5 2c46 -1.33301 90 -21.666 132 -60.999c44 27.333 83.5 41 118.5 41s52.5 -15.667 52.5 -47
c0 -38 -33.667 -78 -101 -120zM406.996 4.00195c-56 -30.667 -113.667 -45.999 -173 -45.999c-39.333 0 -70 5.66699 -92 17c13.333 -47.333 34.333 -82 63 -104s56 -33 82 -33c33.333 0 61.833 14.667 85.5 44s35.5 66.666 35.5 111.999c0 4.66699 -0.333008 8 -1 10z
M417.996 32.0029c30 21.333 51.833 42.333 65.5 63s20.5 35.667 20.5 45c0 18.667 -10.333 28 -31 28c-25.333 0 -62 -13.667 -110 -41c28 -30 46.333 -61.667 55 -95zM112.996 88.0029c0 64 14 126.334 42 187.001l-46 -7l-3 -7c-18 -36.667 -27 -73.334 -27 -110.001
c0 -44 12 -81 36 -111c-1.33301 20 -2 36 -2 48zM400.996 623.004c-4 4 -5.99902 10 -5.99902 18s3 12 9 12c3.33301 0 7.66602 -2.16699 12.999 -6.5s13.333 -10.5 24 -18.5c17.333 -12 38 -27.667 62 -47c2.66699 -2 4 -4.33301 4 -7c0 -4.66699 -2.66699 -7 -8 -7
c-8 0 -40.667 18.667 -98 56zM534.997 417.004c4 9.33301 6 19.001 6 29.001s-2.66699 20.667 -8 32c-18 -26.667 -27 -49.334 -27 -68.001c0 -6 3.33301 -9 10 -9s13 5.33301 19 16z" />
    <glyph glyph-name="Eacute" unicode="&#xc9;" horiz-adv-x="568" 
d="M422 12l0.996094 -17.998c0 -32.667 -6 -61.334 -18 -86.001c-24.667 -52 -63.667 -78 -117 -78c-46.667 0 -86.667 21.333 -120 64c-18.667 24 -32.667 53.333 -42 88c-60.667 31.333 -91 84.333 -91 159c0 36 8.33301 75 25 117
c-4 -0.666992 -9.16699 -1.83398 -15.5 -3.50098s-9.5 -0.166992 -9.5 4.5c0 10 5 18.333 15 25c2 0.666992 3.66699 1.33398 5 2.00098l20 4l6 12c38.667 73.333 96.334 133 173.001 179c59.333 35.333 116.333 53 171 53s92.334 -10 113.001 -30
c32 38.667 50.667 54 56 46v-3c0 -1.33301 -1 -3 -3 -5c-15.333 -12 -30.333 -27.333 -45 -46c10.667 -14 16 -27 16 -39c0 -35.333 -14.333 -57 -43 -65c-4.66699 -1.33301 -8.66699 -2 -12 -2c-11.333 0 -18 6 -20 18c-2.66699 14 1.5 29.167 12.5 45.5
s19.833 27.833 26.5 34.5c-14 16 -46.667 24 -98 24s-101.666 -16 -150.999 -48c-61.333 -40 -112 -95 -152 -165c10.667 1.33301 25.334 2.66602 44.001 3.99902c52.667 92.667 130.667 154 234 184c2.66699 0.666992 4.5 -0.333008 5.5 -3
s0.166992 -4.33398 -2.5 -5.00098c-89.333 -24 -161.333 -82.333 -216 -175c23.333 1.33301 108 2 254 2c7.33301 0 11.166 -2.16699 11.499 -6.5s-5.5 -6.5 -17.5 -6.5c-92.667 0 -180 -5 -262 -15c-32 -64 -48 -128.667 -48 -194c0 -24.667 1.33301 -45.334 4 -62.001
c8 -8 22.333 -17.167 43 -27.5s47.334 -15.5 80.001 -15.5c51.333 0 101.333 15 150 45c-8 34 -25.333 66.667 -52 98c-40.667 -24 -75.667 -53.667 -105 -89c-4.66699 -5.33301 -7 -6.33301 -7 -3c0 5.33301 1.33301 9.33301 4 12c24 26.667 49 51 75 73
c14 10.667 21.667 16.334 23 17.001c-38.667 38.667 -79.667 58.334 -123 59.001c-2 0 -3.33301 0.666992 -4 2s-0.5 2.66602 0.5 3.99902s2.16699 2 3.5 2c46 -1.33301 90 -21.666 132 -60.999c44 27.333 83.5 41 118.5 41s52.5 -15.667 52.5 -47
c0 -38 -33.667 -78 -101 -120zM406.996 4.00195c-56 -30.667 -113.667 -45.999 -173 -45.999c-39.333 0 -70 5.66699 -92 17c13.333 -47.333 34.333 -82 63 -104s56 -33 82 -33c33.333 0 61.833 14.667 85.5 44s35.5 66.666 35.5 111.999c0 4.66699 -0.333008 8 -1 10z
M417.996 32.0029c30 21.333 51.833 42.333 65.5 63s20.5 35.667 20.5 45c0 18.667 -10.333 28 -31 28c-25.333 0 -62 -13.667 -110 -41c28 -30 46.333 -61.667 55 -95zM112.996 88.0029c0 64 14 126.334 42 187.001l-46 -7l-3 -7c-18 -36.667 -27 -73.334 -27 -110.001
c0 -44 12 -81 36 -111c-1.33301 20 -2 36 -2 48zM456.496 606.004l41 30.501c7 5 16 7.5 27 7.5s16.5 -4.33301 16.5 -13c0 -2 -1.16699 -5 -3.5 -9s-22 -14.667 -59 -32s-57.5 -26 -61.5 -26s-6 1.16699 -6 3.5s0.333008 4.16602 1 5.49902zM534.996 417.005
c4 9.33301 6 19.001 6 29.001s-2.66699 20.667 -8 32c-18 -26.667 -27 -49.334 -27 -68.001c0 -6 3.33301 -9 10 -9s13 5.33301 19 16z" />
    <glyph glyph-name="Ecircumflex" unicode="&#xca;" horiz-adv-x="568" 
d="M422 12l0.996094 -17.998c0 -32.667 -6 -61.334 -18 -86.001c-24.667 -52 -63.667 -78 -117 -78c-46.667 0 -86.667 21.333 -120 64c-18.667 24 -32.667 53.333 -42 88c-60.667 31.333 -91 84.333 -91 159c0 36 8.33301 75 25 117
c-4 -0.666992 -9.16699 -1.83398 -15.5 -3.50098s-9.5 -0.166992 -9.5 4.5c0 10 5 18.333 15 25c2 0.666992 3.66699 1.33398 5 2.00098l20 4l6 12c38.667 73.333 96.334 133 173.001 179c59.333 35.333 116.333 53 171 53s92.334 -10 113.001 -30
c32 38.667 50.667 54 56 46v-3c0 -1.33301 -1 -3 -3 -5c-15.333 -12 -30.333 -27.333 -45 -46c10.667 -14 16 -27 16 -39c0 -35.333 -14.333 -57 -43 -65c-4.66699 -1.33301 -8.66699 -2 -12 -2c-11.333 0 -18 6 -20 18c-2.66699 14 1.5 29.167 12.5 45.5
s19.833 27.833 26.5 34.5c-14 16 -46.667 24 -98 24s-101.666 -16 -150.999 -48c-61.333 -40 -112 -95 -152 -165c10.667 1.33301 25.334 2.66602 44.001 3.99902c52.667 92.667 130.667 154 234 184c2.66699 0.666992 4.5 -0.333008 5.5 -3
s0.166992 -4.33398 -2.5 -5.00098c-89.333 -24 -161.333 -82.333 -216 -175c23.333 1.33301 108 2 254 2c7.33301 0 11.166 -2.16699 11.499 -6.5s-5.5 -6.5 -17.5 -6.5c-92.667 0 -180 -5 -262 -15c-32 -64 -48 -128.667 -48 -194c0 -24.667 1.33301 -45.334 4 -62.001
c8 -8 22.333 -17.167 43 -27.5s47.334 -15.5 80.001 -15.5c51.333 0 101.333 15 150 45c-8 34 -25.333 66.667 -52 98c-40.667 -24 -75.667 -53.667 -105 -89c-4.66699 -5.33301 -7 -6.33301 -7 -3c0 5.33301 1.33301 9.33301 4 12c24 26.667 49 51 75 73
c14 10.667 21.667 16.334 23 17.001c-38.667 38.667 -79.667 58.334 -123 59.001c-2 0 -3.33301 0.666992 -4 2s-0.5 2.66602 0.5 3.99902s2.16699 2 3.5 2c46 -1.33301 90 -21.666 132 -60.999c44 27.333 83.5 41 118.5 41s52.5 -15.667 52.5 -47
c0 -38 -33.667 -78 -101 -120zM406.996 4.00195c-56 -30.667 -113.667 -45.999 -173 -45.999c-39.333 0 -70 5.66699 -92 17c13.333 -47.333 34.333 -82 63 -104s56 -33 82 -33c33.333 0 61.833 14.667 85.5 44s35.5 66.666 35.5 111.999c0 4.66699 -0.333008 8 -1 10z
M417.996 32.0029c30 21.333 51.833 42.333 65.5 63s20.5 35.667 20.5 45c0 18.667 -10.333 28 -31 28c-25.333 0 -62 -13.667 -110 -41c28 -30 46.333 -61.667 55 -95zM112.996 88.0029c0 64 14 126.334 42 187.001l-46 -7l-3 -7c-18 -36.667 -27 -73.334 -27 -110.001
c0 -44 12 -81 36 -111c-1.33301 20 -2 36 -2 48zM495.996 674.004c5.33301 0 8.00098 -0.666992 8.00098 -2l30 -86c0 -2.66699 -0.666992 -4.33398 -2 -5.00098c-8 0 -13 1.66699 -15 5l-37 58l-108 -58c-2.66699 -2.66699 -7.33398 -4 -14.001 -4
c-5.33301 -1.33301 -8 -0.666016 -8 2.00098l1 2l122 86c10 1.33301 17.667 2 23 2zM534.997 417.004c4 9.33301 6 19.001 6 29.001s-2.66699 20.667 -8 32c-18 -26.667 -27 -49.334 -27 -68.001c0 -6 3.33301 -9 10 -9s13 5.33301 19 16z" />
    <glyph glyph-name="Edieresis" unicode="&#xcb;" horiz-adv-x="568" 
d="M422 12l0.996094 -17.998c0 -32.667 -6 -61.334 -18 -86.001c-24.667 -52 -63.667 -78 -117 -78c-46.667 0 -86.667 21.333 -120 64c-18.667 24 -32.667 53.333 -42 88c-60.667 31.333 -91 84.333 -91 159c0 36 8.33301 75 25 117
c-4 -0.666992 -9.16699 -1.83398 -15.5 -3.50098s-9.5 -0.166992 -9.5 4.5c0 10 5 18.333 15 25c2 0.666992 3.66699 1.33398 5 2.00098l20 4l6 12c38.667 73.333 96.334 133 173.001 179c59.333 35.333 116.333 53 171 53s92.334 -10 113.001 -30
c32 38.667 50.667 54 56 46v-3c0 -1.33301 -1 -3 -3 -5c-15.333 -12 -30.333 -27.333 -45 -46c10.667 -14 16 -27 16 -39c0 -35.333 -14.333 -57 -43 -65c-4.66699 -1.33301 -8.66699 -2 -12 -2c-11.333 0 -18 6 -20 18c-2.66699 14 1.5 29.167 12.5 45.5
s19.833 27.833 26.5 34.5c-14 16 -46.667 24 -98 24s-101.666 -16 -150.999 -48c-61.333 -40 -112 -95 -152 -165c10.667 1.33301 25.334 2.66602 44.001 3.99902c52.667 92.667 130.667 154 234 184c2.66699 0.666992 4.5 -0.333008 5.5 -3
s0.166992 -4.33398 -2.5 -5.00098c-89.333 -24 -161.333 -82.333 -216 -175c23.333 1.33301 108 2 254 2c7.33301 0 11.166 -2.16699 11.499 -6.5s-5.5 -6.5 -17.5 -6.5c-92.667 0 -180 -5 -262 -15c-32 -64 -48 -128.667 -48 -194c0 -24.667 1.33301 -45.334 4 -62.001
c8 -8 22.333 -17.167 43 -27.5s47.334 -15.5 80.001 -15.5c51.333 0 101.333 15 150 45c-8 34 -25.333 66.667 -52 98c-40.667 -24 -75.667 -53.667 -105 -89c-4.66699 -5.33301 -7 -6.33301 -7 -3c0 5.33301 1.33301 9.33301 4 12c24 26.667 49 51 75 73
c14 10.667 21.667 16.334 23 17.001c-38.667 38.667 -79.667 58.334 -123 59.001c-2 0 -3.33301 0.666992 -4 2s-0.5 2.66602 0.5 3.99902s2.16699 2 3.5 2c46 -1.33301 90 -21.666 132 -60.999c44 27.333 83.5 41 118.5 41s52.5 -15.667 52.5 -47
c0 -38 -33.667 -78 -101 -120zM406.996 4.00195c-56 -30.667 -113.667 -45.999 -173 -45.999c-39.333 0 -70 5.66699 -92 17c13.333 -47.333 34.333 -82 63 -104s56 -33 82 -33c33.333 0 61.833 14.667 85.5 44s35.5 66.666 35.5 111.999c0 4.66699 -0.333008 8 -1 10z
M417.996 32.0029c30 21.333 51.833 42.333 65.5 63s20.5 35.667 20.5 45c0 18.667 -10.333 28 -31 28c-25.333 0 -62 -13.667 -110 -41c28 -30 46.333 -61.667 55 -95zM112.996 88.0029c0 64 14 126.334 42 187.001l-46 -7l-3 -7c-18 -36.667 -27 -73.334 -27 -110.001
c0 -44 12 -81 36 -111c-1.33301 20 -2 36 -2 48zM534.996 417.004c4 9.33301 6 19 6 29s-2.66699 20.667 -8 32c-16.667 -24.667 -25.667 -46 -27 -64c-1.33301 -8.66699 1 -13 7 -13c8.66699 0 16 5.33301 22 16zM528.996 599.004c0 -14.667 -7 -22 -21 -22
c-15.333 0 -23 7.33301 -23 22s7.33301 22 22 22s22 -7.33301 22 -22zM442.996 599.004c0 -14.667 -7 -22 -21 -22c-15.333 0 -23 7.33301 -23 22s7.33301 22 22 22s22 -7.33301 22 -22z" />
    <glyph glyph-name="Igrave" unicode="&#xcc;" horiz-adv-x="504" 
d="M265 502c-21.333 57.333 -57.001 86.002 -107.001 86.002c-34 0 -65.667 -18 -95 -54s-44 -84.333 -44 -145c0 -18 1.33301 -37.333 4 -58c10 -69.333 33.833 -118.666 71.5 -147.999s78.167 -44 121.5 -44c6 0 12.333 0.333008 19 1c31.333 90.667 47 172.667 47 246
c0 31.333 -3.33301 62.666 -10 93.999c-83.333 -8.66699 -139 -32.334 -167 -71.001c-10 -13.333 -15 -27 -15 -41s8.5 -29.5 25.5 -46.5s46.167 -29.167 87.5 -36.5c4.66699 -1.33301 5.33398 -3.5 2.00098 -6.5s-7.33301 -3.83301 -12 -2.5
c-44 13.333 -77.833 29.166 -101.5 47.499s-35.5 36.666 -35.5 54.999s7.5 36 22.5 53s39 31.833 72 44.5s71.167 21.334 114.5 26.001zM294.999 482.002c7.33301 -26 11.001 -55.667 11.001 -89c0 -72.667 -17.333 -156 -52 -250c13.333 2.66699 24.666 6 33.999 10
c18.667 56.667 34.167 117 46.5 181s18.833 113.333 19.5 148c-10.667 0.666992 -21 1 -31 1s-19.333 -0.333008 -28 -1zM197 23.002c6.66699 0 17.334 -0.667969 32.001 -2.00098c20 30.667 38.333 70.334 55 119.001c-8.66699 -2.66699 -20.334 -5.33398 -35.001 -8.00098
c-12.667 -35.333 -30 -71.666 -52 -108.999zM183 0.000976562h-1.00195c-7.33301 -12 -16.333 -24.333 -27 -37c18.667 0 38.334 12 59.001 36c-7.33301 0.666992 -17.666 1 -30.999 1zM260.998 18.001c45.333 -5.33301 81.499 -11.167 108.499 -17.5s44.333 -9.5 52 -9.5
s11.5 1.66699 11.5 5c0 5.33301 -9.66699 14 -29 26c-2.66699 2 -3 3.5 -1 4.5s4 1.16699 6 0.5c18 -7.33301 29.333 -17.333 34 -30c0.666992 -2.66699 1 -5 1 -7c0 -9.33301 -9 -14 -27 -14c-8.66699 0 -28.334 3 -59.001 9s-67.667 10.333 -111 13
c-28 -35.333 -53.667 -53 -77 -53c-8 0 -16.667 1.66699 -26 5c-46.667 -51.333 -90.667 -77 -132 -77c-16 0 -29.333 6 -40 18c-0.666992 1.33301 -1 2.66602 -1 3.99902s1 2.33301 3 3s3.33301 0.333984 4 -0.999023c8.66699 -11.333 20.5 -17 35.5 -17
s33.833 6.16699 56.5 18.5s44.334 30.833 65.001 55.5c-21.333 9.33301 -34.333 19.666 -39 30.999c-1.33301 5.33301 -0.333008 8 3 8s5.5 -0.666992 6.5 -2s2.5 -3.66602 4.5 -6.99902c6.66699 -10 17.667 -16.667 33 -20c10.667 12.667 19.334 24.667 26.001 36
c-94 -2 -141 -17.667 -141 -47c0 -6.66699 3.33301 -14.167 10 -22.5s13 -14.333 19 -18s6 -5.83398 0 -6.50098s-11 0.333008 -15 3c-27.333 18.667 -41 35.667 -41 51c0 42.667 57.333 64 172 64c4.66699 0 8 -0.333008 10 -1c18 30.667 34.333 66.334 49 107.001
c-5.33301 -0.666992 -10.666 -1 -15.999 -1c-47.333 0 -91.666 16.667 -132.999 50c-53.333 42 -80 111.333 -80 208c0 68.667 19.333 123 58 163c30 30.667 63.333 46 100 46c59.333 0 101.666 -30.667 126.999 -92h38c18.667 0 32 0.333008 40 1l16 15
c5.33301 4 9.66602 6 12.999 6c6.66699 0 10.334 -6.66699 11.001 -20c2.66699 0 6.66699 -0.333008 12 -1c64.667 -2.66699 97 -9.66699 97 -21c0 -4 -3.66699 -5.33301 -11 -4s-14 2 -20 2l-82 1c-16.667 -114 -40 -216.333 -70 -307c34 24 54.333 54 61 90
c0.666992 3.33301 2.16699 4 4.5 2s3.16602 -4 2.49902 -6c-10.667 -43.333 -35 -77 -73 -101c-20.667 -59.333 -42.667 -107 -66 -143zM335.997 616c-4 4 -6 10 -6 18s3 12 9 12c3.33301 0 8.33301 -2.66699 15 -8l84 -64c2.66699 -2 4 -4.33301 4 -7
c0 -4.66699 -2.66699 -7 -8 -7c-8 0 -40.667 18.667 -98 56z" />
    <glyph glyph-name="Iacute" unicode="&#xcd;" horiz-adv-x="504" 
d="M265 502c-21.333 57.333 -57.001 86.002 -107.001 86.002c-34 0 -65.667 -18 -95 -54s-44 -84.333 -44 -145c0 -18 1.33301 -37.333 4 -58c10 -69.333 33.833 -118.666 71.5 -147.999s78.167 -44 121.5 -44c6 0 12.333 0.333008 19 1c31.333 90.667 47 172.667 47 246
c0 31.333 -3.33301 62.666 -10 93.999c-83.333 -8.66699 -139 -32.334 -167 -71.001c-10 -13.333 -15 -27 -15 -41s8.5 -29.5 25.5 -46.5s46.167 -29.167 87.5 -36.5c4.66699 -1.33301 5.33398 -3.5 2.00098 -6.5s-7.33301 -3.83301 -12 -2.5
c-44 13.333 -77.833 29.166 -101.5 47.499s-35.5 36.666 -35.5 54.999s7.5 36 22.5 53s39 31.833 72 44.5s71.167 21.334 114.5 26.001zM294.999 482.002c7.33301 -26 11.001 -55.667 11.001 -89c0 -72.667 -17.333 -156 -52 -250c13.333 2.66699 24.666 6 33.999 10
c18.667 56.667 34.167 117 46.5 181s18.833 113.333 19.5 148c-10.667 0.666992 -21 1 -31 1s-19.333 -0.333008 -28 -1zM197 23.002c6.66699 0 17.334 -0.667969 32.001 -2.00098c20 30.667 38.333 70.334 55 119.001c-8.66699 -2.66699 -20.334 -5.33398 -35.001 -8.00098
c-12.667 -35.333 -30 -71.666 -52 -108.999zM183 0.000976562h-1.00195c-7.33301 -12 -16.333 -24.333 -27 -37c18.667 0 38.334 12 59.001 36c-7.33301 0.666992 -17.666 1 -30.999 1zM260.998 18.001c45.333 -5.33301 81.499 -11.167 108.499 -17.5s44.333 -9.5 52 -9.5
s11.5 1.66699 11.5 5c0 5.33301 -9.66699 14 -29 26c-2.66699 2 -3 3.5 -1 4.5s4 1.16699 6 0.5c18 -7.33301 29.333 -17.333 34 -30c0.666992 -2.66699 1 -5 1 -7c0 -9.33301 -9 -14 -27 -14c-8.66699 0 -28.334 3 -59.001 9s-67.667 10.333 -111 13
c-28 -35.333 -53.667 -53 -77 -53c-8 0 -16.667 1.66699 -26 5c-46.667 -51.333 -90.667 -77 -132 -77c-16 0 -29.333 6 -40 18c-0.666992 1.33301 -1 2.66602 -1 3.99902s1 2.33301 3 3s3.33301 0.333984 4 -0.999023c8.66699 -11.333 20.5 -17 35.5 -17
s33.833 6.16699 56.5 18.5s44.334 30.833 65.001 55.5c-21.333 9.33301 -34.333 19.666 -39 30.999c-1.33301 5.33301 -0.333008 8 3 8s5.5 -0.666992 6.5 -2s2.5 -3.66602 4.5 -6.99902c6.66699 -10 17.667 -16.667 33 -20c10.667 12.667 19.334 24.667 26.001 36
c-94 -2 -141 -17.667 -141 -47c0 -6.66699 3.33301 -14.167 10 -22.5s13 -14.333 19 -18s6 -5.83398 0 -6.50098s-11 0.333008 -15 3c-27.333 18.667 -41 35.667 -41 51c0 42.667 57.333 64 172 64c4.66699 0 8 -0.333008 10 -1c18 30.667 34.333 66.334 49 107.001
c-5.33301 -0.666992 -10.666 -1 -15.999 -1c-47.333 0 -91.666 16.667 -132.999 50c-53.333 42 -80 111.333 -80 208c0 68.667 19.333 123 58 163c30 30.667 63.333 46 100 46c59.333 0 101.666 -30.667 126.999 -92h38c18.667 0 32 0.333008 40 1l16 15
c5.33301 4 9.66602 6 12.999 6c6.66699 0 10.334 -6.66699 11.001 -20c2.66699 0 6.66699 -0.333008 12 -1c64.667 -2.66699 97 -9.66699 97 -21c0 -4 -3.66699 -5.33301 -11 -4s-14 2 -20 2l-82 1c-16.667 -114 -40 -216.333 -70 -307c34 24 54.333 54 61 90
c0.666992 3.33301 2.16699 4 4.5 2s3.16602 -4 2.49902 -6c-10.667 -43.333 -35 -77 -73 -101c-20.667 -59.333 -42.667 -107 -66 -143zM429.497 608l41 30.501c7 5 16 7.5 27 7.5s16.5 -4.33301 16.5 -13c0 -2 -1.16699 -5 -3.5 -9s-22 -14.667 -59 -32
s-57.5 -26 -61.5 -26s-6 1.16699 -6 3.5s0.333008 4.16602 1 5.49902z" />
    <glyph glyph-name="Icircumflex" unicode="&#xce;" horiz-adv-x="504" 
d="M265 502c-21.333 57.333 -57.001 86.002 -107.001 86.002c-34 0 -65.667 -18 -95 -54s-44 -84.333 -44 -145c0 -18 1.33301 -37.333 4 -58c10 -69.333 33.833 -118.666 71.5 -147.999s78.167 -44 121.5 -44c6 0 12.333 0.333008 19 1c31.333 90.667 47 172.667 47 246
c0 31.333 -3.33301 62.666 -10 93.999c-83.333 -8.66699 -139 -32.334 -167 -71.001c-10 -13.333 -15 -27 -15 -41s8.5 -29.5 25.5 -46.5s46.167 -29.167 87.5 -36.5c4.66699 -1.33301 5.33398 -3.5 2.00098 -6.5s-7.33301 -3.83301 -12 -2.5
c-44 13.333 -77.833 29.166 -101.5 47.499s-35.5 36.666 -35.5 54.999s7.5 36 22.5 53s39 31.833 72 44.5s71.167 21.334 114.5 26.001zM294.999 482.002c7.33301 -26 11.001 -55.667 11.001 -89c0 -72.667 -17.333 -156 -52 -250c13.333 2.66699 24.666 6 33.999 10
c18.667 56.667 34.167 117 46.5 181s18.833 113.333 19.5 148c-10.667 0.666992 -21 1 -31 1s-19.333 -0.333008 -28 -1zM197 23.002c6.66699 0 17.334 -0.667969 32.001 -2.00098c20 30.667 38.333 70.334 55 119.001c-8.66699 -2.66699 -20.334 -5.33398 -35.001 -8.00098
c-12.667 -35.333 -30 -71.666 -52 -108.999zM183 0.000976562h-1.00195c-7.33301 -12 -16.333 -24.333 -27 -37c18.667 0 38.334 12 59.001 36c-7.33301 0.666992 -17.666 1 -30.999 1zM260.998 18.001c45.333 -5.33301 81.499 -11.167 108.499 -17.5s44.333 -9.5 52 -9.5
s11.5 1.66699 11.5 5c0 5.33301 -9.66699 14 -29 26c-2.66699 2 -3 3.5 -1 4.5s4 1.16699 6 0.5c18 -7.33301 29.333 -17.333 34 -30c0.666992 -2.66699 1 -5 1 -7c0 -9.33301 -9 -14 -27 -14c-8.66699 0 -28.334 3 -59.001 9s-67.667 10.333 -111 13
c-28 -35.333 -53.667 -53 -77 -53c-8 0 -16.667 1.66699 -26 5c-46.667 -51.333 -90.667 -77 -132 -77c-16 0 -29.333 6 -40 18c-0.666992 1.33301 -1 2.66602 -1 3.99902s1 2.33301 3 3s3.33301 0.333984 4 -0.999023c8.66699 -11.333 20.5 -17 35.5 -17
s33.833 6.16699 56.5 18.5s44.334 30.833 65.001 55.5c-21.333 9.33301 -34.333 19.666 -39 30.999c-1.33301 5.33301 -0.333008 8 3 8s5.5 -0.666992 6.5 -2s2.5 -3.66602 4.5 -6.99902c6.66699 -10 17.667 -16.667 33 -20c10.667 12.667 19.334 24.667 26.001 36
c-94 -2 -141 -17.667 -141 -47c0 -6.66699 3.33301 -14.167 10 -22.5s13 -14.333 19 -18s6 -5.83398 0 -6.50098s-11 0.333008 -15 3c-27.333 18.667 -41 35.667 -41 51c0 42.667 57.333 64 172 64c4.66699 0 8 -0.333008 10 -1c18 30.667 34.333 66.334 49 107.001
c-5.33301 -0.666992 -10.666 -1 -15.999 -1c-47.333 0 -91.666 16.667 -132.999 50c-53.333 42 -80 111.333 -80 208c0 68.667 19.333 123 58 163c30 30.667 63.333 46 100 46c59.333 0 101.666 -30.667 126.999 -92h38c18.667 0 32 0.333008 40 1l16 15
c5.33301 4 9.66602 6 12.999 6c6.66699 0 10.334 -6.66699 11.001 -20c2.66699 0 6.66699 -0.333008 12 -1c64.667 -2.66699 97 -9.66699 97 -21c0 -4 -3.66699 -5.33301 -11 -4s-14 2 -20 2l-82 1c-16.667 -114 -40 -216.333 -70 -307c34 24 54.333 54 61 90
c0.666992 3.33301 2.16699 4 4.5 2s3.16602 -4 2.49902 -6c-10.667 -43.333 -35 -77 -73 -101c-20.667 -59.333 -42.667 -107 -66 -143zM303.997 549c-5.33301 -1.33301 -7.99902 -1.16602 -7.99902 0.500977s0.166992 2.5 0.5 2.5s0.5 0.333008 0.5 1l122 86
c10 1.33301 17.667 2 23 2s8 -0.666992 8 -2l30 -86c0 -2.66699 -0.666992 -4.33398 -2 -5.00098c-8 0 -13 1.66699 -15 5l-37 58l-108 -58c-2.66699 -2.66699 -7.33398 -4 -14.001 -4z" />
    </font>
</defs>
</svg>
